<?xml version="1.0" encoding="UTF-8"?><svg id="symbole_neu_2026" xmlns="http://www.w3.org/2000/svg" viewBox="0 0 170.0787353516 170.0787353516"><defs><style>.cls-1{fill:#1d1d1b;}</style></defs><path class="cls-1" d="M110.7930908203,102.3210449219c0-.4770507812.38671875-.8637695312.8637084961-.8637695312.4770507812,0,.8637695312.38671875.8637695312.8637695312,0,.4769897461-.38671875.8637084961-.8637695312.8637084961-.4769897461,0-.8637084961-.38671875-.8637084961-.8637084961ZM113.9772949219,101.4513549805c.4770507812,0,.8637695312-.38671875.8637695312-.8637695312s-.38671875-.8637084961-.8637695312-.8637084961-.8637695312.3866577148-.8637695312.8637084961.38671875.8637695312.8637695312.8637695312ZM111.6567993164,99.717956543c.4770507812,0,.8637695312-.38671875.8637695312-.8637695312s-.38671875-.8637695312-.8637695312-.8637695312c-.4769897461,0-.8637084961.38671875-.8637084961.8637695312s.38671875.8637695312.8637084961.8637695312ZM111.6567993164,96.2510986328c.4770507812,0,.8637695312-.38671875.8637695312-.8637695312s-.38671875-.8637695312-.8637695312-.8637695312c-.4769897461,0-.8637084961.38671875-.8637084961.8637695312s.38671875.8637695312.8637084961.8637695312ZM111.6567993164,92.7842407227c.4770507812,0,.8637695312-.38671875.8637695312-.8637695312s-.38671875-.8637695312-.8637695312-.8637695312c-.4769897461,0-.8637084961.38671875-.8637084961.8637695312s.38671875.8637695312.8637084961.8637695312ZM111.6567993164,89.3173828125c.4770507812,0,.8637695312-.38671875.8637695312-.8637695312s-.38671875-.8637695312-.8637695312-.8637695312c-.4769897461,0-.8637084961.38671875-.8637084961.8637695312s.38671875.8637695312.8637084961.8637695312ZM109.3363647461,103.1906738281c-.4770507812,0-.8637695312.38671875-.8637695312.8637695312s.38671875.8637695312.8637695312.8637695312c.4769897461,0,.8637084961-.38671875.8637084961-.8637695312s-.38671875-.8637695312-.8637084961-.8637695312ZM109.3363647461,99.7238769531c-.4770507812,0-.8637695312.3866577148-.8637695312.8637084961s.38671875.8637695312.8637695312.8637695312c.4769897461,0,.8637084961-.38671875.8637084961-.8637695312s-.38671875-.8637084961-.8637084961-.8637084961ZM107.0158691406,97.9904174805c-.4770507812,0-.8637695312.38671875-.8637695312.8637695312s.38671875.8637695312.8637695312.8637695312.8637695312-.38671875.8637695312-.8637695312-.38671875-.8637695312-.8637695312-.8637695312ZM109.3363647461,96.257019043c-.4770507812,0-.8637695312.38671875-.8637695312.8637084961,0,.4770507812.38671875.8637695312.8637695312.8637695312.4769897461,0,.8637084961-.38671875.8637084961-.8637695312,0-.4769897461-.38671875-.8637084961-.8637084961-.8637084961ZM109.3363647461,92.7901611328c-.4770507812,0-.8637695312.38671875-.8637695312.8637084961,0,.4770507812.38671875.8637695312.8637695312.8637695312.4769897461,0,.8637084961-.38671875.8637084961-.8637695312,0-.4769897461-.38671875-.8637084961-.8637084961-.8637084961ZM107.0158691406,91.0567016602c-.4770507812,0-.8637695312.38671875-.8637695312.8637695312s.38671875.8637695312.8637695312.8637695312.8637695312-.38671875.8637695312-.8637695312-.38671875-.8637695312-.8637695312-.8637695312ZM109.3363647461,89.3233032227c-.4770507812,0-.8637695312.38671875-.8637695312.8637695312,0,.4769897461.38671875.8637084961.8637695312.8637084961.4769897461,0,.8637084961-.38671875.8637084961-.8637084961,0-.4770507812-.38671875-.8637695312-.8637084961-.8637695312ZM109.3363647461,85.8564453125c-.4770507812,0-.8637695312.38671875-.8637695312.8637695312s.38671875.8637084961.8637695312.8637084961c.4769897461,0,.8637084961-.3866577148.8637084961-.8637084961s-.38671875-.8637695312-.8637084961-.8637695312ZM109.3363647461,82.3895874023c-.4770507812,0-.8637695312.38671875-.8637695312.8637695312s.38671875.8637695312.8637695312.8637695312c.4769897461,0,.8637084961-.38671875.8637084961-.8637695312s-.38671875-.8637695312-.8637084961-.8637695312ZM109.3363647461,78.9227294922c-.4770507812,0-.8637695312.38671875-.8637695312.8637695312s.38671875.8637695312.8637695312.8637695312c.4769897461,0,.8637084961-.38671875.8637084961-.8637695312s-.38671875-.8637695312-.8637084961-.8637695312ZM107.0158691406,94.5235595703c-.4770507812,0-.8637695312.38671875-.8637695312.8637695312s.38671875.8637695312.8637695312.8637695312.8637695312-.38671875.8637695312-.8637695312-.38671875-.8637695312-.8637695312-.8637695312ZM104.6953735352,96.257019043c-.4769897461,0-.8637084961.38671875-.8637084961.8637084961,0,.4770507812.38671875.8637695312.8637084961.8637695312.4770507812,0,.8637695312-.38671875.8637695312-.8637695312,0-.4769897461-.38671875-.8637084961-.8637695312-.8637084961ZM104.6953735352,92.7901611328c-.4769897461,0-.8637084961.38671875-.8637084961.8637084961,0,.4770507812.38671875.8637695312.8637084961.8637695312.4770507812,0,.8637695312-.38671875.8637695312-.8637695312,0-.4769897461-.38671875-.8637084961-.8637695312-.8637084961ZM102.3749389648,91.0567016602c-.4770507812,0-.8637695312.38671875-.8637695312.8637695312s.38671875.8637695312.8637695312.8637695312c.4769897461,0,.8637084961-.38671875.8637084961-.8637695312s-.38671875-.8637695312-.8637084961-.8637695312ZM107.0158691406,87.58984375c-.4770507812,0-.8637695312.38671875-.8637695312.8637695312s.38671875.8637695312.8637695312.8637695312.8637695312-.38671875.8637695312-.8637695312-.38671875-.8637695312-.8637695312-.8637695312ZM104.6953735352,89.3233032227c-.4769897461,0-.8637084961.38671875-.8637084961.8637695312,0,.4769897461.38671875.8637084961.8637084961.8637084961.4770507812,0,.8637695312-.38671875.8637695312-.8637084961,0-.4770507812-.38671875-.8637695312-.8637695312-.8637695312ZM104.6953735352,85.8564453125c-.4769897461,0-.8637084961.38671875-.8637084961.8637695312s.38671875.8637084961.8637084961.8637084961c.4770507812,0,.8637695312-.3866577148.8637695312-.8637084961s-.38671875-.8637695312-.8637695312-.8637695312ZM107.0158691406,84.123046875c-.4770507812,0-.8637695312.38671875-.8637695312.8637084961,0,.4770507812.38671875.8637695312.8637695312.8637695312s.8637695312-.38671875.8637695312-.8637695312c0-.4769897461-.38671875-.8637084961-.8637695312-.8637084961ZM102.3749389648,87.58984375c-.4770507812,0-.8637695312.38671875-.8637695312.8637695312s.38671875.8637695312.8637695312.8637695312c.4769897461,0,.8637084961-.38671875.8637084961-.8637695312s-.38671875-.8637695312-.8637084961-.8637695312ZM124.28515625,103.7325439453c0,.83203125-.265625,2.08984375-1.5361328125,3.3583984375l-9.349609375,9.3349609375-3.1255493164-4.3041381836-.0004272461.0004272461-13.7783203125-18.9716186523-11.983215332,7.9587402344,4.723449707,8.0372924805-4.3852539062,8.6484375-11.3176879883-11.8897705078-6.6627807617.9366455078.938293457-6.6518554688-11.9119262695-11.3032226562,8.6640625-4.3784179688,8.0330810547,4.7055664062,7.9862060547-11.9533081055-16.5397949219-11.9749145508-.1842041016-.1333618164-2.2767333984-1.6483764648-4.3100585938-3.1206054688,9.353515625-9.3393554688c1.91796875-1.916015625,4.4580078125-2.0556640625,6.1772460938-.3393554688.771484375.7700195312,1.1962890625,1.7705078125,1.1962890625,2.8173828125,0,.5335693359-.1136474609,1.2430419922-.5270385742,2.0171508789l2.1944580078.4603271484,3.1094360352-3.1049194336c1.9194335938-1.9130859375,4.458984375-2.0546875,6.177734375-.3393554688.771484375.7700195312,1.1962890625,1.7709960938,1.1962890625,2.8173828125,0,.6723632812-.1842041016,1.6237792969-.9212036133,2.6326904297l2.0110473633.4218139648,3.1474609375-3.1428833008c1.919921875-1.9169921875,4.4599609375-2.0541992188,6.1767578125-.3393554688.771484375.76953125,1.1962890625,1.76953125,1.1962890625,2.81640625,0,.6812744141-.1881713867,1.6494140625-.9501953125,2.6733398438l3.1696166992.664855957c5.9357910156-4.3471679688,11.8956298828-7.7747192383,21.2688598633-10.3977661133l2.5693359375-.7192382812-.720703125,2.5688476562c-2.6332397461,9.3793945312-6.0769042969,15.3366088867-10.4135742188,21.2366943359l.6657104492,3.1636962891c1.8088989258-1.3360595703,3.9742431641-1.2790527344,5.496887207.2392578125.771484375.7709960938,1.1962890625,1.771484375,1.1962890625,2.818359375,0,.83203125-.267578125,2.08984375-1.537109375,3.3569335938l-3.1454467773,3.1404418945.4217529297,2.0040893555c1.80078125-1.3082885742,3.9465942383-1.236328125,5.4580688477.2734375.7705078125.76953125,1.1953125,1.7705078125,1.1953125,2.81640625,0,.83203125-.265625,2.08984375-1.5361328125,3.3583984375l-3.1074829102,3.1025390625.4641723633,2.2059326172c1.6567993164-.8847045898,3.4966430664-.6909179688,4.8376464844.6485595703.7705078125.76953125,1.1953125,1.7705078125,1.1953125,2.81640625ZM116.4970703125,91.9268188477l.5538330078,2.6319580078,1.7254638672-1.7227172852c.4228515625-.421875.6552734375-.8603515625.6552734375-1.234375,0-.251953125-.1064453125-.4853515625-.3154296875-.6943359375-.6962890625-.697265625-1.513671875-.0849609375-1.9384765625.33984375l-.6806640625.6796264648ZM114.0654907227,80.3715209961l.553894043,2.6321411133,1.7634277344-1.7608642578c.4228515625-.4223632812.65625-.8603515625.65625-1.2338867188,0-.2514648438-.1064453125-.4853515625-.3154296875-.6943359375-.69921875-.6958007812-1.5146484375-.0849609375-1.939453125.3393554688l-.7186889648.717590332ZM110.9895019531,57.7794189453l3.1833496094,1.8286132812,1.8350219727,3.1845703125c1.2496948242-2.4951782227,2.3848266602-5.2373657227,3.4042358398-8.4111328125-3.1765136719,1.0167236328-5.921875,2.1491699219-8.4226074219,3.3979492188ZM105.4844970703,60.932800293l4.6727294922,2.6845092773,2.692565918,4.6723022461c.5083007812-.7828369141,1.0012817383-1.5810546875,1.4798583984-2.4001464844l-2.3521118164-4.083190918-4.0915527344-2.3498535156c-.8189697266.4771118164-1.6176757812.9689941406-2.4014892578,1.4763793945ZM90.7446289062,59.1630859375l2.6359863281.5529785156.7209472656-.7198486328c.4228515625-.4223632812.6552734375-.8608398438.6552734375-1.234375,0-.2514648438-.10546875-.484375-.3154296875-.693359375-.6943359375-.6948242188-1.5126953125-.0859375-1.9384765625.3388671875l-1.7583007812,1.7557373047ZM79.171875,56.7355957031l2.6358642578.5529174805.6824951172-.6814575195c.4233398438-.4223632812.65625-.8603515625.65625-1.234375,0-.2514648438-.1064453125-.4853515625-.3159179688-.6943359375-.6962890625-.6948242188-1.5131835938-.0854492188-1.9384765625.3393554688l-1.7202148438,1.7178955078ZM70.2348632812,54.8609619141l.0006713867.0001220703.1047973633-.1046142578c.4223632812-.421875.6552734375-.8603515625.6552734375-1.234375,0-.2514648438-.1064453125-.4853515625-.3159179688-.6943359375-.6953125-.6948242188-1.5126953125-.0859375-1.9379882812.3393554688l-6.8618164062,6.8510742188,1.8490600586,1.3388061523,6.5059204102-6.4960327148ZM82.5826416016,75.0073242188l.3870849609-.3104248047c-.005065918-.0378417969-.0223388672-.0714111328-.0223388672-.1106567383,0-.4770507812.38671875-.8637695312.8637084961-.8637695312.1058959961,0,.2047729492.025390625.2985229492.0602416992l1.1583862305-.9289550781c0-.0003662109-.0001831055-.0006103516-.0001831055-.0009765625,0-.4770507812.38671875-.8637084961.8637695312-.8637084961.0607910156,0,.1141967773.022644043.1714477539.0346069336l1.3157348633-1.0551147461c.0736694336-.4022827148.4097900391-.7129516602.8333129883-.7129516602.0158081055,0,.0289306641.0081176758.0444946289.008972168l1.4733886719-1.1815795898c.1069946289-.2830810547.3585205078-.481628418.6644897461-.5328979492l1.8088378906-1.4506225586.2466430664-.1977539062,4.2155151367-3.3807373047-1.2297973633-.2579345703c-.0839233398.0272216797-.169128418.0529174805-.2621459961.0529174805-.22265625,0-.4211425781-.0900268555-.5742797852-.2283935547l-3.2106323242-.6734619141c.0006103516.0133666992.0076904297.024597168.0076904297.0381469727,0,.4769897461-.38671875.8637084961-.8637695312.8637084961-.4769897461,0-.8637084961-.38671875-.8637084961-.8637084961,0-.1376953125.0391235352-.2630615234.0964355469-.3786010742l-5.3762207031-1.127746582c-.1015014648.364074707-.4214477539.6366577148-.8179321289.6366577148-.4769897461,0-.8637084961-.38671875-.8637084961-.8637695312,0-.0427246094.018371582-.0794067383.0243530273-.1204833984l-5.4204101562-1.1369628906c-.1553955078.2283325195-.4046020508.3877563477-.7016601562.3877563477-.4223022461,0-.7575073242-.3090209961-.8325805664-.7095947266l-3.1235961914-.6552124023c.1048583984.1430053711.1790161133.3102416992.1790161133.5010986328,0,.4770507812-.38671875.8637084961-.8637695312.8637084961s-.8637695312-.3866577148-.8637695312-.8637084961c0-.3181762695.1801757812-.5844726562.4362792969-.734375l-.5747070312-.1205444336-3.4931640625,3.4873657227c.4048461914.0715942383.7182006836.408996582.7182006836.8344116211,0,.4769897461-.38671875.8637084961-.8637695312.8637084961-.4259033203,0-.763671875-.3139648438-.8346557617-.7194824219l-.5432128906.5422973633,16.3927001953,11.8685302734ZM68.8793945312,97.0704345703l2.26953125-5.2255859375-6.6943359375-3.921875-3.4033203125,1.7197265625,7.828125,7.427734375ZM81.8904418945,102.5689697266l-5.2346801758,2.2661743164,7.439453125,7.8153686523,1.72265625-3.3984375-3.9274291992-6.6831054688ZM109.9052734375,72.5006103516c.3621826172-.4865722656.716003418-.973815918,1.0656738281-1.4624023438l-3.0090332031-5.22265625-5.2327880859-3.0057983398c-.5053710938.3604125977-1.0094604492.7254638672-1.5133056641,1.0995483398l-17.4682617188,14.0087890625-9.3706054688,14.0263671875-3.5185546875,8.1005859375-.4614257812,3.271484375,3.2803955078-.4608764648,1.4253540039-.6171264648,6.6887817383-2.8966064453,14.0493164062-9.3564453125,14.064453125-17.4848632812ZM111.5322875977,106.6264648438c-.4153442383-.0626831055-.7391967773-.4057617188-.7391967773-.8385620117,0-.4770507812.38671875-.8637695312.8637084961-.8637695312.4332885742,0,.7767333984.3244018555.8388671875.7404174805l.9484863281-.9469604492c-.1967773438-.1583251953-.3306274414-.3908691406-.3306274414-.6631469727,0-.4770507812.38671875-.8637695312.8637695312-.8637695312.2727050781,0,.5055541992.1343383789.6638793945.3317260742l.8630371094-.8616943359c-.0447387695-.1043701172-.0701904297-.2189331055-.0701904297-.3396606445,0-.1414794922.0420532227-.26953125.102355957-.3873901367l-.8993530273-4.2747192383c-.1583862305.1940917969-.3897094727.3255615234-.6597290039.3255615234-.4770507812,0-.8637695312-.38671875-.8637695312-.8637695312,0-.4769897461.38671875-.8637084961.8637695312-.8637084961.1409301758,0,.2686157227.0416870117.3861083984.1015014648l-.3873901367-1.8411254883c-.4763793945-.0007324219-.862487793-.3869628906-.862487793-.8635253906,0-.352355957.2125854492-.653137207.5151367188-.7874755859l-1.5084838867-7.1694335938c-.1358032227.0889892578-.2888793945.1535644531-.4633789062.1535644531-.4769897461,0-.8637084961-.38671875-.8637084961-.8637695312,0-.4769897461.38671875-.8637084961.8637084961-.8637084961.0489501953,0,.0913085938.0200805664.1380615234.0278930664l-.3822021484-1.8165283203c-.3555297852-.1069335938-.6195678711-.4240722656-.6195678711-.8145141602,0-.2638549805.1249389648-.4916992188.3114624023-.6501464844l-.8464355469-4.0228881836-3.089050293,3.8402709961c.4011230469.0747070312.7105712891.4100952148.7105712891.8327636719,0,.4770507812-.38671875.8637695312-.8637695312.8637695312-.3552246094,0-.6591796875-.2151489258-.7918701172-.5216064453l-.7855834961.9766235352c.0700683594.1248168945.1207275391.2613525391.1207275391.4146728516,0,.4770507812-.38671875.8637695312-.8637695312.8637695312-.0870361328,0-.1661376953-.0255737305-.2454223633-.0495605469l-4.2510986328,5.2849121094c.405456543.0710449219.7193603516.4087524414.7193603516.8345947266,0,.4769897461-.38671875.8637084961-.8637695312.8637084961-.3582763672,0-.6654052734-.2182006836-.7962036133-.5289306641l-.5064086914.6295776367,1.2045288086,1.6585083008c.0336914062-.0039672852.063293457-.0197753906.0980834961-.0197753906.4770507812,0,.8637695312.38671875.8637695312.8637084961,0,.1306762695-.0336914062.2515258789-.0856323242.3625488281l.748840332,1.0311279297c.132019043-.3078613281.4372558594-.5239868164.7935180664-.5239868164.4769897461,0,.8637084961.38671875.8637084961.8637695312,0,.4521484375-.3510742188.8120727539-.7934570312.849609375l2.5809326172,3.5537109375c.2857666016.1187133789.481628418.389831543.5153808594.7096557617l.8737792969,1.2030639648c.1555786133-.151184082.3665161133-.24609375.6005859375-.24609375.4770507812,0,.8637695312.38671875.8637695312.8637695312,0,.3316040039-.1930541992.6104736328-.4672851562.7552490234l3.2262573242,4.4422607422.8936767578-.8920898438ZM121.28515625,103.7335205078c0-.251953125-.1064453125-.4853515625-.3154296875-.6943359375-.697265625-.6962890625-1.513671875-.0859375-1.9384765625.33984375l-.102722168.1026000977.0001831055.0009155273-6.3611450195,6.3496704102-.1447143555.1444702148,1.341796875,1.845703125,6.865234375-6.8544921875c.4228515625-.421875.6552734375-.8603515625.6552734375-1.234375ZM88.4520874023,68.5162963867c.4770507812,0,.8637084961-.38671875.8637084961-.8637695312s-.3866577148-.8637695312-.8637084961-.8637695312-.8637695312.38671875-.8637695312.8637695312.38671875.8637695312.8637695312.8637695312ZM93.0930175781,65.0494384766c.4770507812,0,.8637695312-.38671875.8637695312-.8637695312s-.38671875-.8637695312-.8637695312-.8637695312-.8637695312.38671875-.8637695312.8637695312.38671875.8637695312.8637695312.8637695312ZM90.7725219727,66.7828369141c.4770507812,0,.8637695312-.38671875.8637695312-.8637695312,0-.4769897461-.38671875-.8637084961-.8637695312-.8637084961-.4769897461,0-.8637084961.38671875-.8637084961.8637084961,0,.4770507812.38671875.8637695312.8637084961.8637695312ZM83.8110961914,71.9831542969c.4770507812,0,.8637695312-.38671875.8637695312-.8637695312s-.38671875-.8637695312-.8637695312-.8637695312c-.4769897461,0-.8637084961.38671875-.8637084961.8637695312s.38671875.8637695312.8637084961.8637695312ZM86.1315917969,70.2496948242c.4770507812,0,.8637695312-.38671875.8637695312-.8637695312,0-.4769897461-.38671875-.8637084961-.8637695312-.8637084961s-.8637695312.38671875-.8637695312.8637084961c0,.4770507812.38671875.8637695312.8637695312.8637695312ZM83.8110961914,68.5162963867c.4770507812,0,.8637695312-.38671875.8637695312-.8637695312s-.38671875-.8637695312-.8637695312-.8637695312c-.4769897461,0-.8637084961.38671875-.8637084961.8637695312s.38671875.8637695312.8637084961.8637695312ZM88.4520874023,65.0494384766c.4770507812,0,.8637084961-.38671875.8637084961-.8637695312s-.3866577148-.8637695312-.8637084961-.8637695312-.8637695312.38671875-.8637695312.8637695312.38671875.8637695312.8637695312.8637695312ZM86.1315917969,66.7828369141c.4770507812,0,.8637695312-.38671875.8637695312-.8637695312,0-.4769897461-.38671875-.8637084961-.8637695312-.8637084961s-.8637695312.38671875-.8637695312.8637084961c0,.4770507812.38671875.8637695312.8637695312.8637695312ZM83.8110961914,65.0494384766c.4770507812,0,.8637695312-.38671875.8637695312-.8637695312s-.38671875-.8637695312-.8637695312-.8637695312c-.4769897461,0-.8637084961.38671875-.8637084961.8637695312s.38671875.8637695312.8637084961.8637695312ZM86.1315917969,63.3159790039c.4770507812,0,.8637695312-.38671875.8637695312-.8637084961,0-.4770507812-.38671875-.8637695312-.8637695312-.8637695312s-.8637695312.38671875-.8637695312.8637695312c0,.4769897461.38671875.8637084961.8637695312.8637084961ZM81.4906616211,71.989074707c-.4770507812,0-.8637695312.3866577148-.8637695312.8637084961s.38671875.8637695312.8637695312.8637695312.8637084961-.38671875.8637084961-.8637695312-.3866577148-.8637084961-.8637084961-.8637084961ZM81.4906616211,68.5222167969c-.4770507812,0-.8637695312.38671875-.8637695312.8637084961,0,.4770507812.38671875.8637695312.8637695312.8637695312s.8637084961-.38671875.8637084961-.8637695312c0-.4769897461-.3866577148-.8637084961-.8637084961-.8637084961ZM79.1701660156,66.7887573242c-.4770507812,0-.8637695312.38671875-.8637695312.8637695312s.38671875.8637695312.8637695312.8637695312.8637695312-.38671875.8637695312-.8637695312-.38671875-.8637695312-.8637695312-.8637695312ZM81.4906616211,65.0553588867c-.4770507812,0-.8637695312.38671875-.8637695312.8637084961,0,.4770507812.38671875.8637695312.8637695312.8637695312s.8637084961-.38671875.8637084961-.8637695312c0-.4769897461-.3866577148-.8637084961-.8637084961-.8637084961ZM79.1701660156,63.3218994141c-.4770507812,0-.8637695312.38671875-.8637695312.8637695312s.38671875.8637695312.8637695312.8637695312.8637695312-.38671875.8637695312-.8637695312-.38671875-.8637695312-.8637695312-.8637695312ZM81.4906616211,61.5885009766c-.4770507812,0-.8637695312.38671875-.8637695312.8637695312,0,.4769897461.38671875.8637084961.8637695312.8637084961s.8637084961-.38671875.8637084961-.8637084961c0-.4770507812-.3866577148-.8637695312-.8637084961-.8637695312ZM79.1701660156,70.2556152344c-.4770507812,0-.8637695312.38671875-.8637695312.8637695312s.38671875.8637695312.8637695312.8637695312.8637695312-.38671875.8637695312-.8637695312-.38671875-.8637695312-.8637695312-.8637695312ZM76.8496704102,68.5222167969c-.4769897461,0-.8637084961.38671875-.8637084961.8637084961,0,.4770507812.38671875.8637695312.8637084961.8637695312.4770507812,0,.8637695312-.38671875.8637695312-.8637695312,0-.4769897461-.38671875-.8637084961-.8637695312-.8637084961ZM76.8496704102,65.0553588867c-.4769897461,0-.8637084961.38671875-.8637084961.8637084961,0,.4770507812.38671875.8637695312.8637084961.8637695312.4770507812,0,.8637695312-.38671875.8637695312-.8637695312,0-.4769897461-.38671875-.8637084961-.8637695312-.8637084961ZM79.1701660156,59.8550415039c-.4770507812,0-.8637695312.38671875-.8637695312.8637695312s.38671875.8637695312.8637695312.8637695312.8637695312-.38671875.8637695312-.8637695312-.38671875-.8637695312-.8637695312-.8637695312ZM76.8496704102,61.5885009766c-.4769897461,0-.8637084961.38671875-.8637084961.8637695312,0,.4769897461.38671875.8637084961.8637084961.8637084961.4770507812,0,.8637695312-.38671875.8637695312-.8637084961,0-.4770507812-.38671875-.8637695312-.8637695312-.8637695312ZM74.5292358398,66.7887573242c-.4770507812,0-.8637695312.38671875-.8637695312.8637695312s.38671875.8637695312.8637695312.8637695312.8637084961-.38671875.8637084961-.8637695312-.3866577148-.8637695312-.8637084961-.8637695312ZM74.5292358398,63.3218994141c-.4770507812,0-.8637695312.38671875-.8637695312.8637695312s.38671875.8637695312.8637695312.8637695312.8637084961-.38671875.8637084961-.8637695312-.3866577148-.8637695312-.8637084961-.8637695312ZM72.2087402344,65.0553588867c-.4770507812,0-.8637695312.38671875-.8637695312.8637084961,0,.4770507812.38671875.8637695312.8637695312.8637695312s.8637695312-.38671875.8637695312-.8637695312c0-.4769897461-.38671875-.8637084961-.8637695312-.8637084961ZM74.5292358398,59.8550415039c-.4770507812,0-.8637695312.38671875-.8637695312.8637695312s.38671875.8637695312.8637695312.8637695312.8637084961-.38671875.8637084961-.8637695312-.3866577148-.8637695312-.8637084961-.8637695312ZM72.2087402344,61.5885009766c-.4770507812,0-.8637695312.38671875-.8637695312.8637695312,0,.4769897461.38671875.8637084961.8637695312.8637084961s.8637695312-.38671875.8637695312-.8637084961c0-.4770507812-.38671875-.8637695312-.8637695312-.8637695312ZM69.8882446289,63.3218994141c-.4769897461,0-.8637084961.38671875-.8637084961.8637695312s.38671875.8637695312.8637084961.8637695312c.4770507812,0,.8637695312-.38671875.8637695312-.8637695312s-.38671875-.8637695312-.8637695312-.8637695312ZM69.8882446289,59.8550415039c-.4769897461,0-.8637084961.38671875-.8637084961.8637695312s.38671875.8637695312.8637084961.8637695312c.4770507812,0,.8637695312-.38671875.8637695312-.8637695312s-.38671875-.8637695312-.8637695312-.8637695312ZM43.0131835938,128.4552001953l2.119140625,2.123046875,20.0556640625-20.0234375-2.119140625-2.123046875-20.0556640625,20.0234375ZM52.9423828125,130.3126220703l2.1201171875,2.123046875,9.6748046875-9.66015625-2.1201171875-2.123046875-9.6748046875,9.66015625ZM53.8994140625,111.1407470703l-2.1201171875-2.123046875-10.1328125,10.1171875,2.1201171875,2.123046875,10.1328125-10.1171875Z"/></svg>