<?xml version="1.0" encoding="UTF-8"?><svg id="symbole_neu_2026" xmlns="http://www.w3.org/2000/svg" viewBox="0 0 170.0787353516 170.0787353516"><defs><style>.cls-1{fill:#1d1d1b;}</style></defs><path class="cls-1" d="M121.7893676758,94.3788452148c0,.2713012695-.1260986328.5067749023-.3159790039.671875h-1.1688232422c-.1898803711-.1651000977-.3159790039-.4005737305-.3159790039-.671875,0-.4973144531.403137207-.900390625.900390625-.900390625s.900390625.4030761719.900390625.900390625ZM118.4700927734,91.6714477539c-.4973144531,0-.900390625.403137207-.900390625.900390625,0,.4973144531.4030761719.900390625.900390625.900390625.497253418,0,.900390625-.4030761719.900390625-.900390625,0-.497253418-.403137207-.900390625-.900390625-.900390625ZM120.8889770508,89.8645019531c-.497253418,0-.900390625.403137207-.900390625.900390625,0,.4973144531.403137207.900390625.900390625.900390625s.900390625-.4030761719.900390625-.900390625c0-.497253418-.403137207-.900390625-.900390625-.900390625ZM120.8889770508,86.2506103516c-.497253418,0-.900390625.403137207-.900390625.900390625,0,.4973144531.403137207.900390625.900390625.900390625s.900390625-.4030761719.900390625-.900390625c0-.497253418-.403137207-.900390625-.900390625-.900390625ZM120.8889770508,82.63671875c-.497253418,0-.900390625.403137207-.900390625.900390625s.403137207.900390625.900390625.900390625.900390625-.403137207.900390625-.900390625-.403137207-.900390625-.900390625-.900390625ZM120.8889770508,79.0228271484c-.497253418,0-.900390625.403137207-.900390625.900390625s.403137207.900390625.900390625.900390625.900390625-.403137207.900390625-.900390625-.403137207-.900390625-.900390625-.900390625ZM120.8889770508,75.4089355469c-.497253418,0-.900390625.403137207-.900390625.900390625s.403137207.900390625.900390625.900390625.900390625-.403137207.900390625-.900390625-.403137207-.900390625-.900390625-.900390625ZM120.8889770508,71.7950439453c-.497253418,0-.900390625.4030761719-.900390625.900390625,0,.497253418.403137207.900390625.900390625.900390625s.900390625-.403137207.900390625-.900390625c0-.4973144531-.403137207-.900390625-.900390625-.900390625ZM120.8889770508,68.1811523438c-.497253418,0-.900390625.4030761719-.900390625.900390625,0,.497253418.403137207.900390625.900390625.900390625s.900390625-.403137207.900390625-.900390625c0-.4973144531-.403137207-.900390625-.900390625-.900390625ZM120.8889770508,64.567199707c-.497253418,0-.900390625.403137207-.900390625.900390625,0,.4973144531.403137207.900390625.900390625.900390625s.900390625-.4030761719.900390625-.900390625c0-.497253418-.403137207-.900390625-.900390625-.900390625ZM120.8889770508,60.9533081055c-.497253418,0-.900390625.403137207-.900390625.900390625,0,.4973144531.403137207.900390625.900390625.900390625s.900390625-.4030761719.900390625-.900390625c0-.497253418-.403137207-.900390625-.900390625-.900390625ZM120.8889770508,57.3394165039c-.497253418,0-.900390625.403137207-.900390625.900390625s.403137207.900390625.900390625.900390625.900390625-.403137207.900390625-.900390625-.403137207-.900390625-.900390625-.900390625ZM120.8889770508,53.7255249023c-.497253418,0-.900390625.403137207-.900390625.900390625s.403137207.900390625.900390625.900390625.900390625-.403137207.900390625-.900390625-.403137207-.900390625-.900390625-.900390625ZM120.8889770508,50.1116333008c-.497253418,0-.900390625.403137207-.900390625.900390625s.403137207.900390625.900390625.900390625.900390625-.403137207.900390625-.900390625-.403137207-.900390625-.900390625-.900390625ZM120.8889770508,46.4977416992c-.497253418,0-.900390625.4030761719-.900390625.900390625,0,.497253418.403137207.900390625.900390625.900390625s.900390625-.403137207.900390625-.900390625c0-.4973144531-.403137207-.900390625-.900390625-.900390625ZM120.8889770508,42.8838500977c-.497253418,0-.900390625.4030761719-.900390625.900390625,0,.497253418.403137207.900390625.900390625.900390625s.900390625-.403137207.900390625-.900390625c0-.4973144531-.403137207-.900390625-.900390625-.900390625ZM120.8889770508,39.2699584961c-.497253418,0-.900390625.4030761719-.900390625.900390625,0,.497253418.403137207.9003295898.900390625.9003295898s.900390625-.4030761719.900390625-.9003295898c0-.4973144531-.403137207-.900390625-.900390625-.900390625ZM118.4700927734,37.4629516602c-.4973144531,0-.900390625.403137207-.900390625.900390625,0,.4973144531.4030761719.900390625.900390625.900390625.497253418,0,.900390625-.4030761719.900390625-.900390625,0-.497253418-.403137207-.900390625-.900390625-.900390625ZM120.8889770508,35.6560058594c-.497253418,0-.900390625.403137207-.900390625.900390625,0,.4973144531.403137207.900390625.900390625.900390625s.900390625-.4030761719.900390625-.900390625c0-.497253418-.403137207-.900390625-.900390625-.900390625ZM120.8889770508,33.8428955078c.497253418,0,.900390625-.4030761719.900390625-.900390625,0-.0900878906-.0266723633-.171875-.0512695312-.2539672852h-1.6982421875c-.024597168.0820922852-.0512695312.1638793945-.0512695312.2539672852,0,.4973144531.403137207.900390625.900390625.900390625ZM118.4700927734,88.0575561523c-.4973144531,0-.900390625.403137207-.900390625.900390625,0,.4973144531.4030761719.900390625.900390625.900390625.497253418,0,.900390625-.4030761719.900390625-.900390625,0-.497253418-.403137207-.900390625-.900390625-.900390625ZM118.4700927734,84.4436645508c-.4973144531,0-.900390625.403137207-.900390625.900390625,0,.4973144531.4030761719.900390625.900390625.900390625.497253418,0,.900390625-.4030761719.900390625-.900390625,0-.497253418-.403137207-.900390625-.900390625-.900390625ZM118.4700927734,80.8297729492c-.4973144531,0-.900390625.403137207-.900390625.900390625s.4030761719.900390625.900390625.900390625c.497253418,0,.900390625-.403137207.900390625-.900390625s-.403137207-.900390625-.900390625-.900390625ZM118.4700927734,77.2158813477c-.4973144531,0-.900390625.403137207-.900390625.900390625s.4030761719.900390625.900390625.900390625c.497253418,0,.900390625-.403137207.900390625-.900390625s-.403137207-.900390625-.900390625-.900390625ZM118.4700927734,73.6019897461c-.4973144531,0-.900390625.403137207-.900390625.900390625s.4030761719.900390625.900390625.900390625c.497253418,0,.900390625-.403137207.900390625-.900390625s-.403137207-.900390625-.900390625-.900390625ZM118.4700927734,69.9880981445c-.4973144531,0-.900390625.4030761719-.900390625.900390625,0,.497253418.4030761719.900390625.900390625.900390625.497253418,0,.900390625-.403137207.900390625-.900390625,0-.4973144531-.403137207-.900390625-.900390625-.900390625ZM118.4700927734,66.374206543c-.4973144531,0-.900390625.4030761719-.900390625.900390625,0,.497253418.4030761719.900390625.900390625.900390625.497253418,0,.900390625-.403137207.900390625-.900390625,0-.4973144531-.403137207-.900390625-.900390625-.900390625ZM118.4700927734,62.7602539062c-.4973144531,0-.900390625.403137207-.900390625.900390625,0,.4973144531.4030761719.900390625.900390625.900390625.497253418,0,.900390625-.4030761719.900390625-.900390625,0-.497253418-.403137207-.900390625-.900390625-.900390625ZM118.4700927734,59.1463623047c-.4973144531,0-.900390625.403137207-.900390625.900390625,0,.4973144531.4030761719.900390625.900390625.900390625.497253418,0,.900390625-.4030761719.900390625-.900390625,0-.497253418-.403137207-.900390625-.900390625-.900390625ZM118.4700927734,55.5324707031c-.4973144531,0-.900390625.403137207-.900390625.900390625s.4030761719.900390625.900390625.900390625c.497253418,0,.900390625-.403137207.900390625-.900390625s-.403137207-.900390625-.900390625-.900390625ZM118.4700927734,51.9185791016c-.4973144531,0-.900390625.403137207-.900390625.900390625s.4030761719.900390625.900390625.900390625c.497253418,0,.900390625-.403137207.900390625-.900390625s-.403137207-.900390625-.900390625-.900390625ZM118.4700927734,48.3046875c-.4973144531,0-.900390625.403137207-.900390625.900390625s.4030761719.900390625.900390625.900390625c.497253418,0,.900390625-.403137207.900390625-.900390625s-.403137207-.900390625-.900390625-.900390625ZM118.4700927734,44.6907958984c-.4973144531,0-.900390625.4030761719-.900390625.900390625,0,.497253418.4030761719.900390625.900390625.900390625.497253418,0,.900390625-.403137207.900390625-.900390625,0-.4973144531-.403137207-.900390625-.900390625-.900390625ZM118.4700927734,41.0769042969c-.4973144531,0-.900390625.4030761719-.900390625.900390625,0,.497253418.4030761719.900390625.900390625.900390625.497253418,0,.900390625-.403137207.900390625-.900390625,0-.4973144531-.403137207-.900390625-.900390625-.900390625ZM118.4700927734,33.8490600586c-.4973144531,0-.900390625.403137207-.900390625.900390625,0,.4973144531.4030761719.900390625.900390625.900390625.497253418,0,.900390625-.4030761719.900390625-.900390625,0-.497253418-.403137207-.900390625-.900390625-.900390625ZM116.0511474609,35.6560058594c-.497253418,0-.900390625.403137207-.900390625.900390625,0,.4973144531.403137207.900390625.900390625.900390625.4973144531,0,.900390625-.4030761719.900390625-.900390625,0-.497253418-.4030761719-.900390625-.900390625-.900390625ZM115.2020263672,32.6885375977c-.024597168.0820922852-.0512695312.1638793945-.0512695312.2539672852,0,.4973144531.403137207.900390625.900390625.900390625.4973144531,0,.900390625-.4030761719.900390625-.900390625,0-.0900878906-.0266723633-.171875-.0512695312-.2539672852h-1.6982421875ZM113.6322631836,35.6498413086c.497253418,0,.900390625-.4030761719.900390625-.900390625,0-.497253418-.403137207-.900390625-.900390625-.900390625s-.900390625.403137207-.900390625.900390625c0,.4973144531.403137207.900390625.900390625.900390625ZM111.2133789062,37.4567871094c.497253418,0,.900390625-.4030761719.900390625-.900390625,0-.497253418-.403137207-.900390625-.900390625-.900390625-.4973144531,0-.900390625.403137207-.900390625.900390625,0,.4973144531.4030761719.900390625.900390625.900390625ZM111.2133789062,33.8428955078c.497253418,0,.900390625-.4030761719.900390625-.900390625,0-.0900878906-.0266723633-.171875-.0512695312-.2539672852h-1.6982421875c-.024597168.0820922852-.0512695312.1638793945-.0512695312.2539672852,0,.4973144531.4030761719.900390625.900390625.900390625ZM108.7944946289,35.6498413086c.497253418,0,.900390625-.4030761719.900390625-.900390625,0-.497253418-.403137207-.900390625-.900390625-.900390625-.4973144531,0-.900390625.403137207-.900390625.900390625,0,.4973144531.4030761719.900390625.900390625.900390625ZM106.3755493164,37.4567871094c.4973144531,0,.900390625-.4030761719.900390625-.900390625,0-.497253418-.4030761719-.900390625-.900390625-.900390625-.497253418,0-.900390625.403137207-.900390625.900390625,0,.4973144531.403137207.900390625.900390625.900390625ZM106.3755493164,33.8428955078c.4973144531,0,.900390625-.4030761719.900390625-.900390625,0-.0900878906-.0266723633-.171875-.0512695312-.2539672852h-1.6982421875c-.024597168.0820922852-.0512695312.1638793945-.0512695312.2539672852,0,.4973144531.403137207.900390625.900390625.900390625ZM103.9566650391,35.6498413086c.497253418,0,.900390625-.4030761719.900390625-.900390625,0-.497253418-.403137207-.900390625-.900390625-.900390625s-.900390625.403137207-.900390625.900390625c0,.4973144531.403137207.900390625.900390625.900390625ZM101.5377807617,37.4567871094c.497253418,0,.900390625-.4030761719.900390625-.900390625,0-.497253418-.403137207-.900390625-.900390625-.900390625-.4973144531,0-.900390625.403137207-.900390625.900390625,0,.4973144531.4030761719.900390625.900390625.900390625ZM101.5377807617,33.8428955078c.497253418,0,.900390625-.4030761719.900390625-.900390625,0-.0900878906-.0266723633-.171875-.0512695312-.2539672852h-1.6982421875c-.024597168.0820922852-.0512695312.1638793945-.0512695312.2539672852,0,.4973144531.4030761719.900390625.900390625.900390625ZM99.1188354492,35.6498413086c.4973144531,0,.900390625-.4030761719.900390625-.900390625,0-.497253418-.4030761719-.900390625-.900390625-.900390625-.2485961914,0-.4737548828.1008300781-.6366577148.2637329102-.1629638672.1629638672-.2637329102.3880004883-.2637329102.6366577148s.100769043.4737548828.2637329102.6366577148c.162902832.1629638672.3880615234.2637329102.6366577148.2637329102ZM96.6999511719,37.4567871094c.4973144531,0,.900390625-.4030761719.900390625-.900390625,0-.497253418-.4030761719-.900390625-.900390625-.900390625-.497253418,0-.900390625.403137207-.900390625.900390625,0,.4973144531.403137207.900390625.900390625.900390625ZM96.6999511719,33.8428955078c.4973144531,0,.900390625-.4030761719.900390625-.900390625,0-.0900878906-.0266723633-.171875-.0512695312-.2539672852h-1.6982421875c-.024597168.0820922852-.0512695312.1638793945-.0512695312.2539672852,0,.4973144531.403137207.900390625.900390625.900390625ZM94.2810668945,35.6498413086c.497253418,0,.900390625-.4030761719.900390625-.900390625,0-.497253418-.403137207-.900390625-.900390625-.900390625s-.900390625.403137207-.900390625.900390625c0,.4973144531.403137207.900390625.900390625.900390625ZM91.8621826172,37.4567871094c.497253418,0,.900390625-.4030761719.900390625-.900390625,0-.497253418-.403137207-.900390625-.900390625-.900390625-.4973144531,0-.900390625.403137207-.900390625.900390625,0,.4973144531.4030761719.900390625.900390625.900390625ZM91.8621826172,33.8428955078c.497253418,0,.900390625-.4030761719.900390625-.900390625,0-.0900878906-.0266723633-.171875-.0512695312-.2539672852h-1.6982421875c-.024597168.0820922852-.0512695312.1638793945-.0512695312.2539672852,0,.4973144531.4030761719.900390625.900390625.900390625ZM89.4432373047,35.6498413086c.4973144531,0,.900390625-.4030761719.900390625-.900390625,0-.497253418-.4030761719-.900390625-.900390625-.900390625-.497253418,0-.900390625.403137207-.900390625.900390625,0,.4973144531.403137207.900390625.900390625.900390625ZM87.0243530273,37.4567871094c.4973144531,0,.900390625-.4030761719.900390625-.900390625,0-.497253418-.4030761719-.900390625-.900390625-.900390625-.497253418,0-.900390625.403137207-.900390625.900390625,0,.4973144531.403137207.900390625.900390625.900390625ZM87.0243530273,33.8428955078c.4973144531,0,.900390625-.4030761719.900390625-.900390625,0-.0900878906-.0266723633-.171875-.0512695312-.2539672852h-1.6982421875c-.024597168.0820922852-.0512695312.1638793945-.0512695312.2539672852,0,.4973144531.403137207.900390625.900390625.900390625ZM84.60546875,35.6498413086c.497253418,0,.900390625-.4030761719.900390625-.900390625,0-.497253418-.403137207-.900390625-.900390625-.900390625s-.900390625.403137207-.900390625.900390625c0,.4973144531.403137207.900390625.900390625.900390625ZM82.1865844727,37.4567871094c.497253418,0,.900390625-.4030761719.900390625-.900390625,0-.497253418-.403137207-.900390625-.900390625-.900390625-.4973144531,0-.900390625.403137207-.900390625.900390625,0,.4973144531.4030761719.900390625.900390625.900390625ZM82.1865844727,33.8428955078c.497253418,0,.900390625-.4030761719.900390625-.900390625,0-.0900878906-.0266723633-.171875-.0512695312-.2539672852h-1.6982421875c-.024597168.0820922852-.0512695312.1638793945-.0512695312.2539672852,0,.4973144531.4030761719.900390625.900390625.900390625ZM79.7676391602,35.6498413086c.4973144531,0,.900390625-.4030761719.900390625-.900390625,0-.497253418-.4030761719-.900390625-.900390625-.900390625-.497253418,0-.900390625.403137207-.900390625.900390625,0,.4973144531.403137207.900390625.900390625.900390625ZM77.3487548828,37.4567871094c.497253418,0,.900390625-.4030761719.900390625-.900390625,0-.497253418-.403137207-.900390625-.900390625-.900390625s-.900390625.403137207-.900390625.900390625c0,.4973144531.403137207.900390625.900390625.900390625ZM77.3487548828,33.8428955078c.497253418,0,.900390625-.4030761719.900390625-.900390625,0-.0900878906-.0266723633-.171875-.0512695312-.2539672852h-1.6982421875c-.024597168.0820922852-.0512695312.1638793945-.0512695312.2539672852,0,.4973144531.403137207.900390625.900390625.900390625ZM74.9298706055,35.6498413086c.497253418,0,.900390625-.4030761719.900390625-.900390625,0-.497253418-.403137207-.900390625-.900390625-.900390625s-.900390625.403137207-.900390625.900390625c0,.4973144531.403137207.900390625.900390625.900390625ZM72.5109863281,37.4567871094c.497253418,0,.900390625-.4030761719.900390625-.900390625,0-.497253418-.403137207-.900390625-.900390625-.900390625-.4973144531,0-.900390625.403137207-.900390625.900390625,0,.4973144531.4030761719.900390625.900390625.900390625ZM72.5109863281,33.8428955078c.497253418,0,.900390625-.4030761719.900390625-.900390625,0-.0900878906-.0266723633-.171875-.0512695312-.2539672852h-1.6982421875c-.024597168.0820922852-.0512695312.1638793945-.0512695312.2539672852,0,.4973144531.4030761719.900390625.900390625.900390625ZM70.0920410156,35.6498413086c.4973144531,0,.900390625-.4030761719.900390625-.900390625,0-.497253418-.4030761719-.900390625-.900390625-.900390625-.497253418,0-.900390625.403137207-.900390625.900390625,0,.4973144531.403137207.900390625.900390625.900390625ZM67.6731567383,37.4567871094c.497253418,0,.900390625-.4030761719.900390625-.900390625,0-.497253418-.403137207-.900390625-.900390625-.900390625s-.900390625.403137207-.900390625.900390625c0,.4973144531.403137207.900390625.900390625.900390625ZM67.6731567383,33.8428955078c.497253418,0,.900390625-.4030761719.900390625-.900390625,0-.0900878906-.0266723633-.171875-.0512695312-.2539672852h-1.6982421875c-.024597168.0820922852-.0512695312.1638793945-.0512695312.2539672852,0,.4973144531.403137207.900390625.900390625.900390625ZM65.2542724609,35.6498413086c.497253418,0,.900390625-.4030761719.900390625-.900390625,0-.497253418-.403137207-.900390625-.900390625-.900390625s-.900390625.403137207-.900390625.900390625c0,.4973144531.403137207.900390625.900390625.900390625ZM62.8353881836,37.4567871094c.497253418,0,.900390625-.4030761719.900390625-.900390625,0-.497253418-.403137207-.900390625-.900390625-.900390625-.4973144531,0-.900390625.403137207-.900390625.900390625,0,.4973144531.4030761719.900390625.900390625.900390625ZM62.8353881836,33.8428955078c.497253418,0,.900390625-.4030761719.900390625-.900390625,0-.0900878906-.0266723633-.171875-.0512695312-.2539672852h-1.6982421875c-.024597168.0820922852-.0512695312.1638793945-.0512695312.2539672852,0,.4973144531.4030761719.900390625.900390625.900390625ZM60.4164428711,35.6498413086c.4973144531,0,.900390625-.4030761719.900390625-.900390625,0-.497253418-.4030761719-.900390625-.900390625-.900390625-.3417358398,0-.6286621094.1975708008-.7811889648.4780883789v.8446044922c.1525268555.280456543.439453125.4780883789.7811889648.4780883789ZM115.8583984375,41.0317993164v1.8909301758c.0640258789-.0144042969.1243896484-.0388793945.1927490234-.0388793945.4973144531,0,.900390625.4030761719.900390625.900390625,0,.497253418-.4030761719.900390625-.900390625.900390625-.068359375,0-.1287231445-.0244750977-.1927490234-.0388793945v1.8908691406c.0640258789-.0144042969.1243896484-.0388793945.1927490234-.0388793945.4973144531,0,.900390625.4030761719.900390625.900390625,0,.497253418-.4030761719.900390625-.900390625.900390625-.068359375,0-.1287231445-.0244750977-.1927490234-.0388793945v1.8908691406c.0640258789-.0144042969.1243896484-.0388793945.1927490234-.0388793945.4973144531,0,.900390625.403137207.900390625.900390625s-.4030761719.900390625-.900390625.900390625c-.068359375,0-.1287231445-.0244750977-.1927490234-.0388793945v1.8908691406c.0640258789-.0144042969.1243896484-.0388793945.1927490234-.0388793945.4973144531,0,.900390625.403137207.900390625.900390625s-.4030761719.900390625-.900390625.900390625c-.068359375,0-.1287231445-.0244750977-.1927490234-.0388793945v1.8908691406c.0640258789-.0144042969.1243896484-.0388793945.1927490234-.0388793945.4973144531,0,.900390625.403137207.900390625.900390625s-.4030761719.900390625-.900390625.900390625c-.068359375,0-.1287231445-.0244750977-.1927490234-.0388793945v1.8908691406c.0640258789-.0144042969.1243896484-.0388793945.1927490234-.0388793945.4973144531,0,.900390625.403137207.900390625.900390625,0,.4973144531-.4030761719.900390625-.900390625.900390625-.068359375,0-.1287231445-.0244750977-.1927490234-.0388793945v1.8908691406c.0640258789-.0144042969.1243896484-.0388793945.1927490234-.0388793945.4973144531,0,.900390625.403137207.900390625.900390625,0,.4973144531-.4030761719.900390625-.900390625.900390625-.068359375,0-.1287231445-.0244750977-.1927490234-.0388793945v1.8909301758c.0640258789-.0144042969.1243896484-.0388793945.1927490234-.0388793945.4973144531,0,.900390625.4030761719.900390625.900390625,0,.497253418-.4030761719.900390625-.900390625.900390625-.068359375,0-.1287231445-.0244750977-.1927490234-.0388793945v1.8908691406c.0640258789-.0144042969.1243896484-.0388793945.1927490234-.0388793945.4973144531,0,.900390625.4030761719.900390625.900390625,0,.497253418-.4030761719.900390625-.900390625.900390625-.068359375,0-.1287231445-.0244750977-.1927490234-.0388793945v1.8908691406c.0640258789-.0144042969.1243896484-.0388793945.1927490234-.0388793945.4973144531,0,.900390625.403137207.900390625.900390625s-.4030761719.900390625-.900390625.900390625c-.068359375,0-.1287231445-.0244750977-.1927490234-.0388793945v1.8908691406c.0640258789-.0144042969.1243896484-.0388793945.1927490234-.0388793945.4973144531,0,.900390625.403137207.900390625.900390625s-.4030761719.900390625-.900390625.900390625c-.068359375,0-.1287231445-.0244750977-.1927490234-.0388793945v1.8908691406c.0640258789-.0144042969.1243896484-.0388793945.1927490234-.0388793945.4973144531,0,.900390625.403137207.900390625.900390625s-.4030761719.900390625-.900390625.900390625c-.068359375,0-.1287231445-.0244750977-.1927490234-.0388793945v1.8908691406c.0640258789-.0144042969.1243896484-.0388793945.1927490234-.0388793945.4973144531,0,.900390625.403137207.900390625.900390625,0,.4973144531-.4030761719.900390625-.900390625.900390625-.068359375,0-.1287231445-.0244750977-.1927490234-.0388793945v1.8908691406c.0640258789-.0144042969.1243896484-.0388793945.1927490234-.0388793945.4973144531,0,.900390625.403137207.900390625.900390625,0,.4973144531-.4030761719.900390625-.900390625.900390625-.068359375,0-.1287231445-.0244750977-.1927490234-.0388793945v1.8909301758c.0640258789-.0144042969.1243896484-.0388793945.1927490234-.0388793945.4973144531,0,.900390625.4030761719.900390625.900390625,0,.2713012695-.1260986328.5067749023-.3159179688.671875h-.7772216797v8.587097168h-21.6005859375v10.533203125l3.6102905273,3.6110839844c1.3934936523-.9764404297,3.0854492188-1.5544433594,4.9121704102-1.5544433594,4.734375,0,8.5859375,3.8525390625,8.5859375,8.5869140625s-3.8515625,8.5869140625-8.5859375,8.5869140625-8.5869140625-3.8525390625-8.5869140625-8.5869140625c0-1.8262939453.5777587891-3.5179443359,1.5537719727-4.9112548828l-4.4893188477-4.4901123047v-11.775390625h-6.5810546875v26.903503418c4.0206298828.7125854492,7.0869140625,4.2242431641,7.0869140625,8.446105957,0,4.734375-3.8525390625,8.5869140625-8.5869140625,8.5869140625s-8.5864257812-3.8525390625-8.5864257812-8.5869140625c0-4.221862793,3.0659179688-7.7334594727,7.0864257812-8.446105957v-26.903503418h-6.5805664062v16.787109375l-4.4893188477,4.4889526367c.9760131836,1.393371582,1.5537719727,3.0850219727,1.5537719727,4.9114379883,0,4.734375-3.8520507812,8.5869140625-8.5864257812,8.5869140625-4.7348632812,0-8.5869140625-3.8525390625-8.5869140625-8.5869140625s3.8520507812-8.5869140625,8.5869140625-8.5869140625c1.8265380859,0,3.518371582.5778808594,4.9117431641,1.5541992188l3.6102294922-3.6098632812v-15.544921875h-21.6000976562V38.2750244141h9.1391601562v-.333984375c.1525268555-.2805175781.439453125-.4780883789.7811889648-.4780883789.466003418,0,.8361206055.3583984375.8825683594.8120727539h3.0726928711c.0464477539-.4536743164.4166259766-.8120727539.8825683594-.8120727539s.8361206055.3583984375.8825683594.8120727539h3.0726318359c.0464477539-.4536743164.4166259766-.8120727539.8825683594-.8120727539.466003418,0,.8361206055.3583984375.8825683594.8120727539h3.0726928711c.0464477539-.4536743164.4166259766-.8120727539.8825683594-.8120727539s.8361206055.3583984375.8825683594.8120727539h3.0726318359c.0464477539-.4536743164.4166259766-.8120727539.8825683594-.8120727539.466003418,0,.8361206055.3583984375.8825683594.8120727539h3.0726928711c.0464477539-.4536743164.4166259766-.8120727539.8825683594-.8120727539s.8361206055.3583984375.8825683594.8120727539h3.0726318359c.0464477539-.4536743164.4166259766-.8120727539.8825683594-.8120727539.466003418,0,.8361206055.3583984375.8825683594.8120727539h3.0726928711c.0464477539-.4536743164.4166259766-.8120727539.8825683594-.8120727539s.8361206055.3583984375.8825683594.8120727539h3.0726318359c.0216674805-.2116088867.1034545898-.4058837891.2459106445-.5483398438.162902832-.162902832.3880615234-.2637329102.6366577148-.2637329102.466003418,0,.8361206055.3583984375.8825683594.8120727539h3.0726928711c.0464477539-.4536743164.4166259766-.8120727539.8825683594-.8120727539s.8361206055.3583984375.8825683594.8120727539h3.0726928711c.0464477539-.4536743164.4165649414-.8120727539.8825683594-.8120727539.4659423828,0,.8361206055.3583984375.8825683594.8120727539h3.0726318359c.0464477539-.4536743164.4166259766-.8120727539.8825683594-.8120727539s.8361206055.3583984375.8825683594.8120727539h1.3435668945v1.0338134766c.0640258789-.0144042969.1243896484-.0388793945.1927490234-.0388793945.4973144531,0,.900390625.4030761719.900390625.900390625,0,.497253418-.4030761719.9003295898-.900390625.9003295898-.068359375,0-.1287231445-.0244750977-.1927490234-.0388793945ZM69.1606445312,129.8253173828c0-3.0810546875-2.505859375-5.5869140625-5.5864257812-5.5869140625s-5.5869140625,2.505859375-5.5869140625,5.5869140625,2.5063476562,5.5869140625,5.5869140625,5.5869140625,5.5864257812-2.505859375,5.5864257812-5.5869140625ZM97.193359375,124.8145751953c0,3.0810546875,2.505859375,5.5869140625,5.5869140625,5.5869140625,3.080078125,0,5.5859375-2.505859375,5.5859375-5.5869140625s-2.505859375-5.5869140625-5.5859375-5.5869140625c-3.0810546875,0-5.5869140625,2.505859375-5.5869140625,5.5869140625ZM83.1767578125,133.4014892578c-3.0805664062,0-5.5864257812,2.505859375-5.5864257812,5.5859375,0,3.0810546875,2.505859375,5.5869140625,5.5864257812,5.5869140625,3.0810546875,0,5.5869140625-2.505859375,5.5869140625-5.5869140625,0-3.080078125-2.505859375-5.5859375-5.5869140625-5.5859375ZM112.8583984375,41.2750244141h-59.3623046875v59.3627929688h59.3623046875v-59.3627929688ZM64.0532836914,79.1688842773h-4.087890625l8.259765625-19.0400390625h3.5556640625l8.232421875,19.0400390625h-4.060546875l-1.5673828125-3.8076171875h-8.763671875l-1.568359375,3.8076171875ZM66.9927368164,71.97265625h5.9921875l-2.99609375-7.279296875-2.99609375,7.279296875ZM86.9849243164,79.1688842773h-3.8076171875v-19.0400390625h7.3359375c4.5634765625,0,7.587890625,2.66015625,7.587890625,6.6640625,0,4.255859375-3.248046875,7.0556640625-8.1484375,7.0556640625h-2.9677734375v5.3203125ZM86.9849243164,70.3486328125h3.3876953125c2.380859375,0,3.9765625-1.427734375,3.9765625-3.5556640625v-.0000610352c0-1.8759765625-1.595703125-3.1640625-3.9765625-3.1640625h-3.3876953125v6.7197875977ZM104.9331665039,60.1288452148h-3.8076171875v19.0400390625h3.8076171875v-19.0400390625Z"/></svg>