<?xml version="1.0" encoding="UTF-8"?><svg id="symbole_neu_2026" xmlns="http://www.w3.org/2000/svg" viewBox="0 0 170.0787353516 170.0787353516"><defs><style>.cls-1{fill:#1d1d1b;}</style></defs><path class="cls-1" d="M64.4939575195,106.9318237305c0-.497253418.4030761719-.900390625.900390625-.900390625.0490112305,0,.0912475586.0203857422.1381225586.0278930664-.2979125977.4660644531-.5684814453.9494018555-.8164672852,1.4473266602-.1329956055-.1569213867-.2220458984-.3530883789-.2220458984-.5748291016ZM65.3943481445,104.2183227539c.497253418,0,.900390625-.403137207.900390625-.900390625s-.403137207-.900390625-.900390625-.900390625c-.4973144531,0-.900390625.403137207-.900390625.900390625s.4030761719.900390625.900390625.900390625ZM68.7136230469,101.5109863281c0-.4973144531-.403137207-.900390625-.900390625-.900390625s-.900390625.4030761719-.900390625.900390625c0,.497253418.403137207.900390625.900390625.900390625s.900390625-.403137207.900390625-.900390625ZM65.3943481445,100.6044311523c.497253418,0,.900390625-.403137207.900390625-.900390625,0-.4973144531-.403137207-.900390625-.900390625-.900390625-.4973144531,0-.900390625.4030761719-.900390625.900390625,0,.497253418.4030761719.900390625.900390625.900390625ZM60.5565185547,106.0314331055c-.0993041992,0-.190612793.0268554688-.2799072266.0565185547.3681640625.2747192383.7529907227.5283813477,1.1606445312.7465820312-.0506591797-.44921875-.41796875-.8031005859-.8807373047-.8031005859ZM62.975402832,106.0252685547c.4973144531,0,.900390625-.403137207.900390625-.900390625s-.4030761719-.900390625-.900390625-.900390625c-.497253418,0-.900390625.403137207-.900390625.900390625s.403137207.900390625.900390625.900390625ZM60.5565185547,104.2183227539c.497253418,0,.900390625-.403137207.900390625-.900390625s-.403137207-.900390625-.900390625-.900390625-.900390625.403137207-.900390625.900390625.403137207.900390625.900390625.900390625ZM62.975402832,102.4113769531c.4973144531,0,.900390625-.403137207.900390625-.900390625,0-.4973144531-.4030761719-.900390625-.900390625-.900390625-.497253418,0-.900390625.4030761719-.900390625.900390625,0,.497253418.403137207.900390625.900390625.900390625ZM60.5565185547,100.6044311523c.497253418,0,.900390625-.403137207.900390625-.900390625,0-.4973144531-.403137207-.900390625-.900390625-.900390625s-.900390625.4030761719-.900390625.900390625c0,.497253418.403137207.900390625.900390625.900390625ZM62.975402832,98.7974853516c.4973144531,0,.900390625-.403137207.900390625-.900390625,0-.4973144531-.4030761719-.900390625-.900390625-.900390625-.497253418,0-.900390625.4030761719-.900390625.900390625,0,.497253418.403137207.900390625.900390625.900390625ZM59,104.9365234375c-.065612793-.297668457-.2637939453-.5408935547-.543762207-.6477050781.1716918945.2243652344.352722168.4401855469.543762207.6477050781ZM58.1376342773,102.4113769531c.497253418,0,.900390625-.403137207.900390625-.900390625,0-.4973144531-.403137207-.900390625-.900390625-.900390625-.4973144531,0-.900390625.4030761719-.900390625.900390625,0,.497253418.4030761719.900390625.900390625.900390625ZM54.837097168,99.7967529297c.5372314453-.1892089844,1.0588378906-.4093017578,1.5537719727-.6768188477-.1651000977-.1900634766-.4006347656-.3162841797-.6721191406-.3162841797-.4973144531,0-.900390625.4030761719-.900390625.900390625,0,.0328979492.0153198242.0607299805.018737793.0927124023ZM56.619140625,99.7040405273c0-.0200805664-.0101318359-.0368041992-.0114135742-.0565795898.002746582.0261230469.0039672852.0525512695.0069580078.0785522461.0001831055-.0077514648.0044555664-.0141601562.0044555664-.0219726562ZM60.5565185547,96.9905395508c.497253418,0,.900390625-.403137207.900390625-.900390625,0-.4973144531-.403137207-.900390625-.900390625-.900390625s-.900390625.4030761719-.900390625.900390625c0,.497253418.403137207.900390625.900390625.900390625ZM58.1376342773,98.7974853516c.497253418,0,.900390625-.403137207.900390625-.900390625,0-.4973144531-.403137207-.900390625-.900390625-.900390625-.4973144531,0-.900390625.4030761719-.900390625.900390625,0,.497253418.4030761719.900390625.900390625.900390625ZM55.71875,95.1897583008c-.4973144531,0-.900390625.4030761719-.900390625.900390625,0,.497253418.4030761719.900390625.900390625.900390625.497253418,0,.900390625-.403137207.900390625-.900390625,0-.4973144531-.403137207-.900390625-.900390625-.900390625ZM50.8809204102,98.8036499023c-.4733886719,0-.8507080078.3690185547-.8868408203.833190918.5397949219.1795654297,1.0639648438.3909301758,1.5759277344.626159668.1256103516-.1547851562.2113037109-.3441162109.2113037109-.5589599609,0-.4973144531-.403137207-.900390625-.900390625-.900390625ZM53.2998046875,98.7974853516c.4973144531,0,.900390625-.403137207.900390625-.900390625,0-.4973144531-.4030761719-.900390625-.900390625-.900390625-.497253418,0-.900390625.4030761719-.900390625.900390625,0,.497253418.403137207.900390625.900390625.900390625ZM50.8809204102,96.9905395508c.497253418,0,.900390625-.403137207.900390625-.900390625,0-.4973144531-.403137207-.900390625-.900390625-.900390625s-.900390625.4030761719-.900390625.900390625c0,.497253418.403137207.900390625.900390625.900390625ZM53.2998046875,95.1835327148c.4973144531,0,.900390625-.4030761719.900390625-.900390625,0-.497253418-.4030761719-.900390625-.900390625-.900390625-.497253418,0-.900390625.403137207-.900390625.900390625,0,.4973144531.403137207.900390625.900390625.900390625ZM45.7288818359,98.8670654297c.2362670898.0096435547.4733886719.0156860352.7069091797.0358276367-.1198730469-.0590820312-.25-.0992431641-.3927001953-.0992431641-.1114501953,0-.2156982422.0264282227-.3142089844.0634155273ZM48.4620361328,98.7974853516c.497253418,0,.900390625-.403137207.900390625-.900390625,0-.4973144531-.403137207-.900390625-.900390625-.900390625-.4973144531,0-.900390625.4030761719-.900390625.900390625,0,.497253418.4030761719.900390625.900390625.900390625ZM50.8809204102,93.3765869141c.497253418,0,.900390625-.4030761719.900390625-.900390625,0-.497253418-.403137207-.900390625-.900390625-.900390625s-.900390625.403137207-.900390625.900390625c0,.4973144531.403137207.900390625.900390625.900390625ZM48.4620361328,95.1835327148c.497253418,0,.900390625-.4030761719.900390625-.900390625,0-.497253418-.403137207-.900390625-.900390625-.900390625-.4973144531,0-.900390625.403137207-.900390625.900390625,0,.4973144531.4030761719.900390625.900390625.900390625ZM46.0430908203,93.3765869141c.4973144531,0,.900390625-.4030761719.900390625-.900390625,0-.497253418-.4030761719-.900390625-.900390625-.900390625-.2485961914,0-.4737548828.1008300781-.6366577148.2637329102-.1629638672.1629638672-.2637329102.3880004883-.2637329102.6366577148s.100769043.4737548828.2637329102.6366577148c.162902832.1629638672.3880615234.2637329102.6366577148.2637329102ZM48.4620361328,91.5696411133c.497253418,0,.900390625-.4030761719.900390625-.900390625,0-.497253418-.403137207-.900390625-.900390625-.900390625-.4973144531,0-.900390625.403137207-.900390625.900390625,0,.4973144531.4030761719.900390625.900390625.900390625ZM46.0430908203,89.7626953125c.4973144531,0,.900390625-.4030761719.900390625-.900390625,0-.497253418-.4030761719-.900390625-.900390625-.900390625-.2485961914,0-.4737548828.1008300781-.6366577148.2637329102-.1629638672.1629638672-.2637329102.3880004883-.2637329102.6366577148s.100769043.4737548828.2637329102.6366577148c.162902832.1629638672.3880615234.2637329102.6366577148.2637329102ZM46.0430908203,86.1488037109c.4973144531,0,.900390625-.403137207.900390625-.900390625s-.4030761719-.900390625-.900390625-.900390625c-.2485961914,0-.4737548828.1008300781-.6366577148.2637329102-.1629638672.1629638672-.2637329102.3880004883-.2637329102.6366577148,0,.2485961914.100769043.4737548828.2637329102.6366577148.162902832.1629638672.3880615234.2637329102.6366577148.2637329102ZM46.0430908203,82.5349121094c.4973144531,0,.900390625-.403137207.900390625-.900390625s-.4030761719-.900390625-.900390625-.900390625c-.2485961914,0-.4737548828.1008300781-.6366577148.2637329102-.1629638672.1629638672-.2637329102.3880004883-.2637329102.6366577148,0,.2485961914.100769043.4737548828.2637329102.6366577148.162902832.1629638672.3880615234.2637329102.6366577148.2637329102ZM46.0430908203,78.9210205078c.4973144531,0,.900390625-.403137207.900390625-.900390625s-.4030761719-.900390625-.900390625-.900390625c-.2485961914,0-.4737548828.1008300781-.6366577148.2637329102-.1629638672.1629638672-.2637329102.3880004883-.2637329102.6366577148,0,.2485961914.100769043.4737548828.2637329102.6366577148.162902832.1629638672.3880615234.2637329102.6366577148.2637329102ZM46.0430908203,75.3071289062c.4973144531,0,.900390625-.403137207.900390625-.900390625,0-.4973144531-.4030761719-.900390625-.900390625-.900390625-.2485961914,0-.4737548828.100769043-.6366577148.263671875-.1629638672.1629638672-.2637329102.3880615234-.2637329102.63671875,0,.2485961914.100769043.4737548828.2637329102.6366577148.162902832.1629638672.3880615234.2637329102.6366577148.2637329102ZM46.0430908203,96.9905395508c.4973144531,0,.900390625-.403137207.900390625-.900390625,0-.4973144531-.4030761719-.900390625-.900390625-.900390625-.2485961914,0-.4737548828.100769043-.6366577148.263671875-.1629638672.1629638672-.2637329102.3880615234-.2637329102.63671875,0,.2485961914.100769043.4737548828.2637329102.6366577148.162902832.1629638672.3880615234.2637329102.6366577148.2637329102ZM43.624206543,96.9967041016c-.0655517578,0-.1232910156.0239868164-.1848754883.0372924805.3322143555.3518066406.6832275391.6846923828,1.059753418.9893798828.0062866211-.0430297852.0255126953-.0814819336.0255126953-.1262817383,0-.4973144531-.4030761719-.900390625-.900390625-.900390625ZM43.624206543,95.1835327148c.4973144531,0,.900390625-.4030761719.900390625-.900390625,0-.497253418-.4030761719-.900390625-.900390625-.900390625-.497253418,0-.900390625.403137207-.900390625.900390625,0,.4973144531.403137207.900390625.900390625.900390625ZM41.2053222656,91.5758056641c-.1924438477,0-.3609619141.0736083984-.5072631836.1764526367.1109619141.5569458008.2739257812,1.09375.4670410156,1.6162109375.0140991211.0006713867.0259399414.0081176758.040222168.0081176758.497253418,0,.900390625-.4030761719.900390625-.900390625,0-.497253418-.403137207-.900390625-.900390625-.900390625ZM43.624206543,91.5696411133c.4973144531,0,.900390625-.4030761719.900390625-.900390625,0-.497253418-.4030761719-.900390625-.900390625-.900390625-.497253418,0-.900390625.403137207-.900390625.900390625,0,.4973144531.403137207.900390625.900390625.900390625ZM43.624206543,87.9557495117c.4973144531,0,.900390625-.4030761719.900390625-.900390625,0-.497253418-.4030761719-.900390625-.900390625-.900390625-.497253418,0-.900390625.403137207-.900390625.900390625,0,.4973144531.403137207.900390625.900390625.900390625ZM41.078125,86.1231079102c.0433349609.0064086914.0820922852.0256958008.1271972656.0256958008.497253418,0,.900390625-.403137207.900390625-.900390625,0-.2824707031-.1381225586-.5240478516-.3416137695-.6891479492-.2681884766.4991455078-.4978637695,1.0217895508-.6859741211,1.5638427734ZM43.624206543,84.3418579102c.4973144531,0,.900390625-.403137207.900390625-.900390625s-.4030761719-.900390625-.900390625-.900390625c-.497253418,0-.900390625.403137207-.900390625.900390625s.403137207.900390625.900390625.900390625ZM41.2053222656,80.7341308594c-.0384521484,0-.0711669922.0171508789-.1083374023.0218505859.2095947266.4995117188.4788208008.978515625.8009033203,1.4323120117.1232910156-.1540527344.207824707-.3411254883.207824707-.5537719727,0-.497253418-.403137207-.900390625-.900390625-.900390625ZM43.624206543,80.7279663086c.4973144531,0,.900390625-.403137207.900390625-.900390625s-.4030761719-.900390625-.900390625-.900390625c-.497253418,0-.900390625.403137207-.900390625.900390625s.403137207.900390625.900390625.900390625ZM43.624206543,77.114074707c.4973144531,0,.900390625-.403137207.900390625-.900390625,0-.4973144531-.4030761719-.900390625-.900390625-.900390625-.497253418,0-.900390625.4030761719-.900390625.900390625,0,.497253418.403137207.900390625.900390625.900390625ZM42.1057128906,74.4067382812c0-.2903442383-.1463012695-.5366821289-.3596191406-.7013549805-.3245849609.4916992188-.5776977539,1.0151367188-.7747192383,1.5545043945.0762939453.0209960938.1510009766.0472412109.2339477539.0472412109.497253418,0,.900390625-.403137207.900390625-.900390625ZM46.0430908203,71.6932373047c.4973144531,0,.900390625-.403137207.900390625-.900390625,0-.1582641602-.0516967773-.2993774414-.1234130859-.4285888672-.3800048828.0544433594-.9697265625.1819458008-1.6664428711.4828491211.0141601562.225769043.1024780273.4321289062.2528076172.5823974609.162902832.1629638672.3880615234.2637329102.6366577148.2637329102ZM43.624206543,73.5001831055c.4973144531,0,.900390625-.403137207.900390625-.900390625,0-.4807739258-.3794555664-.8654174805-.8538208008-.8909912109-.3073730469.2253417969-.6168823242.4799804688-.9255981445.7852172852-.0044555664.036315918-.0213623047.0682373047-.0213623047.1057739258,0,.497253418.403137207.900390625.900390625.900390625ZM42.1057128906,88.8623046875c0-.497253418-.403137207-.900390625-.900390625-.900390625-.2391967773,0-.4536132812.0969238281-.6148681641.2490844727-.0518188477.3881225586-.0841674805.7819213867-.0930786133,1.1822509766.1643066406.2186889648.4133911133.3694458008.7079467773.3694458008.497253418,0,.900390625-.4030761719.900390625-.900390625ZM41.2053222656,78.9210205078c.497253418,0,.900390625-.403137207.900390625-.900390625s-.403137207-.900390625-.900390625-.900390625c-.276184082,0-.5142822266.1313476562-.6794433594.3271484375-.0207519531.3953857422-.0151367188.7913208008.0262451172,1.1853637695.1643066406.1754150391.3939208984.288269043.6531982422.288269043ZM90.921875,84.4376220703v3c2.19140625,0,4.30859375-.7470703125,6.0126953125-2.0693359375,1.3193359375,2.6171875,4.029296875,4.37890625,7.115234375,4.37890625v-3c-2.3447265625,0-4.341796875-1.6313476562-4.84375-3.8715820312,1.005859375-1.5756835938,1.5341796875-3.3798828125,1.5341796875-5.255859375h-3c0,1.4506835938-.45703125,2.8408203125-1.3212890625,4.01953125l1.208984375.8872070312-1.2099609375-.8862304688c-1.302734375,1.7778320312-3.3056640625,2.7973632812-5.49609375,2.7973632812ZM70.8095703125,62.2862548828c0,1.12890625-.296875,2.2475585938-.8583984375,3.2348632812-1.1665039062,2.0502929688-3.3510742188,3.3237304688-5.7001953125,3.3237304688v3c2.3095703125,0,4.5087890625-.8432617188,6.2177734375-2.3076171875,1.4331054688,3.4653320312,4.8393554688,5.8759765625,8.7993164062,5.8759765625v-3c-3.3564453125,0-6.1328125-2.529296875-6.4848632812-5.8276367188.6728515625-1.3330078125,1.0263671875-2.8090820312,1.0263671875-4.2993164062h-3ZM142.9677734375,114.4255981445l-5.0859375,5.0859375h-4.3184814453l3.5877075195-3.5856323242h-11.7213134766c-.7484130859,6.6167602539-6.3740234375,11.77734375-13.1875610352,11.77734375s-12.438293457-5.1605834961-13.1865844727-11.77734375h-7.2020263672c-.7483520508,6.6167602539-6.3735351562,11.77734375-13.1870727539,11.77734375s-12.4387207031-5.1605834961-13.1870727539-11.77734375h-7.2020263672c-.7483520508,6.6167602539-6.3735351562,11.77734375-13.1870727539,11.77734375s-12.4387207031-5.1605834961-13.1870727539-11.77734375h-10.8251342773v-3h10.8251342773c.7483520508-6.6168823242,6.3735351562-11.7783203125,13.1870727539-11.7783203125s12.4387207031,5.1614379883,13.1870727539,11.7783203125h7.2020263672c.7483520508-6.6168823242,6.3735351562-11.7783203125,13.1870727539-11.7783203125s12.4387207031,5.1614379883,13.1870727539,11.7783203125h2.3275756836c-.1691894531-1.763671875-.6428222656-3.4358520508-1.3520507812-4.9797363281-.2879638672-.6818237305-.6356201172-1.3382568359-1.0393676758-1.9638061523-.0134887695-.0033569336-.0276489258-.0042724609-.0408935547-.0082397461-.200378418-.3090820312-.4157104492-.6062011719-.6368408203-.8997192383.0008544922-.0142822266.0067138672-.0267333984.0082397461-.0408935547-.1289672852-.1666259766-.2670288086-.3264770508-.4037475586-.4876098633-.0257568359-.0313720703-.0529785156-.0614013672-.0789794922-.0925292969-.1422119141-.1646728516-.2844848633-.3288574219-.4345703125-.4873046875-.0015258789.0014648438-.0036621094.0021362305-.0051879883.0035400391-2.8542480469-3.1449584961-6.9595336914-5.1348876953-11.5311889648-5.1348876953-2.8225097656,0-5.4645385742.7653198242-7.7506713867,2.0822753906-2.2610473633-.6773071289-4.205078125-2.0728759766-5.56640625-3.9354858398-.4752807617-.0246582031-.8555297852-.4100341797-.8555297852-.8913574219,0-.1224975586.025390625-.2388305664.0697021484-.3452758789-.2922363281-.5425415039-.5404663086-1.1128540039-.7375488281-1.7079467773.0231933594.0798339844.0496826172.1588745117.0496826172.2462158203,0,.4973144531-.4030761719.900390625-.900390625.900390625-.497253418,0-.900390625-.4030761719-.900390625-.900390625,0-.3510131836.2063598633-.6471557617.4994506836-.7956542969-.9989013672.2581176758-2.0294799805.3915405273-3.0651855469.3915405273-.2020874023,0-.3989257812-.0206298828-.5986328125-.0303344727.0738525391.1306762695.1273803711.2736816406.1273803711.4344482422,0,.4973144531-.403137207.900390625-.900390625.900390625-.4973144531,0-.900390625-.4030761719-.900390625-.900390625,0-.2274780273.091796875-.4295043945.2309570312-.5880126953-.5310058594-.0892944336-1.0541992188-.2014160156-1.5599975586-.3567504883-.0629882812.0139770508-.122253418.0382080078-.189453125.0382080078-.290222168,0-.5364990234-.1462402344-.701171875-.359375-2.5650024414-1.01171875-4.7045898438-2.8594970703-6.091003418-5.2091064453-.1376342773.0853881836-.2906494141.147644043-.4645385742.147644043-.4973144531,0-.900390625-.4030761719-.900390625-.900390625,0-.3801879883.237121582-.7017822266.5703735352-.8338012695-.5850830078-1.4313354492-.9137573242-2.9937133789-.9137573242-4.6330566406,0-1.5806884766.3054199219-3.1150512695.883605957-4.5516967773-.3173828125-.1392211914-.540222168-.4544067383-.540222168-.8231201172,0-.4973144531.4030761719-.900390625.900390625-.900390625.1566162109,0,.2965087891.0505371094.4248046875.1208496094.0471801758-.0807495117.0894165039-.1636962891.1385498047-.2435913086-.4331054688-.5816040039-.7791137695-1.2069091797-1.0539550781-1.8555908203-.2412109375-.1615600586-.4097900391-.4230957031-.4097900391-.735168457,0-.0894165039.0266113281-.1705322266.0509033203-.2520751953-.1932373047-.6622314453-.3025512695-1.342590332-.3417358398-2.026550293-.1421508789-2.483581543.7229003906-5.014465332,2.6100463867-6.9016113281,1.5219726562-1.5219726562,3.13671875-2.1674804688,4.244140625-2.44140625.6557617188-3.46875,3.8598632812-6.2807617188,7.4575195312-6.2807617188.6577148438,0,1.310546875.0869140625,1.9428710938.255859375,1.2241210938-4.6953125,5.5092773438-8.1362304688,10.517578125-8.1362304688,2.1943359375,0,4.3315429688.6684570312,6.1328125,1.9013671875,3.439453125-2.181640625,8.0673828125-1.7426757812,11.015625,1.20703125,1.041015625,1.0405273438,1.791015625,2.2963867188,2.208984375,3.66796875,4.6142578125-2.4731445312,10.3701171875-1.7124023438,14.2216796875,2.138671875,1.755859375,1.755859375,2.9208984375,4.0102539062,3.3505859375,6.4453125,4.4677734375.9360351562,7.8125,4.9379882812,7.8125,9.6040039062,0,2.3618164062-.853515625,4.6264648438-2.3798828125,6.3974609375,3.58203125,5.0043945312,3.091796875,11.9619140625-1.3544921875,16.4072265625-1.6240234375,1.6240234375-3.623046875,2.7587890625-5.8349609375,3.3212890625-.0617675781.4370727539-.1604003906.865234375-.2767333984,1.2873535156-1.3670654297.2963256836-2.6651611328.7747802734-3.8735961914,1.4047241211.4479370117-.6937255859.8092041016-1.4661254883,1.0204467773-2.2926635742-3.3525390625-.017578125-6.654296875-1.314453125-9.0615234375-3.720703125l2.12109375-2.12109375c2.1953125,2.1943359375,5.3466796875,3.2099609375,8.431640625,2.720703125l.0126953125-.001953125c2.0419921875-.3271484375,3.8876953125-1.267578125,5.33984375-2.71875,3.3349609375-3.3359375,3.7578125-8.5209960938,1.1826171875-12.3291015625-1.5400390625.951171875-3.3203125,1.4633789062-5.1455078125,1.4633789062v-3c1.6298828125,0,3.2109375-.5903320312,4.4501953125-1.6625976562l.0048828125-.00390625c1.501953125-1.3002929688,2.36328125-3.1772460938,2.36328125-5.1513671875,0-2.9716796875-1.953125-5.5551757812-4.6708984375-6.4633789062-.240234375,2.8266601562-1.462890625,5.4946289062-3.4921875,7.5239257812l-2.12109375-2.12109375c1.7080078125-1.708984375,2.65625-4.0219726562,2.65625-6.4311523438,0-.2265625-.0078125-.4541015625-.025390625-.681640625-.1611328125-2.1762695312-1.095703125-4.2197265625-2.630859375-5.7548828125-3.1982421875-3.1982421875-8.140625-3.5610351562-11.744140625-.9501953125-.1650390625,2.0986328125-1.060546875,4.0478515625-2.5654296875,5.552734375l-2.12109375-2.12109375c1.1064453125-1.1069335938,1.71484375-2.5776367188,1.7138671875-4.14453125v-.033203125c-.0078125-1.5532226562-.6171875-3.0131835938-1.7138671875-4.1103515625-1.751953125-1.7514648438-4.4008789062-2.1635742188-6.5703125-1.1831054688,1.5556640625,1.9223632812,2.4213867188,4.3271484375,2.4213867188,6.83203125h-3c0-2.2885742188-1.0004882812-4.4633789062-2.744140625-5.9663085938-1.4311523438-1.2329101562-3.2543945312-1.912109375-5.1342773438-1.912109375-3.8491210938,0-7.1083984375,2.8081054688-7.7524414062,6.529296875,1.7915039062,1.4272460938,2.87109375,3.6196289062,2.87109375,5.9301757812h-3c0-1.62109375-.8359375-3.0888671875-2.2353515625-3.9267578125h-.0004882812c-.7124023438-.4267578125-1.5229492188-.65234375-2.3432617188-.65234375-2.5791015625,0-4.5795898438,2.4614257812-4.5795898438,4.5791015625v1.5h-1.5c-.0546875.001953125-1.802734375.06640625-3.5009765625,1.7641601562-1.9389648438,1.939453125-2.2744140625,4.8974609375-1.001953125,7.1899414062,2.2749023438-2.201171875,5.287109375-3.4331054688,8.5092773438-3.4331054688v3c-2.92578125,0-5.6240234375,1.3471679688-7.4028320312,3.6958007812-1.2353515625,1.6318359375-1.8881835938,3.56640625-1.8881835938,5.5952148438,0,5.1225585938,4.16796875,9.2905273438,9.291015625,9.2905273438,1.5815429688,0,3.1489257812-.41015625,4.533203125-1.185546875l.0078125-.0048828125c2.9296875-1.646484375,4.7495117188-4.7504882812,4.7495117188-8.1000976562h3c0,4.1010742188-2.0600585938,7.9233398438-5.4365234375,10.1958007812.5571289062,3.759765625,3.7705078125,6.59375,7.6552734375,6.59375,1.806640625,0,3.5004882812-.603515625,4.8989257812-1.74609375,1.8134765625-1.4814453125,2.853515625-3.6708984375,2.853515625-6.005859375h3c0,2.173828125-.6489257812,4.255859375-1.8359375,6.0107421875,5.5786132812,1.1220703125,10.3432617188,4.859375,12.5444335938,9.84375,1.0419921875-1.8427734375,3.0146484375-3.087890625,5.2705078125-3.087890625.1887207031,0,.3751831055-.0383300781.5622558594-.0671386719-2.5380859375,2.4996948242-4.2251586914,5.8575439453-4.5842285156,9.6003417969h2.3275756836c.7482910156-6.6168823242,6.373046875-11.7783203125,13.1865844727-11.7783203125s12.4391479492,5.1614379883,13.1875610352,11.7783203125h11.7219238281l-3.5883178711-3.5862426758h4.3184814453l5.0859375,5.0859375ZM63.7896728516,93.9099121094c-.0761108398-.2397460938-.1489868164-.4811401367-.2086181641-.7281494141-.2509765625.0882568359-.5067749023.1608276367-.7626953125.2326660156.0529174805-.0097045898.1013183594-.0316772461.157043457-.0316772461.3630981445,0,.671875.2176513672.8142700195.5271606445ZM55.3681640625,114.4259033203c0-5.66796875-4.6108398438-10.2783203125-10.2778320312-10.2783203125s-10.2778320312,4.6103515625-10.2778320312,10.2783203125c0,5.6669921875,4.6108398438,10.27734375,10.2778320312,10.27734375s10.2778320312-4.6103515625,10.2778320312-10.27734375ZM88.9443359375,114.4259033203c0-5.66796875-4.6108398438-10.2783203125-10.2778320312-10.2783203125s-10.2778320312,4.6103515625-10.2778320312,10.2783203125c0,5.6669921875,4.6108398438,10.27734375,10.2778320312,10.27734375s10.2778320312-4.6103515625,10.2778320312-10.27734375ZM122.5205078125,114.4259033203c0-.793762207-.0991210938-1.5633544922-.2702026367-2.305847168-.0305786133.469543457-.4117431641.8440551758-.8890380859.8440551758-.4973144531,0-.900390625-.403137207-.900390625-.900390625s.4030761719-.900390625.900390625-.900390625c.3255615234,0,.5979614258.1818847656.7561035156.4407958984-.2323608398-.8120117188-.5616455078-1.5814208984-.9756469727-2.2982177734-.3881225586-.1000976562-.680847168-.436706543-.680847168-.8560791016,0-.0476074219.0199584961-.0886230469.0270996094-.1342773438-.2761230469-.3715820312-.5712890625-.7276000977-.8939208984-1.0583496094-.1641845703.1742553711-.393371582.2860717773-.6517333984.2860717773-.497253418,0-.900390625-.403137207-.900390625-.900390625,0-.2085571289.0824584961-.3917236328.2014770508-.5443725586-.3369750977-.2435913086-.6844482422-.4729614258-1.0502929688-.6749267578-.1650390625.1881713867-.3997802734.3127441406-.6696777344.3127441406-.497253418,0-.900390625-.403137207-.900390625-.900390625,0-.0347900391.0159912109-.0643310547.0198364258-.0981445312-1.0650634766-.375-2.2052001953-.5895996094-3.3969116211-.5900268555.2027587891.1651000977.3400878906.4063720703.3400878906.6881713867,0,.497253418-.403137207.900390625-.900390625.900390625-.4973144531,0-.900390625-.403137207-.900390625-.900390625,0-.2372436523.0960693359-.4496459961.24609375-.6104736328-1.2100830078.1428833008-2.3532714844.4993286133-3.3980102539,1.0264282227-.1514282227.2842407227-.4410400391.4844360352-.7855224609.4844360352-.0186767578,0-.0343017578-.0095214844-.0526733398-.0106201172-.5415039062.3403320312-1.0474853516.7291259766-1.5150756836,1.161315918-.0850830078.2954711914-.3085327148.5200195312-.603515625.606262207-.9931030273,1.0831298828-1.762878418,2.3728027344-2.221496582,3.8045654297.2672729492.1561279297.4553833008.4340209961.4553833008.7658691406,0,.4712524414-.366027832.8464355469-.8270874023.8856201172-.0700683594.4835205078-.1185302734.9739379883-.1185302734,1.4765625,0,.1204223633.0139160156.2373657227.0180664062.3568115234.0095825195-.0003051758.0175170898-.0054931641.0271606445-.0054931641.497253418,0,.900390625.403137207.900390625.900390625,0,.434753418-.3143310547.780456543-.7241210938.8648071289.2972412109,1.4138793945.8913574219,2.7164916992,1.7055664062,3.8521728516.1514892578-.1157226562.3316650391-.1965332031.5370483398-.1965332031.497253418,0,.900390625.403137207.900390625.900390625,0,.2579345703-.111328125.4869384766-.28515625.6510620117.3036499023.2985229492.630065918.5723876953.9686889648.8316650391.1306762695-.3360595703.4526977539-.5761108398.8349609375-.5761108398.497253418,0,.900390625.4030761719.900390625.900390625,0,.2437133789-.098815918.4632568359-.2561035156.6253662109.3784179688.1982421875.7725830078.3681640625,1.1766967773.518737793.1596069336-.1438598633.3660888672-.2375488281.5979003906-.2375488281.4149780273,0,.7492675781.2864379883.8535766602.6683349609.6851806641.1444702148,1.3943481445.2229003906,2.121887207.2229003906.3286743164,0,.6528930664-.0189819336.9737548828-.0493164062.0316772461-.4685058594.412109375-.8419189453.8886108398-.8419189453.3624267578,0,.6705932617.2169799805.8133544922.5256958008.5295410156-.1431274414,1.0424194336-.3240356445,1.5346069336-.5462036133-.4622802734-.0379638672-.8294677734-.4139404297-.8294677734-.8860473633,0-.4973144531.403137207-.900390625.900390625-.900390625s.900390625.4030761719.900390625.900390625c0,.1788330078-.0654907227.3358764648-.1553955078.4760131836.7122192383-.4013061523,1.367980957-.8877563477,1.9624023438-1.4408569336-.0916748047.0314331055-.1861572266.0582275391-.2885131836.0582275391-.497253418,0-.900390625-.4030761719-.900390625-.900390625,0-.497253418.403137207-.900390625.900390625-.900390625.4973144531,0,.900390625.403137207.900390625.900390625,0,.1011352539-.0267944336.1943359375-.0575561523.2850952148.3928222656-.4254760742.7528076172-.8802490234,1.0700683594-1.3673095703-.2324829102-.1627807617-.3943481445-.4193115234-.3943481445-.7247314453,0-.497253418.4030761719-.900390625.900390625-.900390625.1181640625,0,.2297363281.0258178711.3330688477.067199707.5306396484-1.2389526367.826171875-2.6015014648.826171875-4.032409668ZM47.0600585938,109.4775390625h-1.830078125l-3.2998046875,1.0952148438v2.7299804688l2.3095703125-.6303710938v4.544921875h-2.5048828125v2.4599609375h7.6201171875v-2.4599609375h-2.294921875v-7.7397460938ZM80.7788085938,115.5673828125c1.1401367188-1.1997070312,1.6049804688-2.0698242188,1.6049804688-2.955078125,0-1.9946289062-1.4096679688-3.3447265625-3.75-3.3447265625-2.4594726562,0-3.9145507812,1.365234375-3.9897460938,3.5698242188h2.7900390625c.0751953125-.6298828125.4047851562-1.0498046875,1.0649414062-1.0498046875.6298828125,0,.9448242188.375.9448242188.8100585938,0,.4799804688-.3447265625.9150390625-.9448242188,1.6049804688l-3.705078125,4.1098632812v1.3647460938h7.634765625v-2.4599609375h-3.2397460938l1.58984375-1.6499023438ZM121.3612670898,114.7772216797c-.4973144531,0-.900390625.403137207-.900390625.900390625,0,.4973144531.4030761719.900390625.900390625.900390625.497253418,0,.900390625-.4030761719.900390625-.900390625,0-.497253418-.403137207-.900390625-.900390625-.900390625ZM116.0671386719,120.0497436523c.1358032227.0821533203.2860107422.1421508789.4562988281.1421508789.497253418,0,.900390625-.4030761719.900390625-.900390625,0-.2580566406-.1115112305-.487121582-.2854614258-.6513061523-.2560424805.5371704102-.6165161133,1.0129394531-1.0712280273,1.4095458984ZM118.9423217773,116.5841674805c-.497253418,0-.900390625.403137207-.900390625.900390625,0,.4973144531.403137207.900390625.900390625.900390625.4973144531,0,.900390625-.4030761719.900390625-.900390625,0-.497253418-.4030761719-.900390625-.900390625-.900390625ZM118.9423217773,112.9702758789c-.497253418,0-.900390625.403137207-.900390625.900390625s.403137207.900390625.900390625.900390625c.4973144531,0,.900390625-.403137207.900390625-.900390625s-.4030761719-.900390625-.900390625-.900390625ZM118.9423217773,109.3563842773c-.497253418,0-.900390625.403137207-.900390625.900390625s.403137207.900390625.900390625.900390625c.4973144531,0,.900390625-.403137207.900390625-.900390625s-.4030761719-.900390625-.900390625-.900390625ZM116.5234375,107.5494384766c-.497253418,0-.900390625.403137207-.900390625.900390625s.403137207.900390625.900390625.900390625.900390625-.403137207.900390625-.900390625-.403137207-.900390625-.900390625-.900390625ZM111.6856689453,122.005065918c-.4973144531,0-.900390625.4030761719-.900390625.900390625,0,.497253418.4030761719.900390625.900390625.900390625.497253418,0,.900390625-.403137207.900390625-.900390625,0-.4973144531-.403137207-.900390625-.900390625-.900390625ZM113.2448120117,121.2998046875c.0936889648.3972167969.4338989258.6990356445.8597412109.6990356445.497253418,0,.900390625-.4030761719.900390625-.900390625,0-.1180419922-.0258178711-.2294921875-.0671386719-.3327636719-.5111083984.2456054688-1.0702514648.4372558594-1.6929931641.5341186523ZM114.1045532227,107.5432739258c.497253418,0,.900390625-.403137207.900390625-.900390625s-.403137207-.900390625-.900390625-.900390625-.900390625.403137207-.900390625.900390625.403137207.900390625.900390625.900390625ZM108.3663330078,121.098449707c0,.4973144531.403137207.900390625.900390625.900390625.4931030273,0,.8912353516-.3969726562.8980102539-.8884887695-.549621582-.1590576172-1.0439453125-.3900146484-1.4859619141-.6813964844-.1879882812.1650390625-.3124389648.3997192383-.3124389648.6694946289ZM112.2716674805,107.7789916992c-.1582641602-.1382446289-.359375-.2295532227-.5859985352-.2295532227-.2672729492,0-.5006713867.1216430664-.6655883789.3065795898.3551025391-.0571899414.7252807617-.0884399414,1.1102905273-.0884399414.0490722656,0,.0927124023.0104370117.1412963867.0114135742ZM109.2667236328,107.5432739258c.4973144531,0,.900390625-.403137207.900390625-.900390625s-.4030761719-.900390625-.900390625-.900390625c-.497253418,0-.900390625.403137207-.900390625.900390625s.403137207.900390625.900390625.900390625ZM106.8478393555,118.3911132812c-.497253418,0-.900390625.403137207-.900390625.900390625,0,.4973144531.403137207.900390625.900390625.900390625.3975830078,0,.7243652344-.2618408203.8436889648-.6193847656-.2988891602-.3453369141-.5475463867-.7316894531-.7393188477-1.1603393555-.0358886719-.0043334961-.0673217773-.0210571289-.1043701172-.0210571289ZM106.4848022461,116.4987792969l-.1166381836-1.4865722656h1.0737304688c-.1591796875-.1420288086-.3639526367-.2349853516-.5940551758-.2349853516-.497253418,0-.900390625.403137207-.900390625.900390625,0,.3675537109.2216796875.6812133789.5373535156.8211669922ZM104.4289550781,116.5841674805c-.497253418,0-.900390625.403137207-.900390625.900390625,0,.4973144531.403137207.900390625.900390625.900390625s.900390625-.4030761719.900390625-.900390625c0-.497253418-.403137207-.900390625-.900390625-.900390625ZM106.6127929688,112.6684570312c.0282592773-.5355224609.1470336914-1.0255737305.3060913086-1.4907836914-.0246582031-.0020141602-.0458374023-.0143432617-.0710449219-.0143432617-.497253418,0-.900390625.403137207-.900390625.900390625,0,.4093017578.278503418.7409057617.6524047852.8503417969l.0129394531-.2456054688ZM104.4289550781,112.9702758789c-.497253418,0-.900390625.403137207-.900390625.900390625s.403137207.900390625.900390625.900390625.900390625-.403137207.900390625-.900390625-.403137207-.900390625-.900390625-.900390625ZM104.4289550781,109.3563842773c-.497253418,0-.900390625.403137207-.900390625.900390625s.403137207.900390625.900390625.900390625.900390625-.403137207.900390625-.900390625-.403137207-.900390625-.900390625-.900390625ZM106.8478393555,107.5494384766c-.497253418,0-.900390625.403137207-.900390625.900390625s.403137207.900390625.900390625.900390625.900390625-.403137207.900390625-.900390625-.403137207-.900390625-.900390625-.900390625ZM116.0747680664,116.6773071289c0-1.125-.6445922852-1.7398071289-1.4844360352-2.0849609375.734375-.375,1.2744140625-.9897460938,1.2744140625-2.0546875,0-1.9502563477-1.4541015625-3.2700195312-3.734375-3.2700195312-2.490234375,0-3.9150390625,1.5-4.01953125,3.4799804688h2.744140625c.044921875-.6298828125.5107421875-1.0649414062,1.2607421875-1.0649414062.6591796875,0,1.1240234375.375,1.1240234375.9447631836,0,.5849609375-.46484375.9750976562-1.2294921875.9750976562h-.884765625v2.0698242188h.884765625c.8544921875,0,1.3203125.330078125,1.3203125.9150390625,0,.6000976562-.525390625.9750976562-1.23046875.9750976562-.794921875,0-1.3193359375-.4350585938-1.3798828125-1.0502929688h-2.7294921875c.1650390625,2.1000976562,1.6796875,3.375,4.109375,3.375,2.35546875,0,3.974609375-1.2749023438,3.974609375-3.2099609375l.0000610352.0000610352Z"/></svg>