<?xml version="1.0" encoding="UTF-8"?><svg id="symbole_neu_2026" xmlns="http://www.w3.org/2000/svg" viewBox="0 0 170.0787353516 170.0787353516"><defs><style>.cls-1{fill:#1d1d1b;}</style></defs><path class="cls-1" d="M111.2919311523,77.5918579102c.1651000977,0,.311340332.0565185547.4443969727.1340942383-.1489868164.5588989258-.3100585938,1.1128540039-.4940185547,1.6566772461-.4729003906-.0272216797-.850769043-.4107055664-.850769043-.8903808594,0-.4973144531.403137207-.900390625.900390625-.900390625ZM111.2919311523,73.9779052734c-.497253418,0-.900390625.403137207-.900390625.900390625,0,.4973144531.403137207.900390625.900390625.900390625s.900390625-.4030761719.900390625-.900390625c0-.497253418-.403137207-.900390625-.900390625-.900390625ZM111.2919311523,70.3640136719c-.497253418,0-.900390625.403137207-.900390625.900390625,0,.4973144531.403137207.900390625.900390625.900390625s.900390625-.4030761719.900390625-.900390625c0-.497253418-.403137207-.900390625-.900390625-.900390625ZM111.2919311523,68.5509033203c.497253418,0,.900390625-.4030761719.900390625-.900390625,0-.497253418-.403137207-.900390625-.900390625-.900390625s-.900390625.403137207-.900390625.900390625c0,.4973144531.403137207.900390625.900390625.900390625ZM111.2919311523,64.9370117188c.2357177734,0,.4464111328-.0954589844.6069335938-.2437133789-.1225585938-.5111694336-.256652832-1.0177001953-.4083251953-1.5169677734-.0657958984-.0153198242-.1281738281-.0401000977-.1986083984-.0401000977-.497253418,0-.900390625.403137207-.900390625.900390625s.403137207.900390625.900390625.900390625ZM107.97265625,83.9130859375c0,.4378662109.3187255859.7856445312.7329711914.8665771484.2936401367-.4767456055.5681152344-.9661254883.8317871094-1.462097168-.1649169922-.1840209961-.3978881836-.3048706055-.6643676758-.3048706055-.497253418,0-.900390625.403137207-.900390625.900390625ZM108.873046875,64.9431762695c-.497253418,0-.900390625.403137207-.900390625.900390625s.403137207.900390625.900390625.900390625.900390625-.403137207.900390625-.900390625-.403137207-.900390625-.900390625-.900390625ZM110.7757568359,61.140625c-.1143798828-.2890014648-.2313842773-.5764160156-.35546875-.8602905273-.0079956055.0482177734-.0287475586.0919189453-.0287475586.1423950195,0,.3009643555.157409668.5543823242.3842163086.7178955078ZM108.873046875,61.329284668c-.497253418,0-.900390625.403137207-.900390625.900390625s.403137207.900390625.900390625.900390625.900390625-.403137207.900390625-.900390625-.403137207-.900390625-.900390625-.900390625ZM108.873046875,59.5161743164c.4215698242,0,.7593383789-.2958374023.8572998047-.6870117188-.182434082-.3566894531-.372253418-.7086181641-.5700683594-1.0557861328-.0913085938-.0311889648-.1853637695-.0579833984-.2872314453-.0579833984-.497253418,0-.900390625.403137207-.900390625.900390625s.403137207.900390625.900390625.900390625ZM106.4541625977,57.7092285156c.497253418,0,.900390625-.403137207.900390625-.900390625s-.403137207-.900390625-.900390625-.900390625c-.4973144531,0-.900390625.403137207-.900390625.900390625s.4030761719.900390625.900390625.900390625ZM106.4541625977,61.3231201172c.497253418,0,.900390625-.403137207.900390625-.900390625s-.403137207-.900390625-.900390625-.900390625c-.4973144531,0-.900390625.403137207-.900390625.900390625s.4030761719.900390625.900390625.900390625ZM106.4541625977,54.0953369141c.0570678711,0,.1067504883-.0223388672.1608886719-.0324707031-.3233032227-.3944091797-.6585693359-.7783203125-1.0036621094-1.1533203125-.0308227539.0908203125-.0576171875.1841430664-.0576171875.2854003906,0,.497253418.4030761719.900390625.900390625.900390625ZM104.0352172852,55.9022827148c.4973144531,0,.900390625-.403137207.900390625-.900390625,0-.4973144531-.4030761719-.900390625-.900390625-.900390625-.497253418,0-.900390625.4030761719-.900390625.900390625,0,.497253418.403137207.900390625.900390625.900390625ZM101.6163330078,54.0953369141c.497253418,0,.900390625-.403137207.900390625-.900390625,0-.4973144531-.403137207-.900390625-.900390625-.900390625s-.900390625.4030761719-.900390625.900390625c0,.497253418.403137207.900390625.900390625.900390625ZM104.0352172852,52.2883911133c.2709350586,0,.5062255859-.1256713867.6712646484-.3150024414-.4243774414-.4185180664-.8650512695-.8198852539-1.3165283203-1.2093505859-.1566162109.1619873047-.2551269531.380859375-.2551269531.6239624023,0,.497253418.403137207.900390625.900390625.900390625ZM101.6163330078,50.4814453125c.3572998047,0,.6597900391-.2122192383.8052978516-.5138549805-.4605712891-.3611450195-.9301147461-.7111816406-1.4143676758-1.0418701172-.1770019531.1644287109-.2913208008.3947143555-.2913208008.6553344727,0,.497253418.403137207.900390625.900390625.900390625ZM99.1974487305,52.2883911133c.497253418,0,.900390625-.403137207.900390625-.900390625,0-.4973144531-.403137207-.900390625-.900390625-.900390625s-.900390625.4030761719-.900390625.900390625c0,.497253418.403137207.900390625.900390625.900390625ZM96.7785644531,50.4814453125c.497253418,0,.900390625-.403137207.900390625-.900390625,0-.4973144531-.403137207-.900390625-.900390625-.900390625-.4973144531,0-.900390625.4030761719-.900390625.900390625,0,.497253418.4030761719.900390625.900390625.900390625ZM99.1974487305,48.6744384766c.3228759766,0,.592956543-.1793212891.7518920898-.4346313477-.5024414062-.309387207-1.0173950195-.5998535156-1.5411987305-.8760375977-.0651245117.1245727539-.1110839844.2600097656-.1110839844.4102783203,0,.4973144531.403137207.900390625.900390625.900390625ZM94.3596191406,129.9934082031c-.3262329102,0-.5991821289.1826171875-.7571411133.4423828125h1.5142822266c-.1579589844-.259765625-.430847168-.4423828125-.7571411133-.4423828125ZM95.8781738281,129.0868530273c0,.4641113281.3557739258.8325805664.8068847656.8815307617v-1.7630615234c-.4511108398.0488891602-.8068847656.4173583984-.8068847656.8815307617ZM94.3596191406,126.3794555664c-.497253418,0-.900390625.403137207-.900390625.900390625,0,.4973144531.403137207.900390625.900390625.900390625.4973144531,0,.900390625-.4030761719.900390625-.900390625,0-.497253418-.4030761719-.900390625-.900390625-.900390625ZM95.8781738281,125.4729003906c0,.4641723633.3557739258.8326416016.8068847656.8815307617v-1.7630615234c-.4511108398.0489501953-.8068847656.4174194336-.8068847656.8815307617ZM94.798828125,124.4357910156h-.8783569336c.1317749023.0756225586.2763061523.1305541992.4391479492.1305541992s.307434082-.0549316406.4392089844-.1305541992ZM96.7785644531,46.8674926758c.1484375,0,.2825927734-.0446166992.4060058594-.108215332-.4130249023-.1912841797-.8317260742-.3715820312-1.255859375-.5419311523.110168457.3728027344.4413452148.6501464844.8498535156.6501464844ZM94.3596191406,48.6744384766c.4973144531,0,.900390625-.4030761719.900390625-.900390625,0-.497253418-.4030761719-.900390625-.900390625-.900390625-.497253418,0-.900390625.403137207-.900390625.900390625,0,.4973144531.403137207.900390625.900390625.900390625ZM91.0403442383,125.4729003906c0,.4973144531.403137207.900390625.900390625.900390625s.900390625-.4030761719.900390625-.900390625c0-.497253418-.403137207-.900390625-.900390625-.900390625s-.900390625.403137207-.900390625.900390625ZM87.1029663086,124.5725097656c-.4973144531,0-.900390625.403137207-.900390625.900390625,0,.4973144531.4030761719.900390625.900390625.900390625.497253418,0,.900390625-.4030761719.900390625-.900390625,0-.497253418-.403137207-.900390625-.900390625-.900390625ZM88.6214599609,123.6659545898c0,.3220825195.178527832.5914916992.4327392578.7506103516v-1.5012207031c-.2542114258.1591186523-.4327392578.4285888672-.4327392578.7506103516ZM89.9609985352,124.4357910156h-.8782958984c.1317749023.0756225586.2763061523.1305541992.4391479492.1305541992s.3073730469-.0549316406.4391479492-.1305541992ZM87.1029663086,120.9586181641c-.4973144531,0-.900390625.403137207-.900390625.900390625,0,.4973144531.4030761719.900390625.900390625.900390625.497253418,0,.900390625-.4030761719.900390625-.900390625,0-.497253418-.403137207-.900390625-.900390625-.900390625ZM89.0541992188,119.3014526367c-.2542114258.1591186523-.4327392578.4285888672-.4327392578.7506103516s.178527832.5914916992.4327392578.7506103516v-1.5012207031ZM87.1029663086,117.3447265625c-.4973144531,0-.900390625.403137207-.900390625.900390625s.4030761719.900390625.900390625.900390625c.497253418,0,.900390625-.403137207.900390625-.900390625s-.403137207-.900390625-.900390625-.900390625ZM89.0541992188,115.6875610352c-.2542114258.1591186523-.4327392578.4285888672-.4327392578.7506103516s.178527832.5914916992.4327392578.7506103516v-1.5012207031ZM87.1029663086,113.7308349609c-.4973144531,0-.900390625.403137207-.900390625.900390625s.4030761719.900390625.900390625.900390625c.497253418,0,.900390625-.403137207.900390625-.900390625s-.403137207-.900390625-.900390625-.900390625ZM89.0541992188,112.0736694336c-.2542114258.1591186523-.4327392578.4285888672-.4327392578.7506103516s.178527832.5914916992.4327392578.7506103516v-1.5012207031ZM87.1029663086,110.1169433594c-.4973144531,0-.900390625.403137207-.900390625.900390625s.4030761719.900390625.900390625.900390625c.497253418,0,.900390625-.403137207.900390625-.900390625s-.403137207-.900390625-.900390625-.900390625ZM89.0541992188,108.4597167969c-.2542114258.1591186523-.4327392578.4285888672-.4327392578.7506713867,0,.3220214844.178527832.5914916992.4327392578.7506103516v-1.5012817383ZM87.1029663086,106.5030517578c-.4973144531,0-.900390625.4030761719-.900390625.900390625,0,.497253418.4030761719.900390625.900390625.900390625.497253418,0,.900390625-.403137207.900390625-.900390625,0-.4973144531-.403137207-.900390625-.900390625-.900390625ZM89.0541992188,104.8458251953c-.2542114258.1591186523-.4327392578.4285888672-.4327392578.7506713867,0,.3220214844.178527832.5914916992.4327392578.7506103516v-1.5012817383ZM87.1029663086,102.8891601562c-.4973144531,0-.900390625.4030761719-.900390625.900390625,0,.497253418.4030761719.900390625.900390625.900390625.497253418,0,.900390625-.403137207.900390625-.900390625,0-.4973144531-.403137207-.900390625-.900390625-.900390625ZM89.0541992188,101.2319335938c-.2542114258.1591186523-.4327392578.4285888672-.4327392578.7506713867,0,.3220214844.178527832.5914916992.4327392578.7506103516v-1.5012817383ZM91.9407348633,46.8674926758c.497253418,0,.900390625-.4030761719.900390625-.900390625,0-.497253418-.403137207-.900390625-.900390625-.900390625s-.900390625.403137207-.900390625.900390625c0,.4973144531.403137207.900390625.900390625.900390625ZM89.5218505859,48.6744384766c.497253418,0,.900390625-.4030761719.900390625-.900390625,0-.497253418-.403137207-.900390625-.900390625-.900390625s-.900390625.403137207-.900390625.900390625c0,.4973144531.403137207.900390625.900390625.900390625ZM89.5218505859,45.060546875c.3149414062,0,.5786743164-.1714477539.7396240234-.4163818359-.5232543945-.0835571289-1.0509643555-.1531982422-1.5838623047-.2056884766.1185302734.3588256836.4456787109.6220703125.8442382812.6220703125ZM87.1029663086,46.8674926758c.497253418,0,.900390625-.4030761719.900390625-.900390625,0-.497253418-.403137207-.900390625-.900390625-.900390625-.4973144531,0-.900390625.403137207-.900390625.900390625,0,.4973144531.4030761719.900390625.900390625.900390625ZM84.6840209961,45.060546875c.4403686523,0,.789855957-.322265625.867980957-.7399291992-.5775146484.0108032227-1.1503295898.0399169922-1.7183837891.0871582031.109375.3740844727.4409790039.6527709961.850402832.6527709961ZM82.2651367188,46.8674926758c.497253418,0,.900390625-.4030761719.900390625-.900390625,0-.497253418-.403137207-.900390625-.900390625-.900390625s-.900390625.403137207-.900390625.900390625c0,.4973144531.403137207.900390625.900390625.900390625ZM80.2499389648,44.953918457c-.1451416016.032409668-.2899169922.065612793-.4342041016.1004638672.0107421875.0003662109.0197143555.0061645508.0305175781.0061645508.1474609375,0,.2808837891-.0438232422.4036865234-.106628418ZM78.3277587891,125.4729003906c0-.497253418-.403137207-.900390625-.900390625-.900390625-.4973144531,0-.900390625.403137207-.900390625.900390625,0,.4973144531.4030761719.900390625.900390625.900390625.497253418,0,.900390625-.4030761719.900390625-.900390625ZM75.4243164062,124.4514770508c.0083618164-.0044555664.0151367188-.0109863281.0233154297-.0156860352h-.0233154297v.0156860352ZM77.4273681641,46.8674926758c.497253418,0,.900390625-.4030761719.900390625-.900390625,0-.1752319336-.0631713867-.3293457031-.1497802734-.4676513672-.5521240234.1716308594-1.0936889648.3665161133-1.6298217773.5725708008.0541992188.4453735352.419128418.7954711914.8792114258.7954711914ZM75.0084228516,48.6744384766c.4973144531,0,.900390625-.4030761719.900390625-.900390625,0-.497253418-.4030761719-.900390625-.900390625-.900390625-.497253418,0-.900390625.403137207-.900390625.900390625,0,.4973144531.403137207.900390625.900390625.900390625ZM108.873046875,70.3578491211c-.0289916992,0-.0534057617-.0137939453-.0816650391-.0164794922.0946044922.6115722656.1611938477,1.2317504883.2131347656,1.8561401367.4321289062.0661010742.7689208984.4232177734.7689208984.873840332,0,.4196166992-.2930297852.7562866211-.6813964844.8562011719.0029907227.1641235352.0124511719.3266601562.0124511719.4915161133,0,.4713134766-.0133056641.9395751953-.0376586914,1.4049682617.4010009766.0909423828.7066040039.4326782227.7066040039.8612670898,0,.4840698242-.3842163086.8723144531-.8632202148.8928833008-.0750732422.6307373047-.1708374023,1.2550048828-.2894897461,1.8715209961.0816040039-.0243530273.1628417969-.0509033203.2523193359-.0509033203.497253418,0,.900390625.4030761719.900390625.900390625,0,.497253418-.403137207.900390625-.900390625.900390625-.2271118164,0-.4288330078-.0915527344-.5872192383-.2303466797-.3507080078,1.3786621094-.8116455078,2.7131347656-1.3688964844,3.996887207.257019043.1585693359.4376220703.4297485352.4376220703.75390625,0,.497253418-.403137207.900390625-.900390625.900390625-.1053466797,0-.2030029297-.0266723633-.2969360352-.0599365234-.6731567383,1.3049926758-1.4453125,2.5507202148-2.3171386719,3.7193603516.0647583008-.0147705078.1259155273-.0393676758.1951293945-.0393676758.0630493164,0,.118347168.0235595703.177734375.0358886719-.3454589844.3236083984-.7000732422.6372680664-1.0624389648.9422607422-.0014648438-.0162353516-.0087890625-.0302734375-.0093994141-.0466918945-.0407714844.0501098633-.0790405273.102355957-.1201782227.1520996094-3.5454101562,4.2910766602-8.4104614258,7.4522705078-13.9667358398,8.8611450195-.3652954102.092590332-.7332763672.1782226562-1.1043701172.2554931641-.1146850586.3654785156-.4436645508.6353149414-.846862793.6353149414-.2915039062,0-.5386352539-.1475830078-.7031860352-.3624267578-.2902832031.0426025391-.5826416016.0785522461-.8758544922.1116333008v.8577270508c.0338134766.0946655273.0604858398.193359375.0604858398.2996826172s-.0266723633.2050170898-.0604858398.2996826172v3.0145263672c.0338134766.0946655273.0604858398.193359375.0604858398.2996826172s-.0266723633.2050170898-.0604858398.2996826172v3.0145263672c.0338134766.0946655273.0604858398.193359375.0604858398.2996826172s-.0266723633.2050170898-.0604858398.2996826172v3.0145263672c.0338134766.0946655273.0604858398.193359375.0604858398.2996826172s-.0266723633.2050170898-.0604858398.2996826172v3.0145263672c.0338134766.0946655273.0604858398.193359375.0604858398.2996826172s-.0266723633.2050170898-.0604858398.2996826172v3.0145263672c.0338134766.0946655273.0604858398.193359375.0604858398.2996826172s-.0266723633.2050170898-.0604858398.2996826172v3.0145263672c.0338134766.0946655273.0604858398.193359375.0604858398.2996826172s-.0266723633.2050170898-.0604858398.2996826172v3.0145263672c.0338134766.0946655273.0604858398.193359375.0604858398.2996826172s-.0266723633.2050170898-.0604858398.2996826172v.3864135742h3.4345703125c-.2010498047-.1651000977-.3370361328-.4055786133-.3370361328-.6860961914,0-.497253418.403137207-.900390625.900390625-.900390625s.900390625.403137207.900390625.900390625c0,.2805175781-.1359863281.5209960938-.3370361328.6860961914h3.0681152344v6h-21.2592773438v-6h3.5302734375v-1.4716186523c.2842407227.1513671875.4844970703.4409790039.4844970703.7855224609,0,.2805175781-.135925293.5209960938-.3369750977.6860961914h3.7110595703c-.2010498047-.1651000977-.3370361328-.4055786133-.3370361328-.6860961914,0-.3829345703.2410888672-.7051391602.5780639648-.8353271484v-1.9432373047c-.0426635742-.0164794922-.0775756836-.04296875-.1168212891-.0654907227h.1168212891v-23.6105957031c-13.2489013672-1.4956665039-23.5805664062-12.7645263672-23.5805664062-26.4061279297,0-8.2243652344,3.7555541992-15.5874023438,9.6409301758-20.466796875.4281005859-.3549804688.8702392578-.6929321289,1.3203125-1.0209960938.1141967773-.3660888672.4434204102-.63671875.8471679688-.63671875.0165405273,0,.0303344727.0085449219.0466918945.0093994141.4794921875-.3203125.9722290039-.6215209961,1.4728393555-.9107666016,0-.0018310547-.0010375977-.0033569336-.0010375977-.0051879883,0-.4973144531.4030761719-.900390625.900390625-.900390625.181640625,0,.3409423828.067199707.482421875.1597290039.3967895508-.1989135742.798828125-.3884887695,1.2066040039-.5678710938-.0991210938-.1446533203-.1705322266-.3098144531-.1705322266-.4984130859,0-.4973144531.403137207-.900390625.900390625-.900390625.4444580078,0,.7969360352.3280029297.8703613281.7515258789,1.7692260742-.643737793,3.6271362305-1.0982666016,5.5474853516-1.3533935547-.0349121094-.0960083008-.0615234375-.1966552734-.0615234375-.3047485352,0-.497253418.403137207-.900390625.900390625-.900390625s.900390625.403137207.900390625.900390625c0,.0471801758-.0198364258.0878295898-.0268554688.1330566406.5969238281-.040222168,1.1972045898-.0681152344,1.8041381836-.0681152344.4290161133,0,.8552246094.0122680664,1.2793579102.0324707031-.0037841797-.0335693359-.0196533203-.0628662109-.0196533203-.0974121094,0-.497253418.403137207-.900390625.900390625-.900390625.4973144531,0,.900390625.403137207.900390625.900390625,0,.0852661133-.0263671875.1622314453-.0485229492.2404174805,1.9257202148.2183227539,3.7880859375.6447753906,5.5676269531,1.2534790039.1278686523-.3415527344.4510498047-.5872802734.8372192383-.5872802734.497253418,0,.900390625.4030761719.900390625.900390625,0,.112487793-.0263671875.2178955078-.0640258789.3171386719.4685668945.1966552734.9297485352.4071655273,1.3842773438.6294555664.0656738281-.0152587891.1279296875-.0400390625.1982421875-.0400390625.380065918,0,.7015380859.2368774414.8336791992.5698852539,2.3709716797,1.2908935547,4.5202636719,2.9365234375,6.3868408203,4.8582763672.0126953125-.0005493164.0233764648-.0073242188.0361938477-.0073242188.497253418,0,.900390625.403137207.900390625.900390625,0,.0355224609-.0161743164.0656738281-.0202026367.1000976562.3083496094.3512573242.6069946289.7107543945.8967895508,1.0780029297.1634521484-.1668701172.3898925781-.2715454102.6419067383-.2715454102.4973144531,0,.900390625.403137207.900390625.900390625,0,.3477783203-.2033691406.640625-.4920043945.7905883789.8156738281,1.1871948242,1.5358886719,2.4437866211,2.153137207,3.7586669922.426574707.0708618164.7578125.4249267578.7578125.8715820312,0,.1857299805-.0697631836.3485107422-.1661376953.4918823242.5349121094,1.3291625977.9654541016,2.7103271484,1.2813110352,4.1349487305.1227416992-.0627441406.2560424805-.1063842773.4033203125-.1063842773.497253418,0,.900390625.403137207.900390625.900390625,0,.4973144531-.403137207.900390625-.900390625.900390625ZM106.1044921875,74.4190673828c0-13.001953125-10.578125-23.580078125-23.5805664062-23.580078125s-23.5805664062,10.578125-23.5805664062,23.580078125,10.578125,23.580078125,23.5805664062,23.580078125,23.5805664062-10.578125,23.5805664062-23.580078125ZM77.7827148438,79.3082275391l-6.6606445312-6.66015625-4.2421875,4.2421875,10.9028320312,10.9028320312,20.3852539062-20.3842773438-4.2421875-4.2431640625-16.1430664062,16.142578125Z"/></svg>