<?xml version="1.0" encoding="UTF-8"?><svg id="symbole_neu_2026" xmlns="http://www.w3.org/2000/svg" viewBox="0 0 170.0787353516 170.0787353516"><defs><style>.cls-1{fill:#1d1d1b;}</style></defs><path class="cls-1" d="M63.845703125,81.76953125l12.658203125-5.7001953125v4.9501953125l-7.1689453125,3.2099609375,7.1689453125,3.2392578125v4.9502563477l-12.658203125-5.7002563477v-4.94921875ZM78.755859375,98.2685546875h5.548828125l7.6201171875-26.69921875h-5.5498046875l-7.619140625,26.69921875ZM93.57421875,81.01953125l7.169921875,3.2099609375-7.169921875,3.2392578125v4.9501953125l12.66015625-5.7001953125v-4.94921875l-12.66015625-5.7001953125v4.9501953125ZM48.38671875,65.595703125v9.14453125c0,5.7607421875-1.9443359375,7.2734375-7.056640625,7.2734375v4.896484375c5.1123046875,0,7.056640625,1.51171875,7.056640625,7.2724609375v9.14453125c0,7.705078125,5.041015625,12.7451171875,12.6015625,12.7451171875v-5.328125c-4.3203125,0-7.12890625-2.953125-7.12890625-7.4169921875v-9.2890625c0-5.328125-1.15234375-8.208984375-5.2568359375-9.576171875,4.1044921875-1.3681640625,5.2568359375-4.1767578125,5.2568359375-9.5771484375v-9.2890625c0-4.392578125,2.80859375-7.3447265625,7.12890625-7.3447265625v-5.328125c-7.560546875,0-12.6015625,5.0400390625-12.6015625,12.6728515625ZM121.69140625,74.740234375v-9.14453125c0-7.6328125-5.041015625-12.6728515625-12.6015625-12.6728515625v5.328125c4.3203125,0,7.12890625,2.9521484375,7.12890625,7.3447265625v9.2890625c0,5.400390625,1.15234375,8.208984375,5.255859375,9.5771484375-4.103515625,1.3671875-5.255859375,4.248046875-5.255859375,9.576171875v9.2890625c0,4.4638671875-2.80859375,7.4169921875-7.12890625,7.4169921875v5.328125c7.560546875,0,12.6015625-5.0400390625,12.6015625-12.7451171875v-9.14453125c0-5.7607421875,1.943359375-7.2724609375,7.056640625-7.2724609375v-4.896484375c-5.11328125,0-7.056640625-1.5126953125-7.056640625-7.2734375Z"/></svg>