<?xml version="1.0" encoding="UTF-8"?><svg id="symbole_neu_2026" xmlns="http://www.w3.org/2000/svg" viewBox="0 0 170.0787353516 170.0787353516"><defs><style>.cls-1{fill:#1d1d1b;}</style></defs><path class="cls-1" d="M98.5006713867,68.1734008789h4.0419921875v2.1220703125h-1.7158203125v6.357421875h1.7158203125v2.1103515625h-4.0419921875v-10.58984375ZM104.1403198242,72.939453125c0-2.5185546875,1.5234375-4.2451171875,3.8984375-4.2451171875,2.3740234375,0,3.8857421875,1.7265625,3.8857421875,4.2451171875s-1.51171875,4.24609375-3.8857421875,4.24609375c-2.375,0-3.8984375-1.7275390625-3.8984375-4.24609375ZM106.3590698242,72.939453125c0,1.2958984375.6123046875,2.20703125,1.6796875,2.20703125,1.0546875,0,1.6669921875-.9111328125,1.6669921875-2.20703125,0-1.294921875-.6123046875-2.2060546875-1.6669921875-2.2060546875-1.0673828125,0-1.6796875.9111328125-1.6796875,2.2060546875ZM113.3200073242,77.1259765625c.671875,0,1.2236328125-.50390625,1.2236328125-1.17578125s-.5517578125-1.17578125-1.2236328125-1.17578125c-.68359375,0-1.2353515625.50390625-1.2353515625,1.17578125s.5517578125,1.17578125,1.2353515625,1.17578125ZM118.2868041992,70.708984375c.50390625,0,.755859375.2998046875.755859375.6474609375,0,.3837890625-.275390625.7314453125-.755859375,1.283203125l-2.9619140625,3.2861328125v1.091796875h6.1044921875v-1.966796875h-2.5908203125l1.271484375-1.3193359375c.9111328125-.9599609375,1.283203125-1.6552734375,1.283203125-2.3623046875,0-1.595703125-1.126953125-2.6748046875-2.998046875-2.6748046875-1.966796875,0-3.130859375,1.0908203125-3.1904296875,2.8544921875h2.23046875c.060546875-.50390625.32421875-.83984375.8515625-.83984375ZM123.3522338867,78.384765625l.779296875-1.2587890625c.408203125-.66015625.431640625-.8515625.431640625-1.1396484375,0-.671875-.5517578125-1.1630859375-1.2236328125-1.1630859375-.6708984375,0-1.2109375.5029296875-1.2109375,1.138671875,0,.408203125.2158203125.7802734375.6591796875.9833984375l-.6591796875,1.439453125h1.2236328125ZM103.8102416992,84.939453125c0-2.5185546875,1.5234375-4.2451171875,3.8974609375-4.2451171875,2.375,0,3.8857421875,1.7265625,3.8857421875,4.2451171875s-1.5107421875,4.24609375-3.8857421875,4.24609375c-2.3740234375,0-3.8974609375-1.7275390625-3.8974609375-4.24609375ZM106.0289916992,84.939453125c0,1.2958984375.611328125,2.20703125,1.6787109375,2.20703125,1.0556640625,0,1.6669921875-.9111328125,1.6669921875-2.20703125,0-1.294921875-.611328125-2.2060546875-1.6669921875-2.2060546875-1.0673828125,0-1.6787109375.9111328125-1.6787109375,2.2060546875ZM114.2125854492,87.9501953125c0-.671875-.5517578125-1.17578125-1.22265625-1.17578125-.68359375,0-1.2353515625.50390625-1.2353515625,1.17578125s.5517578125,1.17578125,1.2353515625,1.17578125c.6708984375,0,1.22265625-.50390625,1.22265625-1.17578125ZM121.5787963867,86.5947265625c0,1.619140625-1.2353515625,2.5908203125-3.3828125,2.5908203125-2.146484375,0-3.3701171875-.9716796875-3.3701171875-2.5908203125,0-.8388671875.4921875-1.5234375,1.33203125-1.9306640625-.6240234375-.3603515625-.9833984375-.9111328125-.9833984375-1.595703125,0-1.4267578125,1.2587890625-2.3740234375,3.021484375-2.3740234375,1.763671875,0,3.0224609375.9473266602,3.0224609375,2.3740234375,0,.6845703125-.359375,1.2353515625-.9716796875,1.595703125.828125.4072265625,1.33203125,1.091796875,1.33203125,1.9306640625ZM117.2487182617,83.1884765625c0,.4921875.408203125.8515625.947265625.8515625.5400390625,0,.9482421875-.359375.9482421875-.8515625,0-.4912109375-.408203125-.8271484375-.9482421875-.8271484375-.5390625,0-.947265625.3359375-.947265625.8271484375ZM119.2155151367,86.439453125c0-.5283203125-.431640625-.912109375-1.01953125-.912109375-.5869140625,0-1.01953125.3837890625-1.01953125.912109375,0,.5390625.4326171875.9228515625,1.01953125.9228515625.587890625,0,1.01953125-.3837890625,1.01953125-.9228515625ZM53.212890625,70.9391479492c.4973144531,0,.900390625-.403137207.900390625-.900390625,0-.4973144531-.4030761719-.900390625-.900390625-.900390625-.497253418,0-.900390625.4030761719-.900390625.900390625,0,.497253418.403137207.900390625.900390625.900390625ZM50.7940063477,72.74609375c.497253418,0,.900390625-.403137207.900390625-.900390625,0-.4973144531-.403137207-.900390625-.900390625-.900390625s-.900390625.4030761719-.900390625.900390625c0,.497253418.403137207.900390625.900390625.900390625ZM78.8017578125,95.2121582031h3v16.8387451172h-41.267578125v-37.6665039062l16.3569335938-16.3569335938h24.9106445312v16.8406982422h-3v-13.8406982422h-20.0625v15.205078125h-15.205078125v32.818359375h35.267578125v-13.8387451172ZM55.3956298828,63.7651367188c.076965332-.0214233398.1524047852-.047668457.2362060547-.047668457.2593383789,0,.4890136719.1129760742.6533203125.2884521484v-1.1303100586l-.8895263672.8895263672ZM45.3823242188,73.7784423828h2.1177978516c-.0062866211-.0429077148-.025390625-.0811767578-.025390625-.125793457,0-.4973144531.4030761719-.900390625.900390625-.900390625.497253418,0,.900390625.4030761719.900390625.900390625,0,.0446166992-.0191040039.0828857422-.025390625.125793457h3.0877685547c-.0062866211-.0429077148-.025390625-.0811767578-.025390625-.125793457,0-.4973144531.403137207-.900390625.900390625-.900390625.4973144531,0,.900390625.4030761719.900390625.900390625,0,.0446166992-.0191040039.0828857422-.025390625.125793457h2.197265625v-1.3208007812c-.1643066406.1754760742-.3939819336.2884521484-.6533203125.2884521484-.4973144531,0-.900390625-.403137207-.900390625-.900390625,0-.4973144531.4030761719-.900390625.900390625-.900390625.2593383789,0,.4890136719.1129150391.6533203125.2883911133v-2.3900146484c-.1643066406.1754760742-.3939819336.2884521484-.6533203125.2884521484-.4973144531,0-.900390625-.4030761719-.900390625-.900390625,0-.497253418.4030761719-.9003295898.900390625-.9003295898.2593383789,0,.4890136719.1129150391.6533203125.2883911133v-2.3900146484c-.1643066406.1754760742-.3939819336.2884521484-.6533203125.2884521484-.4973144531,0-.900390625-.4030761719-.900390625-.900390625,0-.0838012695.0262451172-.1592407227.047668457-.2362060547l-1.2144165039,1.2144165039c.3223266602.1370239258.5485839844.4563598633.5485839844.8287353516,0,.4973144531-.4030761719.900390625-.900390625.900390625-.3723754883,0-.6917114258-.2262573242-.8287353516-.5485839844l-.8991088867.8991088867c.1242675781.1543579102.2093505859.3424072266.2093505859.5560302734,0,.4973144531-.403137207.900390625-.900390625.900390625-.2136230469,0-.4016723633-.0850830078-.5560302734-.2093505859l-.9882202148.9882202148c.0064697266.0435180664.0257568359.0824584961.0257568359.127746582,0,.497253418-.403137207.900390625-.900390625.900390625-.0452880859,0-.0842285156-.0192871094-.127746582-.0257568359l-2.8650512695,2.8650512695ZM85.0708618164,79.9541625977l3.5880737305,3.5859985352h-16.8610839844v3h16.8609619141l-3.5879516602,3.5858764648h4.318359375l5.0859375-5.0859375-5.0859375-5.0859375h-4.318359375ZM105.034362793,99.474609375c-.68359375,0-1.2353515625.50390625-1.2353515625,1.17578125s.5517578125,1.17578125,1.2353515625,1.17578125c.6713867188,0,1.2231445312-.50390625,1.2231445312-1.17578125s-.5517578125-1.17578125-1.2231445312-1.17578125ZM108.0582885742,99.474609375c-.68359375,0-1.2353515625.50390625-1.2353515625,1.17578125s.5517578125,1.17578125,1.2353515625,1.17578125c.6713867188,0,1.2231445312-.50390625,1.2231445312-1.17578125s-.5517578125-1.17578125-1.2231445312-1.17578125ZM111.0822143555,99.474609375c-.68359375,0-1.2353515625.50390625-1.2353515625,1.17578125s.5517578125,1.17578125,1.2353515625,1.17578125c.6713867188,0,1.2231445312-.50390625,1.2231445312-1.17578125s-.5517578125-1.17578125-1.2231445312-1.17578125ZM113.3141479492,94.9956665039h1.7153320312v6.357421875h-1.7153320312v2.1103515625h4.0419921875v-10.58984375h-4.0419921875v2.1220703125ZM123.3395385742,86.7744140625c-.6708984375,0-1.2109375.5029296875-1.2109375,1.138671875,0,.408203125.2158203125.7802734375.6591796875.9833984375l-.6591796875,1.439453125h1.2236328125l.779296875-1.2587890625c.408203125-.66015625.431640625-.8515625.431640625-1.1396484375,0-.671875-.5517578125-1.1630859375-1.2236328125-1.1630859375Z"/></svg>