<?xml version="1.0" encoding="UTF-8"?><svg id="symbole_neu_2026" xmlns="http://www.w3.org/2000/svg" viewBox="0 0 170.0787353516 170.0787353516"><defs><style>.cls-1{fill:#1d1d1b;}</style></defs><path class="cls-1" d="M72.4853515625,46.7218017578c0-1.5810546875,1.2817382812-2.8676757812,2.8569335938-2.8676757812s2.8569335938,1.2866210938,2.8569335938,2.8676757812c0,1.02734375-.545715332,1.9232177734-1.3569335938,2.4296875v3.5394897461c-.0222167969-.0007324219-.0440063477-.00390625-.0662841797-.0045776367-1.0143432617-.0329589844-1.9843139648-.0001831055-2.9337158203.0620727539v-3.5969848633c-.8112182617-.5064697266-1.3569335938-1.40234375-1.3569335938-2.4296875ZM107.33203125,98.4483642578v27.6474609375h-63.9448242188v-27.6474609375c0-3.1044921875,2.501953125-5.8505859375,5.5771484375-6.1220703125l18.1303710938-1.5955200195v-3.8284912109c.9724121094.3721923828,1.9722900391.6712036133,3,.8717041016v2.8254394531l10.5107421875.0044555664v-3.76171875c.7135009766-.4513549805,1.4156494141-1.0565185547,2.1637573242-1.8832397461l.8362426758.791015625v4.973815918l18.1494140625,1.6025390625c3.0751953125.271484375,5.5771484375,3.017578125,5.5771484375,6.1220703125ZM104.33203125,98.4483642578c0-.6410522461-.2269897461-1.2547607422-.5916137695-1.7720947266-.0363769531.0044555664-.068359375.0213623047-.1059570312.0213623047-.2486572266,0-.4737548828-.1007080078-.6366577148-.263671875-.1629638672-.162902832-.2637329102-.3880615234-.2637329102-.6366577148,0-.0184936523.0093994141-.0338745117.0104980469-.0520629883-.3818969727-.2313232422-.8045043945-.3911132812-1.2533569336-.4306640625l-2.1052246094-.1859130859c.1872558594.1649780273.3110351562.3994140625.3110351562.6686401367,0,.2485961914-.1008300781.4737548828-.2637329102.6366577148-.1629638672.1629638672-.3880004883.263671875-.6366577148.263671875-.2485961914,0-.4737548828-.1007080078-.6366577148-.263671875-.1629638672-.162902832-.2637329102-.3880615234-.2637329102-.6366577148,0-.3284912109.1848144531-.6033935547.4475708008-.7606201172l-1.8709106445-.165222168c-.0327758789.0036010742-.0614013672.0192260742-.0951538086.0192260742-.0862426758,0-.1641845703-.0264282227-.2431640625-.0490722656l-3.8721923828-.3419189453c-.1630249023.2305908203-.4185180664.3909912109-.7224731445.3909912109-.3628540039,0-.6713867188-.2174072266-.8139648438-.5266113281l-3.1428222656-.2775268555c-.0502319336.4497680664-.4178466797.8041381836-.8809814453.8041381836-.4973144531,0-.900390625-.4030761719-.900390625-.900390625,0-.0212402344.0106201172-.0390625.0120849609-.0599365234l-3.1167602539-.2752075195c.0418701172.1038818359.0676269531.2162475586.0676269531.335144043,0,.4973144531-.4030761719.900390625-.900390625.900390625-.497253418,0-.900390625-.4030761719-.900390625-.900390625,0-.1421508789.0397949219-.2719726562.098449707-.3915405273h-3.2338867188c.0586547852.1195678711.098449707.2493896484.098449707.3915405273,0,.4973144531-.403137207.900390625-.900390625.900390625-.4973144531,0-.900390625-.4030761719-.900390625-.900390625,0-.1421508789.0397949219-.2719726562.098449707-.3915405273h-3.2339477539c.0586547852.1195678711.098449707.2493896484.098449707.3915405273,0,.4973144531-.403137207.900390625-.900390625.900390625s-.900390625-.4030761719-.900390625-.900390625c0-.1421508789.0397949219-.2719726562.098449707-.3915405273h-2.7261352539l-.4797973633.0423583984c.0452270508.107421875.0704956055.2253417969.0704956055.3491821289,0,.4973144531-.403137207.900390625-.900390625.900390625-.4973144531,0-.900390625-.4030761719-.900390625-.900390625,0-.0709228516.0248413086-.1337280273.0403442383-.1999511719l-3.0921630859.2730102539c-.0390014648.4612426758-.4143066406.827331543-.8856201172.827331543-.416809082,0-.7520751953-.2891235352-.8546142578-.6736450195l-3.2644042969.2882080078c-.1633911133.2275390625-.4172363281.3854370117-.71875.3854370117-.2495117188,0-.4749145508-.1017456055-.6379394531-.265625l-5.9917602539.5290527344c.1678466797.1635131836.2733764648.3903198242.2733764648.6431884766,0,.2485961914-.1008300781.4737548828-.2637329102.6366577148-.1629638672.1629638672-.3880004883.263671875-.6366577148.263671875-.2485961914,0-.4737548828-.1007080078-.6366577148-.263671875-.1629638672-.162902832-.2637329102-.3880615234-.2637329102-.6366577148,0-.2001342773.0780029297-.3754882812.1884155273-.5249633789l-.4786376953.0422363281c-1.5400390625.1357421875-2.8408203125,1.5712890625-2.8408203125,3.1337890625v.5778808594c.0564575195.1177368164.0939941406.2456054688.0939941406.3849487305,0,.1392822266-.0375366211.2672119141-.0939941406.3849487305v2.8439941406c.0564575195.1177368164.0939941406.2456054688.0939941406.3849487305,0,.1392822266-.0375366211.2672119141-.0939941406.3849487305v2.8439941406c.0564575195.1177368164.0939941406.2456665039.0939941406.3849487305s-.0375366211.2672119141-.0939941406.3849487305v2.8439941406c.0564575195.1177368164.0939941406.2456665039.0939941406.3849487305s-.0375366211.2672119141-.0939941406.3849487305v2.8439941406c.0564575195.1177368164.0939941406.2456665039.0939941406.3849487305s-.0375366211.2672119141-.0939941406.3849487305v2.8439941406c.0564575195.1177368164.0939941406.2456665039.0939941406.3849487305,0,.1393432617-.0375366211.2672119141-.0939941406.3849487305v2.8439941406c.0564575195.1177368164.0939941406.2456665039.0939941406.3849487305,0,.1393432617-.0375366211.2672119141-.0939941406.3849487305v1.6163330078h.7513427734c-.0146484375-.064453125-.0391845703-.1253662109-.0391845703-.1942749023,0-.4973144531.4030761719-.900390625.900390625-.900390625.497253418,0,.900390625.4030761719.900390625.900390625,0,.0689086914-.0245361328.1298217773-.0391845703.1942749023h3.1153564453c-.0146484375-.064453125-.0391845703-.1253662109-.0391845703-.1942749023,0-.4973144531.403137207-.900390625.900390625-.900390625s.900390625.4030761719.900390625.900390625c0,.0689086914-.0245361328.1298217773-.0391845703.1942749023h2.7060546875v-12.330078125h2.9692993164c-.1052246094-.1473388672-.1802368164-.3179931641-.1802368164-.512878418,0-.497253418.403137207-.900390625.900390625-.900390625s.900390625.403137207.900390625.900390625-.403137207.900390625-.900390625.900390625c-.2826538086,0-.5244140625-.1383056641-.689453125-.3420410156v2.4971923828c.1650390625-.2037353516.4067993164-.3420410156.689453125-.3420410156.497253418,0,.900390625.403137207.900390625.900390625s-.403137207.900390625-.900390625.900390625c-.2826538086,0-.5244140625-.1383056641-.689453125-.3420410156v2.4971923828c.1650390625-.2037353516.4067993164-.3420410156.689453125-.3420410156.497253418,0,.900390625.403137207.900390625.900390625,0,.4973144531-.403137207.900390625-.900390625.900390625-.2826538086,0-.5244140625-.1383056641-.689453125-.3420410156v2.4971923828c.1650390625-.2037353516.4067993164-.3420410156.689453125-.3420410156.497253418,0,.900390625.403137207.900390625.900390625,0,.4973144531-.403137207.900390625-.900390625.900390625-.2826538086,0-.5244140625-.1383056641-.689453125-.3420410156v1.4429321289h2.2471313477c-.0146484375-.064453125-.0391845703-.1253662109-.0391845703-.1942749023,0-.4973144531.403137207-.900390625.900390625-.900390625s.900390625.4030761719.900390625.900390625c0,.0689086914-.0245361328.1298217773-.0391845703.1942749023h3.1154174805c-.0146484375-.064453125-.0391845703-.1253662109-.0391845703-.1942749023,0-.4973144531.4030761719-.900390625.900390625-.900390625.497253418,0,.900390625.4030761719.900390625.900390625,0,.0689086914-.0245361328.1298217773-.0391845703.1942749023h3.1153564453c-.0146484375-.064453125-.0391845703-.1253662109-.0391845703-.1942749023,0-.4973144531.403137207-.900390625.900390625-.900390625s.900390625.4030761719.900390625.900390625c0,.0689086914-.0245361328.1298217773-.0391845703.1942749023h3.1154174805c-.0146484375-.064453125-.0391845703-.1253662109-.0391845703-.1942749023,0-.4973144531.4030761719-.900390625.900390625-.900390625.497253418,0,.900390625.4030761719.900390625.900390625,0,.0689086914-.0245361328.1298217773-.0391845703.1942749023h3.1153564453c-.0146484375-.064453125-.0391845703-.1253662109-.0391845703-.1942749023,0-.4973144531.403137207-.900390625.900390625-.900390625.4973144531,0,.900390625.4030761719.900390625.900390625,0,.0689086914-.0245361328.1298217773-.0391845703.1942749023h3.1154174805c-.0146484375-.064453125-.0391845703-.1253662109-.0391845703-.1942749023,0-.4973144531.4030761719-.900390625.900390625-.900390625.497253418,0,.900390625.4030761719.900390625.900390625,0,.0689086914-.0245361328.1298217773-.0391845703.1942749023h3.1153564453c-.0146484375-.064453125-.0391845703-.1253662109-.0391845703-.1942749023,0-.4187011719.2917480469-.7548828125.6788330078-.8556518555v-1.9026489258c-.3870849609-.100769043-.6788330078-.4369506836-.6788330078-.8556518555,0-.4186401367.2917480469-.7548828125.6788330078-.8556518555v-1.9025878906c-.3870849609-.100769043-.6788330078-.4369506836-.6788330078-.8556518555,0-.4186401367.2917480469-.7548828125.6788330078-.8556518555v-1.9025878906c-.3870849609-.100769043-.6788330078-.4370117188-.6788330078-.8556518555s.2917480469-.7548828125.6788330078-.8556518555v-.4745483398h1.8959960938c-.0902099609-.1402587891-.1558837891-.2976074219-.1558837891-.4767456055,0-.497253418.4030761719-.900390625.900390625-.900390625.497253418,0,.900390625.403137207.900390625.900390625,0,.3690185547-.2231445312.6845092773-.5408935547.8235473633v1.966796875c.3177490234.1390380859.5408935547.4545288086.5408935547.8235473633s-.2231445312.6845092773-.5408935547.8235473633v1.966796875c.3177490234.1390380859.5408935547.4545288086.5408935547.8235473633,0,.3690795898-.2231445312.6845092773-.5408935547.8235473633v1.966796875c.3177490234.1390380859.5408935547.4545288086.5408935547.8235473633,0,.3690795898-.2231445312.6845092773-.5408935547.8235473633v1.177734375h1.1981811523c-.0146484375-.064453125-.0391845703-.1253662109-.0391845703-.1942749023,0-.4973144531.4030761719-.900390625.900390625-.900390625.497253418,0,.900390625.4030761719.900390625.900390625,0,.0689086914-.0245361328.1298217773-.0391845703.1942749023h3.1153564453c-.0146484375-.064453125-.0391845703-.1253662109-.0391845703-.1942749023,0-.4973144531.403137207-.900390625.900390625-.900390625.4973144531,0,.900390625.4030761719.900390625.900390625,0,.0689086914-.0245361328.1298217773-.0391845703.1942749023h2.2553100586v-1.4549560547c-.164855957.2102661133-.4097290039.3540649414-.6975708008.3540649414-.4973144531,0-.900390625-.4030761719-.900390625-.900390625,0-.497253418.4030761719-.900390625.900390625-.900390625.2878417969,0,.5327148438.1438598633.6975708008.3540649414v-2.5212402344c-.164855957.2102661133-.4097290039.3540649414-.6975708008.3540649414-.4973144531,0-.900390625-.4030761719-.900390625-.900390625,0-.497253418.4030761719-.900390625.900390625-.900390625.2878417969,0,.5327148438.1438598633.6975708008.3540649414v-2.5212402344c-.164855957.2102050781-.4097290039.3540649414-.6975708008.3540649414-.4973144531,0-.900390625-.403137207-.900390625-.900390625s.4030761719-.900390625.900390625-.900390625c.2878417969,0,.5327148438.1438598633.6975708008.3540649414v-2.5212402344c-.164855957.2102050781-.4097290039.3540649414-.6975708008.3540649414-.4973144531,0-.900390625-.403137207-.900390625-.900390625s.4030761719-.900390625.900390625-.900390625c.2878417969,0,.5327148438.1438598633.6975708008.3540649414v-2.5212402344c-.164855957.2102050781-.4097290039.3540649414-.6975708008.3540649414-.4973144531,0-.900390625-.403137207-.900390625-.900390625s.4030761719-.900390625.900390625-.900390625c.2878417969,0,.5327148438.1438598633.6975708008.3540649414v-2.5212402344c-.164855957.2102050781-.4097290039.3540649414-.6975708008.3540649414-.4973144531,0-.900390625-.403137207-.900390625-.900390625,0-.4973144531.4030761719-.900390625.900390625-.900390625.2878417969,0,.5327148438.143737793.6975708008.3540039062v-2.5211791992c-.164855957.2102050781-.4097290039.3540649414-.6975708008.3540649414-.4973144531,0-.900390625-.403137207-.900390625-.900390625,0-.4973144531.4030761719-.900390625.900390625-.900390625.2878417969,0,.5327148438.143737793.6975708008.3540039062v-.4164428711ZM98.7966308594,120.194152832c-.497253418,0-.900390625.403137207-.900390625.900390625,0,.4973144531.403137207.900390625.900390625.900390625s.900390625-.4030761719.900390625-.900390625c0-.497253418-.403137207-.900390625-.900390625-.900390625ZM101.2155151367,118.3872070312c-.497253418,0-.900390625.403137207-.900390625.900390625,0,.4973144531.403137207.900390625.900390625.900390625.4973144531,0,.900390625-.4030761719.900390625-.900390625,0-.497253418-.4030761719-.900390625-.900390625-.900390625ZM98.7966308594,116.5802612305c-.497253418,0-.900390625.403137207-.900390625.900390625,0,.4973144531.403137207.900390625.900390625.900390625s.900390625-.4030761719.900390625-.900390625c0-.497253418-.403137207-.900390625-.900390625-.900390625ZM101.2155151367,114.7733154297c-.497253418,0-.900390625.403137207-.900390625.900390625,0,.4973144531.403137207.900390625.900390625.900390625.4973144531,0,.900390625-.4030761719.900390625-.900390625,0-.497253418-.4030761719-.900390625-.900390625-.900390625ZM98.7966308594,112.9663696289c-.497253418,0-.900390625.403137207-.900390625.900390625s.403137207.900390625.900390625.900390625.900390625-.403137207.900390625-.900390625-.403137207-.900390625-.900390625-.900390625ZM101.2155151367,111.1594238281c-.497253418,0-.900390625.403137207-.900390625.900390625s.403137207.900390625.900390625.900390625c.4973144531,0,.900390625-.403137207.900390625-.900390625s-.4030761719-.900390625-.900390625-.900390625ZM98.7966308594,109.3524780273c-.497253418,0-.900390625.403137207-.900390625.900390625s.403137207.900390625.900390625.900390625.900390625-.403137207.900390625-.900390625-.403137207-.900390625-.900390625-.900390625ZM101.2155151367,107.5455322266c-.497253418,0-.900390625.403137207-.900390625.900390625s.403137207.900390625.900390625.900390625c.4973144531,0,.900390625-.403137207.900390625-.900390625s-.4030761719-.900390625-.900390625-.900390625ZM98.7966308594,105.7385864258c-.497253418,0-.900390625.403137207-.900390625.900390625s.403137207.900390625.900390625.900390625.900390625-.403137207.900390625-.900390625-.403137207-.900390625-.900390625-.900390625ZM101.2155151367,103.931640625c-.497253418,0-.900390625.403137207-.900390625.900390625s.403137207.900390625.900390625.900390625c.4973144531,0,.900390625-.403137207.900390625-.900390625s-.4030761719-.900390625-.900390625-.900390625ZM98.7966308594,102.1246948242c-.497253418,0-.900390625.4030761719-.900390625.900390625,0,.497253418.403137207.900390625.900390625.900390625s.900390625-.403137207.900390625-.900390625c0-.4973144531-.403137207-.900390625-.900390625-.900390625ZM101.2155151367,100.3177490234c-.497253418,0-.900390625.4030761719-.900390625.900390625,0,.497253418.403137207.900390625.900390625.900390625.4973144531,0,.900390625-.403137207.900390625-.900390625,0-.4973144531-.4030761719-.900390625-.900390625-.900390625ZM98.7966308594,98.5108032227c-.497253418,0-.900390625.4030761719-.900390625.900390625,0,.497253418.403137207.900390625.900390625.900390625s.900390625-.403137207.900390625-.900390625c0-.4973144531-.403137207-.900390625-.900390625-.900390625ZM101.2155151367,96.7038574219c-.497253418,0-.900390625.4030761719-.900390625.900390625,0,.497253418.403137207.900390625.900390625.900390625.4973144531,0,.900390625-.403137207.900390625-.900390625,0-.4973144531-.4030761719-.900390625-.900390625-.900390625ZM96.377746582,118.3872070312c-.4973144531,0-.900390625.403137207-.900390625.900390625,0,.4973144531.4030761719.900390625.900390625.900390625.497253418,0,.900390625-.4030761719.900390625-.900390625,0-.497253418-.403137207-.900390625-.900390625-.900390625ZM96.377746582,114.7733154297c-.4973144531,0-.900390625.403137207-.900390625.900390625,0,.4973144531.4030761719.900390625.900390625.900390625.497253418,0,.900390625-.4030761719.900390625-.900390625,0-.497253418-.403137207-.900390625-.900390625-.900390625ZM96.377746582,111.1594238281c-.4973144531,0-.900390625.403137207-.900390625.900390625s.4030761719.900390625.900390625.900390625c.497253418,0,.900390625-.403137207.900390625-.900390625s-.403137207-.900390625-.900390625-.900390625ZM96.377746582,107.5455322266c-.4973144531,0-.900390625.403137207-.900390625.900390625s.4030761719.900390625.900390625.900390625c.497253418,0,.900390625-.403137207.900390625-.900390625s-.403137207-.900390625-.900390625-.900390625ZM93.9588623047,105.7385864258c-.4973144531,0-.900390625.403137207-.900390625.900390625s.4030761719.900390625.900390625.900390625c.497253418,0,.900390625-.403137207.900390625-.900390625s-.403137207-.900390625-.900390625-.900390625ZM96.377746582,103.931640625c-.4973144531,0-.900390625.403137207-.900390625.900390625s.4030761719.900390625.900390625.900390625c.497253418,0,.900390625-.403137207.900390625-.900390625s-.403137207-.900390625-.900390625-.900390625ZM93.9588623047,102.1246948242c-.4973144531,0-.900390625.4030761719-.900390625.900390625,0,.497253418.4030761719.900390625.900390625.900390625.497253418,0,.900390625-.403137207.900390625-.900390625,0-.4973144531-.403137207-.900390625-.900390625-.900390625ZM96.377746582,100.3177490234c-.4973144531,0-.900390625.4030761719-.900390625.900390625,0,.497253418.4030761719.900390625.900390625.900390625.497253418,0,.900390625-.403137207.900390625-.900390625,0-.4973144531-.403137207-.900390625-.900390625-.900390625ZM93.9588623047,98.5108032227c-.4973144531,0-.900390625.4030761719-.900390625.900390625,0,.497253418.4030761719.900390625.900390625.900390625.497253418,0,.900390625-.403137207.900390625-.900390625,0-.4973144531-.403137207-.900390625-.900390625-.900390625ZM96.377746582,96.7038574219c-.4973144531,0-.900390625.4030761719-.900390625.900390625,0,.497253418.4030761719.900390625.900390625.900390625.497253418,0,.900390625-.403137207.900390625-.900390625,0-.4973144531-.403137207-.900390625-.900390625-.900390625ZM89.1210327148,120.194152832c-.497253418,0-.900390625.403137207-.900390625.900390625,0,.4973144531.403137207.900390625.900390625.900390625s.900390625-.4030761719.900390625-.900390625c0-.497253418-.403137207-.900390625-.900390625-.900390625ZM89.1210327148,116.5802612305c-.497253418,0-.900390625.403137207-.900390625.900390625,0,.4973144531.403137207.900390625.900390625.900390625s.900390625-.4030761719.900390625-.900390625c0-.497253418-.403137207-.900390625-.900390625-.900390625ZM89.1210327148,112.9663696289c-.497253418,0-.900390625.403137207-.900390625.900390625s.403137207.900390625.900390625.900390625.900390625-.403137207.900390625-.900390625-.403137207-.900390625-.900390625-.900390625ZM89.1210327148,109.3524780273c-.497253418,0-.900390625.403137207-.900390625.900390625s.403137207.900390625.900390625.900390625.900390625-.403137207.900390625-.900390625-.403137207-.900390625-.900390625-.900390625ZM91.5399169922,107.5455322266c-.497253418,0-.900390625.403137207-.900390625.900390625s.403137207.900390625.900390625.900390625c.4973144531,0,.900390625-.403137207.900390625-.900390625s-.4030761719-.900390625-.900390625-.900390625ZM89.1210327148,105.7385864258c-.497253418,0-.900390625.403137207-.900390625.900390625s.403137207.900390625.900390625.900390625.900390625-.403137207.900390625-.900390625-.403137207-.900390625-.900390625-.900390625ZM91.5399169922,103.931640625c-.497253418,0-.900390625.403137207-.900390625.900390625s.403137207.900390625.900390625.900390625c.4973144531,0,.900390625-.403137207.900390625-.900390625s-.4030761719-.900390625-.900390625-.900390625ZM89.1210327148,102.1246948242c-.497253418,0-.900390625.4030761719-.900390625.900390625,0,.497253418.403137207.900390625.900390625.900390625s.900390625-.403137207.900390625-.900390625c0-.4973144531-.403137207-.900390625-.900390625-.900390625ZM91.5399169922,100.3177490234c-.497253418,0-.900390625.4030761719-.900390625.900390625,0,.497253418.403137207.900390625.900390625.900390625.4973144531,0,.900390625-.403137207.900390625-.900390625,0-.4973144531-.4030761719-.900390625-.900390625-.900390625ZM89.1210327148,98.5108032227c-.497253418,0-.900390625.4030761719-.900390625.900390625,0,.497253418.403137207.900390625.900390625.900390625s.900390625-.403137207.900390625-.900390625c0-.4973144531-.403137207-.900390625-.900390625-.900390625ZM93.9588623047,94.8969116211c-.4973144531,0-.900390625.4030761719-.900390625.900390625,0,.2485961914.100769043.4737548828.2637329102.6366577148.162902832.1629638672.3880004883.263671875.6366577148.263671875s.4736938477-.1007080078.6366577148-.263671875c.162902832-.162902832.2637329102-.3880615234.2637329102-.6366577148,0-.4973144531-.403137207-.900390625-.900390625-.900390625ZM91.5399169922,96.7038574219c-.497253418,0-.900390625.4030761719-.900390625.900390625,0,.497253418.403137207.900390625.900390625.900390625.4973144531,0,.900390625-.403137207.900390625-.900390625,0-.4973144531-.4030761719-.900390625-.900390625-.900390625ZM84.283203125,120.194152832c-.497253418,0-.900390625.403137207-.900390625.900390625,0,.4973144531.403137207.900390625.900390625.900390625.4973144531,0,.900390625-.4030761719.900390625-.900390625,0-.497253418-.4030761719-.900390625-.900390625-.900390625ZM86.7021484375,118.3872070312c-.4973144531,0-.900390625.403137207-.900390625.900390625,0,.4973144531.4030761719.900390625.900390625.900390625.497253418,0,.900390625-.4030761719.900390625-.900390625,0-.497253418-.403137207-.900390625-.900390625-.900390625ZM84.283203125,116.5802612305c-.497253418,0-.900390625.403137207-.900390625.900390625,0,.4973144531.403137207.900390625.900390625.900390625.4973144531,0,.900390625-.4030761719.900390625-.900390625,0-.497253418-.4030761719-.900390625-.900390625-.900390625ZM86.7021484375,114.7733154297c-.4973144531,0-.900390625.403137207-.900390625.900390625,0,.4973144531.4030761719.900390625.900390625.900390625.497253418,0,.900390625-.4030761719.900390625-.900390625,0-.497253418-.403137207-.900390625-.900390625-.900390625ZM84.283203125,112.9663696289c-.497253418,0-.900390625.403137207-.900390625.900390625s.403137207.900390625.900390625.900390625c.4973144531,0,.900390625-.403137207.900390625-.900390625s-.4030761719-.900390625-.900390625-.900390625ZM86.7021484375,111.1594238281c-.4973144531,0-.900390625.403137207-.900390625.900390625s.4030761719.900390625.900390625.900390625c.497253418,0,.900390625-.403137207.900390625-.900390625s-.403137207-.900390625-.900390625-.900390625ZM84.283203125,109.3524780273c-.497253418,0-.900390625.403137207-.900390625.900390625s.403137207.900390625.900390625.900390625c.4973144531,0,.900390625-.403137207.900390625-.900390625s-.4030761719-.900390625-.900390625-.900390625ZM86.7021484375,107.5455322266c-.4973144531,0-.900390625.403137207-.900390625.900390625s.4030761719.900390625.900390625.900390625c.497253418,0,.900390625-.403137207.900390625-.900390625s-.403137207-.900390625-.900390625-.900390625ZM84.283203125,105.7385864258c-.497253418,0-.900390625.403137207-.900390625.900390625s.403137207.900390625.900390625.900390625c.4973144531,0,.900390625-.403137207.900390625-.900390625s-.4030761719-.900390625-.900390625-.900390625ZM86.7021484375,103.931640625c-.4973144531,0-.900390625.403137207-.900390625.900390625s.4030761719.900390625.900390625.900390625c.497253418,0,.900390625-.403137207.900390625-.900390625s-.403137207-.900390625-.900390625-.900390625ZM84.283203125,102.1246948242c-.497253418,0-.900390625.4030761719-.900390625.900390625,0,.497253418.403137207.900390625.900390625.900390625.4973144531,0,.900390625-.403137207.900390625-.900390625,0-.4973144531-.4030761719-.900390625-.900390625-.900390625ZM86.7021484375,100.3177490234c-.4973144531,0-.900390625.4030761719-.900390625.900390625,0,.497253418.4030761719.900390625.900390625.900390625.497253418,0,.900390625-.403137207.900390625-.900390625,0-.4973144531-.403137207-.900390625-.900390625-.900390625ZM84.283203125,98.5108032227c-.497253418,0-.900390625.4030761719-.900390625.900390625,0,.497253418.403137207.900390625.900390625.900390625.4973144531,0,.900390625-.403137207.900390625-.900390625,0-.4973144531-.4030761719-.900390625-.900390625-.900390625ZM89.1210327148,94.8969116211c-.497253418,0-.900390625.4030761719-.900390625.900390625,0,.2485961914.100769043.4737548828.2637329102.6366577148.162902832.1629638672.3880615234.263671875.6366577148.263671875.2486572266,0,.4736938477-.1007080078.6366577148-.263671875.162902832-.162902832.2637329102-.3880615234.2637329102-.6366577148,0-.4973144531-.403137207-.900390625-.900390625-.900390625ZM86.7021484375,96.7038574219c-.4973144531,0-.900390625.4030761719-.900390625.900390625,0,.497253418.4030761719.900390625.900390625.900390625.497253418,0,.900390625-.403137207.900390625-.900390625,0-.4973144531-.403137207-.900390625-.900390625-.900390625ZM79.4454345703,120.194152832c-.497253418,0-.900390625.403137207-.900390625.900390625,0,.4973144531.403137207.900390625.900390625.900390625s.900390625-.4030761719.900390625-.900390625c0-.497253418-.403137207-.900390625-.900390625-.900390625ZM81.8643188477,118.3872070312c-.497253418,0-.900390625.403137207-.900390625.900390625,0,.4973144531.403137207.900390625.900390625.900390625.4973144531,0,.900390625-.4030761719.900390625-.900390625,0-.497253418-.4030761719-.900390625-.900390625-.900390625ZM79.4454345703,116.5802612305c-.497253418,0-.900390625.403137207-.900390625.900390625,0,.4973144531.403137207.900390625.900390625.900390625s.900390625-.4030761719.900390625-.900390625c0-.497253418-.403137207-.900390625-.900390625-.900390625ZM81.8643188477,114.7733154297c-.497253418,0-.900390625.403137207-.900390625.900390625,0,.4973144531.403137207.900390625.900390625.900390625.4973144531,0,.900390625-.4030761719.900390625-.900390625,0-.497253418-.4030761719-.900390625-.900390625-.900390625ZM79.4454345703,112.9663696289c-.497253418,0-.900390625.403137207-.900390625.900390625s.403137207.900390625.900390625.900390625.900390625-.403137207.900390625-.900390625-.403137207-.900390625-.900390625-.900390625ZM81.8643188477,111.1594238281c-.497253418,0-.900390625.403137207-.900390625.900390625s.403137207.900390625.900390625.900390625c.4973144531,0,.900390625-.403137207.900390625-.900390625s-.4030761719-.900390625-.900390625-.900390625ZM79.4454345703,109.3524780273c-.497253418,0-.900390625.403137207-.900390625.900390625s.403137207.900390625.900390625.900390625.900390625-.403137207.900390625-.900390625-.403137207-.900390625-.900390625-.900390625ZM81.8643188477,107.5455322266c-.497253418,0-.900390625.403137207-.900390625.900390625s.403137207.900390625.900390625.900390625c.4973144531,0,.900390625-.403137207.900390625-.900390625s-.4030761719-.900390625-.900390625-.900390625ZM79.4454345703,105.7385864258c-.497253418,0-.900390625.403137207-.900390625.900390625s.403137207.900390625.900390625.900390625.900390625-.403137207.900390625-.900390625-.403137207-.900390625-.900390625-.900390625ZM81.8643188477,103.931640625c-.497253418,0-.900390625.403137207-.900390625.900390625s.403137207.900390625.900390625.900390625c.4973144531,0,.900390625-.403137207.900390625-.900390625s-.4030761719-.900390625-.900390625-.900390625ZM79.4454345703,102.1246948242c-.497253418,0-.900390625.4030761719-.900390625.900390625,0,.497253418.403137207.900390625.900390625.900390625s.900390625-.403137207.900390625-.900390625c0-.4973144531-.403137207-.900390625-.900390625-.900390625ZM81.8643188477,100.3177490234c-.497253418,0-.900390625.4030761719-.900390625.900390625,0,.497253418.403137207.900390625.900390625.900390625.4973144531,0,.900390625-.403137207.900390625-.900390625,0-.4973144531-.4030761719-.900390625-.900390625-.900390625ZM79.4454345703,98.5108032227c-.497253418,0-.900390625.4030761719-.900390625.900390625,0,.497253418.403137207.900390625.900390625.900390625s.900390625-.403137207.900390625-.900390625c0-.4973144531-.403137207-.900390625-.900390625-.900390625ZM84.283203125,94.8969116211c-.497253418,0-.900390625.4030761719-.900390625.900390625,0,.2485961914.100769043.4737548828.2637329102.6366577148.162902832.1629638672.3880615234.263671875.6366577148.263671875.2486572266,0,.4737548828-.1007080078.63671875-.263671875.162902832-.162902832.263671875-.3880615234.263671875-.6366577148,0-.4973144531-.4030761719-.900390625-.900390625-.900390625ZM81.8643188477,96.7038574219c-.497253418,0-.900390625.4030761719-.900390625.900390625,0,.497253418.403137207.900390625.900390625.900390625.4973144531,0,.900390625-.403137207.900390625-.900390625,0-.4973144531-.4030761719-.900390625-.900390625-.900390625ZM74.6076049805,120.194152832c-.497253418,0-.900390625.403137207-.900390625.900390625,0,.4973144531.403137207.900390625.900390625.900390625.4973144531,0,.900390625-.4030761719.900390625-.900390625,0-.497253418-.4030761719-.900390625-.900390625-.900390625ZM77.026550293,118.3872070312c-.4973144531,0-.900390625.403137207-.900390625.900390625,0,.4973144531.4030761719.900390625.900390625.900390625.497253418,0,.900390625-.4030761719.900390625-.900390625,0-.497253418-.403137207-.900390625-.900390625-.900390625ZM74.6076049805,116.5802612305c-.497253418,0-.900390625.403137207-.900390625.900390625,0,.4973144531.403137207.900390625.900390625.900390625.4973144531,0,.900390625-.4030761719.900390625-.900390625,0-.497253418-.4030761719-.900390625-.900390625-.900390625ZM77.026550293,114.7733154297c-.4973144531,0-.900390625.403137207-.900390625.900390625,0,.4973144531.4030761719.900390625.900390625.900390625.497253418,0,.900390625-.4030761719.900390625-.900390625,0-.497253418-.403137207-.900390625-.900390625-.900390625ZM74.6076049805,112.9663696289c-.497253418,0-.900390625.403137207-.900390625.900390625s.403137207.900390625.900390625.900390625c.4973144531,0,.900390625-.403137207.900390625-.900390625s-.4030761719-.900390625-.900390625-.900390625ZM77.026550293,111.1594238281c-.4973144531,0-.900390625.403137207-.900390625.900390625s.4030761719.900390625.900390625.900390625c.497253418,0,.900390625-.403137207.900390625-.900390625s-.403137207-.900390625-.900390625-.900390625ZM74.6076049805,109.3524780273c-.497253418,0-.900390625.403137207-.900390625.900390625s.403137207.900390625.900390625.900390625c.4973144531,0,.900390625-.403137207.900390625-.900390625s-.4030761719-.900390625-.900390625-.900390625ZM77.026550293,107.5455322266c-.4973144531,0-.900390625.403137207-.900390625.900390625s.4030761719.900390625.900390625.900390625c.497253418,0,.900390625-.403137207.900390625-.900390625s-.403137207-.900390625-.900390625-.900390625ZM74.6076049805,105.7385864258c-.497253418,0-.900390625.403137207-.900390625.900390625s.403137207.900390625.900390625.900390625c.4973144531,0,.900390625-.403137207.900390625-.900390625s-.4030761719-.900390625-.900390625-.900390625ZM77.026550293,103.931640625c-.4973144531,0-.900390625.403137207-.900390625.900390625s.4030761719.900390625.900390625.900390625c.497253418,0,.900390625-.403137207.900390625-.900390625s-.403137207-.900390625-.900390625-.900390625ZM74.6076049805,102.1246948242c-.497253418,0-.900390625.4030761719-.900390625.900390625,0,.497253418.403137207.900390625.900390625.900390625.4973144531,0,.900390625-.403137207.900390625-.900390625,0-.4973144531-.4030761719-.900390625-.900390625-.900390625ZM77.026550293,100.3177490234c-.4973144531,0-.900390625.4030761719-.900390625.900390625,0,.497253418.4030761719.900390625.900390625.900390625.497253418,0,.900390625-.403137207.900390625-.900390625,0-.4973144531-.403137207-.900390625-.900390625-.900390625ZM74.6076049805,98.5108032227c-.497253418,0-.900390625.4030761719-.900390625.900390625,0,.497253418.403137207.900390625.900390625.900390625.4973144531,0,.900390625-.403137207.900390625-.900390625,0-.4973144531-.4030761719-.900390625-.900390625-.900390625ZM79.4454345703,94.8969116211c-.497253418,0-.900390625.4030761719-.900390625.900390625,0,.2485961914.100769043.4737548828.2637329102.6366577148.162902832.1629638672.3880615234.263671875.6366577148.263671875.2486572266,0,.4736938477-.1007080078.6366577148-.263671875.162902832-.162902832.2637329102-.3880615234.2637329102-.6366577148,0-.4973144531-.403137207-.900390625-.900390625-.900390625ZM77.026550293,96.7038574219c-.4973144531,0-.900390625.4030761719-.900390625.900390625,0,.497253418.4030761719.900390625.900390625.900390625.497253418,0,.900390625-.403137207.900390625-.900390625,0-.4973144531-.403137207-.900390625-.900390625-.900390625ZM69.7698364258,120.194152832c-.497253418,0-.900390625.403137207-.900390625.900390625,0,.4973144531.403137207.900390625.900390625.900390625s.900390625-.4030761719.900390625-.900390625c0-.497253418-.403137207-.900390625-.900390625-.900390625ZM72.1887207031,118.3872070312c-.497253418,0-.900390625.403137207-.900390625.900390625,0,.4973144531.403137207.900390625.900390625.900390625s.900390625-.4030761719.900390625-.900390625c0-.497253418-.403137207-.900390625-.900390625-.900390625ZM69.7698364258,116.5802612305c-.497253418,0-.900390625.403137207-.900390625.900390625,0,.4973144531.403137207.900390625.900390625.900390625s.900390625-.4030761719.900390625-.900390625c0-.497253418-.403137207-.900390625-.900390625-.900390625ZM72.1887207031,114.7733154297c-.497253418,0-.900390625.403137207-.900390625.900390625,0,.4973144531.403137207.900390625.900390625.900390625s.900390625-.4030761719.900390625-.900390625c0-.497253418-.403137207-.900390625-.900390625-.900390625ZM69.7698364258,112.9663696289c-.497253418,0-.900390625.403137207-.900390625.900390625s.403137207.900390625.900390625.900390625.900390625-.403137207.900390625-.900390625-.403137207-.900390625-.900390625-.900390625ZM72.1887207031,111.1594238281c-.497253418,0-.900390625.403137207-.900390625.900390625s.403137207.900390625.900390625.900390625.900390625-.403137207.900390625-.900390625-.403137207-.900390625-.900390625-.900390625ZM72.1887207031,107.5455322266c-.497253418,0-.900390625.403137207-.900390625.900390625s.403137207.900390625.900390625.900390625.900390625-.403137207.900390625-.900390625-.403137207-.900390625-.900390625-.900390625ZM72.1887207031,103.931640625c-.497253418,0-.900390625.403137207-.900390625.900390625s.403137207.900390625.900390625.900390625.900390625-.403137207.900390625-.900390625-.403137207-.900390625-.900390625-.900390625ZM69.7698364258,102.1246948242c-.497253418,0-.900390625.4030761719-.900390625.900390625,0,.497253418.403137207.900390625.900390625.900390625s.900390625-.403137207.900390625-.900390625c0-.4973144531-.403137207-.900390625-.900390625-.900390625ZM72.1887207031,100.3177490234c-.497253418,0-.900390625.4030761719-.900390625.900390625,0,.497253418.403137207.900390625.900390625.900390625s.900390625-.403137207.900390625-.900390625c0-.4973144531-.403137207-.900390625-.900390625-.900390625ZM69.7698364258,98.5108032227c-.497253418,0-.900390625.4030761719-.900390625.900390625,0,.497253418.403137207.900390625.900390625.900390625s.900390625-.403137207.900390625-.900390625c0-.4973144531-.403137207-.900390625-.900390625-.900390625ZM74.6076049805,94.8969116211c-.497253418,0-.900390625.4030761719-.900390625.900390625,0,.2485961914.100769043.4737548828.2637329102.6366577148.162902832.1629638672.3880615234.263671875.6366577148.263671875.2486572266,0,.4737548828-.1007080078.63671875-.263671875.162902832-.162902832.263671875-.3880615234.263671875-.6366577148,0-.4973144531-.4030761719-.900390625-.900390625-.900390625ZM72.1887207031,96.7038574219c-.497253418,0-.900390625.4030761719-.900390625.900390625,0,.497253418.403137207.900390625.900390625.900390625s.900390625-.403137207.900390625-.900390625c0-.4973144531-.403137207-.900390625-.900390625-.900390625ZM64.9320068359,120.194152832c-.497253418,0-.900390625.403137207-.900390625.900390625,0,.4973144531.403137207.900390625.900390625.900390625.4973144531,0,.900390625-.4030761719.900390625-.900390625,0-.497253418-.4030761719-.900390625-.900390625-.900390625ZM67.3509521484,118.3872070312c-.4973144531,0-.900390625.403137207-.900390625.900390625,0,.4973144531.4030761719.900390625.900390625.900390625.497253418,0,.900390625-.4030761719.900390625-.900390625,0-.497253418-.403137207-.900390625-.900390625-.900390625ZM67.3509521484,114.7733154297c-.4973144531,0-.900390625.403137207-.900390625.900390625,0,.4973144531.4030761719.900390625.900390625.900390625.497253418,0,.900390625-.4030761719.900390625-.900390625,0-.497253418-.403137207-.900390625-.900390625-.900390625ZM69.7698364258,109.3524780273c-.497253418,0-.900390625.403137207-.900390625.900390625s.403137207.900390625.900390625.900390625.900390625-.403137207.900390625-.900390625-.403137207-.900390625-.900390625-.900390625ZM67.3509521484,111.1594238281c-.4973144531,0-.900390625.403137207-.900390625.900390625s.4030761719.900390625.900390625.900390625c.497253418,0,.900390625-.403137207.900390625-.900390625s-.403137207-.900390625-.900390625-.900390625ZM69.7698364258,105.7385864258c-.497253418,0-.900390625.403137207-.900390625.900390625s.403137207.900390625.900390625.900390625.900390625-.403137207.900390625-.900390625-.403137207-.900390625-.900390625-.900390625ZM67.3509521484,107.5455322266c-.4973144531,0-.900390625.403137207-.900390625.900390625s.4030761719.900390625.900390625.900390625c.497253418,0,.900390625-.403137207.900390625-.900390625s-.403137207-.900390625-.900390625-.900390625ZM67.3509521484,103.931640625c-.4973144531,0-.900390625.403137207-.900390625.900390625s.4030761719.900390625.900390625.900390625c.497253418,0,.900390625-.403137207.900390625-.900390625s-.403137207-.900390625-.900390625-.900390625ZM64.9320068359,102.1246948242c-.497253418,0-.900390625.4030761719-.900390625.900390625,0,.497253418.403137207.900390625.900390625.900390625.4973144531,0,.900390625-.403137207.900390625-.900390625,0-.4973144531-.4030761719-.900390625-.900390625-.900390625ZM67.3509521484,100.3177490234c-.4973144531,0-.900390625.4030761719-.900390625.900390625,0,.497253418.4030761719.900390625.900390625.900390625.497253418,0,.900390625-.403137207.900390625-.900390625,0-.4973144531-.403137207-.900390625-.900390625-.900390625ZM64.9320068359,98.5108032227c-.497253418,0-.900390625.4030761719-.900390625.900390625,0,.497253418.403137207.900390625.900390625.900390625.4973144531,0,.900390625-.403137207.900390625-.900390625,0-.4973144531-.4030761719-.900390625-.900390625-.900390625ZM69.7698364258,94.8969116211c-.497253418,0-.900390625.4030761719-.900390625.900390625,0,.2485961914.100769043.4737548828.2637329102.6366577148.162902832.1629638672.3880615234.263671875.6366577148.263671875.2486572266,0,.4736938477-.1007080078.6366577148-.263671875.162902832-.162902832.2637329102-.3880615234.2637329102-.6366577148,0-.4973144531-.403137207-.900390625-.900390625-.900390625ZM67.3509521484,96.7038574219c-.4973144531,0-.900390625.4030761719-.900390625.900390625,0,.497253418.4030761719.900390625.900390625.900390625.497253418,0,.900390625-.403137207.900390625-.900390625,0-.4973144531-.403137207-.900390625-.900390625-.900390625ZM64.9320068359,116.5802612305c-.497253418,0-.900390625.403137207-.900390625.900390625,0,.4973144531.403137207.900390625.900390625.900390625.4973144531,0,.900390625-.4030761719.900390625-.900390625,0-.497253418-.4030761719-.900390625-.900390625-.900390625ZM62.5131225586,118.3872070312c-.497253418,0-.900390625.403137207-.900390625.900390625,0,.4973144531.403137207.900390625.900390625.900390625s.900390625-.4030761719.900390625-.900390625c0-.497253418-.403137207-.900390625-.900390625-.900390625ZM64.9320068359,112.9663696289c-.497253418,0-.900390625.403137207-.900390625.900390625s.403137207.900390625.900390625.900390625c.4973144531,0,.900390625-.403137207.900390625-.900390625s-.4030761719-.900390625-.900390625-.900390625ZM62.5131225586,114.7733154297c-.497253418,0-.900390625.403137207-.900390625.900390625,0,.4973144531.403137207.900390625.900390625.900390625s.900390625-.4030761719.900390625-.900390625c0-.497253418-.403137207-.900390625-.900390625-.900390625ZM64.9320068359,109.3524780273c-.497253418,0-.900390625.403137207-.900390625.900390625s.403137207.900390625.900390625.900390625c.4973144531,0,.900390625-.403137207.900390625-.900390625s-.4030761719-.900390625-.900390625-.900390625ZM62.5131225586,111.1594238281c-.497253418,0-.900390625.403137207-.900390625.900390625s.403137207.900390625.900390625.900390625.900390625-.403137207.900390625-.900390625-.403137207-.900390625-.900390625-.900390625ZM64.9320068359,105.7385864258c-.497253418,0-.900390625.403137207-.900390625.900390625s.403137207.900390625.900390625.900390625c.4973144531,0,.900390625-.403137207.900390625-.900390625s-.4030761719-.900390625-.900390625-.900390625ZM62.5131225586,107.5455322266c-.497253418,0-.900390625.403137207-.900390625.900390625s.403137207.900390625.900390625.900390625.900390625-.403137207.900390625-.900390625-.403137207-.900390625-.900390625-.900390625ZM60.0942382812,105.7385864258c-.497253418,0-.900390625.403137207-.900390625.900390625s.403137207.900390625.900390625.900390625.900390625-.403137207.900390625-.900390625-.403137207-.900390625-.900390625-.900390625ZM62.5131225586,103.931640625c-.497253418,0-.900390625.403137207-.900390625.900390625s.403137207.900390625.900390625.900390625.900390625-.403137207.900390625-.900390625-.403137207-.900390625-.900390625-.900390625ZM60.0942382812,102.1246948242c-.497253418,0-.900390625.4030761719-.900390625.900390625,0,.497253418.403137207.900390625.900390625.900390625s.900390625-.403137207.900390625-.900390625c0-.4973144531-.403137207-.900390625-.900390625-.900390625ZM62.5131225586,100.3177490234c-.497253418,0-.900390625.4030761719-.900390625.900390625,0,.497253418.403137207.900390625.900390625.900390625s.900390625-.403137207.900390625-.900390625c0-.4973144531-.403137207-.900390625-.900390625-.900390625ZM60.0942382812,98.5108032227c-.497253418,0-.900390625.4030761719-.900390625.900390625,0,.497253418.403137207.900390625.900390625.900390625s.900390625-.403137207.900390625-.900390625c0-.4973144531-.403137207-.900390625-.900390625-.900390625ZM64.9320068359,94.8969116211c-.497253418,0-.900390625.4030761719-.900390625.900390625,0,.2485961914.100769043.4737548828.2637329102.6366577148.162902832.1629638672.3880615234.263671875.6366577148.263671875.2486572266,0,.4737548828-.1007080078.63671875-.263671875.162902832-.162902832.263671875-.3880615234.263671875-.6366577148,0-.4973144531-.4030761719-.900390625-.900390625-.900390625ZM62.5131225586,96.7038574219c-.497253418,0-.900390625.4030761719-.900390625.900390625,0,.497253418.403137207.900390625.900390625.900390625s.900390625-.403137207.900390625-.900390625c0-.4973144531-.403137207-.900390625-.900390625-.900390625ZM55.2564086914,120.194152832c-.497253418,0-.900390625.403137207-.900390625.900390625,0,.4973144531.403137207.900390625.900390625.900390625.4973144531,0,.900390625-.4030761719.900390625-.900390625,0-.497253418-.4030761719-.900390625-.900390625-.900390625ZM55.2564086914,116.5802612305c-.497253418,0-.900390625.403137207-.900390625.900390625,0,.4973144531.403137207.900390625.900390625.900390625.4973144531,0,.900390625-.4030761719.900390625-.900390625,0-.497253418-.4030761719-.900390625-.900390625-.900390625ZM55.2564086914,112.9663696289c-.497253418,0-.900390625.403137207-.900390625.900390625s.403137207.900390625.900390625.900390625c.4973144531,0,.900390625-.403137207.900390625-.900390625s-.4030761719-.900390625-.900390625-.900390625ZM55.2564086914,109.3524780273c-.497253418,0-.900390625.403137207-.900390625.900390625s.403137207.900390625.900390625.900390625c.4973144531,0,.900390625-.403137207.900390625-.900390625s-.4030761719-.900390625-.900390625-.900390625ZM57.6753540039,107.5455322266c-.4973144531,0-.900390625.403137207-.900390625.900390625s.4030761719.900390625.900390625.900390625c.497253418,0,.900390625-.403137207.900390625-.900390625s-.403137207-.900390625-.900390625-.900390625ZM55.2564086914,105.7385864258c-.497253418,0-.900390625.403137207-.900390625.900390625s.403137207.900390625.900390625.900390625c.4973144531,0,.900390625-.403137207.900390625-.900390625s-.4030761719-.900390625-.900390625-.900390625ZM57.6753540039,103.931640625c-.4973144531,0-.900390625.403137207-.900390625.900390625s.4030761719.900390625.900390625.900390625c.497253418,0,.900390625-.403137207.900390625-.900390625s-.403137207-.900390625-.900390625-.900390625ZM55.2564086914,102.1246948242c-.497253418,0-.900390625.4030761719-.900390625.900390625,0,.497253418.403137207.900390625.900390625.900390625.4973144531,0,.900390625-.403137207.900390625-.900390625,0-.4973144531-.4030761719-.900390625-.900390625-.900390625ZM57.6753540039,100.3177490234c-.4973144531,0-.900390625.4030761719-.900390625.900390625,0,.497253418.4030761719.900390625.900390625.900390625.497253418,0,.900390625-.403137207.900390625-.900390625,0-.4973144531-.403137207-.900390625-.900390625-.900390625ZM60.0942382812,94.8969116211c-.497253418,0-.900390625.4030761719-.900390625.900390625,0,.2485961914.100769043.4737548828.2637329102.6366577148.162902832.1629638672.3880615234.263671875.6366577148.263671875.2486572266,0,.4736938477-.1007080078.6366577148-.263671875.162902832-.162902832.2637329102-.3880615234.2637329102-.6366577148,0-.4973144531-.403137207-.900390625-.900390625-.900390625ZM57.6753540039,96.7038574219c-.4973144531,0-.900390625.4030761719-.900390625.900390625,0,.497253418.4030761719.900390625.900390625.900390625.497253418,0,.900390625-.403137207.900390625-.900390625,0-.4973144531-.403137207-.900390625-.900390625-.900390625ZM50.4186401367,120.194152832c-.497253418,0-.900390625.403137207-.900390625.900390625,0,.4973144531.403137207.900390625.900390625.900390625s.900390625-.4030761719.900390625-.900390625c0-.497253418-.403137207-.900390625-.900390625-.900390625ZM52.8375244141,118.3872070312c-.497253418,0-.900390625.403137207-.900390625.900390625,0,.4973144531.403137207.900390625.900390625.900390625s.900390625-.4030761719.900390625-.900390625c0-.497253418-.403137207-.900390625-.900390625-.900390625ZM50.4186401367,116.5802612305c-.497253418,0-.900390625.403137207-.900390625.900390625,0,.4973144531.403137207.900390625.900390625.900390625s.900390625-.4030761719.900390625-.900390625c0-.497253418-.403137207-.900390625-.900390625-.900390625ZM52.8375244141,114.7733154297c-.497253418,0-.900390625.403137207-.900390625.900390625,0,.4973144531.403137207.900390625.900390625.900390625s.900390625-.4030761719.900390625-.900390625c0-.497253418-.403137207-.900390625-.900390625-.900390625ZM52.8375244141,111.1594238281c-.497253418,0-.900390625.403137207-.900390625.900390625s.403137207.900390625.900390625.900390625.900390625-.403137207.900390625-.900390625-.403137207-.900390625-.900390625-.900390625ZM52.8375244141,107.5455322266c-.497253418,0-.900390625.403137207-.900390625.900390625s.403137207.900390625.900390625.900390625.900390625-.403137207.900390625-.900390625-.403137207-.900390625-.900390625-.900390625ZM52.8375244141,103.931640625c-.497253418,0-.900390625.403137207-.900390625.900390625s.403137207.900390625.900390625.900390625.900390625-.403137207.900390625-.900390625-.403137207-.900390625-.900390625-.900390625ZM55.2564086914,98.5108032227c-.497253418,0-.900390625.4030761719-.900390625.900390625,0,.497253418.403137207.900390625.900390625.900390625.4973144531,0,.900390625-.403137207.900390625-.900390625,0-.4973144531-.4030761719-.900390625-.900390625-.900390625ZM52.8375244141,100.3177490234c-.497253418,0-.900390625.4030761719-.900390625.900390625,0,.497253418.403137207.900390625.900390625.900390625s.900390625-.403137207.900390625-.900390625c0-.4973144531-.403137207-.900390625-.900390625-.900390625ZM50.4186401367,98.5108032227c-.497253418,0-.900390625.4030761719-.900390625.900390625,0,.497253418.403137207.900390625.900390625.900390625s.900390625-.403137207.900390625-.900390625c0-.4973144531-.403137207-.900390625-.900390625-.900390625ZM55.2564086914,94.8969116211c-.497253418,0-.900390625.4030761719-.900390625.900390625,0,.2485961914.100769043.4737548828.2637329102.6366577148.162902832.1629638672.3880615234.263671875.6366577148.263671875.2486572266,0,.4737548828-.1007080078.63671875-.263671875.162902832-.162902832.263671875-.3880615234.263671875-.6366577148,0-.4973144531-.4030761719-.900390625-.900390625-.900390625ZM52.8375244141,96.7038574219c-.497253418,0-.900390625.4030761719-.900390625.900390625,0,.497253418.403137207.900390625.900390625.900390625s.900390625-.403137207.900390625-.900390625c0-.4973144531-.403137207-.900390625-.900390625-.900390625ZM47.9997558594,118.3872070312c-.4973144531,0-.900390625.403137207-.900390625.900390625,0,.4973144531.4030761719.900390625.900390625.900390625.497253418,0,.900390625-.4030761719.900390625-.900390625,0-.497253418-.403137207-.900390625-.900390625-.900390625ZM50.4186401367,112.9663696289c-.497253418,0-.900390625.403137207-.900390625.900390625s.403137207.900390625.900390625.900390625.900390625-.403137207.900390625-.900390625-.403137207-.900390625-.900390625-.900390625ZM47.9997558594,114.7733154297c-.4973144531,0-.900390625.403137207-.900390625.900390625,0,.4973144531.4030761719.900390625.900390625.900390625.497253418,0,.900390625-.4030761719.900390625-.900390625,0-.497253418-.403137207-.900390625-.900390625-.900390625ZM50.4186401367,109.3524780273c-.497253418,0-.900390625.403137207-.900390625.900390625s.403137207.900390625.900390625.900390625.900390625-.403137207.900390625-.900390625-.403137207-.900390625-.900390625-.900390625ZM47.9997558594,111.1594238281c-.4973144531,0-.900390625.403137207-.900390625.900390625s.4030761719.900390625.900390625.900390625c.497253418,0,.900390625-.403137207.900390625-.900390625s-.403137207-.900390625-.900390625-.900390625ZM50.4186401367,105.7385864258c-.497253418,0-.900390625.403137207-.900390625.900390625s.403137207.900390625.900390625.900390625.900390625-.403137207.900390625-.900390625-.403137207-.900390625-.900390625-.900390625ZM47.9997558594,107.5455322266c-.4973144531,0-.900390625.403137207-.900390625.900390625s.4030761719.900390625.900390625.900390625c.497253418,0,.900390625-.403137207.900390625-.900390625s-.403137207-.900390625-.900390625-.900390625ZM50.4186401367,102.1246948242c-.497253418,0-.900390625.4030761719-.900390625.900390625,0,.497253418.403137207.900390625.900390625.900390625s.900390625-.403137207.900390625-.900390625c0-.4973144531-.403137207-.900390625-.900390625-.900390625ZM47.9997558594,103.931640625c-.4973144531,0-.900390625.403137207-.900390625.900390625s.4030761719.900390625.900390625.900390625c.497253418,0,.900390625-.403137207.900390625-.900390625s-.403137207-.900390625-.900390625-.900390625ZM47.9997558594,100.3177490234c-.4973144531,0-.900390625.4030761719-.900390625.900390625,0,.497253418.4030761719.900390625.900390625.900390625.497253418,0,.900390625-.403137207.900390625-.900390625,0-.4973144531-.403137207-.900390625-.900390625-.900390625ZM47.9997558594,96.7038574219c-.4973144531,0-.900390625.4030761719-.900390625.900390625,0,.497253418.4030761719.900390625.900390625.900390625.497253418,0,.900390625-.403137207.900390625-.900390625,0-.4973144531-.403137207-.900390625-.900390625-.900390625ZM73.6401367188,85.4468994141c7.0629882812,0,12.8100585938-5.7465820312,12.8100585938-12.8095703125,0-3.2788085938-1.3349609375-6.4692382812-3.662109375-8.7534179688-2.1391601562-2.1000976562-4.9443359375-3.2299804688-7.939453125-3.1713867188-3.087890625.0571289062-5.8696289062,1.265625-7.8325195312,3.4033203125-1.9174804688,2.0883789062-2.9111328125,4.8779296875-2.7260742188,7.6538085938.2841796875,4.271484375,3.3354492188,8.7163085938,9.3393554688,8.3818359375,4.5693359375-.25390625,7.8852539062-3.5825195312,7.8852539062-7.9145507812,0-3.5942382812-2.923828125-6.5180664062-6.5180664062-6.5180664062-3.1791992188,0-5.765625,2.5864257812-5.765625,5.765625,0,1.5327148438.8125,2.908203125,2.1206054688,3.5893554688,1.2661132812.6586914062,2.7397460938.5512695312,3.9418945312-.2900390625.7680664062-.5375976562,1.2153320312-1.3369140625,1.2602539062-2.2495117188.0522460938-1.0668945312-.4838867188-2.2446289062-1.3662109375-3.0004882812l-1.9521484375,2.27734375c.2119140625.181640625.3305664062.4809570312.337890625.5146484375-.3544921875.2465820312-.6499023438.18359375-.8359375.0869140625-.3173828125-.1650390625-.5063476562-.51171875-.5063476562-.9282226562,0-1.5249023438,1.2407226562-2.765625,2.765625-2.765625,1.9399414062,0,3.5180664062,1.578125,3.5180664062,3.5180664062,0,2.3051757812-1.7353515625,4.7348632812-5.0512695312,4.9194335938-2.8037109375.1484375-5.8901367188-1.2299804688-6.1801757812-5.5859375-.130859375-1.9614257812.5771484375-3.9389648438,1.9428710938-5.42578125.9916992188-1.080078125,2.7822265625-2.3793945312,5.6782226562-2.4331054688,2.7626953125-.0546875,4.6787109375,1.2299804688,5.7822265625,2.3129882812,1.7299804688,1.6987304688,2.7631835938,4.1704101562,2.7631835938,6.6127929688,0,5.4091796875-4.400390625,9.8095703125-9.8095703125,9.8095703125-3.4057617188,0-6.8032226562-1.48828125-9.0874023438-3.9809570312-1.9995117188-2.1821289062-2.966796875-4.9145507812-2.7236328125-7.6938476562.7338867188-8.3916015625,5.8369140625-12.703125,14.7265625-12.416015625,4.8237304688.1455078125,9.095703125,3.326171875,11.1494140625,8.30078125,1.7509765625,4.2416992188,1.9072265625,10.5859375-2.9038085938,15.671875l2.1791992188,2.0615234375c4.8486328125-5.125,6.1884765625-12.3588867188,3.4970703125-18.8779296875-2.5107421875-6.08203125-7.810546875-9.9731445312-13.8310546875-10.1552734375-10.5986328125-.3139648438-16.9228515625,5.0615234375-17.8056640625,15.1533203125-.3173828125,3.6274414062.92578125,7.1723632812,3.5,9.9819335938,2.8852539062,3.1489257812,7.0034179688,4.9545898438,11.2993164062,4.9545898438ZM135.8837890625,74.162109375c-.497253418,0-.900390625.4030761719-.900390625.900390625,0,.0407714844.0179443359.0755615234.0231933594.1148681641h1.7543945312c.0052490234-.0393066406.0231933594-.0740966797.0231933594-.1148681641,0-.4973144531-.403137207-.900390625-.900390625-.900390625ZM137.4022827148,73.2555541992c0,.497253418.403137207.900390625.900390625.900390625.2890014648,0,.5346069336-.1449584961.6993408203-.356628418v-1.0875854492c-.1647338867-.2116699219-.4103393555-.3565673828-.6993408203-.3565673828-.497253418,0-.900390625.4030761719-.900390625.900390625ZM135.8837890625,70.5482177734c-.497253418,0-.900390625.4030761719-.900390625.900390625,0,.497253418.403137207.900390625.900390625.900390625s.900390625-.403137207.900390625-.900390625c0-.4973144531-.403137207-.900390625-.900390625-.900390625ZM137.4022827148,69.6416625977c0,.497253418.403137207.900390625.900390625.900390625.2890014648,0,.5346069336-.1449584961.6993408203-.356628418v-1.0875854492c-.1647338867-.2116699219-.4103393555-.3565673828-.6993408203-.3565673828-.497253418,0-.900390625.4030761719-.900390625.900390625ZM135.8837890625,66.9342651367c-.497253418,0-.900390625.403137207-.900390625.900390625,0,.4973144531.403137207.900390625.900390625.900390625s.900390625-.4030761719.900390625-.900390625c0-.497253418-.403137207-.900390625-.900390625-.900390625ZM137.4022827148,66.0277099609c0,.4973144531.403137207.900390625.900390625.900390625.2890014648,0,.5346069336-.1449584961.6993408203-.356628418v-1.0875244141c-.1647338867-.2116699219-.4103393555-.356628418-.6993408203-.356628418-.497253418,0-.900390625.403137207-.900390625.900390625ZM135.8837890625,63.3203735352c-.497253418,0-.900390625.403137207-.900390625.900390625,0,.4973144531.403137207.900390625.900390625.900390625s.900390625-.4030761719.900390625-.900390625c0-.497253418-.403137207-.900390625-.900390625-.900390625ZM137.4022827148,62.4138183594c0,.4973144531.403137207.900390625.900390625.900390625.2890014648,0,.5346069336-.1449584961.6993408203-.356628418v-1.0875244141c-.1647338867-.2116699219-.4103393555-.356628418-.6993408203-.356628418-.497253418,0-.900390625.403137207-.900390625.900390625ZM135.8837890625,59.7064819336c-.497253418,0-.900390625.403137207-.900390625.900390625,0,.4973144531.403137207.900390625.900390625.900390625s.900390625-.4030761719.900390625-.900390625c0-.497253418-.403137207-.900390625-.900390625-.900390625ZM137.4022827148,58.7999267578c0,.497253418.403137207.900390625.900390625.900390625.2890014648,0,.5346069336-.1449584961.6993408203-.356628418v-1.0875244141c-.1647338867-.2116699219-.4103393555-.356628418-.6993408203-.356628418-.497253418,0-.900390625.403137207-.900390625.900390625ZM135.8837890625,56.092590332c-.497253418,0-.900390625.403137207-.900390625.900390625s.403137207.900390625.900390625.900390625.900390625-.403137207.900390625-.900390625-.403137207-.900390625-.900390625-.900390625ZM137.4022827148,55.1860351562c0,.497253418.403137207.900390625.900390625.900390625.2890014648,0,.5346069336-.1449584961.6993408203-.356628418v-1.0875244141c-.1647338867-.2116699219-.4103393555-.356628418-.6993408203-.356628418-.497253418,0-.900390625.403137207-.900390625.900390625ZM135.8837890625,52.4786987305c-.497253418,0-.900390625.403137207-.900390625.900390625s.403137207.900390625.900390625.900390625.900390625-.403137207.900390625-.900390625-.403137207-.900390625-.900390625-.900390625ZM137.4022827148,51.5721435547c0,.497253418.403137207.900390625.900390625.900390625.2890014648,0,.5346069336-.1449584961.6993408203-.356628418v-1.0875244141c-.1647338867-.2116699219-.4103393555-.356628418-.6993408203-.356628418-.497253418,0-.900390625.403137207-.900390625.900390625ZM135.8837890625,48.8648071289c-.497253418,0-.900390625.403137207-.900390625.900390625s.403137207.900390625.900390625.900390625.900390625-.403137207.900390625-.900390625-.403137207-.900390625-.900390625-.900390625ZM137.4022827148,47.9582519531c0,.497253418.403137207.900390625.900390625.900390625.2890014648,0,.5346069336-.1449584961.6993408203-.356628418v-1.0875854492c-.1647338867-.2116699219-.4103393555-.3565673828-.6993408203-.3565673828-.497253418,0-.900390625.4030761719-.900390625.900390625ZM138.5464477539,43.9962768555h-1.0739135742c-.0449829102.1071166992-.0702514648.224609375-.0702514648.3480834961,0,.497253418.403137207.900390625.900390625.900390625.2890014648,0,.5346069336-.1449584961.6993408203-.356628418v-.3999023438c0-.2717285156-.2039794922-.4919433594-.4555664062-.4919433594ZM131.0460205078,74.162109375c-.4973144531,0-.900390625.4030761719-.900390625.900390625,0,.0407714844.0179443359.0755615234.0231933594.1148681641h1.7543945312c.0052490234-.0393066406.0231933594-.0740966797.0231933594-.1148681641,0-.4973144531-.403137207-.900390625-.900390625-.900390625ZM133.4649047852,72.3551635742c-.4973144531,0-.900390625.4030761719-.900390625.900390625,0,.497253418.4030761719.900390625.900390625.900390625.497253418,0,.900390625-.403137207.900390625-.900390625,0-.4973144531-.403137207-.900390625-.900390625-.900390625ZM135.8837890625,45.2509155273c-.497253418,0-.900390625.4030761719-.900390625.900390625,0,.497253418.403137207.900390625.900390625.900390625s.900390625-.403137207.900390625-.900390625c0-.4973144531-.403137207-.900390625-.900390625-.900390625ZM126.208190918,74.162109375c-.497253418,0-.900390625.4030761719-.900390625.900390625,0,.0407714844.0179443359.0755615234.0231933594.1148681641h1.7543945312c.0052490234-.0393066406.0231933594-.0740966797.0231933594-.1148681641,0-.4973144531-.403137207-.900390625-.900390625-.900390625ZM128.6270751953,72.3551635742c-.497253418,0-.900390625.4030761719-.900390625.900390625,0,.497253418.403137207.900390625.900390625.900390625.4973144531,0,.900390625-.403137207.900390625-.900390625,0-.4973144531-.4030761719-.900390625-.900390625-.900390625ZM121.3703613281,74.162109375c-.2485961914,0-.4737548828.100769043-.6366577148.263671875-.1629638672.1629638672-.2637329102.3880615234-.2637329102.63671875,0,.053894043.0216064453.1007080078.0307006836.1520385742.0882568359-.0160522461.1755371094-.0371704102.2667236328-.0371704102h1.4801635742c.0052490234-.0393066406.0231933594-.0740966797.0231933594-.1148681641,0-.4973144531-.4030761719-.900390625-.900390625-.900390625ZM123.7893066406,72.3551635742c-.4973144531,0-.900390625.4030761719-.900390625.900390625,0,.497253418.4030761719.900390625.900390625.900390625.497253418,0,.900390625-.403137207.900390625-.900390625,0-.4973144531-.403137207-.900390625-.900390625-.900390625ZM116.5325927734,77.7760009766c-.497253418,0-.900390625.403137207-.900390625.900390625s.403137207.900390625.900390625.900390625.900390625-.403137207.900390625-.900390625-.403137207-.900390625-.900390625-.900390625ZM118.0510864258,76.8694458008c0,.3169555664.1735229492.5822753906.421081543.7427368164l.8792114258-1.5390625c-.1218261719-.0615234375-.2540893555-.1040649414-.3999023438-.1040649414-.497253418,0-.900390625.403137207-.900390625.900390625ZM116.5325927734,74.162109375c-.497253418,0-.900390625.4030761719-.900390625.900390625,0,.497253418.403137207.900390625.900390625.900390625s.900390625-.403137207.900390625-.900390625c0-.4973144531-.403137207-.900390625-.900390625-.900390625ZM118.9514770508,72.3551635742c-.497253418,0-.900390625.4030761719-.900390625.900390625,0,.497253418.403137207.900390625.900390625.900390625.4973144531,0,.900390625-.403137207.900390625-.900390625,0-.4973144531-.4030761719-.900390625-.900390625-.900390625ZM111.1331176758,88.8308105469c.0659179688.4323120117.6114501953.5720214844.833984375.168762207l.1500244141-.2626953125c-.1276855469-.0694580078-.266784668-.1192016602-.4223632812-.1192016602-.2160644531,0-.4064941406.0863037109-.5616455078.2131347656ZM111.6947631836,85.0037841797c-.2216186523,0-.4176635742.089050293-.5745239258.221862793v1.3570556641c.1568603516.1328125.3529052734.221862793.5745239258.221862793.4973144531,0,.900390625-.403137207.900390625-.900390625s-.4030761719-.900390625-.900390625-.900390625ZM115.6322021484,82.2902832031c0,.0769042969.0256347656.1455688477.043762207.216796875l.6096801758-1.0673217773c-.3744506836.1090698242-.6534423828.4408569336-.6534423828.8505249023ZM114.1137084961,83.1968383789c-.4973144531,0-.900390625.403137207-.900390625.900390625s.4030761719.900390625.900390625.900390625c.0559082031,0,.1046142578-.0220947266.1577148438-.0318603516l.6782836914-1.1874389648c-.1292724609-.3387451172-.4518432617-.5814819336-.8359985352-.5814819336ZM111.6947631836,81.3898925781c-.2216186523,0-.4176635742.089050293-.5745239258.221862793v1.3570556641c.1568603516.1328125.3529052734.221862793.5745239258.221862793.4973144531,0,.900390625-.403137207.900390625-.900390625s-.4030761719-.900390625-.900390625-.900390625ZM114.1137084961,79.5829467773c-.4973144531,0-.900390625.403137207-.900390625.900390625s.4030761719.900390625.900390625.900390625c.497253418,0,.900390625-.403137207.900390625-.900390625s-.403137207-.900390625-.900390625-.900390625ZM111.6947631836,77.7760009766c-.2216186523,0-.4176635742.089050293-.5745239258.221862793v1.3570556641c.1568603516.1328125.3529052734.221862793.5745239258.221862793.4973144531,0,.900390625-.403137207.900390625-.900390625s-.4030761719-.900390625-.900390625-.900390625ZM114.1137084961,75.9690551758c-.4973144531,0-.900390625.403137207-.900390625.900390625s.4030761719.900390625.900390625.900390625c.497253418,0,.900390625-.403137207.900390625-.900390625s-.403137207-.900390625-.900390625-.900390625ZM114.1137084961,72.3551635742c-.4973144531,0-.900390625.4030761719-.900390625.900390625,0,.497253418.4030761719.900390625.900390625.900390625.497253418,0,.900390625-.403137207.900390625-.900390625,0-.4973144531-.403137207-.900390625-.900390625-.900390625ZM134.3671875,38.3883056641v30.197265625c0,.2266845703-.0452880859.4409790039-.114074707.6441040039.0657348633.125.1121826172.260925293.1121826172.4119873047,0,.497253418-.403137207.900390625-.900390625.900390625-.1384277344,0-.2658081055-.0368041992-.3829956055-.0926513672-.210144043.0787963867-.4342041016.1283569336-.6707763672.1283569336h-1.21875c.4247436523.0723266602.7540283203.4254760742.7540283203.8708496094,0,.497253418-.403137207.900390625-.900390625.900390625-.4973144531,0-.900390625-.403137207-.900390625-.900390625,0-.4453735352.329284668-.7985229492.7540283203-.8708496094h-4.5451049805c.4247436523.0723266602.7540283203.4254760742.7540283203.8708496094,0,.497253418-.403137207.900390625-.900390625.900390625s-.900390625-.403137207-.900390625-.900390625c0-.4453735352.329284668-.7985229492.7540283203-.8708496094h-4.5451049805c.4247436523.0723266602.7540283203.4254760742.7540283203.8708496094,0,.497253418-.4030761719.900390625-.900390625.900390625-.2485961914,0-.4737548828-.100769043-.6366577148-.2637329102-.1629638672-.162902832-.2637329102-.3880615234-.2637329102-.6366577148,0-.2486572266.100769043-.4737548828.2637329102-.63671875.12890625-.12890625.302734375-.2022094727.4902954102-.2341308594h-4.5450439453c.4247436523.0723266602.7540283203.4254760742.7540283203.8708496094,0,.497253418-.403137207.900390625-.900390625.900390625s-.900390625-.403137207-.900390625-.900390625c0-.4453735352.329284668-.7985229492.7540283203-.8708496094h-1.7543945312c-.0048828125,0-.0419921875.0141601562-.076171875.0747070312l-2.1868896484,3.8286132812c.1360473633.1577148438.2263793945.3567504883.2263793945.5814208984,0,.497253418-.4030761719.900390625-.900390625.900390625-.0548095703,0-.1024780273-.0217895508-.1546020508-.0311889648l-.419921875.7351074219-3.9854736328,6.977355957c-.34765625.6274414062-.98828125.9985351562-1.6796875.9985351562-.1630859375,0-.3291015625-.0209960938-.494140625-.0634765625-.869140625-.2241210938-1.4755859375-1.0185546875-1.4755859375-1.9311523438v-12.0703125h-4.1796875c-1.078125,0-1.9560546875-.8935546875-1.9560546875-1.9921875v-30.197265625c0-1.0981445312.8779296875-1.9916992188,1.9560546875-1.9916992188h33.10546875c1.078125,0,1.9560546875.8935546875,1.9560546875,1.9916992188ZM131.3671875,39.3966064453h-31.017578125v28.1811523438h4.1796875c1.078125,0,1.9560546875.8935546875,1.9560546875,1.9916992188v9.1630859375l5.46484375-9.5678710938c.55859375-.978515625,1.5869140625-1.5869140625,2.681640625-1.5869140625h16.7353515625v-28.1811523438ZM115.6776123047,47.1942138672c1.70703125,0,2.8271484375,1.1201171875,2.8271484375,2.828125,0,1.7919921875-1.3994140625,2.85546875-3.1357421875,2.85546875h-2.0155639648l.279296875,4.4521484375h2.8563842773l.16796875-1.9599609375c3.3037109375-.3642578125,5.4033203125-2.2958984375,5.4033203125-5.3759765625,0-3.6396484375-2.85546875-6.0478515625-6.55078125-6.0478515625-3.9208984375,0-6.16015625,2.267578125-6.412109375,5.65625h3.6953125c.16796875-1.4560546875,1.31640625-2.408203125,2.884765625-2.408203125ZM114.9765014648,59.1776123047c-1.203125,0-2.2109375.923828125-2.2109375,2.1279296875,0,1.232421875,1.0078125,2.15625,2.2109375,2.15625,1.2323608398,0,2.2401733398-.923828125,2.2401733398-2.15625,0-1.2041015625-1.0077514648-2.1279296875-2.2401733398-2.1279296875Z"/></svg>