<?xml version="1.0" encoding="UTF-8"?><svg id="symbole_neu_2026" xmlns="http://www.w3.org/2000/svg" viewBox="0 0 170.0787353516 170.0787353516"><defs><style>.cls-1{fill:#1d1d1b;}</style></defs><path class="cls-1" d="M87.0040283203,122.8634033203c0-.497253418.403137207-.900390625.900390625-.900390625s.900390625.403137207.900390625.900390625-.403137207.900390625-.900390625.900390625-.900390625-.403137207-.900390625-.900390625ZM90.3233032227,121.9568481445c.4973144531,0,.900390625-.403137207.900390625-.900390625s-.4030761719-.900390625-.900390625-.900390625c-.497253418,0-.900390625.403137207-.900390625.900390625s.403137207.900390625.900390625.900390625ZM87.9044189453,120.1499023438c.497253418,0,.900390625-.403137207.900390625-.900390625s-.403137207-.900390625-.900390625-.900390625-.900390625.403137207-.900390625.900390625.403137207.900390625.900390625.900390625ZM90.3233032227,118.342956543c.4973144531,0,.900390625-.403137207.900390625-.900390625s-.4030761719-.900390625-.900390625-.900390625c-.497253418,0-.900390625.403137207-.900390625.900390625s.403137207.900390625.900390625.900390625ZM85.485534668,123.7699584961c-.497253418,0-.900390625.403137207-.900390625.900390625s.403137207.900390625.900390625.900390625.900390625-.403137207.900390625-.900390625-.403137207-.900390625-.900390625-.900390625ZM83.0666503906,121.9630126953c-.4973144531,0-.900390625.403137207-.900390625.900390625s.4030761719.900390625.900390625.900390625c.497253418,0,.900390625-.403137207.900390625-.900390625s-.403137207-.900390625-.900390625-.900390625ZM85.485534668,120.1560668945c-.497253418,0-.900390625.403137207-.900390625.900390625s.403137207.900390625.900390625.900390625.900390625-.403137207.900390625-.900390625-.403137207-.900390625-.900390625-.900390625ZM87.9044189453,116.5360107422c.497253418,0,.900390625-.403137207.900390625-.900390625,0-.4973144531-.403137207-.900390625-.900390625-.900390625s-.900390625.4030761719-.900390625.900390625c0,.497253418.403137207.900390625.900390625.900390625ZM85.485534668,116.542175293c-.497253418,0-.900390625.403137207-.900390625.900390625s.403137207.900390625.900390625.900390625.900390625-.403137207.900390625-.900390625-.403137207-.900390625-.900390625-.900390625ZM83.0666503906,118.3491210938c-.4973144531,0-.900390625.403137207-.900390625.900390625s.4030761719.900390625.900390625.900390625c.497253418,0,.900390625-.403137207.900390625-.900390625s-.403137207-.900390625-.900390625-.900390625ZM80.6477050781,120.1560668945c-.497253418,0-.900390625.403137207-.900390625.900390625s.403137207.900390625.900390625.900390625c.4973144531,0,.900390625-.403137207.900390625-.900390625s-.4030761719-.900390625-.900390625-.900390625ZM83.0666503906,114.7352294922c-.4973144531,0-.900390625.4030761719-.900390625.900390625,0,.497253418.4030761719.900390625.900390625.900390625.497253418,0,.900390625-.403137207.900390625-.900390625,0-.4973144531-.403137207-.900390625-.900390625-.900390625ZM80.6477050781,116.542175293c-.497253418,0-.900390625.403137207-.900390625.900390625s.403137207.900390625.900390625.900390625c.4973144531,0,.900390625-.403137207.900390625-.900390625s-.4030761719-.900390625-.900390625-.900390625ZM116.9312133789,73.1691894531c.4973144531,0,.900390625-.403137207.900390625-.900390625s-.4030761719-.900390625-.900390625-.900390625c-.497253418,0-.900390625.403137207-.900390625.900390625s.403137207.900390625.900390625.900390625ZM119.3501586914,71.3622436523c.497253418,0,.900390625-.403137207.900390625-.900390625s-.403137207-.900390625-.900390625-.900390625c-.4973144531,0-.900390625.403137207-.900390625.900390625s.4030761719.900390625.900390625.900390625ZM116.9312133789,69.5552978516c.4973144531,0,.900390625-.403137207.900390625-.900390625s-.4030761719-.900390625-.900390625-.900390625c-.497253418,0-.900390625.403137207-.900390625.900390625s.403137207.900390625.900390625.900390625ZM119.3501586914,67.7483520508c.497253418,0,.900390625-.403137207.900390625-.900390625s-.403137207-.900390625-.900390625-.900390625c-.4973144531,0-.900390625.403137207-.900390625.900390625s.4030761719.900390625.900390625.900390625ZM116.9312133789,65.94140625c.4973144531,0,.900390625-.403137207.900390625-.900390625s-.4030761719-.900390625-.900390625-.900390625c-.497253418,0-.900390625.403137207-.900390625.900390625s.403137207.900390625.900390625.900390625ZM119.3501586914,64.1344604492c.497253418,0,.900390625-.403137207.900390625-.900390625,0-.4973144531-.403137207-.900390625-.900390625-.900390625-.4973144531,0-.900390625.4030761719-.900390625.900390625,0,.497253418.4030761719.900390625.900390625.900390625ZM114.5123291016,71.3622436523c.497253418,0,.900390625-.403137207.900390625-.900390625s-.403137207-.900390625-.900390625-.900390625-.900390625.403137207-.900390625.900390625.403137207.900390625.900390625.900390625ZM112.0934448242,69.5552978516c.497253418,0,.900390625-.403137207.900390625-.900390625s-.403137207-.900390625-.900390625-.900390625c-.4973144531,0-.900390625.403137207-.900390625.900390625s.4030761719.900390625.900390625.900390625ZM114.5123291016,67.7483520508c.497253418,0,.900390625-.403137207.900390625-.900390625s-.403137207-.900390625-.900390625-.900390625-.900390625.403137207-.900390625.900390625.403137207.900390625.900390625.900390625ZM116.9312133789,62.3275146484c.4973144531,0,.900390625-.403137207.900390625-.900390625,0-.4973144531-.4030761719-.900390625-.900390625-.900390625-.497253418,0-.900390625.4030761719-.900390625.900390625,0,.497253418.403137207.900390625.900390625.900390625ZM114.5123291016,64.1344604492c.497253418,0,.900390625-.403137207.900390625-.900390625,0-.4973144531-.403137207-.900390625-.900390625-.900390625s-.900390625.4030761719-.900390625.900390625c0,.497253418.403137207.900390625.900390625.900390625ZM110.5748901367,66.8479614258c0-.497253418-.4030761719-.900390625-.9003295898-.900390625-.4973144531,0-.900390625.403137207-.900390625.900390625s.4030761719.900390625.900390625.900390625c.497253418,0,.9003295898-.403137207.9003295898-.900390625ZM112.0934448242,65.94140625c.497253418,0,.900390625-.403137207.900390625-.900390625s-.403137207-.900390625-.900390625-.900390625c-.4973144531,0-.900390625.403137207-.900390625.900390625s.4030761719.900390625.900390625.900390625ZM125.7255859375,102.7696533203c0,5.5146484375-4.4873046875,10.001953125-10.0029296875,10.001953125-5.5146484375,0-10.001953125-4.4873046875-10.001953125-10.001953125,0-1.2901611328.2537841797-2.5200805664.7005615234-3.6534423828l-10.4891967773-6.0555419922c-2.1887817383,2.9643554688-5.5453491211,5.0123901367-9.3930053711,5.4384765625v12.0946655273c4.8053588867.7272949219,8.50390625,4.8732910156,8.50390625,9.8789672852,0,5.5166015625-4.4873046875,10.00390625-10.0034179688,10.00390625s-10.00390625-4.4873046875-10.00390625-10.00390625c0-5.0054931641,3.6987304688-9.1513671875,8.50390625-9.87890625v-12.0947875977c-3.8483886719-.4262084961-7.2055053711-2.4751586914-9.3941650391-5.440612793l-10.4880981445,6.0576782227c.4467773438,1.1334228516.7006225586,2.36328125.7006225586,3.653503418,0,5.5146484375-4.4873046875,10.001953125-10.0024414062,10.001953125s-10.0024414062-4.4873046875-10.0024414062-10.001953125c0-5.515625,4.4873046875-10.0029296875,10.0024414062-10.0029296875,3.1516113281,0,5.9631958008,1.4688720703,7.7979125977,3.7540283203l10.4818115234-6.0540161133c-.7307128906-1.6635131836-1.1430053711-3.4971923828-1.1430053711-5.4275512695,0-1.930847168.4126586914-3.7649536133,1.1438598633-5.4287719727l-10.4824829102-6.0524902344c-1.834777832,2.2852172852-4.6464233398,3.7542114258-7.7980957031,3.7542114258-5.5151367188,0-10.0024414062-4.4873046875-10.0024414062-10.0024414062s4.4873046875-10.0024414062,10.0024414062-10.0024414062,10.0024414062,4.4873046875,10.0024414062,10.0024414062c0,1.2899169922-.2537231445,2.5195922852-.7004394531,3.6528320312l10.4892578125,6.0563964844c2.1887207031-2.9642333984,5.5452270508-5.012512207,9.3928222656-5.438659668v-12.0947875977c-4.8051757812-.7276000977-8.50390625-4.8739013672-8.50390625-9.8793945312,0-5.5161132812,4.4877929688-10.00390625,10.00390625-10.00390625s10.0034179688,4.4877929688,10.0034179688,10.00390625c0,5.0056762695-3.6985473633,9.1520385742-8.50390625,9.8794555664v12.0946655273c3.8475341797.4260864258,7.2039794922,2.4739379883,9.3928222656,5.4379882812l10.4893188477-6.0555419922c-.4467163086-1.1332397461-.7005004883-2.3629760742-.7005004883-3.6529541016,0-5.5151367188,4.4873046875-10.0024414062,10.001953125-10.0024414062,5.515625,0,10.0029296875,4.4873046875,10.0029296875,10.0024414062s-4.4873046875,10.0024414062-10.0029296875,10.0024414062c-3.1513671875,0-5.9628295898-1.4688720703-7.7975463867-3.7540283203l-10.482421875,6.0515136719c.7314453125,1.6640014648,1.1442260742,3.4984130859,1.1442260742,5.4295654297,0,1.9313354492-.4127807617,3.7658081055-1.1441650391,5.4299926758l10.4823608398,6.0516357422c1.8347167969-2.2852172852,4.6462402344-3.7540893555,7.7975463867-3.7540893555,5.515625,0,10.0029296875,4.4873046875,10.0029296875,10.0029296875ZM108.720703125,67.3096923828c0,.8554077148.1616821289,1.671875.4436645508,2.4302368164.1468505859-.1040649414.3164672852-.1784667969.5101928711-.1784667969.497253418,0,.9003295898.403137207.9003295898.900390625,0,.3899536133-.2510375977.7141113281-.5977783203.8392944336.3928833008.5639038086.8667602539,1.0659790039,1.404296875,1.4924926758-.1104125977-.1494750977-.1883544922-.3247680664-.1883544922-.5248413086,0-.497253418.4030761719-.900390625.900390625-.900390625.497253418,0,.900390625.403137207.900390625.900390625s-.403137207.900390625-.900390625.900390625c-.1021118164,0-.1964111328-.0267944336-.287902832-.0581054688.5561523438.3767700195,1.1693725586.6752929688,1.8233642578.8806762695.0443725586-.455871582.4159545898-.81640625.8834228516-.81640625.497253418,0,.900390625.403137207.900390625.900390625,0,.0775146484-.0256347656.1466674805-.0440673828.2184448242.1180419922.0059204102.2344970703.0179443359.3540039062.0179443359.9948730469,0,1.940246582-.2116088867,2.7981567383-.5872802734.1367797852-.3229370117.4565429688-.5494995117.8293457031-.5494995117.0493164062,0,.0919189453.0204467773.1390991211.0280761719.5337524414-.3423461914,1.0159912109-.7552490234,1.4380493164-1.2251586914.069152832-.1998901367.2062988281-.3589477539.3843383789-.4669799805.5121459961-.6795043945.9037475586-1.4522705078,1.1423339844-2.2913208008-.1651611328.2001342773-.4052124023.3353271484-.6849365234.3353271484-.4973144531,0-.900390625-.403137207-.900390625-.900390625s.4030761719-.900390625.900390625-.900390625c.4207763672,0,.7581176758.2947387695.8568725586.6848144531.0601806641-.3686523438.0996704102-.7442016602.0996704102-1.1296386719,0-.6090698242-.0862426758-1.1970214844-.2330932617-1.7607421875-.1629638672.2314453125-.4188842773.3924560547-.723449707.3924560547-.4973144531,0-.900390625-.403137207-.900390625-.900390625s.4030761719-.900390625.900390625-.900390625c.0747070312,0,.1412353516.025390625.2106933594.0425415039-1.1513061523-2.2940673828-3.5201416016-3.8759155273-6.2570800781-3.8759155273-.2366333008,0-.4703979492.0124511719-.7010498047.0354614258-.1466674805.1036987305-.3159790039.1778564453-.5092773438.1778564453-.0942382812,0-.1803588867-.0267944336-.2657470703-.0536499023-.4938354492.1065063477-.9664306641.2680053711-1.4157714844.4729003906.0944824219.1424560547.1630249023.303527832.1630249023.4873046875,0,.497253418-.403137207.900390625-.900390625.900390625-.3336791992,0-.6130981445-.1898803711-.7686157227-.4594726562-.3294677734.266784668-.6321411133.5641479492-.9083862305.8854370117.0917358398.1410522461.1584472656.2997436523.1584472656.4805908203,0,.497253418-.4030761719.900390625-.9003295898.900390625-.0596923828,0-.1118774414-.0228881836-.1683349609-.033996582-.498840332.9625854492-.7855224609,2.0522460938-.7855224609,3.2092285156ZM61.3361206055,67.7403564453c-.0139160156.0006103516-.0255737305.0079956055-.0396118164.0079956055-.497253418,0-.900390625-.403137207-.900390625-.900390625,0-.471862793.3667602539-.8475341797.8287353516-.885925293-.282043457-1.4400634766-1.0078125-2.7205200195-2.0274047852-3.6990966797-.0999755859.038269043-.2063598633.0645751953-.3198242188.0645751953-.497253418,0-.900390625-.403137207-.900390625-.900390625,0-.0313110352.0147094727-.057800293.0178222656-.0883178711-1.0622558594-.6499023438-2.3056640625-1.0315551758-3.6395874023-1.0315551758-1.6533203125,0-3.1720581055.5790405273-4.3712768555,1.5407714844-.103515625.1912231445-.2668457031.341003418-.4730834961.4171142578-1.0842895508,1.0416259766-1.8299560547,2.4270019531-2.0684204102,3.9801635742.1461791992.1600952148.2408447266.3687744141.2408447266.6026611328,0,.2729492188-.1279296875.5093383789-.3197631836.6744384766.0451049805,1.4904174805.5569458008,2.8620605469,1.3956298828,3.9788818359.1326293945-.0769042969.2782592773-.1328735352.4426269531-.1328735352.497253418,0,.900390625.403137207.900390625.900390625,0,.1784667969-.065246582.3352050781-.1548461914.4751586914.3225097656.2620849609.6683349609.4962768555,1.0344238281.6984863281.1631469727-.1646118164.3888549805-.2670898438.6389160156-.2670898438.4915161133,0,.8878173828.3947753906.8970947266.883972168.5866699219.1599731445,1.2007446289.2528076172,1.8374633789.2528076172.4194335938,0,.8281860352-.0435791016,1.2274780273-.1146240234-.005859375-.0415649414-.024597168-.0785522461-.024597168-.1217651367,0-.497253418.403137207-.900390625.900390625-.900390625.3515014648,0,.6480712891.2067871094.7963256836.5004882812.4045410156-.1849975586.7881469727-.4063110352,1.1471557617-.6616821289-.2497558594-.1600341797-.424987793-.4266967773-.424987793-.7453613281,0-.497253418.403137207-.900390625.900390625-.900390625.3474121094,0,.6399536133.2030639648.7900390625.4912109375.2963867188-.3455200195.5596313477-.7191772461.7849731445-1.1179199219-.0296630859-.0892944336-.0565185547-.1806030273-.0565185547-.2798461914,0-.3758544922.2309570312-.696472168.5581665039-.8312988281.2108764648-.5977172852.3414916992-1.2312011719.3818359375-1.8901977539ZM85.0395507812,56.6104736328c3.8618164062,0,7.0034179688-3.1420898438,7.0034179688-7.0043945312,0-3.8618164062-3.1416015625-7.00390625-7.0034179688-7.00390625s-7.00390625,3.1420898438-7.00390625,7.00390625c0,3.8623046875,3.1420898438,7.0043945312,7.00390625,7.0043945312ZM86.3386230469,113.5944824219c.0210571289.0763549805.0473022461.1511230469.0473022461.2341918945,0,.497253418-.403137207.900390625-.900390625.900390625s-.900390625-.403137207-.900390625-.900390625c0-.1207275391.0255737305-.2351074219.0686645508-.3402709961-2.9612426758.1624755859-5.4400634766,2.1643676758-6.2964477539,4.8866577148.4336547852.0648193359.7718505859.4227905273.7718505859.8744506836,0,.497253418-.403137207.900390625-.900390625.900390625-.0620727539,0-.1164550781-.0233764648-.174987793-.0353393555-.0061035156.1194458008-.0181884766.2373046875-.0181884766.358215332,0,.5137939453.0592651367,1.0134277344.1647949219,1.4959716797.0100097656-.0003051758.0183105469-.0057373047.0283813477-.0057373047.497253418,0,.900390625.403137207.900390625.900390625,0,.2919311523-.1480712891.5393676758-.3634033203.7038574219.3192749023.6445922852.7495727539,1.2192993164,1.2412719727,1.7338867188-.1599731445-.1625366211-.259765625-.3847045898-.259765625-.6307983398,0-.497253418.403137207-.900390625.900390625-.900390625.4973144531,0,.900390625.403137207.900390625.900390625s-.4030761719.900390625-.900390625.900390625c-.2473144531,0-.4708862305-.1002807617-.633605957-.26171875.6465454102.6745605469,1.4105224609,1.2344970703,2.2824707031,1.6071166992-.0755004883-.1317138672-.1303100586-.2761230469-.1303100586-.4388427734,0-.497253418.4030761719-.900390625.900390625-.900390625.497253418,0,.900390625.403137207.900390625.900390625,0,.3601074219-.2149047852.6657104492-.520324707.8096923828.5126342773.1198730469,1.0441894531.1896972656,1.5928344727.1896972656.0228881836,0,.0450439453-.0031738281.0678710938-.0034179688.1157836914-.0542602539.2417602539-.0894165039.378112793-.0894165039.0977172852,0,.1873168945.0267944336.2754516602.0556030273.520690918-.053527832,1.0222167969-.1693115234,1.5030517578-.3309936523-.1602172852-.1625366211-.2600097656-.3849487305-.2600097656-.6311645508,0-.497253418.403137207-.900390625.900390625-.900390625.4630126953,0,.8305664062.3542480469.8809204102.8038330078.4136962891-.2633056641.7995605469-.5654907227,1.1484375-.907043457-.2998657227-.1461181641-.5108642578-.4473876953-.5108642578-.8033447266,0-.497253418.403137207-.900390625.900390625-.900390625.282409668,0,.5239868164.1380004883.6890869141.3414306641.6493530273-1.0620727539,1.0305786133-2.3051147461,1.0305786133-3.6386108398,0-.2495117188-.0142822266-.4956665039-.039855957-.7385253906-.0934448242-.1419677734-.1612548828-.3021240234-.1612548828-.4847412109,0-.0823364258.026184082-.1563110352.046875-.2321166992-.5831298828-2.7474365234-2.7811889648-4.9008178711-5.5501098633-5.4229125977ZM95.5869140625,85.0391845703c0-5.8154296875-4.7314453125-10.546875-10.5473632812-10.546875s-10.5473632812,4.7314453125-10.5473632812,10.546875c0,5.81640625,4.7314453125,10.5478515625,10.5473632812,10.5478515625s10.5473632812-4.7314453125,10.5473632812-10.5478515625ZM58.8776245117,67.7545166016c-.497253418,0-.900390625.403137207-.900390625.900390625s.403137207.900390625.900390625.900390625.900390625-.403137207.900390625-.900390625-.403137207-.900390625-.900390625-.900390625ZM58.8776245117,64.140625c-.497253418,0-.900390625.403137207-.900390625.900390625s.403137207.900390625.900390625.900390625.900390625-.403137207.900390625-.900390625-.403137207-.900390625-.900390625-.900390625ZM54.039855957,71.3684082031c-.4973144531,0-.900390625.403137207-.900390625.900390625s.4030761719.900390625.900390625.900390625c.497253418,0,.900390625-.403137207.900390625-.900390625s-.403137207-.900390625-.900390625-.900390625ZM56.4587402344,69.5614624023c-.497253418,0-.900390625.403137207-.900390625.900390625s.403137207.900390625.900390625.900390625.900390625-.403137207.900390625-.900390625-.403137207-.900390625-.900390625-.900390625ZM54.039855957,67.7545166016c-.4973144531,0-.900390625.403137207-.900390625.900390625s.4030761719.900390625.900390625.900390625c.497253418,0,.900390625-.403137207.900390625-.900390625s-.403137207-.900390625-.900390625-.900390625ZM56.4587402344,65.9475708008c-.497253418,0-.900390625.403137207-.900390625.900390625s.403137207.900390625.900390625.900390625.900390625-.403137207.900390625-.900390625-.403137207-.900390625-.900390625-.900390625ZM56.4587402344,62.3336791992c-.497253418,0-.900390625.4030761719-.900390625.900390625,0,.497253418.403137207.900390625.900390625.900390625s.900390625-.403137207.900390625-.900390625c0-.4973144531-.403137207-.900390625-.900390625-.900390625ZM51.6209106445,69.5614624023c-.497253418,0-.900390625.403137207-.900390625.900390625s.403137207.900390625.900390625.900390625c.4973144531,0,.900390625-.403137207.900390625-.900390625s-.4030761719-.900390625-.900390625-.900390625ZM49.2020263672,67.7545166016c-.497253418,0-.900390625.403137207-.900390625.900390625s.403137207.900390625.900390625.900390625.900390625-.403137207.900390625-.900390625-.403137207-.900390625-.900390625-.900390625ZM54.039855957,64.140625c-.4973144531,0-.900390625.403137207-.900390625.900390625s.4030761719.900390625.900390625.900390625c.497253418,0,.900390625-.403137207.900390625-.900390625s-.403137207-.900390625-.900390625-.900390625ZM51.6209106445,65.9475708008c-.497253418,0-.900390625.403137207-.900390625.900390625s.403137207.900390625.900390625.900390625c.4973144531,0,.900390625-.403137207.900390625-.900390625s-.4030761719-.900390625-.900390625-.900390625ZM54.039855957,60.5267333984c-.4973144531,0-.900390625.4030761719-.900390625.900390625,0,.497253418.4030761719.900390625.900390625.900390625.497253418,0,.900390625-.403137207.900390625-.900390625,0-.4973144531-.403137207-.900390625-.900390625-.900390625ZM51.6209106445,62.3336791992c-.497253418,0-.900390625.4030761719-.900390625.900390625,0,.497253418.403137207.900390625.900390625.900390625.4973144531,0,.900390625-.403137207.900390625-.900390625,0-.4973144531-.4030761719-.900390625-.900390625-.900390625ZM49.2020263672,64.140625c-.497253418,0-.900390625.403137207-.900390625.900390625s.403137207.900390625.900390625.900390625.900390625-.403137207.900390625-.900390625-.403137207-.900390625-.900390625-.900390625Z"/></svg>