<?xml version="1.0" encoding="UTF-8"?><svg id="symbole_neu_2026" xmlns="http://www.w3.org/2000/svg" viewBox="0 0 170.0787353516 170.0787353516"><defs><style>.cls-1{fill:#1d1d1b;}</style></defs><path class="cls-1" d="M75.1690673828,65.5958862305c0-.497253418.403137207-.900390625.900390625-.900390625.4973144531,0,.900390625.403137207.900390625.900390625,0,.4973144531-.4030761719.900390625-.900390625.900390625-.497253418,0-.900390625-.4030761719-.900390625-.900390625ZM76.0694580078,62.8823852539c.4973144531,0,.900390625-.403137207.900390625-.900390625s-.4030761719-.900390625-.900390625-.900390625c-.497253418,0-.900390625.403137207-.900390625.900390625s.403137207.900390625.900390625.900390625ZM76.0694580078,59.2684936523c.4973144531,0,.900390625-.403137207.900390625-.900390625s-.4030761719-.900390625-.900390625-.900390625c-.497253418,0-.900390625.403137207-.900390625.900390625s.403137207.900390625.900390625.900390625ZM73.6505737305,68.3032226562c.4973144531,0,.900390625-.4030761719.900390625-.900390625,0-.497253418-.4030761719-.900390625-.900390625-.900390625-.497253418,0-.900390625.403137207-.900390625.900390625,0,.4973144531.403137207.900390625.900390625.900390625ZM71.2316894531,66.4962768555c.497253418,0,.900390625-.4030761719.900390625-.900390625,0-.497253418-.403137207-.900390625-.900390625-.900390625s-.900390625.403137207-.900390625.900390625c0,.4973144531.403137207.900390625.900390625.900390625ZM73.6505737305,64.6893310547c.4973144531,0,.900390625-.4030761719.900390625-.900390625,0-.497253418-.4030761719-.900390625-.900390625-.900390625-.497253418,0-.900390625.403137207-.900390625.900390625,0,.4973144531.403137207.900390625.900390625.900390625ZM73.6505737305,61.0754394531c.4973144531,0,.900390625-.403137207.900390625-.900390625s-.4030761719-.900390625-.900390625-.900390625c-.497253418,0-.900390625.403137207-.900390625.900390625s.403137207.900390625.900390625.900390625ZM76.0694580078,55.6546020508c.4973144531,0,.900390625-.403137207.900390625-.900390625s-.4030761719-.900390625-.900390625-.900390625c-.497253418,0-.900390625.403137207-.900390625.900390625s.403137207.900390625.900390625.900390625ZM73.6505737305,57.4615478516c.4973144531,0,.900390625-.403137207.900390625-.900390625s-.4030761719-.900390625-.900390625-.900390625c-.497253418,0-.900390625.403137207-.900390625.900390625s.403137207.900390625.900390625.900390625ZM68.8128051758,68.3032226562c.497253418,0,.900390625-.4030761719.900390625-.900390625,0-.497253418-.403137207-.900390625-.900390625-.900390625-.4973144531,0-.900390625.403137207-.900390625.900390625,0,.4973144531.4030761719.900390625.900390625.900390625ZM71.2316894531,62.8823852539c.497253418,0,.900390625-.403137207.900390625-.900390625s-.403137207-.900390625-.900390625-.900390625-.900390625.403137207-.900390625.900390625.403137207.900390625.900390625.900390625ZM68.8128051758,64.6893310547c.497253418,0,.900390625-.4030761719.900390625-.900390625,0-.497253418-.403137207-.900390625-.900390625-.900390625-.4973144531,0-.900390625.403137207-.900390625.900390625,0,.4973144531.4030761719.900390625.900390625.900390625ZM63.9749755859,68.3032226562c.497253418,0,.900390625-.4030761719.900390625-.900390625,0-.497253418-.403137207-.900390625-.900390625-.900390625s-.900390625.403137207-.900390625.900390625c0,.4973144531.403137207.900390625.900390625.900390625ZM66.3938598633,66.4962768555c.4973144531,0,.900390625-.4030761719.900390625-.900390625,0-.497253418-.4030761719-.900390625-.900390625-.900390625-.497253418,0-.900390625.403137207-.900390625.900390625,0,.4973144531.403137207.900390625.900390625.900390625ZM63.8911132812,92.7471923828h39.9438476562v-3h-39.9438476562v3ZM63.8911132812,101.9591064453h39.9438476562v-3h-39.9438476562v3ZM63.8911132812,111.1719970703h8.705078125v-3h-8.705078125v3ZM89.1123046875,111.1719970703h5.6689453125v-3h-5.6689453125v3ZM100.4501953125,111.1719970703h3.384765625v-3h-3.384765625v3ZM77.7734375,111.1719970703h5.6694335938v-3h-5.6694335938v3ZM131.5048828125,70.3370361328l-3.8017578125,1.4067382812c-4.451171875,1.6469726562-7.94921875,5.14453125-9.595703125,9.5961914062l-1.4072265625,3.8022460938-1.4072265625-3.8022460938c-.5581665039-1.5091552734-1.3441772461-2.8967895508-2.29296875-4.1517333984v46.2015380859h-58.2758789062v-12.7344360352c-.8350219727,1.0495605469-1.5114135742,2.2330932617-1.9877929688,3.5205688477l-1.4067382812,3.802734375-1.4067382812-3.802734375c-1.2954101562-3.5009765625-4.0463867188-6.251953125-7.5473632812-7.548828125l-3.8017578125-1.40625,3.8017578125-1.4072265625c3.5009765625-1.294921875,6.2514648438-4.0458984375,7.5473632812-7.546875l1.4067382812-3.8017578125,1.4067382812,3.8017578125c.4765014648,1.2876586914,1.1528930664,2.4711303711,1.9877929688,3.5205078125v-29.8623046875l23.236328125-23.2358398438h35.0395507812v16.7960205078c.9487915039-1.2549438477,1.7348022461-2.6424560547,2.29296875-4.1514892578l1.4072265625-3.8022460938,1.4072265625,3.8022460938c1.646484375,4.451171875,5.14453125,7.94921875,9.595703125,9.5966796875l3.8017578125,1.4067382812ZM59.845703125,69.0460205078h.8430786133c.0795288086-.416015625.4281616211-.7366333008.8673095703-.7366333008s.7877807617.3206176758.8673095703.7366333008h3.1031494141c.0795288086-.416015625.4281616211-.7366333008.8673095703-.7366333008.4392089844,0,.7878417969.3206176758.8673095703.7366333008h3.1032104492c.0795288086-.416015625.4281616211-.7366333008.8673095703-.7366333008s.7877807617.3206176758.8673095703.7366333008h3.1031494141c.0795288086-.416015625.4281616211-.7366333008.8673095703-.7366333008.4392089844,0,.7878417969.3206176758.8673095703.7366333008h.1447753906v-17.2358398438l-5.6898193359,5.6898193359c.4179077148.0779418945.7403564453.4276123047.7403564453.8681030273,0,.497253418-.403137207.900390625-.900390625.900390625-.4404907227,0-.7901611328-.3224487305-.8681030273-.7403564453l-.9715576172.9715576172c.192565918.1651611328.3211669922.4017944336.3211669922.6753540039,0,.497253418-.403137207.900390625-.900390625.900390625-.2736206055,0-.5101928711-.1286010742-.6753540039-.3211669922l-.9077758789.9077758789c.0383300781.1000366211.0645751953.2064819336.0645751953.3199462891,0,.497253418-.4030761719.900390625-.900390625.900390625-.1134643555,0-.219909668-.0262451172-.3199462891-.0645751953l-1.2560424805,1.2560424805c-.0896606445.2648925781-.2931518555.4683227539-.5579833984.5579833984l-4.4141845703,4.4141845703ZM56.3715820312,105.2208251953c-2.0439453125-1.2724609375-3.7685546875-2.9970703125-5.0419921875-5.0419921875-1.2734375,2.044921875-2.9975585938,3.76953125-5.0419921875,5.0419921875,2.0444335938,1.2734375,3.7690429688,2.998046875,5.0419921875,5.04296875,1.2734375-2.044921875,2.998046875-3.76953125,5.0419921875-5.04296875ZM110,74.1459960938c-1.2925415039-1.000793457-2.7341308594-1.8218383789-4.302734375-2.4022216797l-3.8017578125-1.4067382812,3.8017578125-1.4067382812c1.5686035156-.5805664062,3.0101928711-1.4017944336,4.302734375-2.4027099609v-16.8385009766h-29.9184570312v22.3569335938h-22.357421875v30.4725952148c.7955932617.5202026367,1.6509399414.9587402344,2.5600585938,1.2949829102l3.8022460938,1.4072265625-3.8022460938,1.4072265625c-.9091186523.3364868164-1.764465332.7751464844-2.5600585938,1.2954711914v12.4662475586h52.2758789062v-46.2437744141ZM123.673828125,70.3370361328c-2.892578125-1.6787109375-5.294921875-4.0815429688-6.9736328125-6.9741210938-1.6787109375,2.892578125-4.0810546875,5.2954101562-6.9736328125,6.9741210938,2.892578125,1.6782226562,5.294921875,4.0810546875,6.9736328125,6.9736328125,1.6787109375-2.892578125,4.0810546875-5.2954101562,6.9736328125-6.9736328125Z"/></svg>