<?xml version="1.0" encoding="UTF-8"?><svg id="symbole_neu_2026" xmlns="http://www.w3.org/2000/svg" viewBox="0 0 170.0787353516 170.0787353516"><defs><style>.cls-1{fill:#1d1d1b;}</style></defs><path class="cls-1" d="M134.6842651367,87.3536376953c-.0438232422-.37890625-.1447143555-.7504272461-.3434448242-1.083984375l-10.5869140625-17.6279296875c-.482421875-.8046875-1.3642578125-1.3041992188-2.3017578125-1.3041992188h-18.3388671875v-8.1430664062c0-1.4809570312-1.201171875-2.6860351562-2.677734375-2.6860351562h-62.3994140625c-1.4765625,0-2.677734375,1.205078125-2.677734375,2.6860351562v52.6142578125c0,1.48046875,1.201171875,2.685546875,2.677734375,2.685546875h6.0083618164c.5979003906,5.7213745117,5.4208374023,10.1953125,11.2650756836,10.1953125s10.667175293-4.4739379883,11.2650756836-10.1953125h36.5386352539v-.0146484375h2.9397583008c.5910644531,5.7284545898,5.41796875,10.2099609375,11.2672729492,10.2099609375s10.6762084961-4.4815063477,11.2672729492-10.2099609375h3.4505004883c1.4814453125,0,2.6875-1.2080078125,2.6875-2.6923828125l-.0413208008-24.43359375ZM42.8384399414,59.4927978516c.1649169922.2087402344.4090576172.3513183594.6957397461.3513183594s.5308227539-.142578125.6957397461-.3513183594h3.4463500977c.1649169922.2087402344.4090576172.3513183594.6957397461.3513183594s.5308227539-.142578125.6957397461-.3513183594h3.4462890625c.1649169922.2087402344.4090576172.3513183594.6957397461.3513183594s.5308227539-.142578125.6957397461-.3513183594h3.4463500977c.1649169922.2087402344.4090576172.3513183594.6957397461.3513183594s.5308227539-.142578125.6957397461-.3513183594h3.4462890625c.1649169922.2087402344.4090576172.3513183594.6957397461.3513183594s.5308227539-.142578125.6957397461-.3513183594h3.4463500977c.1649169922.2087402344.4090576172.3513183594.6957397461.3513183594s.5308227539-.142578125.6957397461-.3513183594h3.4463500977c.1649169922.2087402344.4090576172.3513183594.6957397461.3513183594s.5308227539-.142578125.6956787109-.3513183594h3.4463500977c.1649169922.2087402344.4090576172.3513183594.6957397461.3513183594s.5308227539-.142578125.6957397461-.3513183594h3.4463500977c.1649169922.2087402344.4090576172.3513183594.6957397461.3513183594s.5308227539-.142578125.6957397461-.3513183594h3.4462890625c.1649169922.2087402344.4090576172.3513183594.6957397461.3513183594s.5308227539-.142578125.6957397461-.3513183594h3.4463500977c.1649169922.2087402344.4090576172.3513183594.6957397461.3513183594s.5308227539-.142578125.6957397461-.3513183594h3.4462890625c.1649169922.2087402344.4090576172.3513183594.6957397461.3513183594s.5308227539-.142578125.6957397461-.3513183594h2.6831665039v52.0170898438h-.0928344727c.0106201172-.0552978516.033203125-.1062011719.033203125-.1646118164,0-.497253418-.4030761719-.900390625-.900390625-.900390625-.497253418,0-.900390625.403137207-.900390625.900390625,0,.0584106445.0225830078.1093139648.033203125.1646118164h-3.1033935547c.0106201172-.0552978516.033203125-.1062011719.033203125-.1646118164,0-.497253418-.403137207-.900390625-.900390625-.900390625s-.900390625.403137207-.900390625.900390625c0,.0584106445.0225830078.1093139648.033203125.1646118164h-3.1034545898c.0106201172-.0552978516.033203125-.1062011719.033203125-.1646118164,0-.497253418-.4030761719-.900390625-.900390625-.900390625-.497253418,0-.900390625.403137207-.900390625.900390625,0,.0584106445.0225830078.1093139648.033203125.1646118164h-3.1033935547c.0106201172-.0552978516.033203125-.1062011719.033203125-.1646118164,0-.497253418-.403137207-.900390625-.900390625-.900390625-.4973144531,0-.900390625.403137207-.900390625.900390625,0,.0584106445.0225830078.1093139648.033203125.1646118164h-3.1034545898c.0106201172-.0552978516.033203125-.1062011719.033203125-.1646118164,0-.497253418-.4030761719-.900390625-.900390625-.900390625-.497253418,0-.900390625.403137207-.900390625.900390625,0,.0584106445.0225830078.1093139648.033203125.1646118164h-3.1033935547c.0106201172-.0552978516.033203125-.1062011719.033203125-.1646118164,0-.497253418-.403137207-.900390625-.900390625-.900390625-.4973144531,0-.900390625.403137207-.900390625.900390625,0,.0584106445.0225830078.1093139648.033203125.1646118164h-3.1034545898c.0106201172-.0552978516.033203125-.1062011719.033203125-.1646118164,0-.497253418-.4030761719-.900390625-.900390625-.900390625-.497253418,0-.900390625.403137207-.900390625.900390625,0,.0584106445.0225830078.1093139648.033203125.1646118164h-2.7894287109c-.1625366211-1.0323486328-.4595336914-2.0180053711-.8790283203-2.9390869141.3469848633-.125.5982666016-.4493408203.5982666016-.8394165039,0-.4973144531-.403137207-.900390625-.900390625-.900390625-.2072753906,0-.3892211914.0818481445-.5414428711.1995239258-.3062133789-.4659423828-.6506958008-.9024047852-1.0197143555-1.317199707-.0769042969-.310546875-.3041381836-.549621582-.6094970703-.6391601562-.6016845703-.5794677734-1.2676391602-1.088684082-1.9841918945-1.5247192383-.1241455078-.1492919922-.2922973633-.2484130859-.4880981445-.2930297852-.5567626953-.3014526367-1.1442260742-.5506591797-1.7516479492-.7561645508.0139770508-.0631103516.038269043-.1224365234.038269043-.1896972656,0-.4973144531-.403137207-.900390625-.900390625-.900390625-.4125366211,0-.7456665039.2830200195-.8521728516.6614990234-.6147460938-.1042480469-1.2420654297-.1711425781-1.8858642578-.1711425781-.4287109375,0-.850402832.0290527344-1.2668457031.0759277344-.1329956055-.331237793-.4541625977-.5662841797-.8329467773-.5662841797-.497253418,0-.900390625.4030761719-.900390625.900390625,0,.0028686523.0016479492.0051879883.0016479492.0079956055-2.6002807617.7196655273-4.8299560547,2.3416137695-6.325378418,4.5190429688-.0114135742-.0004272461-.0209960938-.0065917969-.0325317383-.0065917969-.4973144531,0-.900390625.4030761719-.900390625.900390625,0,.1708984375.0603637695.3215942383.1430664062.4577026367-.5154418945,1.0284423828-.8768310547,2.1442260742-1.0621337891,3.3208007812h-2.151184082c.0106201172-.0552978516.033203125-.1062011719.033203125-.1646118164,0-.497253418-.403137207-.900390625-.900390625-.900390625s-.900390625.403137207-.900390625.900390625c0,.0584106445.0225830078.1093139648.033203125.1646118164h-1.9053344727v-1.1440429688c.1087036133.0465087891.2279663086.0728759766.3536376953.0728759766.497253418,0,.900390625-.403137207.900390625-.900390625s-.403137207-.900390625-.900390625-.900390625c-.1256713867,0-.244934082.0263671875-.3536376953.0728759766v-1.9588623047c.1087036133.0465087891.2279663086.0728759766.3536376953.0728759766.497253418,0,.900390625-.403137207.900390625-.900390625,0-.4973144531-.403137207-.900390625-.900390625-.900390625-.1256713867,0-.244934082.0263671875-.3536376953.0728759766v-1.9588623047c.1087036133.0465087891.2279663086.0728759766.3536376953.0728759766.497253418,0,.900390625-.403137207.900390625-.900390625,0-.4973144531-.403137207-.900390625-.900390625-.900390625-.1256713867,0-.244934082.0263671875-.3536376953.0728759766v-1.9589233398c.1087036133.0465087891.2279663086.0728759766.3536376953.0728759766.497253418,0,.900390625-.4030761719.900390625-.900390625,0-.497253418-.403137207-.900390625-.900390625-.900390625-.1256713867,0-.244934082.0263671875-.3536376953.0728759766v-1.9588623047c.1087036133.0465087891.2279663086.0728759766.3536376953.0728759766.497253418,0,.900390625-.4030761719.900390625-.900390625,0-.497253418-.403137207-.900390625-.900390625-.900390625-.1256713867,0-.244934082.0263671875-.3536376953.0728759766v-1.9588623047c.1087036133.0465087891.2279663086.0728759766.3536376953.0728759766.497253418,0,.900390625-.403137207.900390625-.900390625s-.403137207-.900390625-.900390625-.900390625c-.1256713867,0-.244934082.0263671875-.3536376953.0728759766v-1.9588623047c.1087036133.0465087891.2279663086.0728759766.3536376953.0728759766.497253418,0,.900390625-.403137207.900390625-.900390625s-.403137207-.900390625-.900390625-.900390625c-.1256713867,0-.244934082.0263671875-.3536376953.0728759766v-1.9588623047c.1087036133.0465087891.2279663086.0728759766.3536376953.0728759766.497253418,0,.900390625-.403137207.900390625-.900390625s-.403137207-.900390625-.900390625-.900390625c-.1256713867,0-.244934082.0263671875-.3536376953.0728759766v-1.9588623047c.1087036133.0465087891.2279663086.0728759766.3536376953.0728759766.497253418,0,.900390625-.403137207.900390625-.900390625,0-.4973144531-.403137207-.900390625-.900390625-.900390625-.1256713867,0-.244934082.0263671875-.3536376953.0728759766v-1.9588623047c.1087036133.0465087891.2279663086.0728759766.3536376953.0728759766.497253418,0,.900390625-.403137207.900390625-.900390625,0-.4973144531-.403137207-.900390625-.900390625-.900390625-.1256713867,0-.244934082.0263671875-.3536376953.0728759766v-1.9589233398c.1087036133.0465087891.2279663086.0728759766.3536376953.0728759766.497253418,0,.900390625-.4030761719.900390625-.900390625,0-.497253418-.403137207-.900390625-.900390625-.900390625-.1256713867,0-.244934082.0263671875-.3536376953.0728759766v-1.9588623047c.1087036133.0465087891.2279663086.0728759766.3536376953.0728759766.497253418,0,.900390625-.4030761719.900390625-.900390625,0-.497253418-.403137207-.900390625-.900390625-.900390625-.1256713867,0-.244934082.0263671875-.3536376953.0728759766v-1.9588623047c.1087036133.0465087891.2279663086.0728759766.3536376953.0728759766.497253418,0,.900390625-.4030761719.900390625-.900390625,0-.497253418-.403137207-.900390625-.900390625-.900390625-.1256713867,0-.244934082.0263671875-.3536376953.0728759766v-1.9588623047c.1087036133.0465087891.2279663086.0728759766.3536376953.0728759766.497253418,0,.900390625-.403137207.900390625-.900390625s-.403137207-.900390625-.900390625-.900390625c-.1256713867,0-.244934082.0263671875-.3536376953.0728759766v-1.9588623047c.1087036133.0465087891.2279663086.0728759766.3536376953.0728759766.2866821289,0,.5308227539-.142578125.6957397461-.3513183594h3.4462890625ZM58.5618286133,121.0397338867c.0350952148-.09765625.0625-.1996459961.0625-.309387207,0-.5101928711-.4136352539-.9237670898-.923828125-.9237670898-.5101318359,0-.9237670898.4135742188-.9237670898.9237670898,0,.3180541992.1708374023.584777832.4154663086.7509765625-.5731811523.1339111328-1.1670532227.2108764648-1.7783203125.2185668945-.0648803711-.0144042969-.1258544922-.0394287109-.1950683594-.0394287109-.0562133789,0-.1049804688.0223388672-.1584472656.0319824219-.6069335938-.0181884766-1.196472168-.1025390625-1.7645263672-.2451782227.2166137695-.1690673828.3649902344-.4208374023.3649902344-.7169189453,0-.5101928711-.4135742188-.9237670898-.9237670898-.9237670898s-.923828125.4135742188-.923828125.9237670898c0,.075012207.0258178711.1416625977.0427246094.2114868164-.6864013672-.3162231445-1.3252563477-.7184448242-1.8970947266-1.2014160156.0941772461.0323486328.1912841797.0598144531.2964477539.0598144531.5101928711,0,.9237670898-.4135742188.9237670898-.9237670898s-.4135742188-.9237670898-.9237670898-.9237670898-.9237670898.4135742188-.9237670898.9237670898c0,.1251220703.0261230469.2438964844.0711669922.352722168-.4310302734-.4357299805-.8086547852-.9229125977-1.1372070312-1.4446411133.25390625-.1646118164.4318237305-.4368286133.4318237305-.7619628906,0-.5101928711-.4135742188-.9237670898-.9237670898-.9237670898-.1063232422,0-.2046508789.0274047852-.2997436523.0604858398-.2716064453-.7521362305-.4380493164-1.5523071289-.4849243164-2.3862915039.1604614258.2732543945.4448852539.4655761719.7846679688.4655761719.5101928711,0,.9237670898-.4135742188.9237670898-.9237670898s-.4135742188-.923828125-.9237670898-.923828125c-.3411865234,0-.6268920898.1936645508-.7868652344.4688110352.0427246094-.8356933594.2053222656-1.6380004883.4737548828-2.3922119141.0986328125.035949707.2020263672.0631713867.3131103516.0631713867.5101928711,0,.9237670898-.4135742188.9237670898-.9237670898,0-.3325195312-.1851806641-.6106567383-.4487915039-.7733764648.3480834961-.5576171875.7543334961-1.0738525391,1.2185058594-1.5333862305-.0784301758.1358032227-.1354980469.2847900391-.1354980469.4528808594,0,.5101928711.4135742188.9237670898.9237670898.9237670898s.9237670898-.4135742188.9237670898-.9237670898-.4135742188-.9237670898-.9237670898-.9237670898c-.1247558594,0-.2431640625.0261230469-.3517456055.0709838867.5889282227-.5064697266,1.2484741211-.9290771484,1.9612426758-1.2563476562-.0242919922.0827026367-.051574707.1646728516-.051574707.2552490234,0,.5101928711.4136352539.9237670898.923828125.9237670898s.9237670898-.4135742188.9237670898-.9237670898c0-.314453125-.1672363281-.5785522461-.4072875977-.7454223633.5321655273-.1366577148,1.0836181641-.2205810547,1.6507568359-.2482299805.0989990234.0362548828.2029418945.0635375977.3145141602.0635375977.1245727539,0,.2427368164-.0262451172.3511352539-.0709228516.5713500977.0178833008,1.1274414062.0930786133,1.6645507812.2215576172-.268737793.1615600586-.4577636719.4430541992-.4577636719.7794799805,0,.5101928711.4136352539.9237670898.9237670898.9237670898.5101928711,0,.923828125-.4135742188.923828125-.9237670898,0-.1251831055-.026184082-.2440795898-.0712890625-.3529663086,1.553894043.6631469727,2.8630981445,1.7915039062,3.7684936523,3.2060546875-.3399047852.1363525391-.5812988281.4659423828-.5812988281.854675293,0,.5101928711.4135742188.9237670898.9237670898.9237670898.1735229492,0,.3266601562-.0607299805.4653320312-.1439208984.3335571289.9078979492.5249633789,1.8848266602.5249633789,2.908203125,0,1.0352783203-.1954956055,2.0231323242-.5364990234,2.9398803711-.1359863281-.0787963867-.2853393555-.1361083984-.4537963867-.1361083984-.5101928711,0-.9237670898.4135742188-.9237670898.9237670898,0,.3812255859.2313232422.7078857422.5609130859.8489990234-.9028930664,1.3963012695-2.2014770508,2.5097045898-3.7393188477,3.1681518555ZM123.4614257812,118.9696655273c.0018310547-.0238037109.0137939453-.044128418.0137939453-.0684204102,0-.5101928711-.4135742188-.9237670898-.9237670898-.9237670898s-.9237670898.4135742188-.9237670898.9237670898.4135742188.9237670898.9237670898.9237670898c.0084228516,0,.0154418945-.0045776367.0238037109-.0048217773-.489440918.401184082-1.0278930664.7413330078-1.5997314453,1.0237426758.0030517578-.0307006836.0179443359-.0573120117.0179443359-.0888061523,0-.5101928711-.4135742188-.9237670898-.9237670898-.9237670898s-.9237670898.4135742188-.9237670898.9237670898c0,.2632446289.1126708984.4976196289.2893676758.6658325195-.5855102539.1549682617-1.1946411133.2471923828-1.8225097656.2692871094-.0087890625-.0002441406-.0159912109-.0050048828-.0248413086-.0050048828-.0147705078,0-.0270385742.0077514648-.0416870117.0084228516-.0757446289.0020751953-.1497192383.0115356445-.2259521484.0115356445-.5927734375,0-1.1704101562-.0648803711-1.728515625-.1838378906.2575683594-.1639404297.4382324219-.438293457.4382324219-.7662353516,0-.5101928711-.4136352539-.9237670898-.923828125-.9237670898s-.9237670898.4135742188-.9237670898.9237670898c0,.1256713867.0260620117.2449951172.071472168.3541870117-1.5974121094-.6389770508-2.9545288086-1.7567138672-3.8919067383-3.182434082.401184082-.1006469727.7045288086-.4470825195.7045288086-.8795166016,0-.5101928711-.4135742188-.923828125-.9237670898-.923828125-.2270507812,0-.427734375.0911865234-.5886230469.2270507812-.3687133789-.9484863281-.5785522461-1.9768676758-.5785522461-3.0555419922,0-1.0518798828.2011108398-2.0551147461.5525512695-2.9840698242.1638793945.1481933594.3762817383.2445678711.6146240234.2445678711.5101928711,0,.9237670898-.4135742188.9237670898-.9237670898,0-.4494018555-.3272094727-.8063964844-.7523803711-.8892211914.9534301758-1.4852905273,2.3569946289-2.6452636719,4.0162963867-3.2901000977-.0855712891.1400756836-.1480102539.2953491211-.1480102539.471496582,0,.5101928711.4135742188.923828125.9237670898.923828125s.923828125-.4136352539.923828125-.923828125c0-.3693237305-.2203369141-.6826782227-.5335693359-.8305053711.5449829102-.123046875,1.1091308594-.192199707,1.6882324219-.2016601562.123046875.0607299805.2567138672.1020507812.4032592773.1020507812.1301269531,0,.2532348633-.0280151367.3655395508-.0765991211.5421142578.0413208008,1.0685424805.1354980469,1.5770874023.2766113281-.2274169922.1682739258-.3846435547.4254760742-.3846435547.7301025391,0,.5101928711.4135742188.923828125.9237670898.923828125s.9237670898-.4136352539.9237670898-.923828125c0-.0664672852-.0244750977-.1249389648-.0378417969-.1874389648.6334228516.3107299805,1.2239379883.6948242188,1.7556152344,1.1498413086-.0538330078-.009765625-.1030883789-.0322875977-.1597900391-.0322875977-.5101928711,0-.9237670898.4136352539-.9237670898.923828125,0,.5101318359.4135742188.9237670898.9237670898.9237670898s.9237670898-.4136352539.9237670898-.9237670898c0-.0649414062-.024230957-.1220092773-.0369873047-.1831665039.377746582.4114379883.7139892578.8600463867,1.0049438477,1.3411865234-.1998291016.1694946289-.3337402344.4133300781-.3337402344.6958618164,0,.5101928711.4135742188.9237670898.9237670898.9237670898.0556030273,0,.1038818359-.0222167969.1567993164-.0316162109.2345581055.6744995117.3864746094,1.3861083984.4426269531,2.126159668-.1621704102-.1409301758-.3676757812-.2343139648-.5994262695-.2343139648-.5101928711,0-.9237670898.4135742188-.9237670898.9237670898s.4135742188.9237670898.9237670898.9237670898c.2297363281,0,.4331665039-.0924682617.5947875977-.2312011719-.0639648438.7378540039-.2267456055,1.4457397461-.4681396484,2.1170043945-.0432128906-.0062255859-.0817260742-.0255737305-.1266479492-.0255737305-.5101928711,0-.9237670898.4136352539-.9237670898.923828125,0,.2659301758.1156616211.5014648438.2955322266.6700439453-.2760009766.4475097656-.5917358398.8658447266-.9435424805,1.2522583008ZM128.4924926758,111.4854736328c-.8663330078-5.4240722656-5.5387573242-9.5849609375-11.1721801758-9.5849609375s-10.305847168,4.1608886719-11.1721801758,9.5849609375h-3.0348510742v-41.1547851562h7.8515625v17.3256835938c0,1.4833984375,1.205078125,2.69140625,2.685546875,2.69140625h18.0810546875v21.1376953125h-3.2389526367ZM124.9410400391,76.4325561523c-.3370361328.1301879883-.5781860352.4523925781-.5781860352.8353271484,0,.4973144531.403137207.900390625.900390625.900390625.2254638672,0,.4254150391-.0908813477.5833740234-.2278442383l2.4674072266,4.1083984375c-.1625976562-.1605224609-.3853149414-.2604370117-.6318969727-.2604370117-.497253418,0-.900390625.4030761719-.900390625.900390625,0,.497253418.403137207.900390625.900390625.900390625.4973144531,0,.900390625-.403137207.900390625-.900390625,0-.1030883789-.0267944336-.1983642578-.0586547852-.2905883789l.9071044922,1.5104370117c-.1387329102.1583862305-.2302856445.3599853516-.2302856445.587097168,0,.497253418.4030761719.900390625.900390625.900390625.0706176758,0,.1331787109-.0248413086.1991577148-.040222168l1.1997680664,1.9977416992h-17.541015625v-17.0229492188h.7869262695c.1219482422.352722168.4475708008.6098022461.8417358398.6098022461s.7197875977-.2570800781.8417358398-.6098022461h3.1543579102c.1219482422.352722168.4475097656.6098022461.8417358398.6098022461.3941650391,0,.7197875977-.2570800781.8417358398-.6098022461h.0091552734l.7287597656,1.2134399414c-.0345458984.0955200195-.0611572266.1954345703-.0611572266.3029174805,0,.4502563477.3361816406.8070068359.7677612305.8735961914l2.229309082,3.7119140625Z"/><circle class="cls-1" cx="127.6821289062" cy="86.3026733398" r=".900390625"/><circle class="cls-1" cx="122.8443603516" cy="86.3026733398" r=".900390625"/><circle class="cls-1" cx="125.2632446289" cy="84.4957275391" r=".900390625"/><circle class="cls-1" cx="122.8443603516" cy="82.6887817383" r=".900390625"/><circle class="cls-1" cx="125.2632446289" cy="80.8818359375" r=".900390625"/><path class="cls-1" d="M121.9439697266,79.0748901367c0,.2485961914.100769043.4737548828.2637329102.6366577148.162902832.1629638672.3880615234.263671875.6366577148.263671875.2486572266,0,.4736938477-.1007080078.6366577148-.263671875.162902832-.162902832.2637329102-.3880615234.2637329102-.6366577148,0-.4973144531-.403137207-.900390625-.900390625-.900390625s-.900390625.4030761719-.900390625.900390625Z"/><circle class="cls-1" cx="118.0065307617" cy="86.3026733398" r=".900390625"/><circle class="cls-1" cx="120.4254760742" cy="84.4957275391" r=".900390625"/><circle class="cls-1" cx="120.4254760742" cy="80.8818359375" r=".900390625"/><circle class="cls-1" cx="120.4254760742" cy="77.2678833008" r=".900390625"/><circle class="cls-1" cx="122.8443603516" cy="75.4609375" r=".900390625"/><circle class="cls-1" cx="118.0065307617" cy="75.4609375" r=".900390625"/><circle class="cls-1" cx="120.4254760742" cy="73.6539916992" r=".900390625"/><circle class="cls-1" cx="118.0065307617" cy="82.6887817383" r=".900390625"/><circle class="cls-1" cx="115.5876464844" cy="84.4957275391" r=".900390625"/><path class="cls-1" d="M118.0065307617,79.9752197266c.2486572266,0,.4737548828-.1007080078.63671875-.263671875.162902832-.162902832.263671875-.3880615234.263671875-.6366577148,0-.4973144531-.4030761719-.900390625-.900390625-.900390625-.497253418,0-.900390625.4030761719-.900390625.900390625,0,.2485961914.100769043.4737548828.2637329102.6366577148.162902832.1629638672.3880615234.263671875.6366577148.263671875Z"/><circle class="cls-1" cx="115.5876464844" cy="80.8818359375" r=".900390625"/><circle class="cls-1" cx="115.5876464844" cy="77.2678833008" r=".900390625"/><circle class="cls-1" cx="118.0065307617" cy="71.8470458984" r=".900390625"/><circle class="cls-1" cx="115.5876464844" cy="73.6539916992" r=".900390625"/><path class="cls-1" d="M113.5986328125,97.6514892578c.82421875,0,1.4921875-.66796875,1.4921875-1.4921875s-.66796875-1.4921875-1.4921875-1.4921875h-6.669921875c-.82421875,0-1.4921875.66796875-1.4921875,1.4921875s.66796875,1.4921875,1.4921875,1.4921875h6.669921875Z"/><path class="cls-1" d="M112.6244506836,119.825012207c.5101928711,0,.923828125-.4135742188.923828125-.9237670898s-.4136352539-.9237670898-.923828125-.9237670898-.9237670898.4135742188-.9237670898.9237670898.4135742188.9237670898.9237670898.9237670898Z"/><path class="cls-1" d="M110.1427612305,114.2633056641c.5101928711,0,.9237670898-.4135742188.9237670898-.9237670898s-.4135742188-.9237670898-.9237670898-.9237670898-.923828125.4135742188-.923828125.9237670898.4136352539.9237670898.923828125.9237670898Z"/><path class="cls-1" d="M112.6244506836,108.7016601562c.5101928711,0,.923828125-.4136352539.923828125-.9237670898,0-.5101928711-.4136352539-.923828125-.923828125-.923828125s-.9237670898.4136352539-.9237670898.923828125c0,.5101318359.4135742188.9237670898.9237670898.9237670898Z"/><path class="cls-1" d="M122.3464355469,116.0758056641c.0678710938.0158691406.1322631836.0414428711.2050170898.0414428711.5101928711,0,.9237670898-.4136352539.9237670898-.923828125,0-.3629150391-.2143554688-.6694946289-.5187988281-.8205566406.0661010742-.349609375.1041259766-.7091674805.1041259766-1.0778198242,0-.340637207-.0352172852-.6724853516-.0918579102-.9970703125.2972412109-.153503418.5065307617-.4547119141.5065307617-.8123168945,0-.5101928711-.4135742188-.9237670898-.9237670898-.9237670898-.0575561523,0-.1076049805.022644043-.1622314453.0327148438-.7900390625-1.4915161133-2.2110595703-2.5961303711-3.9040527344-2.9482421875-.0663452148-.4451293945-.4336547852-.7922973633-.8972167969-.7922973633-.4330444336,0-.7798461914.3041992188-.8798828125.7062988281-1.9613037109.2100830078-3.6268920898,1.4182739258-4.491394043,3.106628418-.3027954102.1516113281-.5159912109.4569702148-.5159912109.8186645508,0,.125793457.0260620117.245300293.0715942383.3546142578-.12109375.4656982422-.192199707.9514770508-.192199707,1.4547729492,0,.5255737305.0764160156,1.0325317383.2080688477,1.5167236328-.0535888672.1170043945-.0874633789.2445068359-.0874633789.381652832,0,.3868408203.2386474609.716003418.5760498047.8535766602.8784179688,1.6192016602,2.507019043,2.7693481445,4.4127807617,2.9798583984.0637207031.4479980469.432800293.7981567383.8984375.7981567383.496887207,0,.8953857422-.3944702148.9161987305-.8862304688,1.6541137695-.3500366211,3.0472412109-1.4177856445,3.8422851562-2.8629760742ZM114.564453125,113.2950439453c0-1.53515625,1.236328125-2.7841796875,2.755859375-2.7841796875s2.755859375,1.2490234375,2.755859375,2.7841796875-1.236328125,2.7841796875-2.755859375,2.7841796875-2.755859375-1.2490234375-2.755859375-2.7841796875Z"/><circle class="cls-1" cx="99.1688842773" cy="107.7313842773" r=".900390625"/><circle class="cls-1" cx="99.1688842773" cy="104.1174926758" r=".900390625"/><path class="cls-1" d="M98.2684936523,100.5036010742c0,.2485961914.100769043.4737548828.2637329102.6366577148.162902832.1629638672.3880615234.263671875.6366577148.263671875.2486572266,0,.4737548828-.1007080078.63671875-.263671875.162902832-.162902832.263671875-.3880615234.263671875-.6366577148,0-.4973144531-.4030761719-.900390625-.900390625-.900390625-.497253418,0-.900390625.4030761719-.900390625.900390625Z"/><circle class="cls-1" cx="99.1688842773" cy="96.8896484375" r=".900390625"/><circle class="cls-1" cx="99.1688842773" cy="93.2757568359" r=".900390625"/><circle class="cls-1" cx="99.1688842773" cy="89.6618652344" r=".900390625"/><circle class="cls-1" cx="99.1688842773" cy="86.0479736328" r=".900390625"/><circle class="cls-1" cx="99.1688842773" cy="82.4340820312" r=".900390625"/><circle class="cls-1" cx="99.1688842773" cy="78.8201904297" r=".900390625"/><circle class="cls-1" cx="99.1688842773" cy="75.2062988281" r=".900390625"/><circle class="cls-1" cx="99.1688842773" cy="71.5923461914" r=".900390625"/><circle class="cls-1" cx="99.1688842773" cy="67.9784545898" r=".900390625"/><circle class="cls-1" cx="99.1688842773" cy="64.3645629883" r=".900390625"/><circle class="cls-1" cx="96.75" cy="109.5383300781" r=".900390625"/><circle class="cls-1" cx="94.3311157227" cy="107.7313842773" r=".900390625"/><circle class="cls-1" cx="96.75" cy="105.9244384766" r=".900390625"/><circle class="cls-1" cx="94.3311157227" cy="104.1174926758" r=".900390625"/><circle class="cls-1" cx="96.75" cy="102.310546875" r=".900390625"/><path class="cls-1" d="M93.4307250977,100.5036010742c0,.2485961914.100769043.4737548828.2637329102.6366577148.162902832.1629638672.3880615234.263671875.6366577148.263671875.2486572266,0,.4736938477-.1007080078.6366577148-.263671875.162902832-.162902832.2637329102-.3880615234.2637329102-.6366577148,0-.4973144531-.403137207-.900390625-.900390625-.900390625s-.900390625.4030761719-.900390625.900390625Z"/><circle class="cls-1" cx="96.75" cy="98.6965942383" r=".900390625"/><circle class="cls-1" cx="94.3311157227" cy="96.8896484375" r=".900390625"/><circle class="cls-1" cx="96.75" cy="95.0827026367" r=".900390625"/><circle class="cls-1" cx="94.3311157227" cy="93.2757568359" r=".900390625"/><circle class="cls-1" cx="96.75" cy="91.4688110352" r=".900390625"/><circle class="cls-1" cx="94.3311157227" cy="89.6618652344" r=".900390625"/><circle class="cls-1" cx="96.75" cy="87.8549194336" r=".900390625"/><circle class="cls-1" cx="94.3311157227" cy="86.0479736328" r=".900390625"/><circle class="cls-1" cx="96.75" cy="84.241027832" r=".900390625"/><circle class="cls-1" cx="94.3311157227" cy="82.4340820312" r=".900390625"/><circle class="cls-1" cx="96.75" cy="80.6271362305" r=".900390625"/><circle class="cls-1" cx="94.3311157227" cy="78.8201904297" r=".900390625"/><circle class="cls-1" cx="96.75" cy="77.0132446289" r=".900390625"/><circle class="cls-1" cx="94.3311157227" cy="75.2062988281" r=".900390625"/><circle class="cls-1" cx="96.75" cy="73.3992919922" r=".900390625"/><circle class="cls-1" cx="94.3311157227" cy="71.5923461914" r=".900390625"/><circle class="cls-1" cx="96.75" cy="69.7854003906" r=".900390625"/><circle class="cls-1" cx="94.3311157227" cy="67.9784545898" r=".900390625"/><circle class="cls-1" cx="96.75" cy="66.1715087891" r=".900390625"/><circle class="cls-1" cx="94.3311157227" cy="64.3645629883" r=".900390625"/><circle class="cls-1" cx="99.1688842773" cy="60.7506713867" r=".900390625"/><circle class="cls-1" cx="96.75" cy="62.5576171875" r=".900390625"/><circle class="cls-1" cx="91.9122314453" cy="109.5383300781" r=".900390625"/><circle class="cls-1" cx="89.4932861328" cy="107.7313842773" r=".900390625"/><circle class="cls-1" cx="91.9122314453" cy="105.9244384766" r=".900390625"/><circle class="cls-1" cx="89.4932861328" cy="104.1174926758" r=".900390625"/><circle class="cls-1" cx="91.9122314453" cy="102.310546875" r=".900390625"/><path class="cls-1" d="M88.5928955078,100.5036010742c0,.2485961914.100769043.4737548828.2637329102.6366577148.162902832.1629638672.3880615234.263671875.6366577148.263671875.2486572266,0,.4737548828-.1007080078.63671875-.263671875.162902832-.162902832.263671875-.3880615234.263671875-.6366577148,0-.4973144531-.4030761719-.900390625-.900390625-.900390625-.497253418,0-.900390625.4030761719-.900390625.900390625Z"/><circle class="cls-1" cx="91.9122314453" cy="98.6965942383" r=".900390625"/><circle class="cls-1" cx="89.4932861328" cy="96.8896484375" r=".900390625"/><circle class="cls-1" cx="91.9122314453" cy="95.0827026367" r=".900390625"/><circle class="cls-1" cx="89.4932861328" cy="93.2757568359" r=".900390625"/><circle class="cls-1" cx="91.9122314453" cy="91.4688110352" r=".900390625"/><circle class="cls-1" cx="89.4932861328" cy="89.6618652344" r=".900390625"/><circle class="cls-1" cx="91.9122314453" cy="87.8549194336" r=".900390625"/><circle class="cls-1" cx="89.4932861328" cy="86.0479736328" r=".900390625"/><circle class="cls-1" cx="91.9122314453" cy="84.241027832" r=".900390625"/><circle class="cls-1" cx="89.4932861328" cy="82.4340820312" r=".900390625"/><circle class="cls-1" cx="91.9122314453" cy="80.6271362305" r=".900390625"/><circle class="cls-1" cx="89.4932861328" cy="78.8201904297" r=".900390625"/><circle class="cls-1" cx="91.9122314453" cy="77.0132446289" r=".900390625"/><circle class="cls-1" cx="89.4932861328" cy="75.2062988281" r=".900390625"/><circle class="cls-1" cx="91.9122314453" cy="73.3992919922" r=".900390625"/><circle class="cls-1" cx="89.4932861328" cy="71.5923461914" r=".900390625"/><circle class="cls-1" cx="91.9122314453" cy="69.7854003906" r=".900390625"/><circle class="cls-1" cx="89.4932861328" cy="67.9784545898" r=".900390625"/><circle class="cls-1" cx="91.9122314453" cy="66.1715087891" r=".900390625"/><circle class="cls-1" cx="89.4932861328" cy="64.3645629883" r=".900390625"/><circle class="cls-1" cx="94.3311157227" cy="60.7506713867" r=".900390625"/><circle class="cls-1" cx="91.9122314453" cy="62.5576171875" r=".900390625"/><circle class="cls-1" cx="87.0744018555" cy="109.5383300781" r=".900390625"/><circle class="cls-1" cx="84.6555175781" cy="107.7313842773" r=".900390625"/><circle class="cls-1" cx="87.0744018555" cy="105.9244384766" r=".900390625"/><circle class="cls-1" cx="84.6555175781" cy="104.1174926758" r=".900390625"/><circle class="cls-1" cx="87.0744018555" cy="102.310546875" r=".900390625"/><path class="cls-1" d="M83.7551269531,100.5036010742c0,.2485961914.100769043.4737548828.2637329102.6366577148.162902832.1629638672.3880004883.263671875.6366577148.263671875s.4736938477-.1007080078.6366577148-.263671875c.162902832-.162902832.2637329102-.3880615234.2637329102-.6366577148,0-.4973144531-.403137207-.900390625-.900390625-.900390625-.4973144531,0-.900390625.4030761719-.900390625.900390625Z"/><circle class="cls-1" cx="87.0744018555" cy="98.6965942383" r=".900390625"/><circle class="cls-1" cx="84.6555175781" cy="96.8896484375" r=".900390625"/><circle class="cls-1" cx="87.0744018555" cy="95.0827026367" r=".900390625"/><circle class="cls-1" cx="84.6555175781" cy="93.2757568359" r=".900390625"/><circle class="cls-1" cx="87.0744018555" cy="91.4688110352" r=".900390625"/><circle class="cls-1" cx="84.6555175781" cy="89.6618652344" r=".900390625"/><circle class="cls-1" cx="87.0744018555" cy="87.8549194336" r=".900390625"/><circle class="cls-1" cx="84.6555175781" cy="86.0479736328" r=".900390625"/><circle class="cls-1" cx="87.0744018555" cy="84.241027832" r=".900390625"/><circle class="cls-1" cx="84.6555175781" cy="82.4340820312" r=".900390625"/><circle class="cls-1" cx="87.0744018555" cy="80.6271362305" r=".900390625"/><circle class="cls-1" cx="84.6555175781" cy="78.8201904297" r=".900390625"/><circle class="cls-1" cx="87.0744018555" cy="77.0132446289" r=".900390625"/><circle class="cls-1" cx="84.6555175781" cy="75.2062988281" r=".900390625"/><circle class="cls-1" cx="87.0744018555" cy="73.3992919922" r=".900390625"/><circle class="cls-1" cx="84.6555175781" cy="71.5923461914" r=".900390625"/><circle class="cls-1" cx="87.0744018555" cy="69.7854003906" r=".900390625"/><circle class="cls-1" cx="84.6555175781" cy="67.9784545898" r=".900390625"/><circle class="cls-1" cx="87.0744018555" cy="66.1715087891" r=".900390625"/><circle class="cls-1" cx="84.6555175781" cy="64.3645629883" r=".900390625"/><circle class="cls-1" cx="89.4932861328" cy="60.7506713867" r=".900390625"/><circle class="cls-1" cx="87.0744018555" cy="62.5576171875" r=".900390625"/><circle class="cls-1" cx="82.2366333008" cy="109.5383300781" r=".900390625"/><circle class="cls-1" cx="79.8176879883" cy="107.7313842773" r=".900390625"/><circle class="cls-1" cx="82.2366333008" cy="105.9244384766" r=".900390625"/><circle class="cls-1" cx="79.8176879883" cy="104.1174926758" r=".900390625"/><circle class="cls-1" cx="82.2366333008" cy="102.310546875" r=".900390625"/><path class="cls-1" d="M78.9172973633,100.5036010742c0,.2485961914.100769043.4737548828.2637329102.6366577148.162902832.1629638672.3880615234.263671875.6366577148.263671875.2486572266,0,.4737548828-.1007080078.63671875-.263671875.162902832-.162902832.263671875-.3880615234.263671875-.6366577148,0-.4973144531-.4030761719-.900390625-.900390625-.900390625-.497253418,0-.900390625.4030761719-.900390625.900390625Z"/><circle class="cls-1" cx="82.2366333008" cy="98.6965942383" r=".900390625"/><circle class="cls-1" cx="79.8176879883" cy="96.8896484375" r=".900390625"/><circle class="cls-1" cx="82.2366333008" cy="95.0827026367" r=".900390625"/><circle class="cls-1" cx="79.8176879883" cy="93.2757568359" r=".900390625"/><circle class="cls-1" cx="82.2366333008" cy="91.4688110352" r=".900390625"/><circle class="cls-1" cx="79.8176879883" cy="89.6618652344" r=".900390625"/><circle class="cls-1" cx="82.2366333008" cy="87.8549194336" r=".900390625"/><circle class="cls-1" cx="79.8176879883" cy="86.0479736328" r=".900390625"/><circle class="cls-1" cx="82.2366333008" cy="84.241027832" r=".900390625"/><circle class="cls-1" cx="79.8176879883" cy="82.4340820312" r=".900390625"/><circle class="cls-1" cx="82.2366333008" cy="80.6271362305" r=".900390625"/><circle class="cls-1" cx="79.8176879883" cy="78.8201904297" r=".900390625"/><circle class="cls-1" cx="82.2366333008" cy="77.0132446289" r=".900390625"/><circle class="cls-1" cx="79.8176879883" cy="75.2062988281" r=".900390625"/><circle class="cls-1" cx="82.2366333008" cy="73.3992919922" r=".900390625"/><circle class="cls-1" cx="79.8176879883" cy="71.5923461914" r=".900390625"/><circle class="cls-1" cx="82.2366333008" cy="69.7854003906" r=".900390625"/><circle class="cls-1" cx="79.8176879883" cy="67.9784545898" r=".900390625"/><circle class="cls-1" cx="82.2366333008" cy="66.1715087891" r=".900390625"/><circle class="cls-1" cx="79.8176879883" cy="64.3645629883" r=".900390625"/><circle class="cls-1" cx="84.6555175781" cy="60.7506713867" r=".900390625"/><circle class="cls-1" cx="82.2366333008" cy="62.5576171875" r=".900390625"/><circle class="cls-1" cx="77.3988037109" cy="109.5383300781" r=".900390625"/><circle class="cls-1" cx="74.9799194336" cy="107.7313842773" r=".900390625"/><circle class="cls-1" cx="77.3988037109" cy="105.9244384766" r=".900390625"/><circle class="cls-1" cx="74.9799194336" cy="104.1174926758" r=".900390625"/><circle class="cls-1" cx="77.3988037109" cy="102.310546875" r=".900390625"/><path class="cls-1" d="M74.0795288086,100.5036010742c0,.2485961914.100769043.4737548828.2637329102.6366577148.162902832.1629638672.3880004883.263671875.6366577148.263671875s.4736938477-.1007080078.6366577148-.263671875c.162902832-.162902832.2637329102-.3880615234.2637329102-.6366577148,0-.4973144531-.403137207-.900390625-.900390625-.900390625-.4973144531,0-.900390625.4030761719-.900390625.900390625Z"/><circle class="cls-1" cx="77.3988037109" cy="98.6965942383" r=".900390625"/><circle class="cls-1" cx="74.9799194336" cy="96.8896484375" r=".900390625"/><circle class="cls-1" cx="77.3988037109" cy="95.0827026367" r=".900390625"/><circle class="cls-1" cx="74.9799194336" cy="93.2757568359" r=".900390625"/><circle class="cls-1" cx="77.3988037109" cy="91.4688110352" r=".900390625"/><circle class="cls-1" cx="74.9799194336" cy="89.6618652344" r=".900390625"/><circle class="cls-1" cx="77.3988037109" cy="87.8549194336" r=".900390625"/><circle class="cls-1" cx="74.9799194336" cy="86.0479736328" r=".900390625"/><circle class="cls-1" cx="77.3988037109" cy="84.241027832" r=".900390625"/><circle class="cls-1" cx="74.9799194336" cy="82.4340820312" r=".900390625"/><circle class="cls-1" cx="77.3988037109" cy="80.6271362305" r=".900390625"/><circle class="cls-1" cx="74.9799194336" cy="78.8201904297" r=".900390625"/><circle class="cls-1" cx="77.3988037109" cy="77.0132446289" r=".900390625"/><circle class="cls-1" cx="74.9799194336" cy="75.2062988281" r=".900390625"/><circle class="cls-1" cx="77.3988037109" cy="73.3992919922" r=".900390625"/><circle class="cls-1" cx="74.9799194336" cy="71.5923461914" r=".900390625"/><circle class="cls-1" cx="77.3988037109" cy="69.7854003906" r=".900390625"/><circle class="cls-1" cx="74.9799194336" cy="67.9784545898" r=".900390625"/><circle class="cls-1" cx="77.3988037109" cy="66.1715087891" r=".900390625"/><circle class="cls-1" cx="74.9799194336" cy="64.3645629883" r=".900390625"/><circle class="cls-1" cx="79.8176879883" cy="60.7506713867" r=".900390625"/><circle class="cls-1" cx="77.3988037109" cy="62.5576171875" r=".900390625"/><path class="cls-1" d="M72.5610351562,108.6379394531c-.4973144531,0-.900390625.403137207-.900390625.900390625s.4030761719.900390625.900390625.900390625c.497253418,0,.9003295898-.403137207.9003295898-.900390625s-.4030761719-.900390625-.9003295898-.900390625Z"/><circle class="cls-1" cx="70.1420898438" cy="107.7313842773" r=".900390625"/><path class="cls-1" d="M72.5610351562,105.0240478516c-.4973144531,0-.900390625.4030761719-.900390625.900390625,0,.497253418.4030761719.900390625.900390625.900390625.497253418,0,.9003295898-.403137207.9003295898-.900390625,0-.4973144531-.4030761719-.900390625-.9003295898-.900390625Z"/><circle class="cls-1" cx="70.1420898438" cy="104.1174926758" r=".900390625"/><path class="cls-1" d="M71.6606445312,102.310546875c0,.497253418.4030761719.900390625.900390625.900390625.497253418,0,.9003295898-.403137207.9003295898-.900390625,0-.4973144531-.4030761719-.900390625-.9003295898-.900390625-.4973144531,0-.900390625.4030761719-.900390625.900390625Z"/><path class="cls-1" d="M69.2416992188,100.5036010742c0,.2485961914.100769043.4737548828.2637329102.6366577148.162902832.1629638672.3880615234.263671875.6366577148.263671875.2486572266,0,.4737548828-.1007080078.63671875-.263671875.162902832-.162902832.263671875-.3880615234.263671875-.6366577148,0-.4973144531-.4030761719-.900390625-.900390625-.900390625-.497253418,0-.900390625.4030761719-.900390625.900390625Z"/><path class="cls-1" d="M71.6606445312,98.6965942383c0,.4973144531.4030761719.900390625.900390625.900390625.497253418,0,.9003295898-.4030761719.9003295898-.900390625,0-.497253418-.4030761719-.900390625-.9003295898-.900390625-.4973144531,0-.900390625.403137207-.900390625.900390625Z"/><circle class="cls-1" cx="70.1420898438" cy="96.8896484375" r=".900390625"/><path class="cls-1" d="M71.6606445312,95.0827026367c0,.4973144531.4030761719.900390625.900390625.900390625.497253418,0,.9003295898-.4030761719.9003295898-.900390625,0-.497253418-.4030761719-.900390625-.9003295898-.900390625-.4973144531,0-.900390625.403137207-.900390625.900390625Z"/><path class="cls-1" d="M71.6606445312,91.4688110352c0,.497253418.4030761719.900390625.900390625.900390625.497253418,0,.9003295898-.403137207.9003295898-.900390625s-.4030761719-.900390625-.9003295898-.900390625c-.4973144531,0-.900390625.403137207-.900390625.900390625Z"/><circle class="cls-1" cx="70.1420898438" cy="89.6618652344" r=".900390625"/><path class="cls-1" d="M71.6606445312,87.8549194336c0,.497253418.4030761719.900390625.900390625.900390625.497253418,0,.9003295898-.403137207.9003295898-.900390625s-.4030761719-.900390625-.9003295898-.900390625c-.4973144531,0-.900390625.403137207-.900390625.900390625Z"/><circle class="cls-1" cx="70.1420898438" cy="86.0479736328" r=".900390625"/><path class="cls-1" d="M73.4613647461,84.241027832c0-.497253418-.4030761719-.900390625-.9003295898-.900390625-.4973144531,0-.900390625.403137207-.900390625.900390625s.4030761719.900390625.900390625.900390625c.497253418,0,.9003295898-.403137207.9003295898-.900390625Z"/><circle class="cls-1" cx="70.1420898438" cy="82.4340820312" r=".900390625"/><path class="cls-1" d="M73.4613647461,80.6271362305c0-.4973144531-.4030761719-.900390625-.9003295898-.900390625-.4973144531,0-.900390625.4030761719-.900390625.900390625,0,.497253418.4030761719.900390625.900390625.900390625.497253418,0,.9003295898-.403137207.9003295898-.900390625Z"/><circle class="cls-1" cx="70.1420898438" cy="78.8201904297" r=".900390625"/><path class="cls-1" d="M73.4613647461,77.0132446289c0-.4973144531-.4030761719-.900390625-.9003295898-.900390625-.4973144531,0-.900390625.4030761719-.900390625.900390625,0,.497253418.4030761719.900390625.900390625.900390625.497253418,0,.9003295898-.403137207.9003295898-.900390625Z"/><circle class="cls-1" cx="70.1420898438" cy="75.2062988281" r=".900390625"/><path class="cls-1" d="M73.4613647461,73.3992919922c0-.497253418-.4030761719-.900390625-.9003295898-.900390625-.4973144531,0-.900390625.403137207-.900390625.900390625,0,.4973144531.4030761719.900390625.900390625.900390625.497253418,0,.9003295898-.4030761719.9003295898-.900390625Z"/><circle class="cls-1" cx="70.1420898438" cy="71.5923461914" r=".900390625"/><path class="cls-1" d="M73.4613647461,69.7854003906c0-.497253418-.4030761719-.900390625-.9003295898-.900390625-.4973144531,0-.900390625.403137207-.900390625.900390625,0,.4973144531.4030761719.900390625.900390625.900390625.497253418,0,.9003295898-.4030761719.9003295898-.900390625Z"/><circle class="cls-1" cx="70.1420898438" cy="67.9784545898" r=".900390625"/><path class="cls-1" d="M72.5610351562,67.0718994141c.497253418,0,.9003295898-.4030761719.9003295898-.900390625,0-.497253418-.4030761719-.900390625-.9003295898-.900390625-.4973144531,0-.900390625.403137207-.900390625.900390625,0,.4973144531.4030761719.900390625.900390625.900390625Z"/><circle class="cls-1" cx="70.1420898438" cy="64.3645629883" r=".900390625"/><circle class="cls-1" cx="74.9799194336" cy="60.7506713867" r=".900390625"/><path class="cls-1" d="M73.4613647461,62.5576171875c0-.497253418-.4030761719-.900390625-.9003295898-.900390625-.4973144531,0-.900390625.403137207-.900390625.900390625s.4030761719.900390625.900390625.900390625c.497253418,0,.9003295898-.403137207.9003295898-.900390625Z"/><circle class="cls-1" cx="67.7232055664" cy="109.5383300781" r=".900390625"/><circle class="cls-1" cx="67.7232055664" cy="105.9244384766" r=".900390625"/><circle class="cls-1" cx="65.3043212891" cy="104.1174926758" r=".900390625"/><circle class="cls-1" cx="67.7232055664" cy="102.310546875" r=".900390625"/><circle class="cls-1" cx="67.7232055664" cy="98.6965942383" r=".900390625"/><circle class="cls-1" cx="70.1420898438" cy="93.2757568359" r=".900390625"/><circle class="cls-1" cx="67.7232055664" cy="95.0827026367" r=".900390625"/><circle class="cls-1" cx="65.3043212891" cy="93.2757568359" r=".900390625"/><circle class="cls-1" cx="67.7232055664" cy="91.4688110352" r=".900390625"/><circle class="cls-1" cx="65.3043212891" cy="89.6618652344" r=".900390625"/><circle class="cls-1" cx="67.7232055664" cy="87.8549194336" r=".900390625"/><circle class="cls-1" cx="65.3043212891" cy="86.0479736328" r=".900390625"/><circle class="cls-1" cx="67.7232055664" cy="84.241027832" r=".900390625"/><circle class="cls-1" cx="65.3043212891" cy="82.4340820312" r=".900390625"/><circle class="cls-1" cx="67.7232055664" cy="80.6271362305" r=".900390625"/><circle class="cls-1" cx="65.3043212891" cy="78.8201904297" r=".900390625"/><circle class="cls-1" cx="67.7232055664" cy="77.0132446289" r=".900390625"/><circle class="cls-1" cx="65.3043212891" cy="75.2062988281" r=".900390625"/><circle class="cls-1" cx="67.7232055664" cy="73.3992919922" r=".900390625"/><circle class="cls-1" cx="65.3043212891" cy="71.5923461914" r=".900390625"/><circle class="cls-1" cx="67.7232055664" cy="69.7854003906" r=".900390625"/><circle class="cls-1" cx="65.3043212891" cy="67.9784545898" r=".900390625"/><circle class="cls-1" cx="67.7232055664" cy="66.1715087891" r=".900390625"/><circle class="cls-1" cx="65.3043212891" cy="64.3645629883" r=".900390625"/><circle class="cls-1" cx="70.1420898438" cy="60.7506713867" r=".900390625"/><circle class="cls-1" cx="67.7232055664" cy="62.5576171875" r=".900390625"/><path class="cls-1" d="M65.3043212891,101.4039306641c.2486572266,0,.4736938477-.1007080078.6366577148-.263671875.162902832-.162902832.2637329102-.3880615234.2637329102-.6366577148,0-.4973144531-.403137207-.900390625-.900390625-.900390625-.4973144531,0-.900390625.4030761719-.900390625.900390625,0,.2485961914.100769043.4737548828.2637329102.6366577148.162902832.1629638672.3880004883.263671875.6366577148.263671875Z"/><circle class="cls-1" cx="62.8853759766" cy="102.310546875" r=".900390625"/><circle class="cls-1" cx="65.3043212891" cy="96.8896484375" r=".900390625"/><circle class="cls-1" cx="62.8853759766" cy="98.6965942383" r=".900390625"/><circle class="cls-1" cx="60.4664916992" cy="96.8896484375" r=".900390625"/><circle class="cls-1" cx="62.8853759766" cy="95.0827026367" r=".900390625"/><circle class="cls-1" cx="60.4664916992" cy="93.2757568359" r=".900390625"/><circle class="cls-1" cx="62.8853759766" cy="91.4688110352" r=".900390625"/><circle class="cls-1" cx="60.4664916992" cy="89.6618652344" r=".900390625"/><circle class="cls-1" cx="62.8853759766" cy="87.8549194336" r=".900390625"/><circle class="cls-1" cx="60.4664916992" cy="86.0479736328" r=".900390625"/><circle class="cls-1" cx="62.8853759766" cy="84.241027832" r=".900390625"/><circle class="cls-1" cx="60.4664916992" cy="82.4340820312" r=".900390625"/><circle class="cls-1" cx="62.8853759766" cy="80.6271362305" r=".900390625"/><circle class="cls-1" cx="60.4664916992" cy="78.8201904297" r=".900390625"/><circle class="cls-1" cx="62.8853759766" cy="77.0132446289" r=".900390625"/><circle class="cls-1" cx="60.4664916992" cy="75.2062988281" r=".900390625"/><circle class="cls-1" cx="62.8853759766" cy="73.3992919922" r=".900390625"/><circle class="cls-1" cx="60.4664916992" cy="71.5923461914" r=".900390625"/><circle class="cls-1" cx="62.8853759766" cy="69.7854003906" r=".900390625"/><circle class="cls-1" cx="60.4664916992" cy="67.9784545898" r=".900390625"/><circle class="cls-1" cx="62.8853759766" cy="66.1715087891" r=".900390625"/><circle class="cls-1" cx="60.4664916992" cy="64.3645629883" r=".900390625"/><circle class="cls-1" cx="65.3043212891" cy="60.7506713867" r=".900390625"/><circle class="cls-1" cx="62.8853759766" cy="62.5576171875" r=".900390625"/><path class="cls-1" d="M60.4664916992,101.4039306641c.2486572266,0,.4737548828-.1007080078.63671875-.263671875.162902832-.162902832.263671875-.3880615234.263671875-.6366577148,0-.4973144531-.4030761719-.900390625-.900390625-.900390625-.497253418,0-.900390625.4030761719-.900390625.900390625,0,.2485961914.100769043.4737548828.2637329102.6366577148.162902832.1629638672.3880615234.263671875.6366577148.263671875Z"/><path class="cls-1" d="M55.6287231445,99.6032104492c-.4973144531,0-.900390625.4030761719-.900390625.900390625,0,.2485961914.100769043.4737548828.2637329102.6366577148.162902832.1629638672.3880004883.263671875.6366577148.263671875s.4736938477-.1007080078.6366577148-.263671875c.162902832-.162902832.2637329102-.3880615234.2637329102-.6366577148,0-.4973144531-.403137207-.900390625-.900390625-.900390625Z"/><circle class="cls-1" cx="58.0476074219" cy="98.6965942383" r=".900390625"/><circle class="cls-1" cx="55.6287231445" cy="96.8896484375" r=".900390625"/><circle class="cls-1" cx="58.0476074219" cy="95.0827026367" r=".900390625"/><circle class="cls-1" cx="55.6287231445" cy="93.2757568359" r=".900390625"/><circle class="cls-1" cx="58.0476074219" cy="91.4688110352" r=".900390625"/><circle class="cls-1" cx="55.6287231445" cy="89.6618652344" r=".900390625"/><circle class="cls-1" cx="58.0476074219" cy="87.8549194336" r=".900390625"/><circle class="cls-1" cx="55.6287231445" cy="86.0479736328" r=".900390625"/><circle class="cls-1" cx="58.0476074219" cy="84.241027832" r=".900390625"/><circle class="cls-1" cx="55.6287231445" cy="82.4340820312" r=".900390625"/><circle class="cls-1" cx="58.0476074219" cy="80.6271362305" r=".900390625"/><circle class="cls-1" cx="55.6287231445" cy="78.8201904297" r=".900390625"/><circle class="cls-1" cx="58.0476074219" cy="77.0132446289" r=".900390625"/><circle class="cls-1" cx="55.6287231445" cy="75.2062988281" r=".900390625"/><circle class="cls-1" cx="58.0476074219" cy="73.3992919922" r=".900390625"/><circle class="cls-1" cx="55.6287231445" cy="71.5923461914" r=".900390625"/><circle class="cls-1" cx="58.0476074219" cy="69.7854003906" r=".900390625"/><circle class="cls-1" cx="55.6287231445" cy="67.9784545898" r=".900390625"/><circle class="cls-1" cx="58.0476074219" cy="66.1715087891" r=".900390625"/><circle class="cls-1" cx="55.6287231445" cy="64.3645629883" r=".900390625"/><circle class="cls-1" cx="60.4664916992" cy="60.7506713867" r=".900390625"/><circle class="cls-1" cx="58.0476074219" cy="62.5576171875" r=".900390625"/><path class="cls-1" d="M50.7908935547,99.6032104492c-.497253418,0-.900390625.4030761719-.900390625.900390625,0,.2485961914.100769043.4737548828.2637329102.6366577148.162902832.1629638672.3880615234.263671875.6366577148.263671875.2486572266,0,.4736938477-.1007080078.6366577148-.263671875.162902832-.162902832.2637329102-.3880615234.2637329102-.6366577148,0-.4973144531-.403137207-.900390625-.900390625-.900390625Z"/><circle class="cls-1" cx="53.209777832" cy="98.6965942383" r=".900390625"/><circle class="cls-1" cx="50.7908935547" cy="96.8896484375" r=".900390625"/><circle class="cls-1" cx="53.209777832" cy="95.0827026367" r=".900390625"/><circle class="cls-1" cx="50.7908935547" cy="93.2757568359" r=".900390625"/><circle class="cls-1" cx="53.209777832" cy="91.4688110352" r=".900390625"/><circle class="cls-1" cx="50.7908935547" cy="89.6618652344" r=".900390625"/><circle class="cls-1" cx="53.209777832" cy="87.8549194336" r=".900390625"/><circle class="cls-1" cx="53.209777832" cy="84.241027832" r=".900390625"/><circle class="cls-1" cx="53.209777832" cy="80.6271362305" r=".900390625"/><circle class="cls-1" cx="53.209777832" cy="77.0132446289" r=".900390625"/><circle class="cls-1" cx="50.7908935547" cy="75.2062988281" r=".900390625"/><circle class="cls-1" cx="53.209777832" cy="73.3992919922" r=".900390625"/><circle class="cls-1" cx="50.7908935547" cy="71.5923461914" r=".900390625"/><circle class="cls-1" cx="53.209777832" cy="69.7854003906" r=".900390625"/><circle class="cls-1" cx="50.7908935547" cy="67.9784545898" r=".900390625"/><circle class="cls-1" cx="53.209777832" cy="66.1715087891" r=".900390625"/><circle class="cls-1" cx="50.7908935547" cy="64.3645629883" r=".900390625"/><circle class="cls-1" cx="55.6287231445" cy="60.7506713867" r=".900390625"/><circle class="cls-1" cx="53.209777832" cy="62.5576171875" r=".900390625"/><circle class="cls-1" cx="45.953125" cy="104.1174926758" r=".900390625"/><circle class="cls-1" cx="48.3720092773" cy="102.310546875" r=".900390625"/><path class="cls-1" d="M45.953125,99.6032104492c-.4973144531,0-.900390625.4030761719-.900390625.900390625,0,.2485961914.100769043.4737548828.2637329102.6366577148.162902832.1629638672.3880004883.263671875.6366577148.263671875s.4736938477-.1007080078.6366577148-.263671875c.162902832-.162902832.2637329102-.3880615234.2637329102-.6366577148,0-.4973144531-.403137207-.900390625-.900390625-.900390625Z"/><circle class="cls-1" cx="48.3720092773" cy="98.6965942383" r=".900390625"/><circle class="cls-1" cx="45.953125" cy="96.8896484375" r=".900390625"/><circle class="cls-1" cx="48.3720092773" cy="95.0827026367" r=".900390625"/><circle class="cls-1" cx="48.3720092773" cy="91.4688110352" r=".900390625"/><circle class="cls-1" cx="50.7908935547" cy="86.0479736328" r=".900390625"/><circle class="cls-1" cx="48.3720092773" cy="87.8549194336" r=".900390625"/><circle class="cls-1" cx="50.7908935547" cy="82.4340820312" r=".900390625"/><circle class="cls-1" cx="48.3720092773" cy="84.241027832" r=".900390625"/><circle class="cls-1" cx="50.7908935547" cy="78.8201904297" r=".900390625"/><circle class="cls-1" cx="48.3720092773" cy="80.6271362305" r=".900390625"/><circle class="cls-1" cx="48.3720092773" cy="77.0132446289" r=".900390625"/><circle class="cls-1" cx="48.3720092773" cy="73.3992919922" r=".900390625"/><circle class="cls-1" cx="48.3720092773" cy="69.7854003906" r=".900390625"/><circle class="cls-1" cx="45.953125" cy="67.9784545898" r=".900390625"/><circle class="cls-1" cx="48.3720092773" cy="66.1715087891" r=".900390625"/><circle class="cls-1" cx="45.953125" cy="64.3645629883" r=".900390625"/><circle class="cls-1" cx="50.7908935547" cy="60.7506713867" r=".900390625"/><circle class="cls-1" cx="48.3720092773" cy="62.5576171875" r=".900390625"/><circle class="cls-1" cx="43.5341796875" cy="109.5383300781" r=".900390625"/><circle class="cls-1" cx="41.1152954102" cy="107.7313842773" r=".900390625"/><circle class="cls-1" cx="43.5341796875" cy="105.9244384766" r=".900390625"/><circle class="cls-1" cx="43.5341796875" cy="102.310546875" r=".900390625"/><circle class="cls-1" cx="43.5341796875" cy="98.6965942383" r=".900390625"/><circle class="cls-1" cx="45.953125" cy="93.2757568359" r=".900390625"/><circle class="cls-1" cx="43.5341796875" cy="95.0827026367" r=".900390625"/><circle class="cls-1" cx="45.953125" cy="89.6618652344" r=".900390625"/><circle class="cls-1" cx="43.5341796875" cy="91.4688110352" r=".900390625"/><circle class="cls-1" cx="45.953125" cy="86.0479736328" r=".900390625"/><circle class="cls-1" cx="43.5341796875" cy="87.8549194336" r=".900390625"/><circle class="cls-1" cx="45.953125" cy="82.4340820312" r=".900390625"/><circle class="cls-1" cx="43.5341796875" cy="84.241027832" r=".900390625"/><circle class="cls-1" cx="45.953125" cy="78.8201904297" r=".900390625"/><circle class="cls-1" cx="43.5341796875" cy="80.6271362305" r=".900390625"/><circle class="cls-1" cx="45.953125" cy="75.2062988281" r=".900390625"/><circle class="cls-1" cx="43.5341796875" cy="77.0132446289" r=".900390625"/><circle class="cls-1" cx="45.953125" cy="71.5923461914" r=".900390625"/><circle class="cls-1" cx="43.5341796875" cy="73.3992919922" r=".900390625"/><circle class="cls-1" cx="43.5341796875" cy="69.7854003906" r=".900390625"/><circle class="cls-1" cx="43.5341796875" cy="66.1715087891" r=".900390625"/><circle class="cls-1" cx="45.953125" cy="60.7506713867" r=".900390625"/><circle class="cls-1" cx="43.5341796875" cy="62.5576171875" r=".900390625"/><circle class="cls-1" cx="41.1152954102" cy="104.1174926758" r=".900390625"/><path class="cls-1" d="M41.1152954102,101.4039306641c.2486572266,0,.4736938477-.1007080078.6366577148-.263671875.162902832-.162902832.2637329102-.3880615234.2637329102-.6366577148,0-.4973144531-.403137207-.900390625-.900390625-.900390625s-.900390625.4030761719-.900390625.900390625c0,.2485961914.100769043.4737548828.2637329102.6366577148.162902832.1629638672.3880615234.263671875.6366577148.263671875Z"/><circle class="cls-1" cx="41.1152954102" cy="96.8896484375" r=".900390625"/><circle class="cls-1" cx="41.1152954102" cy="93.2757568359" r=".900390625"/><circle class="cls-1" cx="41.1152954102" cy="89.6618652344" r=".900390625"/><circle class="cls-1" cx="41.1152954102" cy="86.0479736328" r=".900390625"/><circle class="cls-1" cx="41.1152954102" cy="82.4340820312" r=".900390625"/><circle class="cls-1" cx="41.1152954102" cy="78.8201904297" r=".900390625"/><circle class="cls-1" cx="41.1152954102" cy="75.2062988281" r=".900390625"/><circle class="cls-1" cx="41.1152954102" cy="71.5923461914" r=".900390625"/><circle class="cls-1" cx="41.1152954102" cy="67.9784545898" r=".900390625"/><circle class="cls-1" cx="41.1152954102" cy="64.3645629883" r=".900390625"/><circle class="cls-1" cx="41.1152954102" cy="60.7506713867" r=".900390625"/><path class="cls-1" d="M60.1822509766,117.9526977539c-.5101928711,0-.9237670898.4135742188-.9237670898.9237670898s.4135742188.9237670898.9237670898.9237670898.923828125-.4135742188.923828125-.9237670898-.4136352539-.9237670898-.923828125-.9237670898Z"/><path class="cls-1" d="M63.5877685547,113.3148193359c0-.5101928711-.4135742188-.923828125-.9237670898-.923828125s-.9237670898.4136352539-.9237670898.923828125.4135742188.9237670898.9237670898.9237670898.9237670898-.4135742188.9237670898-.9237670898Z"/><path class="cls-1" d="M59.2584838867,107.753112793c0,.5101928711.4135742188.9237670898.9237670898.9237670898s.923828125-.4135742188.923828125-.9237670898-.4136352539-.9237670898-.923828125-.9237670898-.9237670898.4135742188-.9237670898.9237670898Z"/><path class="cls-1" d="M60.3455810547,116.0595092773c.4291992188-.0797119141.7604980469-.4385375977.7604980469-.8908081055,0-.2167358398-.0860595703-.4072875977-.2109985352-.5648193359.0977783203-.4212646484.1547241211-.8580932617.1547241211-1.3088378906,0-.4404296875-.053894043-.8677978516-.1473999023-1.2802124023.1200561523-.1558837891.2036743164-.3419799805.2036743164-.5539550781,0-.4439697266-.3195800781-.7973022461-.737121582-.8861083984-.8482666016-1.5868530273-2.415222168-2.7252197266-4.2594604492-2.985534668-.0798950195-.428894043-.4385986328-.7598876953-.8906860352-.7598876953-.4622802734,0-.8287353516.3453979492-.8965454102.7886962891-1.7494506836.3067016602-3.2307128906,1.4065551758-4.053894043,2.9216918945-.0046386719-.0000610352-.0084228516-.0026245117-.0130615234-.0026245117-.5101928711,0-.9237670898.4135742188-.9237670898.9237670898,0,.2896118164.1414794922.5374145508.3499755859.7067871094-.072265625.3648681641-.1116943359.7415161133-.1116943359,1.1273803711,0,.3983154297.0405273438.7872924805.1173706055,1.1630859375-.2116088867.1692504883-.3556518555.4185180664-.3556518555.7105712891,0,.5101928711.4135742188.9237670898.9237670898.9237670898.0122070312,0,.022277832-.0064697266.034362793-.0069580078.8256225586,1.4942626953,2.2924804688,2.5791015625,4.0243530273,2.8852539062.0493774414.4636230469.4280395508.8294677734.9047851562.8294677734.4664916992,0,.8363037109-.3514404297.8989257812-.8006591797,1.8235473633-.2600708008,3.3755493164-1.3784179688,4.2278442383-2.9400634766ZM52.5541992188,113.2950439453c0-1.53515625,1.2358398438-2.7841796875,2.7553710938-2.7841796875s2.755859375,1.2490234375,2.755859375,2.7841796875-1.236328125,2.7841796875-2.755859375,2.7841796875-2.7553710938-1.2490234375-2.7553710938-2.7841796875Z"/></svg>