<?xml version="1.0" encoding="UTF-8"?><svg id="symbole_neu_2026" xmlns="http://www.w3.org/2000/svg" viewBox="0 0 170.0787353516 170.0787353516"><defs><style>.cls-1{fill:#1d1d1b;}</style></defs><path class="cls-1" d="M120.1780395508,86.893371582l.3043212891-4.8153686523c3.5207519531-.5108642578,6.2373657227-3.5410766602,6.2373657227-7.2014160156,0-4.0170898438-3.2685546875-7.28515625-7.28515625-7.28515625-1.3472900391,0-2.6059570312.374206543-3.6898193359,1.0145263672l-5.6675415039-6.2130126953c.8643188477-1.1977539062,1.3798217773-2.662902832,1.3798217773-4.2492675781,0-4.0170898438-3.2685546875-7.28515625-7.2861328125-7.28515625-3.1845703125,0-5.8919677734,2.0576171875-6.8798828125,4.9107666016l-6.266784668-.7858886719c-.3078613281-3.7357177734-3.4413452148-6.6829833984-7.2551879883-6.6829833984-3.7952270508,0-6.9180908203,2.9180297852-7.2518920898,6.6278076172l-7.591796875.8931884766c-.9725952148-2.8805541992-3.6949462891-4.962890625-6.8994750977-4.962890625-4.0170898438,0-7.28515625,3.2680664062-7.28515625,7.28515625,0,1.8404541016.69140625,3.518737793,1.821105957,4.8026123047l-2.8549194336,3.8182373047c-.9326171875-.4345703125-1.967956543-.6843261719-3.0628662109-.6843261719-4.0170898438,0-7.28515625,3.2680664062-7.28515625,7.28515625s3.2680664062,7.2856445312,7.28515625,7.2856445312c.9154052734,0,1.7883911133-.1770019531,2.5961914062-.4866333008l3.8273925781,5.9404907227c-1.3360595703,1.3214111328-2.1662597656,3.1532592773-2.1662597656,5.1765136719,0,4.0166015625,3.2685546875,7.28515625,7.2856445312,7.28515625,3.1849365234,0,5.8921508789-2.0579223633,6.8799438477-4.910949707l10.0740966797,1.2628173828c.4948120117,3.5386352539,3.5334472656,6.2741088867,7.2066040039,6.2741088867,1.5077514648,0,2.9100341797-.4608154297,4.0736083984-1.2485961914l4.9075927734,4.3684082031c-.6126708984,1.0666503906-.9685058594,2.2987060547-.9685058594,3.6145629883,0,4.0166015625,3.2685546875,7.28515625,7.28515625,7.28515625.810546875,0,1.5879516602-.138671875,2.3168334961-.3840332031l2.2046508789,4.1135253906v4.298828125h3v-5.052734375l-2.6189575195-4.8872680664c1.4603881836-1.3332519531,2.383605957-3.245300293,2.383605957-5.3734741211,0-1.2499389648-.3170166016-2.4270019531-.8739013672-3.4561157227l5.7051391602-4.8223266602c.1845092773.1439208984.3757324219.2787475586.5737915039.4047241211l-2.8376464844,7.6032104492v10.908203125h3v-10.3671875l2.6479492188-7.0947265625c.3547973633.0533447266.7150268555.08984375,1.0844726562.08984375,4.0166015625,0,7.28515625-3.2685546875,7.28515625-7.28515625,0-3.3424682617-2.2651977539-6.1592407227-5.3385620117-7.0139770508ZM115.7904663086,73.7720947266c-.2067871094,0-.3883666992.0815429688-.5404052734.1987915039.4173583984-1.928527832,2.1325073242-3.3794555664,4.1845092773-3.3794555664.1419677734,0,.2760620117.0283813477.4144897461.0419311523-.0704956055.1283569336-.1211547852.2684326172-.1211547852.4252319336,0,.497253418.4030761719.900390625.900390625.900390625.4644775391,0,.8334350586-.3564453125.8817749023-.8080444336.4310302734.2412109375.813293457.5495605469,1.1363525391.9188232422-.2932128906.1484375-.4996337891.4446411133-.4996337891.7957763672,0,.497253418.403137207.900390625.900390625.900390625.173034668,0,.3254394531-.0617675781.4626464844-.1463623047.1239013672.4001464844.2098999023.8167114258.2098999023,1.257019043,0,.3163452148-.0396118164.6226196289-.1049194336.9196166992-.1560058594-.1295776367-.3489990234-.2171630859-.5676269531-.2171630859-.497253418,0-.900390625.4030761719-.900390625.900390625,0,.4516601562.3383178711.8096923828.7719116211.8744506836-.3796386719.5323486328-.8814697266.9632568359-1.4594116211,1.2764282227.0439453125-.1061401367.0693969727-.2219238281.0693969727-.3439331055,0-.497253418-.403137207-.900390625-.900390625-.900390625-.4973144531,0-.900390625.403137207-.900390625.900390625,0,.3510742188.2063598633.6472167969.4995727539.795715332-.2576293945.0485229492-.5213623047.0801391602-.7929077148.0801391602-1.0653076172,0-2.0286254883-.4047851562-2.7789306641-1.0502929688-.0684204102-.3358154297-.3125-.5942993164-.641418457-.6807861328-.4477539062-.5979003906-.733215332-1.3129882812-.8181762695-2.0935668945.1592407227.1422119141.3641357422.2352905273.5944213867.2352905273.497253418,0,.900390625-.403137207.900390625-.900390625,0-.4973144531-.403137207-.900390625-.900390625-.900390625ZM113.5288085938,70.6279296875c-.8138427734,1.1278686523-1.3102416992,2.4947509766-1.3655395508,3.9754638672l-7.5776367188,1.301574707c-.6221313477-1.5623779297-1.7666015625-2.8599853516-3.2204589844-3.6741333008l2.1237792969-6.8360595703c.2247924805.0209960938.4517822266.0345458984.6819458008.0345458984,1.3475341797,0,2.6063842773-.374206543,3.6903076172-1.0145263672l5.6676025391,6.2131347656ZM102.1044921875,78.5889892578c0,2.36328125-1.921875,4.2856445312-4.28515625,4.2856445312s-4.28515625-1.9223632812-4.28515625-4.2856445312c0-2.3627929688,1.921875-4.28515625,4.28515625-4.28515625s4.28515625,1.9223632812,4.28515625,4.28515625ZM103.5877075195,53.9174804688c-.4437866211.0557861328-.7921142578.4196777344-.7921142578.8785400391,0,.497253418.403137207.900390625.900390625.900390625s.900390625-.403137207.900390625-.900390625c0-.4844970703-.384765625-.8731079102-.8643798828-.8931274414.1463623047-.0151977539.2885742188-.0443725586.4389038086-.0443725586,2.1556396484,0,3.9270019531,1.6047363281,4.2247924805,3.6788330078-.428894043.0688476562-.7623291016.4242553711-.7623291016.8725585938,0,.410949707.2808837891.743347168.6571655273.8513183594-.466003418,1.7118530273-1.9583129883,2.9871826172-3.7788085938,3.133605957.051940918-.1137695312.0846557617-.2377319336.0846557617-.3710327148,0-.497253418-.403137207-.900390625-.900390625-.900390625s-.900390625.403137207-.900390625.900390625c0,.0601196289.0229492188.1126708984.0341796875.1694946289-.6814575195-.2265625-1.2877807617-.6082763672-1.7695922852-1.1198120117.0712890625.0181884766.1399536133.043762207.2169189453.043762207.497253418,0,.900390625-.403137207.900390625-.900390625s-.403137207-.900390625-.900390625-.900390625c-.4653320312,0-.8348388672.3575439453-.8822021484.8103027344-.3142700195-.5958251953-.5091552734-1.2638549805-.5091552734-1.9830932617,0-2.1631469727,1.6163330078-3.9384765625,3.701965332-4.2261962891ZM90.6493530273,57.960144043l6.2668457031.7856445312c.203918457,2.4747924805,1.6468505859,4.6015014648,3.7087402344,5.7563476562l-2.1236572266,6.8362426758c-.2247924805-.0209960938-.4517211914-.0345458984-.6819458008-.0345458984-.853515625,0-1.6695556641.1552734375-2.4313354492.4262084961l-6.6280517578-10.8513183594c.8468017578-.798828125,1.5006713867-1.7958984375,1.8894042969-2.9185791016ZM92.8286132812,73.2963256836c-.7914428711.7467041016-1.4137573242,1.6666259766-1.8093261719,2.7006225586l-10.171875-1.6059570312c-.1062011719-2.0911254883-1.0902709961-3.9532470703-2.5994873047-5.2159423828l3.5032958984-6.5942993164c.6416625977.1854858398,1.3172607422.2904663086,2.0178222656.2904663086.8536987305,0,1.669921875-.1552734375,2.4317626953-.4263305664l6.6278076172,10.8514404297ZM79.5069580078,55.6964111328c.4973144531,0,.900390625-.403137207.900390625-.900390625,0-.3899536133-.2510375977-.7141723633-.5978393555-.8392944336.6064453125-1.4686279297,2.0086669922-2.5112915039,3.6647949219-2.6265258789.0731201172.4238891602.4257202148.7523193359.8704833984.7523193359.3643798828,0,.6746826172-.2188110352.8163452148-.5301513672.4368286133.1513671875.838684082.3671875,1.1987304688.6430664062-.2913818359.1491088867-.4965820312.4438476562-.4965820312.7936401367,0,.497253418.403137207.900390625.900390625.900390625.3048095703,0,.5609130859-.1612548828.723815918-.3930053711.3504638672.6207885742.567199707,1.3268432617.567199707,2.0891113281,0,2.36328125-1.9228515625,4.2856445312-4.2856445312,4.2856445312-.3913574219,0-.7634277344-.0697631836-1.1239013672-.1685180664-.1633911133-.2279663086-.4174194336-.3862304688-.7192382812-.3862304688-.057800293,0-.1080932617.0225219727-.1628417969.0328979492-.5536499023-.2965087891-1.0338134766-.7038574219-1.4088745117-1.2026977539-.0515136719-.1652832031-.1436157227-.3060913086-.2725830078-.4152832031-.3526611328-.6035766602-.5676879883-1.293762207-.586730957-2.0374145508.0042724609.0000610352.0078125.0024414062.0120849609.0024414062ZM69.2782592773,58.8009033203l7.5916748047-.8931274414c.4338989258,1.2852783203,1.212890625,2.4123535156,2.2321166992,3.2652587891l-3.5033569336,6.5944824219c-.6416015625-.1854248047-1.3171386719-.2903442383-2.0176391602-.2903442383-1.0062866211,0-1.9653930664.2053222656-2.8381347656.5758666992l-3.4215698242-4.9209594727c1.0887451172-1.155090332,1.806640625-2.660949707,1.9569091797-4.3311767578ZM77.8662109375,74.7623291016c0,2.36328125-1.9223632812,4.2856445312-4.28515625,4.2856445312-2.36328125,0-4.2856445312-1.9223632812-4.2856445312-4.2856445312,0-2.3627929688,1.9223632812-4.28515625,4.2856445312-4.28515625,2.3627929688,0,4.28515625,1.9223632812,4.28515625,4.28515625ZM57.8068847656,57.4891967773c.4627075195-.0375976562.8303833008-.4138183594.8303833008-.8862304688,0-.2542724609-.1071777344-.4816894531-.2767333984-.6454467773.2439575195-.407409668.5524291992-.7653198242.9131469727-1.0706787109.047668457.4523925781.4170532227.8095703125.8820800781.8095703125.4973144531,0,.900390625-.403137207.900390625-.900390625,0-.2919311523-.1480102539-.5393676758-.3634033203-.7038574219.4221191406-.139465332.8648681641-.2336425781,1.3331298828-.2336425781.7816772461,0,1.5053100586.2258300781,2.1369018555.5928344727-.044128418.106262207-.0695800781.2224121094-.0695800781.3446655273,0,.497253418.4030761719.900390625.900390625.900390625.1612548828,0,.3045654297-.053894043.4354858398-.128112793.5458984375.7191772461.8824462891,1.6049804688.8824462891,2.575378418,0,1.1669311523-.4714355469,2.223815918-1.23046875,2.9973754883-.0302124023-.0030517578-.0564575195-.0176391602-.0874633789-.0176391602-.4377441406,0-.7854614258.3186035156-.8665161133.7324829102-.6235961914.3544921875-1.333984375.573425293-2.1011962891.573425293-.3546142578,0-.6940917969-.0557861328-1.0238647461-.1373901367.02734375-.0860595703.0541381836-.173034668.0541381836-.2681274414,0-.497253418-.4030761719-.900390625-.900390625-.900390625-.3090209961,0-.5682373047.1655273438-.7304077148.4027099609-.3386230469-.2611694336-.6420898438-.5637207031-.889831543-.9128417969.0603027344-.1209106445.1017456055-.2521362305.1017456055-.3964233398,0-.4262695312-.3024291992-.7667236328-.7003173828-.8599853516-.1152954102-.3872070312-.1962280273-.7890014648-.1962280273-1.2131958008,0-.2241210938.0328369141-.4395751953.0661621094-.6544799805ZM50.6440429688,77.6510009766c-2.3572998047,0-4.274597168-1.9138793945-4.2835083008-4.2695922852.1065063477-.1478881836.1822509766-.3197021484.1822509766-.5158691406,0-.1374511719-.0360107422-.2641601562-.0910644531-.3806762695.1282958984-.611328125.3958740234-1.1672363281.7548828125-1.6528930664-.0197753906.0741577148-.045715332.1462402344-.045715332.2266235352,0,.497253418.403137207.900390625.900390625.900390625s.900390625-.403137207.900390625-.900390625c0-.4973144531-.403137207-.900390625-.900390625-.900390625-.1077880859,0-.2081298828.0266113281-.303894043.061340332.5115356445-.4697265625,1.1342773438-.8128051758,1.8270263672-.9907836914-.0001831055.0080566406-.0046386719.0147094727-.0046386719.0228271484,0,.4973144531.403137207.900390625.900390625.900390625s.900390625-.4030761719.900390625-.900390625c0-.0350952148-.0160522461-.0648803711-.0199584961-.0989379883,1.6284179688.2767333984,2.9320678711,1.471496582,3.3830566406,3.0341796875-.1951904297.1651611328-.3260498047.4029541016-.3260498047.6787109375,0,.3438110352.1995849609.6327514648.4828491211.7844238281-.149597168,2.2285766602-1.991027832,4.0010375977-4.2564086914,4.0010375977ZM65.5749511719,93.8749389648c-.1577148438-.1360473633-.3567504883-.2264404297-.5813598633-.2264404297-.4973144531,0-.900390625.403137207-.900390625.900390625,0,.1755981445.0633544922.3299560547.1502685547.4684448242-.4381103516.2422485352-.9175415039.4099731445-1.4317626953.4860229492-.0772094727-.0215454102-.1529541016-.0478515625-.2370605469-.0478515625-.1489868164,0-.2835083008.044921875-.4072875977.1090087891-.5314331055-.0024414062-1.0357666016-.1112060547-1.5051879883-.2911376953.2322998047-.1628417969.3939819336-.4192504883.3939819336-.7244873047,0-.497253418-.4030761719-.900390625-.900390625-.900390625-.4490966797,0-.8051147461.3345947266-.8729858398.7646484375-.3453369141-.3203735352-.6290893555-.698059082-.854309082-1.1159667969.1239013672-.154296875.2088012695-.3419799805.2088012695-.5552368164,0-.417175293-.2896728516-.7525634766-.6746826172-.8547973633-.0286254883-.1996459961-.0612182617-.3983154297-.0612182617-.6057739258,0-.4788208008.0969848633-.9315185547.2424926758-1.3617553711.2894897461-.1496582031.4934082031-.4431152344.4934082031-.7915649414,0-.0637817383-.0236816406-.1198120117-.036315918-.1798706055.2485961914-.3807373047.5634155273-.7083129883.9167480469-.9924926758.1630859375.1640014648.3885498047.2658081055.6380615234.2658081055.4973144531,0,.900390625-.403137207.900390625-.900390625,0-.0515136719-.0209960938-.0960083008-.029296875-.1451416016.3713989258-.1052856445.7554321289-.1797485352,1.16015625-.1797485352.701171875,0,1.3536987305.1853027344,1.9385375977.4851074219.0780639648.4178466797.4275512695.7401733398.8680419922.7401733398.0525512695,0,.0980834961-.0212402344.1481933594-.0299072266.8160400391.7805786133,1.3303833008,1.8737182617,1.3303833008,3.0897827148,0,.9789428711-.3428344727,1.8713378906-.8972167969,2.5935668945ZM64.9996948242,84.561706543c-.8659667969-.3638305664-1.8160400391-.5659790039-2.8126831055-.5659790039-.9154052734,0-1.7883911133.176940918-2.5962524414.4865722656l-3.8274536133-5.9406738281c1.3358764648-1.321472168,2.1658935547-3.1533203125,2.1658935547-5.1762695312,0-1.8405151367-.69140625-3.5187988281-1.8212280273-4.8025512695l2.8549194336-3.8179321289c.9326782227.4346313477,1.9680175781.6844482422,3.0629882812.6844482422,1.0063476562,0,1.9655151367-.2053833008,2.8383178711-.5760498047l3.4215087891,4.9207763672c-1.2301635742,1.3049926758-1.9902954102,3.0576782227-1.9902954102,4.98828125,0,1.9403686523.7674560547,3.7015991211,2.0086669922,5.0086669922l-3.3043823242,4.7907104492ZM79.3449707031,91.9199829102l-9.9033203125-1.2412109375c-.1403198242-1.7015380859-.8667602539-3.2360229492-1.9776611328-4.4060058594l3.3044433594-4.7907714844c.8659667969.3638916016,1.8160400391.5659790039,2.8126220703.5659790039,3.1032104492,0,5.7521362305-1.9541625977,6.8001098633-4.6935424805l10.1718139648,1.6058349609c.0875854492,1.7241821289.7741088867,3.2889404297,1.859375,4.4939575195l-2.8603515625,3.9197387695c-.9686279297-.4772338867-2.0537109375-.752746582-3.2043457031-.752746582-3.3275756836,0-6.1348266602,2.2453613281-7.0026855469,5.2987670898ZM88.9159545898,97.3162841797c-.1644897461.051940918-.3043212891.1446533203-.412902832.2733764648-.6356201172.3735351562-1.3661499023.6028442383-2.1553955078.6028442383-.3939819336,0-.7683105469-.0706787109-1.1309204102-.170715332-.0701293945-.4274291992-.4247436523-.7593383789-.8719482422-.7593383789-.1707763672,0-.3212890625.0602416992-.4573364258.1428222656-.4146728516-.2926025391-.7770996094-.6536254883-1.065612793-1.0714111328-.0075683594-.2965087891-.1641235352-.5453491211-.3916015625-.7038574219-.233215332-.528137207-.3677368164-1.1090698242-.3677368164-1.72265625,0-.1022949219.0231323242-.1981811523.0302124023-.2987060547.4144897461-.0806884766.733581543-.428527832.733581543-.8666992188,0-.2769775391-.1322631836-.5155639648-.3290405273-.6807250977.2421875-.5028686523.5767822266-.9478759766.9860229492-1.3187255859-.0144042969.0639648438-.0388793945.124206543-.0388793945.1925048828,0,.4973144531.4030761719.900390625.900390625.900390625.497253418,0,.900390625-.4030761719.900390625-.900390625,0-.4464111328-.3308105469-.8002929688-.757019043-.8714599609.4789428711-.2329711914,1.0048217773-.3731689453,1.5623779297-.4122924805.1638793945.2229614258.415222168.3771972656.7131347656.3771972656.2473754883,0,.4710693359-.1002807617.6337890625-.2617797852.4260864258.1083984375.8255004883.278137207,1.1901245117.5036010742-.1842651367.164855957-.3054199219.3980102539-.3054199219.6647338867,0,.4973144531.403137207.900390625.900390625.900390625.2861938477,0,.5300292969-.1419677734.6949462891-.3500976562.4746704102.6898803711.7553100586,1.5230712891.7553100586,2.4220581055,0,1.3960571289-.6806640625,2.6260986328-1.7168579102,3.4089355469ZM92.5054321289,97.7824707031c.7100219727-1.1240234375,1.1273803711-2.450378418,1.1273803711-3.8751220703,0-1.7840576172-.6468505859-3.4182739258-1.7151489258-4.6862792969l2.9146728516-3.9943237305c.7489013672.3385009766,1.5635375977.552734375,2.4205932617.6192016602l1.9841308594,15.2126464844c-.6909179688.2431640625-1.3329467773.5868530273-1.9112548828,1.0149536133l-4.8203735352-4.2910766602ZM103.5446166992,111.7485961914c-.1533813477.0270385742-.2913208008.0864868164-.407409668.1806640625-.4663696289.1743774414-.9652099609.2827758789-1.4916992188.2827758789-2.36328125,0-4.28515625-1.921875-4.28515625-4.28515625,0-.828125.2466430664-1.5952758789.6549072266-2.2514648438.120300293.3555908203.4466552734.6156005859.8428955078.6156005859.4973144531,0,.900390625-.403137207.900390625-.900390625,0-.4254760742-.3012695312-.7654418945-.6979980469-.8595581055.4060058594-.3100585938.8664550781-.5429077148,1.3675537109-.6927490234.1115112305.3706054688.4420166016.6457519531.8489990234.6457519531.4587402344,0,.8225708008-.3482055664.8784790039-.7917480469,1.6137695312.1945800781,2.9470825195,1.2749633789,3.4959106445,2.7517089844-.2567138672.1586303711-.4370117188.4296264648-.4370117188.7535400391,0,.4275512695.3041992188.7687988281.7038574219.8607177734-.0502319336,1.6211547852-1.003112793,3.0062866211-2.3737182617,3.6903076172ZM106.1149902344,102.1850585938c-1.0954589844-.854675293-2.4379882812-1.4021606445-3.9032592773-1.515625l-1.9839477539-15.2126464844c.8857421875-.3117675781,1.6923828125-.7880249023,2.3847045898-1.3952636719l9.0233764648,6.7718505859c-.4378051758.9354858398-.6895751953,1.9747314453-.6895751953,3.0739746094,0,1.2495727539.3170166016,2.4264526367.873840332,3.4553222656l-5.7051391602,4.8223876953ZM113.4381103516,88.4345092773l-9.0234375-6.7713623047c.4012451172-.8571166992.6387329102-1.8028564453.6760253906-2.8011474609l7.5775756836-1.3013305664c.8359375,2.0994262695,2.6186523438,3.7173461914,4.8198242188,4.3294677734l-.3045654297,4.8153076172c-1.4229736328.2064819336-2.7119750977.8225708008-3.7454223633,1.7290649414ZM122.3350219727,95.0735473633c-.173034668.6068115234-.4725341797,1.1547851562-.8744506836,1.619934082.0424194336-.1044921875.0681152344-.2178344727.0681152344-.3375854492,0-.4973144531-.403137207-.900390625-.900390625-.900390625-.4973144531,0-.900390625.4030761719-.900390625.900390625,0,.497253418.4030761719.900390625.900390625.900390625.1146240234,0,.2222900391-.026184082.3231201172-.065246582-.5299682617.4397583008-1.1545410156.7690429688-1.853515625.9130859375-.0317993164-.4683837891-.4120483398-.8416748047-.8885498047-.8416748047-.471862793,0-.8475341797.3667602539-.885925293.8287353516-.67578125-.1466064453-1.2815551758-.4637451172-1.797668457-.8883056641.0850830078.0266723633.1708374023.0534057617.2647094727.0534057617.497253418,0,.900390625-.403137207.900390625-.900390625,0-.4973144531-.403137207-.900390625-.900390625-.900390625s-.900390625.4030761719-.900390625.900390625c0,.0946655273.0267333984.1811523438.0538330078.2668457031-.3822631836-.4619140625-.6676025391-.9996337891-.8299560547-1.5939941406.0914916992-.1409301758.1580200195-.2993164062.1580200195-.4798583984,0-.2740478516-.1290893555-.510925293-.3222045898-.6760864258.0191040039-2.3470458984,1.9302368164-4.2515869141,4.2816772461-4.2515869141,2.3419189453,0,4.2445678711,1.889831543,4.2788696289,4.2237548828-.2153930664.1644897461-.3635253906.4119262695-.3635253906.703918457,0,.200012207.0779418945.3752441406.1882324219.5246582031ZM106.1669921875,126.3839111328h3v5.46484375h-3v-5.46484375ZM111.4990234375,122.0899658203h3v5.4658203125h-3v-5.4658203125ZM116.7314453125,107.9268798828h3v7.4169921875h-3v-7.4169921875ZM53.7994384766,74.6724853516c0,.497253418-.4030761719.900390625-.900390625.900390625-.497253418,0-.900390625-.403137207-.900390625-.900390625,0-.4973144531.403137207-.900390625.900390625-.900390625.4973144531,0,.900390625.4030761719.900390625.900390625ZM51.3805541992,76.4794311523c0,.497253418-.403137207.900390625-.900390625.900390625s-.900390625-.403137207-.900390625-.900390625c0-.4973144531.403137207-.900390625.900390625-.900390625s.900390625.4030761719.900390625.900390625ZM53.7994384766,71.05859375c0,.497253418-.4030761719.900390625-.900390625.900390625-.497253418,0-.900390625-.403137207-.900390625-.900390625,0-.4973144531.403137207-.900390625.900390625-.900390625.4973144531,0,.900390625.4030761719.900390625.900390625ZM51.3805541992,72.8655395508c0,.497253418-.403137207.900390625-.900390625.900390625s-.900390625-.403137207-.900390625-.900390625c0-.4973144531.403137207-.900390625.900390625-.900390625s.900390625.4030761719.900390625.900390625ZM48.9616699219,74.6724853516c0,.497253418-.403137207.900390625-.900390625.900390625s-.900390625-.403137207-.900390625-.900390625c0-.4973144531.403137207-.900390625.900390625-.900390625s.900390625.4030761719.900390625.900390625ZM64.9935913086,90.0346069336c.497253418,0,.900390625.403137207.900390625.900390625,0,.4973144531-.403137207.900390625-.900390625.900390625-.4973144531,0-.900390625-.4030761719-.900390625-.900390625,0-.497253418.4030761719-.900390625.900390625-.900390625ZM63.4750366211,92.7419433594c0,.4973144531-.4030761719.900390625-.900390625.900390625-.497253418,0-.900390625-.4030761719-.900390625-.900390625,0-.497253418.403137207-.900390625.900390625-.900390625.4973144531,0,.900390625.403137207.900390625.900390625ZM63.4750366211,89.1280517578c0,.4973144531-.4030761719.900390625-.900390625.900390625-.497253418,0-.900390625-.4030761719-.900390625-.900390625,0-.497253418.403137207-.900390625.900390625-.900390625.4973144531,0,.900390625.403137207.900390625.900390625ZM61.0561523438,90.9349975586c0,.4973144531-.4030761719.900390625-.900390625.900390625-.497253418,0-.900390625-.4030761719-.900390625-.900390625,0-.497253418.403137207-.900390625.900390625-.900390625.4973144531,0,.900390625.403137207.900390625.900390625ZM87.6640625,96.3558959961c0,.497253418-.403137207.900390625-.900390625.900390625s-.900390625-.403137207-.900390625-.900390625c0-.4973144531.403137207-.900390625.900390625-.900390625s.900390625.4030761719.900390625.900390625ZM90.0829467773,94.5488891602c0,.4973144531-.4030761719.900390625-.900390625.900390625-.497253418,0-.900390625-.4030761719-.900390625-.900390625,0-.497253418.403137207-.900390625.900390625-.900390625.4973144531,0,.900390625.403137207.900390625.900390625ZM87.6640625,92.7419433594c0,.4973144531-.403137207.900390625-.900390625.900390625s-.900390625-.4030761719-.900390625-.900390625c0-.497253418.403137207-.900390625.900390625-.900390625s.900390625.403137207.900390625.900390625ZM85.2451782227,94.5488891602c0,.4973144531-.403137207.900390625-.900390625.900390625-.4973144531,0-.900390625-.4030761719-.900390625-.900390625,0-.497253418.4030761719-.900390625.900390625-.900390625.497253418,0,.900390625.403137207.900390625.900390625ZM121.5286865234,92.7419433594c0,.4973144531-.403137207.900390625-.900390625.900390625-.4973144531,0-.900390625-.4030761719-.900390625-.900390625,0-.497253418.4030761719-.900390625.900390625-.900390625.497253418,0,.900390625.403137207.900390625.900390625ZM119.1097412109,94.5488891602c0,.4973144531-.4030761719.900390625-.900390625.900390625-.497253418,0-.900390625-.4030761719-.900390625-.900390625,0-.497253418.403137207-.900390625.900390625-.900390625.4973144531,0,.900390625.403137207.900390625.900390625ZM119.1097412109,90.9349975586c0,.4973144531-.4030761719.900390625-.900390625.900390625-.497253418,0-.900390625-.4030761719-.900390625-.900390625,0-.497253418.403137207-.900390625.900390625-.900390625.4973144531,0,.900390625.403137207.900390625.900390625ZM116.6908569336,92.7419433594c0,.4973144531-.403137207.900390625-.900390625.900390625s-.900390625-.4030761719-.900390625-.900390625c0-.497253418.403137207-.900390625.900390625-.900390625s.900390625.403137207.900390625.900390625ZM119.7279052734,74.6724853516c0-.4973144531.4030761719-.900390625.900390625-.900390625.497253418,0,.900390625.4030761719.900390625.900390625,0,.497253418-.403137207.900390625-.900390625.900390625-.4973144531,0-.900390625-.403137207-.900390625-.900390625ZM117.3089599609,76.4794311523c0-.4973144531.403137207-.900390625.900390625-.900390625.4973144531,0,.900390625.4030761719.900390625.900390625,0,.497253418-.4030761719.900390625-.900390625.900390625-.497253418,0-.900390625-.403137207-.900390625-.900390625ZM117.3089599609,72.8655395508c0-.4973144531.403137207-.900390625.900390625-.900390625.4973144531,0,.900390625.4030761719.900390625.900390625,0,.497253418-.4030761719.900390625-.900390625.900390625-.497253418,0-.900390625-.403137207-.900390625-.900390625ZM61.6742553711,60.2168579102c0-.497253418.403137207-.900390625.900390625-.900390625.4973144531,0,.900390625.403137207.900390625.900390625s-.4030761719.900390625-.900390625.900390625c-.497253418,0-.900390625-.403137207-.900390625-.900390625ZM64.0932006836,58.4099121094c0-.497253418.4030761719-.900390625.900390625-.900390625.497253418,0,.900390625.403137207.900390625.900390625s-.403137207.900390625-.900390625.900390625c-.4973144531,0-.900390625-.403137207-.900390625-.900390625ZM61.6742553711,56.6029663086c0-.497253418.403137207-.900390625.900390625-.900390625.4973144531,0,.900390625.403137207.900390625.900390625s-.4030761719.900390625-.900390625.900390625c-.497253418,0-.900390625-.403137207-.900390625-.900390625ZM59.2553710938,58.4099121094c0-.497253418.403137207-.900390625.900390625-.900390625.4973144531,0,.900390625.403137207.900390625.900390625s-.4030761719.900390625-.900390625.900390625c-.497253418,0-.900390625-.403137207-.900390625-.900390625ZM85.86328125,56.6029663086c0-.497253418.403137207-.900390625.900390625-.900390625s.900390625.403137207.900390625.900390625-.403137207.900390625-.900390625.900390625-.900390625-.403137207-.900390625-.900390625ZM83.4443969727,58.4099121094c0-.497253418.4030761719-.900390625.900390625-.900390625.497253418,0,.900390625.403137207.900390625.900390625s-.403137207.900390625-.900390625.900390625c-.4973144531,0-.900390625-.403137207-.900390625-.900390625ZM81.0255126953,56.6029663086c0-.497253418.4030761719-.900390625.900390625-.900390625.497253418,0,.900390625.403137207.900390625.900390625s-.403137207.900390625-.900390625.900390625c-.4973144531,0-.900390625-.403137207-.900390625-.900390625ZM83.4443969727,54.7960205078c0-.497253418.4030761719-.900390625.900390625-.900390625.497253418,0,.900390625.403137207.900390625.900390625s-.403137207.900390625-.900390625.900390625c-.4973144531,0-.900390625-.403137207-.900390625-.900390625ZM81.0255126953,52.989074707c0-.497253418.4030761719-.900390625.900390625-.900390625.497253418,0,.900390625.403137207.900390625.900390625s-.403137207.900390625-.900390625.900390625c-.4973144531,0-.900390625-.403137207-.900390625-.900390625ZM105.2144775391,60.2168579102c0-.497253418.403137207-.900390625.900390625-.900390625s.900390625.403137207.900390625.900390625-.403137207.900390625-.900390625.900390625-.900390625-.403137207-.900390625-.900390625ZM105.2144775391,56.6029663086c0-.497253418.403137207-.900390625.900390625-.900390625s.900390625.403137207.900390625.900390625-.403137207.900390625-.900390625.900390625-.900390625-.403137207-.900390625-.900390625ZM102.7955932617,58.4099121094c0-.497253418.403137207-.900390625.900390625-.900390625s.900390625.403137207.900390625.900390625-.403137207.900390625-.900390625.900390625-.900390625-.403137207-.900390625-.900390625ZM100.3767089844,56.6029663086c0-.497253418.4030761719-.900390625.900390625-.900390625.497253418,0,.900390625.403137207.900390625.900390625s-.403137207.900390625-.900390625.900390625c-.4973144531,0-.900390625-.403137207-.900390625-.900390625ZM102.1774902344,110.8114624023c0,.497253418-.403137207.900390625-.900390625.900390625-.4973144531,0-.900390625-.403137207-.900390625-.900390625s.4030761719-.900390625.900390625-.900390625c.497253418,0,.900390625.403137207.900390625.900390625ZM104.5963745117,109.0045166016c0,.497253418-.403137207.900390625-.900390625.900390625s-.900390625-.403137207-.900390625-.900390625.403137207-.900390625.900390625-.900390625.900390625.403137207.900390625.900390625ZM104.5963745117,105.390625c0,.497253418-.403137207.900390625-.900390625.900390625s-.900390625-.403137207-.900390625-.900390625.403137207-.900390625.900390625-.900390625.900390625.403137207.900390625.900390625ZM102.1774902344,107.1975708008c0,.497253418-.403137207.900390625-.900390625.900390625-.4973144531,0-.900390625-.403137207-.900390625-.900390625s.4030761719-.900390625.900390625-.900390625c.497253418,0,.900390625.403137207.900390625.900390625ZM99.7585449219,109.0045166016c0,.497253418-.4030761719.900390625-.900390625.900390625-.497253418,0-.900390625-.403137207-.900390625-.900390625s.403137207-.900390625.900390625-.900390625c.4973144531,0,.900390625.403137207.900390625.900390625ZM116.7314453125,118.5645751953h3v5.46484375h-3v-5.46484375Z"/></svg>