<?xml version="1.0" encoding="UTF-8"?><svg id="symbole_neu_2026" xmlns="http://www.w3.org/2000/svg" viewBox="0 0 170.0787353516 170.0787353516"><defs><style>.cls-1{fill:#1d1d1b;}</style></defs><path class="cls-1" d="M62.2651367188,65.5959472656c0-.497253418.403137207-.900390625.900390625-.900390625s.900390625.403137207.900390625.900390625-.403137207.900390625-.900390625.900390625-.900390625-.403137207-.900390625-.900390625ZM63.1655273438,62.8824462891c.497253418,0,.900390625-.403137207.900390625-.900390625,0-.4973144531-.403137207-.900390625-.900390625-.900390625s-.900390625.4030761719-.900390625.900390625c0,.497253418.403137207.900390625.900390625.900390625ZM63.1655273438,59.2685546875c.497253418,0,.900390625-.403137207.900390625-.900390625,0-.4973144531-.403137207-.900390625-.900390625-.900390625s-.900390625.4030761719-.900390625.900390625c0,.497253418.403137207.900390625.900390625.900390625ZM60.7466430664,68.3032836914c.497253418,0,.900390625-.403137207.900390625-.900390625s-.403137207-.900390625-.900390625-.900390625-.900390625.403137207-.900390625.900390625.403137207.900390625.900390625.900390625ZM58.3277587891,66.4963378906c.497253418,0,.900390625-.403137207.900390625-.900390625s-.403137207-.900390625-.900390625-.900390625c-.4973144531,0-.900390625.403137207-.900390625.900390625s.4030761719.900390625.900390625.900390625ZM60.7466430664,64.6893920898c.497253418,0,.900390625-.403137207.900390625-.900390625,0-.4973144531-.403137207-.900390625-.900390625-.900390625s-.900390625.4030761719-.900390625.900390625c0,.497253418.403137207.900390625.900390625.900390625ZM60.7466430664,61.0755004883c.497253418,0,.900390625-.403137207.900390625-.900390625,0-.4973144531-.403137207-.900390625-.900390625-.900390625s-.900390625.4030761719-.900390625.900390625c0,.497253418.403137207.900390625.900390625.900390625ZM63.1655273438,55.6546020508c.497253418,0,.900390625-.4030761719.900390625-.900390625,0-.497253418-.403137207-.900390625-.900390625-.900390625s-.900390625.403137207-.900390625.900390625c0,.4973144531.403137207.900390625.900390625.900390625ZM60.7466430664,57.4615478516c.497253418,0,.900390625-.4030761719.900390625-.900390625,0-.497253418-.403137207-.9003295898-.900390625-.9003295898s-.900390625.4030761719-.900390625.9003295898c0,.4973144531.403137207.900390625.900390625.900390625ZM55.9088134766,68.3032836914c.4973144531,0,.900390625-.403137207.900390625-.900390625s-.4030761719-.900390625-.900390625-.900390625c-.497253418,0-.900390625.403137207-.900390625.900390625s.403137207.900390625.900390625.900390625ZM58.3277587891,62.8824462891c.497253418,0,.900390625-.403137207.900390625-.900390625,0-.4973144531-.403137207-.900390625-.900390625-.900390625-.4973144531,0-.900390625.4030761719-.900390625.900390625,0,.497253418.4030761719.900390625.900390625.900390625ZM55.9088134766,64.6893920898c.4973144531,0,.900390625-.403137207.900390625-.900390625,0-.4973144531-.4030761719-.900390625-.900390625-.900390625-.497253418,0-.900390625.4030761719-.900390625.900390625,0,.497253418.403137207.900390625.900390625.900390625ZM51.0710449219,68.3032836914c.497253418,0,.900390625-.403137207.900390625-.900390625s-.403137207-.900390625-.900390625-.900390625-.900390625.403137207-.900390625.900390625.403137207.900390625.900390625.900390625ZM53.4899291992,66.4963378906c.497253418,0,.900390625-.403137207.900390625-.900390625s-.403137207-.900390625-.900390625-.900390625-.900390625.403137207-.900390625.900390625.403137207.900390625.900390625.900390625ZM97.095703125,80.5015258789c.990234375.114440918,1.9907836914.180480957,3,.1969604492v42.6912841797h-58.275390625v-53.46484375l23.2358398438-23.2358398438h35.0395507812v6.5833740234c-1.0022583008.0166015625-2.0031738281.0836181641-3,.1997680664v-3.7831420898h-29.9184570312v22.3569335938h-22.3569335938v48.34375h52.275390625v-39.8882446289ZM46.94140625,69.0460205078h.8434448242c.0795288086-.416015625.4281005859-.7365722656.8673095703-.7365722656.4391479492,0,.7877807617.3205566406.8673095703.7365722656h3.1031494141c.0795288086-.416015625.4281616211-.7365722656.8673095703-.7365722656s.7877807617.3205566406.8673095703.7365722656h3.1032104492c.0795288086-.416015625.4281005859-.7365722656.8673095703-.7365722656.4391479492,0,.7877807617.3205566406.8673095703.7365722656h3.1031494141c.0795288086-.416015625.4281616211-.7365722656.8673095703-.7365722656s.7877807617.3205566406.8673095703.7365722656h.1444091797v-17.2358398438l-5.6898193359,5.6898193359c.4180908203.0777587891.7407226562.4274902344.7407226562.8681640625,0,.497253418-.403137207.900390625-.900390625.900390625-.4406738281,0-.7904052734-.3226318359-.8681640625-.7407226562l-.9716796875.9716796875c.1926879883.1651611328.3212890625.4019165039.3212890625.6755981445,0,.497253418-.4030761719.900390625-.900390625.900390625-.2736816406,0-.5103759766-.1286621094-.6755371094-.3213500977l-.9075927734.9075927734c.0383911133.1000976562.0646362305.2066650391.0646362305.3203125,0,.497253418-.403137207.900390625-.900390625.900390625-.1135864258,0-.2202148438-.0262451172-.3203125-.0646362305l-6.2282104492,6.2282104492ZM122.5166015625,66.9781494141l-2.822265625,2.822265625c-5.2646484375,5.2651367188-12.1806640625,7.8974609375-19.0966796875,7.8974609375s-13.83203125-2.6323242188-19.0966796875-7.8974609375l-2.8217773438-2.822265625,2.8217773438-2.8217773438c10.529296875-10.5302734375,27.6640625-10.5302734375,38.193359375,0l2.822265625,2.8217773438ZM103.89453125,69.1934814453c0-1.1306762695-.3690795898-2.1717529297-.9810791016-3.0284423828-.1651611328.1932983398-.4020996094.3225097656-.6762695312.3225097656-.4973144531,0-.900390625-.403137207-.900390625-.900390625,0-.272644043.1275634766-.5088500977.3189697266-.6739501953-.348815918-.2448730469-.7299194336-.4409179688-1.1337890625-.595703125-.1644897461.2152099609-.4119262695.3630981445-.7037353516.3630981445-.4228515625,0-.7613525391-.297668457-.8580322266-.6906738281-.1013183594-.005859375-.1973266602-.0303344727-.3000488281-.0303344727-2.84765625,0-5.161315918,2.2893066406-5.2221679688,5.1226806641.0056152344.0405883789.0239868164.0766601562.0239868164.1187744141,0,.0403442383-.0178222656.0747680664-.0229492188.1137084961.0662231445,2.8286132812,2.3768920898,5.112121582,5.2211303711,5.112121582.1038208008,0,.2008666992-.0246582031.3032226562-.0306396484.1021728516-.3850708008.4376220703-.6747436523.8548583984-.6747436523.2862548828,0,.5301513672.1420288086.6950683594.3502197266.4027709961-.153503418.7838745117-.3467407227,1.1321411133-.58984375-.1859741211-.1649780273-.3086547852-.3988037109-.3086547852-.6669311523,0-.497253418.4030761719-.900390625.900390625-.900390625.2705078125,0,.5055541992.1252441406.6705932617.3140869141.6151733398-.8579711914.9867553711-1.9012451172.9867553711-3.03515625ZM118.2744140625,66.9781494141l-.701171875-.7001953125c-9.361328125-9.361328125-24.58984375-9.3608398438-33.951171875-.0004882812l-.7006835938.7006835938.701171875.701171875c2.2622680664,2.2623901367,4.8717041016,3.9652709961,7.6539306641,5.1340942383-.5387573242-1.0942993164-.8497314453-2.3200073242-.8497314453-3.619934082,0-4.5400390625,3.693359375-8.2338867188,8.2333984375-8.2338867188s8.234375,3.6938476562,8.234375,8.2338867188c0,1.9152832031-.6630249023,3.6754760742-1.7640991211,5.0756225586,4.5620117188-.8704833984,8.918762207-3.0653686523,12.4428100586-6.5897827148l.701171875-.701171875ZM102.2371826172,68.3006591797c-.4973144531,0-.900390625.403137207-.900390625.900390625s.4030761719.900390625.900390625.900390625c.497253418,0,.900390625-.403137207.900390625-.900390625s-.403137207-.900390625-.900390625-.900390625ZM99.8182373047,70.1076049805c-.497253418,0-.900390625.403137207-.900390625.900390625s.403137207.900390625.900390625.900390625c.4973144531,0,.900390625-.403137207.900390625-.900390625s-.4030761719-.900390625-.900390625-.900390625ZM99.8182373047,66.4937133789c-.497253418,0-.900390625.4030761719-.900390625.900390625,0,.497253418.403137207.900390625.900390625.900390625.4973144531,0,.900390625-.403137207.900390625-.900390625,0-.4973144531-.4030761719-.900390625-.900390625-.900390625ZM97.3993530273,71.9145507812c-.497253418,0-.900390625.403137207-.900390625.900390625s.403137207.900390625.900390625.900390625c.4973144531,0,.900390625-.403137207.900390625-.900390625s-.4030761719-.900390625-.900390625-.900390625ZM97.3993530273,68.3006591797c-.497253418,0-.900390625.403137207-.900390625.900390625s.403137207.900390625.900390625.900390625c.4973144531,0,.900390625-.403137207.900390625-.900390625s-.4030761719-.900390625-.900390625-.900390625ZM94.98046875,70.1076049805c-.497253418,0-.900390625.403137207-.900390625.900390625s.403137207.900390625.900390625.900390625.900390625-.403137207.900390625-.900390625-.403137207-.900390625-.900390625-.900390625ZM97.3993530273,64.6867675781c-.497253418,0-.900390625.4030761719-.900390625.900390625,0,.497253418.403137207.900390625.900390625.900390625.4973144531,0,.900390625-.403137207.900390625-.900390625,0-.4973144531-.4030761719-.900390625-.900390625-.900390625ZM94.98046875,66.4937133789c-.497253418,0-.900390625.4030761719-.900390625.900390625,0,.497253418.403137207.900390625.900390625.900390625s.900390625-.403137207.900390625-.900390625c0-.4973144531-.403137207-.900390625-.900390625-.900390625ZM86.0762939453,101.2421875c-.497253418,0-.900390625.403137207-.900390625.900390625,0,.4973144531.403137207.900390625.900390625.900390625s.900390625-.4030761719.900390625-.900390625c0-.497253418-.403137207-.900390625-.900390625-.900390625ZM86.0762939453,92.2012939453c.497253418,0,.900390625-.403137207.900390625-.900390625,0-.4973144531-.403137207-.900390625-.900390625-.900390625s-.900390625.4030761719-.900390625.900390625c0,.497253418.403137207.900390625.900390625.900390625ZM83.657409668,90.3943481445c.497253418,0,.900390625-.403137207.900390625-.900390625,0-.4973144531-.403137207-.900390625-.900390625-.900390625s-.900390625.4030761719-.900390625.900390625c0,.497253418.403137207.900390625.900390625.900390625ZM73.9818115234,97.6221313477c.497253418,0,.900390625-.403137207.900390625-.900390625s-.403137207-.900390625-.900390625-.900390625-.900390625.403137207-.900390625.900390625.403137207.900390625.900390625.900390625ZM73.9818115234,94.0082397461c.497253418,0,.900390625-.403137207.900390625-.900390625s-.403137207-.900390625-.900390625-.900390625-.900390625.403137207-.900390625.900390625.403137207.900390625.900390625.900390625ZM78.8195800781,90.3943481445c.4973144531,0,.900390625-.403137207.900390625-.900390625,0-.4973144531-.4030761719-.900390625-.900390625-.900390625-.497253418,0-.900390625.4030761719-.900390625.900390625,0,.497253418.403137207.900390625.900390625.900390625ZM76.4006958008,92.2012939453c.497253418,0,.900390625-.403137207.900390625-.900390625,0-.4973144531-.403137207-.900390625-.900390625-.900390625s-.900390625.4030761719-.900390625.900390625c0,.497253418.403137207.900390625.900390625.900390625ZM73.9818115234,101.2360229492c.497253418,0,.900390625-.403137207.900390625-.900390625s-.403137207-.900390625-.900390625-.900390625-.900390625.403137207-.900390625.900390625.403137207.900390625.900390625.900390625ZM71.5629272461,99.4290771484c.497253418,0,.900390625-.403137207.900390625-.900390625s-.403137207-.900390625-.900390625-.900390625c-.4973144531,0-.900390625.403137207-.900390625.900390625s.4030761719.900390625.900390625.900390625ZM69.1439819336,97.6221313477c.4973144531,0,.900390625-.403137207.900390625-.900390625s-.4030761719-.900390625-.900390625-.900390625c-.497253418,0-.900390625.403137207-.900390625.900390625s.403137207.900390625.900390625.900390625ZM71.5629272461,95.8151855469c.497253418,0,.900390625-.403137207.900390625-.900390625s-.403137207-.900390625-.900390625-.900390625c-.4973144531,0-.900390625.403137207-.900390625.900390625s.4030761719.900390625.900390625.900390625ZM69.1439819336,94.0082397461c.4973144531,0,.900390625-.403137207.900390625-.900390625s-.4030761719-.900390625-.900390625-.900390625c-.497253418,0-.900390625.403137207-.900390625.900390625s.403137207.900390625.900390625.900390625ZM73.9818115234,90.3943481445c.497253418,0,.900390625-.403137207.900390625-.900390625,0-.4973144531-.403137207-.900390625-.900390625-.900390625s-.900390625.4030761719-.900390625.900390625c0,.497253418.403137207.900390625.900390625.900390625ZM71.5629272461,92.2012939453c.497253418,0,.900390625-.403137207.900390625-.900390625,0-.4973144531-.403137207-.900390625-.900390625-.900390625-.4973144531,0-.900390625.4030761719-.900390625.900390625,0,.497253418.4030761719.900390625.900390625.900390625ZM64.3062133789,97.6221313477c.497253418,0,.900390625-.403137207.900390625-.900390625s-.403137207-.900390625-.900390625-.900390625-.900390625.403137207-.900390625.900390625.403137207.900390625.900390625.900390625ZM66.7250976562,95.8151855469c.497253418,0,.900390625-.403137207.900390625-.900390625s-.403137207-.900390625-.900390625-.900390625-.900390625.403137207-.900390625.900390625.403137207.900390625.900390625.900390625ZM64.3062133789,94.0082397461c.497253418,0,.900390625-.403137207.900390625-.900390625s-.403137207-.900390625-.900390625-.900390625-.900390625.403137207-.900390625.900390625.403137207.900390625.900390625.900390625ZM69.1439819336,90.3943481445c.4973144531,0,.900390625-.403137207.900390625-.900390625,0-.4973144531-.4030761719-.900390625-.900390625-.900390625-.497253418,0-.900390625.4030761719-.900390625.900390625,0,.497253418.403137207.900390625.900390625.900390625ZM66.7250976562,92.2012939453c.497253418,0,.900390625-.403137207.900390625-.900390625,0-.4973144531-.403137207-.900390625-.900390625-.900390625s-.900390625.4030761719-.900390625.900390625c0,.497253418.403137207.900390625.900390625.900390625ZM59.4683837891,97.6221313477c.4973144531,0,.900390625-.403137207.900390625-.900390625s-.4030761719-.900390625-.900390625-.900390625c-.497253418,0-.900390625.403137207-.900390625.900390625s.403137207.900390625.900390625.900390625ZM61.8873291016,95.8151855469c.497253418,0,.900390625-.403137207.900390625-.900390625s-.403137207-.900390625-.900390625-.900390625c-.4973144531,0-.900390625.403137207-.900390625.900390625s.4030761719.900390625.900390625.900390625ZM59.4683837891,94.0082397461c.4973144531,0,.900390625-.403137207.900390625-.900390625s-.4030761719-.900390625-.900390625-.900390625c-.497253418,0-.900390625.403137207-.900390625.900390625s.403137207.900390625.900390625.900390625ZM64.3062133789,90.3943481445c.497253418,0,.900390625-.403137207.900390625-.900390625,0-.4973144531-.403137207-.900390625-.900390625-.900390625s-.900390625.4030761719-.900390625.900390625c0,.497253418.403137207.900390625.900390625.900390625ZM61.8873291016,92.2012939453c.497253418,0,.900390625-.403137207.900390625-.900390625,0-.4973144531-.403137207-.900390625-.900390625-.900390625-.4973144531,0-.900390625.4030761719-.900390625.900390625,0,.497253418.4030761719.900390625.900390625.900390625ZM57.0494995117,95.8151855469c.497253418,0,.900390625-.403137207.900390625-.900390625s-.403137207-.900390625-.900390625-.900390625-.900390625.403137207-.900390625.900390625.403137207.900390625.900390625.900390625ZM59.4683837891,90.3943481445c.4973144531,0,.900390625-.403137207.900390625-.900390625,0-.4973144531-.4030761719-.900390625-.900390625-.900390625-.497253418,0-.900390625.4030761719-.900390625.900390625,0,.497253418.403137207.900390625.900390625.900390625ZM57.0494995117,92.2012939453c.497253418,0,.900390625-.403137207.900390625-.900390625,0-.4973144531-.403137207-.900390625-.900390625-.900390625s-.900390625.4030761719-.900390625.900390625c0,.497253418.403137207.900390625.900390625.900390625ZM54.6306152344,97.6221313477c.497253418,0,.900390625-.403137207.900390625-.900390625s-.403137207-.900390625-.900390625-.900390625-.900390625.403137207-.900390625.900390625.403137207.900390625.900390625.900390625ZM54.6306152344,94.0082397461c.497253418,0,.900390625-.403137207.900390625-.900390625s-.403137207-.900390625-.900390625-.900390625-.900390625.403137207-.900390625.900390625.403137207.900390625.900390625.900390625ZM54.6306152344,90.3943481445c.497253418,0,.900390625-.403137207.900390625-.900390625,0-.4973144531-.403137207-.900390625-.900390625-.900390625s-.900390625.4030761719-.900390625.900390625c0,.497253418.403137207.900390625.900390625.900390625ZM91.197265625,85.4962158203v15.5708618164l.0703125-.0698852539-.0703125,3.6689453125v9.341796875h-40.8427734375v-28.51171875h40.8427734375ZM88.197265625,106.9659423828c-1.3330078125.3671875-3.2905273438.6640625-6.1352539062.6640625-3.3388671875,0-6.4008789062-1.619140625-9.3618164062-3.185546875-2.9672851562-1.5693359375-6.0356445312-3.1923828125-9.3696289062-3.1923828125-5.2158203125,0-8.8271484375,2.861328125-9.9760742188,3.9111328125v5.8447265625h34.8427734375v-4.0419921875ZM88.197265625,88.4962158203h-34.8427734375v12.8609619141c.197265625-.1333618164.4091186523-.267578125.6273803711-.4027709961-.1540527344-.1615600586-.2516479492-.3779296875-.2516479492-.6187744141,0-.497253418.403137207-.900390625.900390625-.900390625.4205322266,0,.7577514648.2943725586.8567504883.6841430664.4868774414-.2424926758.9984130859-.4780273438,1.5533447266-.6920776367-.4929199219-.0050048828-.8916015625-.4044799805-.8916015625-.8986206055,0-.497253418.403137207-.900390625.900390625-.900390625s.900390625.403137207.900390625.900390625c0,.2973632812-.1536254883.5482788086-.3758544922.7122802734,1.0405883789-.3645019531,2.1868896484-.6543579102,3.4351806641-.8226928711.0567626953-.4426269531.4199829102-.7899780273.878112793-.7899780273.4075927734,0,.7384643555.2761230469.8493652344.6477050781.1987915039-.0068359375.3908691406-.0239257812.5938720703-.0239257812.8643188477,0,1.6926879883.0950927734,2.5017089844.239074707.0208129883-.4788208008.4088745117-.8628540039.8928222656-.8628540039.497253418,0,.900390625.403137207.900390625.900390625,0,.1267700195-.0272216797.2467041016-.0745239258.3560791016.5601196289.1631469727,1.1088867188.3528442383,1.6489868164.5617675781.201965332.0130615234.3826904297.0914306641.5266113281.2159423828,1.5084838867.6240234375,2.9547729492,1.3780517578,4.3759765625,2.1296386719.5173950195.2737426758,1.0279541016.5408325195,1.5355224609.8002929688-.0796508789-.1343383789-.1377563477-.2823486328-.1377563477-.4498291016,0-.497253418.403137207-.900390625.900390625-.900390625s.900390625.403137207.900390625.900390625c0,.4610595703-.3514404297.8268432617-.7982177734.8797607422.4932250977.2390136719.9831542969.4629516602,1.4697265625.6625366211.1145629883-.3656005859.4436035156-.6357421875.8469848633-.6357421875.4973144531,0,.900390625.403137207.900390625.900390625,0,.1116333008-.0264282227.2160644531-.0635375977.3146972656.8055419922.2236328125,1.6064453125.3657836914,2.4055786133.3657836914.3517456055,0,.6830444336-.0057983398,1.0012207031-.0151367188-.1846923828-.164855957-.3062133789-.3981933594-.3062133789-.6653442383,0-.497253418.403137207-.900390625.900390625-.900390625s.900390625.403137207.900390625.900390625c0,.2327270508-.0941162109.4401855469-.2390136719.5999755859,1.5482788086-.1150512695,2.6036376953-.3361206055,3.2872924805-.5440063477-.0012817383-.01953125-.0112915039-.0361328125-.0112915039-.0559692383,0-.3916015625.2533569336-.7163085938.6024780273-.8402709961v-1.9333496094c-.3491210938-.1239624023-.6024780273-.4486694336-.6024780273-.8402709961s.2533569336-.7163085938.6024780273-.8402709961v-1.9333496094c-.3491210938-.1239624023-.6024780273-.4486694336-.6024780273-.8402709961s.2533569336-.7163085938.6024780273-.8402709961v-1.9333496094c-.3491210938-.1239624023-.6024780273-.4486694336-.6024780273-.8402709961s.2533569336-.7163085938.6024780273-.8402709961v-1.9333496094c-.3491210938-.1239624023-.6024780273-.4486694336-.6024780273-.8402709961s.2533569336-.7163696289.6024780273-.8402709961v-.1574707031ZM75.7785644531,97.8822631836c-.2435302734-.6142578125-.3874511719-1.2788696289-.3874511719-1.9788208008,0-.4362792969.0661010742-.8547973633.1642456055-1.2613525391.0109863281-.0340576172.0166015625-.0689697266.0314331055-.1011352539.6080322266-2.3150634766,2.6990966797-4.035949707,5.2017822266-4.035949707.0147094727,0,.0282592773.0042114258.04296875.0043334961.1237182617-.0639648438.2581176758-.1088256836.4069824219-.1088256836.2112426758,0,.3970336914.0838623047.5505981445.2056884766,1.8827514648.3551635742,3.4073486328,1.6917724609,4.0526733398,3.4555664062.0764770508-.0211181641.1513061523-.0473632812.2344970703-.0473632812.497253418,0,.900390625.403137207.900390625.900390625,0,.4620361328-.3528442383.8287353516-.8010864258.8803710938.0007324219.0369262695.010925293.0711669922.010925293.1082763672,0,.6223144531-.1270751953,1.2108154297-.3217163086,1.7675170898.0696411133-.0172729492.1364746094-.0426635742.2114868164-.0426635742.497253418,0,.900390625.403137207.900390625.900390625s-.403137207.900390625-.900390625.900390625c-.3591918945,0-.6637573242-.214050293-.8082885742-.5182495117-.2416381836.3587646484-.536315918.6740722656-.8547973633.96484375.0835571289.1366577148.1445922852.2880859375.1445922852.4599609375,0,.497253418-.403137207.900390625-.900390625.900390625-.3021850586,0-.5564575195-.1586303711-.7197875977-.3870239258-.5137329102.2241210938-1.0739135742.3482055664-1.655456543.4019775391.4758300781.0240478516.8567504883.4098510742.8567504883.8916015625,0,.4973144531-.403137207.900390625-.900390625.900390625-.4973144531,0-.900390625-.4030761719-.900390625-.900390625,0-.4506835938.3369140625-.8079833984.7691650391-.8739013672-.1075439453.0064086914-.2095947266.0322265625-.3187255859.0322265625-.5153808594,0-1.0042114258-.0957641602-1.4766845703-.231262207-.1434326172.0965576172-.3063354492.1663818359-.4923095703.1663818359-.4487304688,0-.8045043945-.3341064453-.8728027344-.7636108398-.4783325195-.2985839844-.8966674805-.6727294922-1.2595214844-1.1011962891-.0911254883.0310668945-.1849365234.0578613281-.2865600586.0578613281-.497253418,0-.900390625-.403137207-.900390625-.900390625,0-.2549438477.1079711914-.4826049805.2782592773-.6464233398ZM78.3911132812,95.9034423828c0,1.322265625,1.0756835938,2.3974609375,2.3974609375,2.3974609375,1.322265625,0,2.3979492188-1.0751953125,2.3979492188-2.3974609375s-1.0756835938-2.3984375-2.3979492188-2.3984375c-1.3217773438,0-2.3974609375,1.076171875-2.3974609375,2.3984375Z"/></svg>