<?xml version="1.0" encoding="UTF-8"?><svg id="symbole_neu_2026" xmlns="http://www.w3.org/2000/svg" viewBox="0 0 170.0787353516 170.0787353516"><defs><style>.cls-1{fill:#1d1d1b;}</style></defs><path class="cls-1" d="M88.5507202148,58.8111572266h1.0595703125c1.7490234375,0,2.908203125-1,2.908203125-2.5185546875-.0000610352-1.4296875-1.0791625977-2.37890625-2.7080688477-2.37890625h-2.619140625v6.7958984375h1.3594360352v-1.8984375ZM88.5507202148,55.1627197266h1.2089233398c.849609375,0,1.419921875.4599609375,1.419921875,1.1298828125,0,.7592773438-.5703125,1.2690429688-1.419921875,1.2690429688h-1.2089233398v-2.3989257812ZM99.7479248047,57.2818603516c0-1.9189453125-1.55859375-3.3681640625-3.6376953125-3.3681640625h-2.6083984375v6.7958984375h2.6083984375c2.0791015625,0,3.6376953125-1.46875,3.6376953125-3.427734375ZM94.8612670898,55.1729736328h1.2490234375c1.2489624023,0,2.2587890625.939453125,2.2587890625,2.1088867188,0,1.208984375-1.009765625,2.1689453125-2.2587890625,2.1689453125h-1.2490234375v-4.2778320312ZM102.4911499023,60.7095947266h-1.3594360352v-6.7958984375h4.9267578125v1.2592773438s-3.5673828125,0-3.5673217773,0v1.7490234375h3.1181030273v1.2592773438h-3.1181030273v2.5283203125ZM76.3466796875,65.5959472656c0-.497253418.403137207-.900390625.900390625-.900390625s.900390625.403137207.900390625.900390625-.403137207.900390625-.900390625.900390625-.900390625-.403137207-.900390625-.900390625ZM76.3466796875,61.9820556641c0-.4973144531.403137207-.900390625.900390625-.900390625s.900390625.4030761719.900390625.900390625c0,.497253418-.403137207.900390625-.900390625.900390625s-.900390625-.403137207-.900390625-.900390625ZM76.3466796875,58.3681640625c0-.4973144531.403137207-.900390625.900390625-.900390625s.900390625.4030761719.900390625.900390625c0,.497253418-.403137207.900390625-.900390625.900390625s-.900390625-.403137207-.900390625-.900390625ZM73.9277954102,67.4028930664c0-.497253418.403137207-.900390625.900390625-.900390625s.900390625.403137207.900390625.900390625-.403137207.900390625-.900390625.900390625-.900390625-.403137207-.900390625-.900390625ZM71.5089111328,65.5959472656c0-.497253418.4030761719-.900390625.900390625-.900390625.497253418,0,.900390625.403137207.900390625.900390625s-.403137207.900390625-.900390625.900390625c-.4973144531,0-.900390625-.403137207-.900390625-.900390625ZM73.9277954102,63.7890014648c0-.4973144531.403137207-.900390625.900390625-.900390625s.900390625.4030761719.900390625.900390625c0,.497253418-.403137207.900390625-.900390625.900390625s-.900390625-.403137207-.900390625-.900390625ZM73.9277954102,60.1751098633c0-.4973144531.403137207-.900390625.900390625-.900390625s.900390625.4030761719.900390625.900390625c0,.497253418-.403137207.900390625-.900390625.900390625s-.900390625-.403137207-.900390625-.900390625ZM76.3466796875,54.7542114258c0-.497253418.403137207-.900390625.900390625-.900390625s.900390625.403137207.900390625.900390625c0,.4973144531-.403137207.900390625-.900390625.900390625s-.900390625-.4030761719-.900390625-.900390625ZM73.9277954102,56.5611572266c0-.497253418.403137207-.9003295898.900390625-.9003295898s.900390625.4030761719.900390625.9003295898c0,.4973144531-.403137207.900390625-.900390625.900390625s-.900390625-.4030761719-.900390625-.900390625ZM69.0899658203,67.4028930664c0-.497253418.403137207-.900390625.900390625-.900390625.4973144531,0,.900390625.403137207.900390625.900390625s-.4030761719.900390625-.900390625.900390625c-.497253418,0-.900390625-.403137207-.900390625-.900390625ZM71.5089111328,61.9820556641c0-.4973144531.4030761719-.900390625.900390625-.900390625.497253418,0,.900390625.4030761719.900390625.900390625,0,.497253418-.403137207.900390625-.900390625.900390625-.4973144531,0-.900390625-.403137207-.900390625-.900390625ZM69.0899658203,63.7890014648c0-.4973144531.403137207-.900390625.900390625-.900390625.4973144531,0,.900390625.4030761719.900390625.900390625,0,.497253418-.4030761719.900390625-.900390625.900390625-.497253418,0-.900390625-.403137207-.900390625-.900390625ZM64.2521972656,67.4028930664c0-.497253418.403137207-.900390625.900390625-.900390625s.900390625.403137207.900390625.900390625-.403137207.900390625-.900390625.900390625-.900390625-.403137207-.900390625-.900390625ZM66.671081543,65.5959472656c0-.497253418.403137207-.900390625.900390625-.900390625s.900390625.403137207.900390625.900390625-.403137207.900390625-.900390625.900390625-.900390625-.403137207-.900390625-.900390625ZM79.1376953125,46.6890869141l-23.236328125,23.2358398438v53.46484375h58.275390625V46.6890869141h-35.0390625ZM67.2509155273,62.8177490234c.1001586914.0384521484.2068481445.0646972656.3205566406.0646972656.497253418,0,.900390625-.403137207.900390625-.900390625,0-.1137084961-.0262451172-.2203369141-.0646972656-.3204956055l.9075927734-.9075927734c.1651611328.1927490234.4018554688.3215332031.6755981445.3215332031.4973144531,0,.900390625-.403137207.900390625-.900390625,0-.2737426758-.1287231445-.5104980469-.321472168-.6756591797l.9718017578-.9718017578c.0777587891.4181518555.4274902344.7409057617.8682250977.7409057617.497253418,0,.900390625-.403137207.900390625-.900390625,0-.4407348633-.3226928711-.7904052734-.7408447266-.8681640625l5.6899414062-5.6898803711v17.2359008789h-.1444091797c-.0795288086-.416015625-.4281616211-.7365722656-.8673095703-.7365722656s-.7877807617.3205566406-.8673095703.7365722656h-3.1031494141c-.0795288086-.416015625-.4281616211-.7365722656-.8673095703-.7365722656-.4392089844,0-.7877807617.3205566406-.8673095703.7365722656h-3.1032104492c-.0795288086-.416015625-.4281616211-.7365722656-.8673095703-.7365722656s-.7877807617.3205566406-.8673095703.7365722656h-3.1031494141c-.0795288086-.416015625-.4281616211-.7365722656-.8673095703-.7365722656-.4392089844,0-.7877807617.3205566406-.8673095703.7365722656h-.8438720703l6.2283935547-6.2282714844ZM111.1767578125,120.3897705078h-52.275390625v-48.34375h22.357421875v-22.3569335938h29.91796875v70.7006835938ZM101.9422607422,102.142578125c0,.4973144531-.403137207.900390625-.900390625.900390625s-.900390625-.4030761719-.900390625-.900390625c0-.497253418.403137207-.900390625.900390625-.900390625s.900390625.403137207.900390625.900390625ZM101.9422607422,98.5286865234c0,.497253418-.403137207.900390625-.900390625.900390625s-.900390625-.403137207-.900390625-.900390625.403137207-.900390625.900390625-.900390625.900390625.403137207.900390625.900390625ZM100.1414794922,91.3009033203c0-.4973144531.403137207-.900390625.900390625-.900390625s.900390625.4030761719.900390625.900390625c0,.497253418-.403137207.900390625-.900390625.900390625s-.900390625-.403137207-.900390625-.900390625ZM97.1044921875,102.142578125c0,.4973144531-.403137207.900390625-.900390625.900390625-.4973144531,0-.900390625-.4030761719-.900390625-.900390625,0-.497253418.4030761719-.900390625.900390625-.900390625.497253418,0,.900390625.403137207.900390625.900390625ZM97.7225952148,89.4939575195c0-.4973144531.403137207-.900390625.900390625-.900390625s.900390625.4030761719.900390625.900390625c0,.497253418-.403137207.900390625-.900390625.900390625s-.900390625-.403137207-.900390625-.900390625ZM92.2666625977,102.142578125c0,.4973144531-.403137207.900390625-.900390625.900390625s-.900390625-.4030761719-.900390625-.900390625c0-.497253418.403137207-.900390625.900390625-.900390625s.900390625.403137207.900390625.900390625ZM88.0469970703,100.3356323242c0-.497253418.403137207-.900390625.900390625-.900390625s.900390625.403137207.900390625.900390625-.403137207.900390625-.900390625.900390625-.900390625-.403137207-.900390625-.900390625ZM88.0469970703,93.1078491211c0-.497253418.403137207-.900390625.900390625-.900390625s.900390625.403137207.900390625.900390625-.403137207.900390625-.900390625.900390625-.900390625-.403137207-.900390625-.900390625ZM92.884765625,89.4939575195c0-.4973144531.403137207-.900390625.900390625-.900390625.4973144531,0,.900390625.4030761719.900390625.900390625,0,.497253418-.4030761719.900390625-.900390625.900390625-.497253418,0-.900390625-.403137207-.900390625-.900390625ZM85.628112793,98.5286865234c0-.497253418.4030761719-.900390625.900390625-.900390625.497253418,0,.900390625.403137207.900390625.900390625s-.403137207.900390625-.900390625.900390625c-.4973144531,0-.900390625-.403137207-.900390625-.900390625ZM83.2091674805,96.7217407227c0-.497253418.403137207-.900390625.900390625-.900390625.4973144531,0,.900390625.403137207.900390625.900390625s-.4030761719.900390625-.900390625.900390625c-.497253418,0-.900390625-.403137207-.900390625-.900390625ZM85.628112793,94.9147949219c0-.497253418.4030761719-.900390625.900390625-.900390625.497253418,0,.900390625.403137207.900390625.900390625s-.403137207.900390625-.900390625.900390625c-.4973144531,0-.900390625-.403137207-.900390625-.900390625ZM83.2091674805,93.1078491211c0-.497253418.403137207-.900390625.900390625-.900390625.4973144531,0,.900390625.403137207.900390625.900390625s-.4030761719.900390625-.900390625.900390625c-.497253418,0-.900390625-.403137207-.900390625-.900390625ZM88.0469970703,89.4939575195c0-.4973144531.403137207-.900390625.900390625-.900390625s.900390625.4030761719.900390625.900390625c0,.497253418-.403137207.900390625-.900390625.900390625s-.900390625-.403137207-.900390625-.900390625ZM85.628112793,91.3009033203c0-.4973144531.4030761719-.900390625.900390625-.900390625.497253418,0,.900390625.4030761719.900390625.900390625,0,.497253418-.403137207.900390625-.900390625.900390625-.4973144531,0-.900390625-.403137207-.900390625-.900390625ZM78.3713989258,96.7217407227c0-.497253418.403137207-.900390625.900390625-.900390625s.900390625.403137207.900390625.900390625-.403137207.900390625-.900390625.900390625-.900390625-.403137207-.900390625-.900390625ZM80.7902832031,94.9147949219c0-.497253418.403137207-.900390625.900390625-.900390625s.900390625.403137207.900390625.900390625-.403137207.900390625-.900390625.900390625-.900390625-.403137207-.900390625-.900390625ZM78.3713989258,93.1078491211c0-.497253418.403137207-.900390625.900390625-.900390625s.900390625.403137207.900390625.900390625-.403137207.900390625-.900390625.900390625-.900390625-.403137207-.900390625-.900390625ZM83.2091674805,89.4939575195c0-.4973144531.403137207-.900390625.900390625-.900390625.4973144531,0,.900390625.4030761719.900390625.900390625,0,.497253418-.4030761719.900390625-.900390625.900390625-.497253418,0-.900390625-.403137207-.900390625-.900390625ZM80.7902832031,91.3009033203c0-.4973144531.403137207-.900390625.900390625-.900390625s.900390625.4030761719.900390625.900390625c0,.497253418-.403137207.900390625-.900390625.900390625s-.900390625-.403137207-.900390625-.900390625ZM73.5335693359,96.7217407227c0-.497253418.403137207-.900390625.900390625-.900390625.4973144531,0,.900390625.403137207.900390625.900390625s-.4030761719.900390625-.900390625.900390625c-.497253418,0-.900390625-.403137207-.900390625-.900390625ZM75.9525146484,94.9147949219c0-.497253418.4030761719-.900390625.900390625-.900390625.497253418,0,.900390625.403137207.900390625.900390625s-.403137207.900390625-.900390625.900390625c-.4973144531,0-.900390625-.403137207-.900390625-.900390625ZM73.5335693359,93.1078491211c0-.497253418.403137207-.900390625.900390625-.900390625.4973144531,0,.900390625.403137207.900390625.900390625s-.4030761719.900390625-.900390625.900390625c-.497253418,0-.900390625-.403137207-.900390625-.900390625ZM78.3713989258,89.4939575195c0-.4973144531.403137207-.900390625.900390625-.900390625s.900390625.4030761719.900390625.900390625c0,.497253418-.403137207.900390625-.900390625.900390625s-.900390625-.403137207-.900390625-.900390625ZM75.9525146484,91.3009033203c0-.4973144531.4030761719-.900390625.900390625-.900390625.497253418,0,.900390625.4030761719.900390625.900390625,0,.497253418-.403137207.900390625-.900390625.900390625-.4973144531,0-.900390625-.403137207-.900390625-.900390625ZM68.6958007812,96.7217407227c0-.497253418.403137207-.900390625.900390625-.900390625s.900390625.403137207.900390625.900390625-.403137207.900390625-.900390625.900390625-.900390625-.403137207-.900390625-.900390625ZM71.1146850586,94.9147949219c0-.497253418.403137207-.900390625.900390625-.900390625s.900390625.403137207.900390625.900390625-.403137207.900390625-.900390625.900390625-.900390625-.403137207-.900390625-.900390625ZM73.5335693359,89.4939575195c0-.4973144531.403137207-.900390625.900390625-.900390625.4973144531,0,.900390625.4030761719.900390625.900390625,0,.497253418-.4030761719.900390625-.900390625.900390625-.497253418,0-.900390625-.403137207-.900390625-.900390625ZM71.1146850586,91.3009033203c0-.4973144531.403137207-.900390625.900390625-.900390625s.900390625.4030761719.900390625.900390625c0,.497253418-.403137207.900390625-.900390625.900390625s-.900390625-.403137207-.900390625-.900390625ZM68.6958007812,93.1078491211c0-.497253418.403137207-.900390625.900390625-.900390625s.900390625.403137207.900390625.900390625-.403137207.900390625-.900390625.900390625-.900390625-.403137207-.900390625-.900390625ZM68.6958007812,89.4939575195c0-.4973144531.403137207-.900390625.900390625-.900390625s.900390625.4030761719.900390625.900390625c0,.497253418-.403137207.900390625-.900390625.900390625s-.900390625-.403137207-.900390625-.900390625ZM105.271484375,85.5025634766h-40.8291015625v28.4985351562h40.8291015625v-9.3349609375l.0703125-3.65234375-.0703125.0698242188v-15.5810546875ZM102.28515625,111.0147705078h-34.85546875v-5.8544921875c1.1474609375-1.048828125,4.7612304688-3.9150390625,9.982421875-3.9150390625,3.3354492188,0,6.404296875,1.6240234375,9.3720703125,3.193359375,2.9609375,1.5654296875,6.021484375,3.1845703125,9.359375,3.1845703125,2.849609375,0,4.8095703125-.2978515625,6.1416015625-.666015625v4.0576171875ZM102.28515625,103.8030395508c-.5024414062.2068481445-1.4215698242.4898071289-2.9473266602.667175293.108581543-.1487426758.185546875-.3224487305.185546875-.520690918,0-.497253418-.403137207-.900390625-.900390625-.900390625s-.900390625.403137207-.900390625.900390625c0,.2482910156.1007080078.4729614258.2631835938.6358032227-.5549926758.0322265625-1.1651611328.0515136719-1.8422241211.0515136719-.5435180664,0-1.0879516602-.0720214844-1.6337890625-.1810302734.1024169922-.1461181641.17578125-.3142700195.17578125-.5062866211,0-.497253418-.4030761719-.900390625-.900390625-.900390625-.497253418,0-.900390625.403137207-.900390625.900390625,0,.0212402344.0106201172.0390014648.0120849609.0598754883-1.5389404297-.5387573242-3.1011352539-1.3569946289-4.7161865234-2.2114257812-1.0485839844-.5547485352-2.1119384766-1.1093139648-3.2016601562-1.6157836914-.0752563477-.4212036133-.426574707-.7469482422-.8694458008-.7469482422-.1818237305,0-.3413085938.0673217773-.4828491211.1600341797-.4185180664-.1693725586-.8431396484-.3248291016-1.2730102539-.4689941406.143737793-.1595458984.2373657227-.3659667969.2373657227-.5975952148,0-.497253418-.403137207-.900390625-.900390625-.900390625s-.900390625.403137207-.900390625.900390625c0,.0559082031.0220336914.1045532227.0317993164.1576538086-1-.2393188477-2.0360717773-.3887939453-3.1201171875-.4118041992-.1113891602-.3708496094-.4419555664-.6462402344-.8490600586-.6462402344-.4219970703,0-.7599487305.2963867188-.8575439453.6880493164-1.1299438477.0917358398-2.1755371094.2970581055-3.1509399414.5632324219.045715332-.1078491211.0710449219-.2263793945.0710449219-.3508911133,0-.497253418-.403137207-.900390625-.900390625-.900390625s-.900390625.403137207-.900390625.900390625c0,.3247680664.1812133789.5965576172.4390869141.7548828125-.4397583008.1571044922-.8630981445.3232421875-1.2631225586.501159668-.1649169922-.2077636719-.4085693359-.3494873047-.6944580078-.3494873047-.497253418,0-.900390625.403137207-.900390625.900390625,0,.080871582.0260009766.1534423828.0460205078.2279663086-.4412231445.2483520508-.8572387695.4992675781-1.2274169922.7466430664-.0262451172-.0106811523-.0573120117-.008972168-.0847167969-.0170898438v-1.9150390625c.3717041016-.1107788086.6480102539-.4417114258.6480102539-.8494262695s-.2763061523-.7386474609-.6480102539-.8494262695v-1.9150390625c.3717041016-.1107788086.6480102539-.4417114258.6480102539-.8494262695s-.2763061523-.7386474609-.6480102539-.8494262695v-1.9150390625c.3717041016-.1107788086.6480102539-.4417114258.6480102539-.8494262695,0-.4077758789-.2763061523-.7386474609-.6480102539-.8494262695v-1.962097168h34.85546875v15.313659668ZM88.9473876953,97.6221313477c.2883911133,0,.5336303711-.1444091797.698425293-.3553466797.474609375,1.8161010742,1.8668212891,3.2639160156,3.6541748047,3.8076782227.1420288086.0936279297.3023681641.1615600586.485168457.1615600586.0368041992,0,.0681762695-.0166625977.1038208008-.0209350586.3187255859.0587768555.645690918.0936279297.9811401367.0936279297,1.0589599609,0,2.0447387695-.310546875,2.8795776367-.8389282227.067199707.430847168.4236450195.7662353516.8732910156.7662353516.497253418,0,.900390625-.403137207.900390625-.900390625,0-.3984375-.2630615234-.7255859375-.6217651367-.8441772461.8514404297-.9555664062,1.3737792969-2.2104492188,1.3737792969-3.5880126953,0-.2015991211-.0131225586-.4000244141-.0347290039-.5959472656.1467895508.2979736328.4465942383.5076904297.8012084961.5076904297.497253418,0,.900390625-.403137207.900390625-.900390625s-.403137207-.900390625-.900390625-.900390625c-.4590454102,0-.8231201172.3485717773-.8786621094.7926025391-.1228637695-.5938720703-.3480224609-1.1493530273-.6487426758-1.655090332.000793457-.0154418945.0089111328-.0284423828.0089111328-.0440673828,0-.4187011719-.2916870117-.7548828125-.678894043-.8556518555-.5047607422-.5491333008-1.1182861328-.9956054688-1.8102416992-1.2994384766-.1361694336-.3243408203-.4563598633-.5522460938-.8301391602-.5522460938-.1873168945,0-.3513793945.0706176758-.4954833984.1685180664-.2739868164-.04296875-.5526123047-.0718383789-.8385009766-.0718383789-.9534912109,0-1.8486938477.2504272461-2.6272583008.6857299805-.0601196289-.4389038086-.4211425781-.782409668-.8765869141-.782409668-.497253418,0-.900390625.4030761719-.900390625.900390625,0,.3703613281.2244262695.6874389648.5440063477.8256835938-.9542236328.9754638672-1.5450439453,2.3079223633-1.5450439453,3.7768554688,0,.0354003906.0046386719.0696411133.0053100586.1048583984-.1491088867-.1094970703-.3236083984-.1869506836-.5227661133-.1869506836-.497253418,0-.900390625.403137207-.900390625.900390625s.403137207.900390625.900390625.900390625ZM94.8701171875,93.5128173828c1.3173828125,0,2.3896484375,1.072265625,2.3896484375,2.390625,0,1.3173828125-1.072265625,2.3896484375-2.3896484375,2.3896484375s-2.3896484375-1.072265625-2.3896484375-2.3896484375c0-1.318359375,1.072265625-2.390625,2.3896484375-2.390625Z"/></svg>