<?xml version="1.0" encoding="UTF-8"?><svg id="symbole_neu_2026" xmlns="http://www.w3.org/2000/svg" viewBox="0 0 170.0787353516 170.0787353516"><defs><style>.cls-1{fill:#1d1d1b;}</style></defs><circle class="cls-1" cx="74.8280029297" cy="63.7890014648" r=".900390625"/><circle class="cls-1" cx="74.8280029297" cy="67.4028930664" r=".900390625"/><circle class="cls-1" cx="72.4091186523" cy="61.9820556641" r=".900390625"/><circle class="cls-1" cx="74.8280029297" cy="60.1751098633" r=".900390625"/><circle class="cls-1" cx="77.246887207" cy="65.5959472656" r=".900390625"/><circle class="cls-1" cx="77.246887207" cy="54.7542114258" r=".900390625"/><circle class="cls-1" cx="77.246887207" cy="58.3681640625" r=".900390625"/><path class="cls-1" d="M74.8280029297,57.4615478516c.497253418,0,.900390625-.4030761719.900390625-.900390625,0-.497253418-.403137207-.9003295898-.900390625-.9003295898s-.900390625.4030761719-.900390625.9003295898c0,.4973144531.403137207.900390625.900390625.900390625Z"/><circle class="cls-1" cx="69.990234375" cy="63.7890014648" r=".900390625"/><circle class="cls-1" cx="77.246887207" cy="61.9820556641" r=".900390625"/><circle class="cls-1" cx="72.4091186523" cy="65.5959472656" r=".900390625"/><path class="cls-1" d="M99.7479248047,57.2818603516c0-1.9189453125-1.55859375-3.3681640625-3.6376953125-3.3681640625h-2.6083984375v6.7958984375h2.6083984375c2.0791015625,0,3.6376953125-1.46875,3.6376953125-3.427734375ZM94.8612060547,55.1729736328h1.2490234375c1.2489624023,0,2.2587890625.939453125,2.2587890625,2.1088867188,0,1.208984375-1.009765625,2.1689453125-2.2587890625,2.1689453125h-1.2490234375v-4.2778320312Z"/><circle class="cls-1" cx="69.990234375" cy="67.4028930664" r=".900390625"/><path class="cls-1" d="M88.5506591797,58.8111572266h1.0595703125c1.7490234375,0,2.908203125-1,2.908203125-2.5185546875,0-1.4296875-1.0791015625-2.37890625-2.7080078125-2.37890625h-2.619140625v6.7958984375h1.359375v-1.8984375ZM88.5506591797,55.1627197266h1.208984375c.849609375,0,1.419921875.4599609375,1.419921875,1.1298828125,0,.7592773438-.5703125,1.2690429688-1.419921875,1.2690429688h-1.208984375v-2.3989257812Z"/><rect class="cls-1" x="65.0688476562" y="89.7471923828" width="39.9428710938" height="3"/><path class="cls-1" d="M79.1376953125,46.6890869141l-23.236328125,23.2358398438v53.46484375h58.275390625V46.6890869141h-35.0390625ZM67.251159668,62.8178100586c.1000366211.0383911133.2065429688.0646362305.3201293945.0646362305.4973144531,0,.900390625-.403137207.900390625-.900390625,0-.1135864258-.0262451172-.2200927734-.0646362305-.3201293945l.9077148438-.9077148438c.1651000977.1926269531.4017944336.3212890625.6754760742.3212890625.497253418,0,.900390625-.403137207.900390625-.900390625,0-.2736206055-.1286621094-.5103149414-.3212890625-.6754760742l.9716796875-.9716796875c.0778808594.41796875.4274902344.7406005859.8681030273.7406005859.497253418,0,.900390625-.403137207.900390625-.900390625,0-.440612793-.3226318359-.790222168-.7406005859-.8681030273l5.6898803711-5.6898803711v17.2358398438h-.1445922852c-.0795288086-.416015625-.4281005859-.7365722656-.8673095703-.7365722656-.4391479492,0-.7877807617.3205566406-.8673095703.7365722656h-3.1031494141c-.0795288086-.416015625-.4281616211-.7365722656-.8673095703-.7365722656-.4392089844,0-.7877807617.3205566406-.8673095703.7365722656h-3.1032104492c-.0795288086-.416015625-.4281005859-.7365722656-.8673095703-.7365722656-.4391479492,0-.7877807617.3205566406-.8673095703.7365722656h-3.1031494141c-.0795288086-.416015625-.4281616211-.7365722656-.8673095703-.7365722656-.4392089844,0-.7877807617.3205566406-.8673095703.7365722656h-.8432617188l6.2282104492-6.2282104492ZM111.1767578125,120.3897705078h-52.275390625v-48.34375h22.357421875v-22.3569335938h29.91796875v70.7006835938Z"/><polygon class="cls-1" points="102.4910888672 58.1812744141 105.6091918945 58.1812744141 105.6091918945 56.9219970703 102.4910888672 56.9219970703 102.4910888672 55.1729736328 106.0584106445 55.1729736328 106.0584106445 53.9136962891 101.131652832 53.9136962891 101.131652832 60.7095947266 102.4910888672 60.7095947266 102.4910888672 58.1812744141"/><circle class="cls-1" cx="65.1524047852" cy="67.4028930664" r=".900390625"/><circle class="cls-1" cx="67.5712890625" cy="65.5959472656" r=".900390625"/><polygon class="cls-1" points="68.1420898438 108.1719970703 68.1420898438 101.9591064453 93.48046875 101.9591064453 93.48046875 98.9591064453 65.1420898438 98.9591064453 65.1420898438 111.1719970703 93.48046875 111.1719970703 93.48046875 108.1719970703 68.1420898438 108.1719970703"/><polygon class="cls-1" points="93.4814453125 98.9591064453 97.74609375 98.9591064453 97.74609375 111.1563720703 93.48046875 111.1719970703 93.48046875 114.1563720703 105.01171875 114.1563720703 105.01171875 111.1563720703 100.74609375 111.1563720703 100.74609375 98.9591064453 105.01171875 98.9591064453 105.01171875 95.9591064453 93.4814453125 95.9591064453 93.4814453125 98.9591064453"/></svg>