<?xml version="1.0" encoding="UTF-8"?><svg id="symbole_neu_2026" xmlns="http://www.w3.org/2000/svg" viewBox="0 0 170.0787353516 170.0787353516"><defs><style>.cls-1{fill:#1d1d1b;}</style></defs><path class="cls-1" d="M116.6279296875,94.9686889648c-.497253418,0-.900390625-.4030761719-.900390625-.900390625,0-.497253418.403137207-.900390625.900390625-.900390625.4973144531,0,.900390625.403137207.900390625.900390625,0,.4973144531-.4030761719.900390625-.900390625.900390625ZM111.7901611328,98.5825805664c.497253418,0,.900390625-.4030761719.900390625-.900390625,0-.497253418-.403137207-.900390625-.900390625-.900390625s-.900390625.403137207-.900390625.900390625c0,.4973144531.403137207.900390625.900390625.900390625ZM114.2090454102,96.7756347656c.4973144531,0,.900390625-.4030761719.900390625-.900390625,0-.497253418-.4030761719-.900390625-.900390625-.900390625-.497253418,0-.900390625.403137207-.900390625.900390625,0,.4973144531.403137207.900390625.900390625.900390625ZM111.7901611328,94.9686889648c.497253418,0,.900390625-.4030761719.900390625-.900390625,0-.497253418-.403137207-.900390625-.900390625-.900390625s-.900390625.403137207-.900390625.900390625c0,.4973144531.403137207.900390625.900390625.900390625ZM114.2090454102,93.1617431641c.4973144531,0,.900390625-.403137207.900390625-.900390625s-.4030761719-.900390625-.900390625-.900390625c-.497253418,0-.900390625.403137207-.900390625.900390625s.403137207.900390625.900390625.900390625ZM109.3712768555,100.3895263672c.497253418,0,.900390625-.4030761719.900390625-.900390625,0-.497253418-.403137207-.900390625-.900390625-.900390625-.4973144531,0-.900390625.403137207-.900390625.900390625,0,.4973144531.4030761719.900390625.900390625.900390625ZM106.952331543,98.5825805664c.4973144531,0,.900390625-.4030761719.900390625-.900390625,0-.497253418-.4030761719-.900390625-.900390625-.900390625-.497253418,0-.900390625.403137207-.900390625.900390625,0,.4973144531.403137207.900390625.900390625.900390625ZM109.3712768555,96.7756347656c.497253418,0,.900390625-.4030761719.900390625-.900390625,0-.497253418-.403137207-.900390625-.900390625-.900390625-.4973144531,0-.900390625.403137207-.900390625.900390625,0,.4973144531.4030761719.900390625.900390625.900390625ZM106.952331543,94.9686889648c.4973144531,0,.900390625-.4030761719.900390625-.900390625,0-.497253418-.4030761719-.900390625-.900390625-.900390625-.497253418,0-.900390625.403137207-.900390625.900390625,0,.4973144531.403137207.900390625.900390625.900390625ZM109.3712768555,93.1617431641c.497253418,0,.900390625-.403137207.900390625-.900390625s-.403137207-.900390625-.900390625-.900390625c-.4973144531,0-.900390625.403137207-.900390625.900390625s.4030761719.900390625.900390625.900390625ZM111.7901611328,91.3547973633c.497253418,0,.900390625-.403137207.900390625-.900390625s-.403137207-.900390625-.900390625-.900390625-.900390625.403137207-.900390625.900390625.403137207.900390625.900390625.900390625ZM106.952331543,91.3547973633c.4973144531,0,.900390625-.403137207.900390625-.900390625s-.4030761719-.900390625-.900390625-.900390625c-.497253418,0-.900390625.403137207-.900390625.900390625s.403137207.900390625.900390625.900390625ZM109.3712768555,89.5478515625c.497253418,0,.900390625-.403137207.900390625-.900390625s-.403137207-.900390625-.900390625-.900390625c-.4973144531,0-.900390625.403137207-.900390625.900390625s.4030761719.900390625.900390625.900390625ZM102.1145629883,100.3957519531c-.497253418,0-.900390625.4030761719-.900390625.9003295898,0,.4973144531.403137207.900390625.900390625.900390625s.900390625-.4030761719.900390625-.900390625c0-.497253418-.403137207-.9003295898-.900390625-.9003295898ZM104.5334472656,100.3895263672c.497253418,0,.900390625-.4030761719.900390625-.900390625,0-.497253418-.403137207-.900390625-.900390625-.900390625s-.900390625.403137207-.900390625.900390625c0,.4973144531.403137207.900390625.900390625.900390625ZM102.1145629883,96.7817993164c-.497253418,0-.900390625.403137207-.900390625.900390625,0,.4973144531.403137207.900390625.900390625.900390625s.900390625-.4030761719.900390625-.900390625c0-.497253418-.403137207-.900390625-.900390625-.900390625ZM104.5334472656,96.7756347656c.497253418,0,.900390625-.4030761719.900390625-.900390625,0-.497253418-.403137207-.900390625-.900390625-.900390625s-.900390625.403137207-.900390625.900390625c0,.4973144531.403137207.900390625.900390625.900390625ZM102.1145629883,93.1679077148c-.497253418,0-.900390625.403137207-.900390625.900390625,0,.4973144531.403137207.900390625.900390625.900390625s.900390625-.4030761719.900390625-.900390625c0-.497253418-.403137207-.900390625-.900390625-.900390625ZM104.5334472656,93.1617431641c.497253418,0,.900390625-.403137207.900390625-.900390625s-.403137207-.900390625-.900390625-.900390625-.900390625.403137207-.900390625.900390625.403137207.900390625.900390625.900390625ZM102.1145629883,89.5540161133c-.497253418,0-.900390625.403137207-.900390625.900390625s.403137207.900390625.900390625.900390625.900390625-.403137207.900390625-.900390625-.403137207-.900390625-.900390625-.900390625ZM106.952331543,87.7409057617c.4973144531,0,.900390625-.403137207.900390625-.900390625s-.4030761719-.900390625-.900390625-.900390625c-.497253418,0-.900390625.403137207-.900390625.900390625s.403137207.900390625.900390625.900390625ZM104.5334472656,89.5478515625c.497253418,0,.900390625-.403137207.900390625-.900390625s-.403137207-.900390625-.900390625-.900390625-.900390625.403137207-.900390625.900390625.403137207.900390625.900390625.900390625ZM102.1145629883,85.9401245117c-.497253418,0-.900390625.403137207-.900390625.900390625s.403137207.900390625.900390625.900390625.900390625-.403137207.900390625-.900390625-.403137207-.900390625-.900390625-.900390625ZM104.5334472656,85.9339599609c.497253418,0,.900390625-.403137207.900390625-.900390625s-.403137207-.900390625-.900390625-.900390625-.900390625.403137207-.900390625.900390625.403137207.900390625.900390625.900390625ZM97.2767333984,104.0096435547c-.497253418,0-.900390625.4030761719-.900390625.900390625,0,.497253418.403137207.900390625.900390625.900390625.4973144531,0,.900390625-.403137207.900390625-.900390625,0-.4973144531-.4030761719-.900390625-.900390625-.900390625ZM99.6956787109,102.2026977539c-.4973144531,0-.900390625.4030761719-.900390625.900390625,0,.497253418.4030761719.900390625.900390625.900390625.497253418,0,.900390625-.403137207.900390625-.900390625,0-.4973144531-.403137207-.900390625-.900390625-.900390625ZM97.2767333984,100.3957519531c-.497253418,0-.900390625.4030761719-.900390625.9003295898,0,.4973144531.403137207.900390625.900390625.900390625.4973144531,0,.900390625-.4030761719.900390625-.900390625,0-.497253418-.4030761719-.9003295898-.900390625-.9003295898ZM99.6956787109,98.5887451172c-.4973144531,0-.900390625.403137207-.900390625.900390625,0,.4973144531.4030761719.900390625.900390625.900390625.497253418,0,.900390625-.4030761719.900390625-.900390625,0-.497253418-.403137207-.900390625-.900390625-.900390625ZM97.2767333984,96.7817993164c-.497253418,0-.900390625.403137207-.900390625.900390625,0,.4973144531.403137207.900390625.900390625.900390625.4973144531,0,.900390625-.4030761719.900390625-.900390625,0-.497253418-.4030761719-.900390625-.900390625-.900390625ZM99.6956787109,94.9748535156c-.4973144531,0-.900390625.403137207-.900390625.900390625,0,.4973144531.4030761719.900390625.900390625.900390625.497253418,0,.900390625-.4030761719.900390625-.900390625,0-.497253418-.403137207-.900390625-.900390625-.900390625ZM99.6956787109,91.3609619141c-.4973144531,0-.900390625.403137207-.900390625.900390625s.4030761719.900390625.900390625.900390625c.497253418,0,.900390625-.403137207.900390625-.900390625s-.403137207-.900390625-.900390625-.900390625ZM97.2767333984,89.5540161133c-.497253418,0-.900390625.403137207-.900390625.900390625s.403137207.900390625.900390625.900390625c.4973144531,0,.900390625-.403137207.900390625-.900390625s-.4030761719-.900390625-.900390625-.900390625ZM99.6956787109,87.7470703125c-.4973144531,0-.900390625.403137207-.900390625.900390625s.4030761719.900390625.900390625.900390625c.497253418,0,.900390625-.403137207.900390625-.900390625s-.403137207-.900390625-.900390625-.900390625ZM97.2767333984,85.9401245117c-.497253418,0-.900390625.403137207-.900390625.900390625s.403137207.900390625.900390625.900390625c.4973144531,0,.900390625-.403137207.900390625-.900390625s-.4030761719-.900390625-.900390625-.900390625ZM99.6956787109,84.1331787109c-.4973144531,0-.900390625.403137207-.900390625.900390625s.4030761719.900390625.900390625.900390625c.497253418,0,.900390625-.403137207.900390625-.900390625s-.403137207-.900390625-.900390625-.900390625ZM92.4389648438,107.6235351562c-.497253418,0-.900390625.4030761719-.900390625.900390625,0,.497253418.403137207.900390625.900390625.900390625s.900390625-.403137207.900390625-.900390625c0-.4973144531-.403137207-.900390625-.900390625-.900390625ZM94.8578491211,105.8165893555c-.497253418,0-.900390625.4030761719-.900390625.900390625,0,.497253418.403137207.900390625.900390625.900390625s.900390625-.403137207.900390625-.900390625c0-.4973144531-.403137207-.900390625-.900390625-.900390625ZM92.4389648438,104.0096435547c-.497253418,0-.900390625.4030761719-.900390625.900390625,0,.497253418.403137207.900390625.900390625.900390625s.900390625-.403137207.900390625-.900390625c0-.4973144531-.403137207-.900390625-.900390625-.900390625ZM94.8578491211,102.2026977539c-.497253418,0-.900390625.4030761719-.900390625.900390625,0,.497253418.403137207.900390625.900390625.900390625s.900390625-.403137207.900390625-.900390625c0-.4973144531-.403137207-.900390625-.900390625-.900390625ZM92.4389648438,100.3957519531c-.497253418,0-.900390625.4030761719-.900390625.9003295898,0,.4973144531.403137207.900390625.900390625.900390625s.900390625-.4030761719.900390625-.900390625c0-.497253418-.403137207-.9003295898-.900390625-.9003295898ZM94.8578491211,98.5887451172c-.497253418,0-.900390625.403137207-.900390625.900390625,0,.4973144531.403137207.900390625.900390625.900390625s.900390625-.4030761719.900390625-.900390625c0-.497253418-.403137207-.900390625-.900390625-.900390625ZM92.4389648438,96.7817993164c-.497253418,0-.900390625.403137207-.900390625.900390625,0,.4973144531.403137207.900390625.900390625.900390625s.900390625-.4030761719.900390625-.900390625c0-.497253418-.403137207-.900390625-.900390625-.900390625ZM97.2767333984,93.1679077148c-.497253418,0-.900390625.403137207-.900390625.900390625,0,.4973144531.403137207.900390625.900390625.900390625.4973144531,0,.900390625-.4030761719.900390625-.900390625,0-.497253418-.4030761719-.900390625-.900390625-.900390625ZM94.8578491211,94.9748535156c-.497253418,0-.900390625.403137207-.900390625.900390625,0,.4973144531.403137207.900390625.900390625.900390625s.900390625-.4030761719.900390625-.900390625c0-.497253418-.403137207-.900390625-.900390625-.900390625ZM94.8578491211,91.3609619141c-.497253418,0-.900390625.403137207-.900390625.900390625s.403137207.900390625.900390625.900390625.900390625-.403137207.900390625-.900390625-.403137207-.900390625-.900390625-.900390625ZM92.4389648438,89.5540161133c-.497253418,0-.900390625.403137207-.900390625.900390625s.403137207.900390625.900390625.900390625.900390625-.403137207.900390625-.900390625-.403137207-.900390625-.900390625-.900390625ZM94.8578491211,87.7470703125c-.497253418,0-.900390625.403137207-.900390625.900390625s.403137207.900390625.900390625.900390625.900390625-.403137207.900390625-.900390625-.403137207-.900390625-.900390625-.900390625ZM97.2767333984,82.3262329102c-.497253418,0-.900390625.403137207-.900390625.900390625s.403137207.900390625.900390625.900390625c.4973144531,0,.900390625-.403137207.900390625-.900390625s-.4030761719-.900390625-.900390625-.900390625ZM94.8578491211,84.1331787109c-.497253418,0-.900390625.403137207-.900390625.900390625s.403137207.900390625.900390625.900390625.900390625-.403137207.900390625-.900390625-.403137207-.900390625-.900390625-.900390625ZM87.6011352539,107.6235351562c-.497253418,0-.900390625.4030761719-.900390625.900390625,0,.497253418.403137207.900390625.900390625.900390625.4973144531,0,.900390625-.403137207.900390625-.900390625,0-.4973144531-.4030761719-.900390625-.900390625-.900390625ZM90.0200805664,105.8165893555c-.4973144531,0-.900390625.4030761719-.900390625.900390625,0,.497253418.4030761719.900390625.900390625.900390625.497253418,0,.900390625-.403137207.900390625-.900390625,0-.4973144531-.403137207-.900390625-.900390625-.900390625ZM87.6011352539,104.0096435547c-.497253418,0-.900390625.4030761719-.900390625.900390625,0,.497253418.403137207.900390625.900390625.900390625.4973144531,0,.900390625-.403137207.900390625-.900390625,0-.4973144531-.4030761719-.900390625-.900390625-.900390625ZM90.0200805664,102.2026977539c-.4973144531,0-.900390625.4030761719-.900390625.900390625,0,.497253418.4030761719.900390625.900390625.900390625.497253418,0,.900390625-.403137207.900390625-.900390625,0-.4973144531-.403137207-.900390625-.900390625-.900390625ZM87.6011352539,100.3957519531c-.497253418,0-.900390625.4030761719-.900390625.9003295898,0,.4973144531.403137207.900390625.900390625.900390625.4973144531,0,.900390625-.4030761719.900390625-.900390625,0-.497253418-.4030761719-.9003295898-.900390625-.9003295898ZM90.0200805664,98.5887451172c-.4973144531,0-.900390625.403137207-.900390625.900390625,0,.4973144531.4030761719.900390625.900390625.900390625.497253418,0,.900390625-.4030761719.900390625-.900390625,0-.497253418-.403137207-.900390625-.900390625-.900390625ZM87.6011352539,96.7817993164c-.497253418,0-.900390625.403137207-.900390625.900390625,0,.4973144531.403137207.900390625.900390625.900390625.4973144531,0,.900390625-.4030761719.900390625-.900390625,0-.497253418-.4030761719-.900390625-.900390625-.900390625ZM92.4389648438,93.1679077148c-.497253418,0-.900390625.403137207-.900390625.900390625,0,.4973144531.403137207.900390625.900390625.900390625s.900390625-.4030761719.900390625-.900390625c0-.497253418-.403137207-.900390625-.900390625-.900390625ZM90.0200805664,94.9748535156c-.4973144531,0-.900390625.403137207-.900390625.900390625,0,.4973144531.4030761719.900390625.900390625.900390625.497253418,0,.900390625-.4030761719.900390625-.900390625,0-.497253418-.403137207-.900390625-.900390625-.900390625ZM87.6011352539,93.1679077148c-.497253418,0-.900390625.403137207-.900390625.900390625,0,.4973144531.403137207.900390625.900390625.900390625.4973144531,0,.900390625-.4030761719.900390625-.900390625,0-.497253418-.4030761719-.900390625-.900390625-.900390625ZM90.0200805664,91.3609619141c-.4973144531,0-.900390625.403137207-.900390625.900390625s.4030761719.900390625.900390625.900390625c.497253418,0,.900390625-.403137207.900390625-.900390625s-.403137207-.900390625-.900390625-.900390625ZM92.4389648438,85.9401245117c-.497253418,0-.900390625.403137207-.900390625.900390625s.403137207.900390625.900390625.900390625.900390625-.403137207.900390625-.900390625-.403137207-.900390625-.900390625-.900390625ZM90.0200805664,87.7470703125c-.4973144531,0-.900390625.403137207-.900390625.900390625s.4030761719.900390625.900390625.900390625c.497253418,0,.900390625-.403137207.900390625-.900390625s-.403137207-.900390625-.900390625-.900390625ZM90.0200805664,84.1331787109c-.4973144531,0-.900390625.403137207-.900390625.900390625s.4030761719.900390625.900390625.900390625c.497253418,0,.900390625-.403137207.900390625-.900390625s-.403137207-.900390625-.900390625-.900390625ZM92.4389648438,82.3262329102c-.497253418,0-.900390625.403137207-.900390625.900390625s.403137207.900390625.900390625.900390625.900390625-.403137207.900390625-.900390625-.403137207-.900390625-.900390625-.900390625ZM85.1822509766,109.430480957c-.497253418,0-.900390625.403137207-.900390625.900390625s.403137207.900390625.900390625.900390625.900390625-.403137207.900390625-.900390625-.403137207-.900390625-.900390625-.900390625ZM82.7633666992,107.6235351562c-.497253418,0-.900390625.4030761719-.900390625.900390625,0,.497253418.403137207.900390625.900390625.900390625s.900390625-.403137207.900390625-.900390625c0-.4973144531-.403137207-.900390625-.900390625-.900390625ZM85.1822509766,105.8165893555c-.497253418,0-.900390625.4030761719-.900390625.900390625,0,.497253418.403137207.900390625.900390625.900390625s.900390625-.403137207.900390625-.900390625c0-.4973144531-.403137207-.900390625-.900390625-.900390625ZM82.7633666992,104.0096435547c-.497253418,0-.900390625.4030761719-.900390625.900390625,0,.497253418.403137207.900390625.900390625.900390625s.900390625-.403137207.900390625-.900390625c0-.4973144531-.403137207-.900390625-.900390625-.900390625ZM85.1822509766,102.2026977539c-.497253418,0-.900390625.4030761719-.900390625.900390625,0,.497253418.403137207.900390625.900390625.900390625s.900390625-.403137207.900390625-.900390625c0-.4973144531-.403137207-.900390625-.900390625-.900390625ZM82.7633666992,100.3957519531c-.497253418,0-.900390625.4030761719-.900390625.9003295898,0,.4973144531.403137207.900390625.900390625.900390625s.900390625-.4030761719.900390625-.900390625c0-.497253418-.403137207-.9003295898-.900390625-.9003295898ZM85.1822509766,98.5887451172c-.497253418,0-.900390625.403137207-.900390625.900390625,0,.4973144531.403137207.900390625.900390625.900390625s.900390625-.4030761719.900390625-.900390625c0-.497253418-.403137207-.900390625-.900390625-.900390625ZM82.7633666992,96.7817993164c-.497253418,0-.900390625.403137207-.900390625.900390625,0,.4973144531.403137207.900390625.900390625.900390625s.900390625-.4030761719.900390625-.900390625c0-.497253418-.403137207-.900390625-.900390625-.900390625ZM85.1822509766,94.9748535156c-.497253418,0-.900390625.403137207-.900390625.900390625,0,.4973144531.403137207.900390625.900390625.900390625s.900390625-.4030761719.900390625-.900390625c0-.497253418-.403137207-.900390625-.900390625-.900390625ZM82.7633666992,93.1679077148c-.497253418,0-.900390625.403137207-.900390625.900390625,0,.4973144531.403137207.900390625.900390625.900390625s.900390625-.4030761719.900390625-.900390625c0-.497253418-.403137207-.900390625-.900390625-.900390625ZM87.6011352539,89.5540161133c-.497253418,0-.900390625.403137207-.900390625.900390625s.403137207.900390625.900390625.900390625c.4973144531,0,.900390625-.403137207.900390625-.900390625s-.4030761719-.900390625-.900390625-.900390625ZM85.1822509766,91.3609619141c-.497253418,0-.900390625.403137207-.900390625.900390625s.403137207.900390625.900390625.900390625.900390625-.403137207.900390625-.900390625-.403137207-.900390625-.900390625-.900390625ZM82.7633666992,89.5540161133c-.497253418,0-.900390625.403137207-.900390625.900390625s.403137207.900390625.900390625.900390625.900390625-.403137207.900390625-.900390625-.403137207-.900390625-.900390625-.900390625ZM85.1822509766,87.7470703125c-.497253418,0-.900390625.403137207-.900390625.900390625s.403137207.900390625.900390625.900390625.900390625-.403137207.900390625-.900390625-.403137207-.900390625-.900390625-.900390625ZM87.6011352539,85.9401245117c-.497253418,0-.900390625.403137207-.900390625.900390625s.403137207.900390625.900390625.900390625c.4973144531,0,.900390625-.403137207.900390625-.900390625s-.4030761719-.900390625-.900390625-.900390625ZM82.7633666992,85.9401245117c-.497253418,0-.900390625.403137207-.900390625.900390625s.403137207.900390625.900390625.900390625.900390625-.403137207.900390625-.900390625-.403137207-.900390625-.900390625-.900390625ZM80.3444824219,109.430480957c-.4973144531,0-.900390625.403137207-.900390625.900390625s.4030761719.900390625.900390625.900390625c.497253418,0,.900390625-.403137207.900390625-.900390625s-.403137207-.900390625-.900390625-.900390625ZM80.3444824219,105.8165893555c-.4973144531,0-.900390625.4030761719-.900390625.900390625,0,.497253418.4030761719.900390625.900390625.900390625.497253418,0,.900390625-.403137207.900390625-.900390625,0-.4973144531-.403137207-.900390625-.900390625-.900390625ZM77.9255371094,104.0096435547c-.497253418,0-.900390625.4030761719-.900390625.900390625,0,.497253418.403137207.900390625.900390625.900390625.4973144531,0,.900390625-.403137207.900390625-.900390625,0-.4973144531-.4030761719-.900390625-.900390625-.900390625ZM80.3444824219,102.2026977539c-.4973144531,0-.900390625.4030761719-.900390625.900390625,0,.497253418.4030761719.900390625.900390625.900390625.497253418,0,.900390625-.403137207.900390625-.900390625,0-.4973144531-.403137207-.900390625-.900390625-.900390625ZM77.9255371094,100.3957519531c-.497253418,0-.900390625.4030761719-.900390625.9003295898,0,.4973144531.403137207.900390625.900390625.900390625.4973144531,0,.900390625-.4030761719.900390625-.900390625,0-.497253418-.4030761719-.9003295898-.900390625-.9003295898ZM80.3444824219,98.5887451172c-.4973144531,0-.900390625.403137207-.900390625.900390625,0,.4973144531.4030761719.900390625.900390625.900390625.497253418,0,.900390625-.4030761719.900390625-.900390625,0-.497253418-.403137207-.900390625-.900390625-.900390625ZM77.9255371094,96.7817993164c-.497253418,0-.900390625.403137207-.900390625.900390625,0,.4973144531.403137207.900390625.900390625.900390625.4973144531,0,.900390625-.4030761719.900390625-.900390625,0-.497253418-.4030761719-.900390625-.900390625-.900390625ZM80.3444824219,94.9748535156c-.4973144531,0-.900390625.403137207-.900390625.900390625,0,.4973144531.4030761719.900390625.900390625.900390625.497253418,0,.900390625-.4030761719.900390625-.900390625,0-.497253418-.403137207-.900390625-.900390625-.900390625ZM77.9255371094,93.1679077148c-.497253418,0-.900390625.403137207-.900390625.900390625,0,.4973144531.403137207.900390625.900390625.900390625.4973144531,0,.900390625-.4030761719.900390625-.900390625,0-.497253418-.4030761719-.900390625-.900390625-.900390625ZM80.3444824219,91.3609619141c-.4973144531,0-.900390625.403137207-.900390625.900390625s.4030761719.900390625.900390625.900390625c.497253418,0,.900390625-.403137207.900390625-.900390625s-.403137207-.900390625-.900390625-.900390625ZM80.3444824219,87.7470703125c-.4973144531,0-.900390625.403137207-.900390625.900390625s.4030761719.900390625.900390625.900390625c.497253418,0,.900390625-.403137207.900390625-.900390625s-.403137207-.900390625-.900390625-.900390625ZM77.9255371094,85.9401245117c-.497253418,0-.900390625.403137207-.900390625.900390625s.403137207.900390625.900390625.900390625c.4973144531,0,.900390625-.403137207.900390625-.900390625s-.4030761719-.900390625-.900390625-.900390625ZM80.3444824219,84.1331787109c-.4973144531,0-.900390625.403137207-.900390625.900390625s.4030761719.900390625.900390625.900390625c.497253418,0,.900390625-.403137207.900390625-.900390625s-.403137207-.900390625-.900390625-.900390625ZM77.9255371094,107.6235351562c-.497253418,0-.900390625.4030761719-.900390625.900390625,0,.497253418.403137207.900390625.900390625.900390625.4973144531,0,.900390625-.403137207.900390625-.900390625,0-.4973144531-.4030761719-.900390625-.900390625-.900390625ZM75.506652832,105.8165893555c-.497253418,0-.900390625.4030761719-.900390625.900390625,0,.497253418.403137207.900390625.900390625.900390625s.900390625-.403137207.900390625-.900390625c0-.4973144531-.403137207-.900390625-.900390625-.900390625ZM73.0877685547,104.0096435547c-.497253418,0-.900390625.4030761719-.900390625.900390625,0,.497253418.403137207.900390625.900390625.900390625s.900390625-.403137207.900390625-.900390625c0-.4973144531-.403137207-.900390625-.900390625-.900390625ZM75.506652832,102.2026977539c-.497253418,0-.900390625.4030761719-.900390625.900390625,0,.497253418.403137207.900390625.900390625.900390625s.900390625-.403137207.900390625-.900390625c0-.4973144531-.403137207-.900390625-.900390625-.900390625ZM73.0877685547,100.3957519531c-.497253418,0-.900390625.4030761719-.900390625.9003295898,0,.4973144531.403137207.900390625.900390625.900390625s.900390625-.4030761719.900390625-.900390625c0-.497253418-.403137207-.9003295898-.900390625-.9003295898ZM75.506652832,98.5887451172c-.497253418,0-.900390625.403137207-.900390625.900390625,0,.4973144531.403137207.900390625.900390625.900390625s.900390625-.4030761719.900390625-.900390625c0-.497253418-.403137207-.900390625-.900390625-.900390625ZM75.506652832,94.9748535156c-.497253418,0-.900390625.403137207-.900390625.900390625,0,.4973144531.403137207.900390625.900390625.900390625s.900390625-.4030761719.900390625-.900390625c0-.497253418-.403137207-.900390625-.900390625-.900390625ZM73.0877685547,93.1679077148c-.497253418,0-.900390625.403137207-.900390625.900390625,0,.4973144531.403137207.900390625.900390625.900390625s.900390625-.4030761719.900390625-.900390625c0-.497253418-.403137207-.900390625-.900390625-.900390625ZM77.9255371094,89.5540161133c-.497253418,0-.900390625.403137207-.900390625.900390625s.403137207.900390625.900390625.900390625c.4973144531,0,.900390625-.403137207.900390625-.900390625s-.4030761719-.900390625-.900390625-.900390625ZM75.506652832,91.3609619141c-.497253418,0-.900390625.403137207-.900390625.900390625s.403137207.900390625.900390625.900390625.900390625-.403137207.900390625-.900390625-.403137207-.900390625-.900390625-.900390625ZM75.506652832,87.7470703125c-.497253418,0-.900390625.403137207-.900390625.900390625s.403137207.900390625.900390625.900390625.900390625-.403137207.900390625-.900390625-.403137207-.900390625-.900390625-.900390625ZM75.506652832,84.1331787109c-.497253418,0-.900390625.403137207-.900390625.900390625s.403137207.900390625.900390625.900390625.900390625-.403137207.900390625-.900390625-.403137207-.900390625-.900390625-.900390625ZM77.9255371094,82.3262329102c-.497253418,0-.900390625.403137207-.900390625.900390625s.403137207.900390625.900390625.900390625c.4973144531,0,.900390625-.403137207.900390625-.900390625s-.4030761719-.900390625-.900390625-.900390625ZM73.0877685547,82.3262329102c-.497253418,0-.900390625.403137207-.900390625.900390625s.403137207.900390625.900390625.900390625.900390625-.403137207.900390625-.900390625-.403137207-.900390625-.900390625-.900390625ZM70.6688842773,102.2026977539c-.4973144531,0-.900390625.4030761719-.900390625.900390625,0,.497253418.4030761719.900390625.900390625.900390625.497253418,0,.900390625-.403137207.900390625-.900390625,0-.4973144531-.403137207-.900390625-.900390625-.900390625ZM68.2499389648,100.3957519531c-.497253418,0-.900390625.4030761719-.900390625.9003295898,0,.4973144531.403137207.900390625.900390625.900390625.4973144531,0,.900390625-.4030761719.900390625-.900390625,0-.497253418-.4030761719-.9003295898-.900390625-.9003295898ZM73.0877685547,96.7817993164c-.497253418,0-.900390625.403137207-.900390625.900390625,0,.4973144531.403137207.900390625.900390625.900390625s.900390625-.4030761719.900390625-.900390625c0-.497253418-.403137207-.900390625-.900390625-.900390625ZM70.6688842773,98.5887451172c-.4973144531,0-.900390625.403137207-.900390625.900390625,0,.4973144531.4030761719.900390625.900390625.900390625.497253418,0,.900390625-.4030761719.900390625-.900390625,0-.497253418-.403137207-.900390625-.900390625-.900390625ZM68.2499389648,96.7817993164c-.497253418,0-.900390625.403137207-.900390625.900390625,0,.4973144531.403137207.900390625.900390625.900390625.4973144531,0,.900390625-.4030761719.900390625-.900390625,0-.497253418-.4030761719-.900390625-.900390625-.900390625ZM70.6688842773,94.9748535156c-.4973144531,0-.900390625.403137207-.900390625.900390625,0,.4973144531.4030761719.900390625.900390625.900390625.497253418,0,.900390625-.4030761719.900390625-.900390625,0-.497253418-.403137207-.900390625-.900390625-.900390625ZM73.0877685547,89.5540161133c-.497253418,0-.900390625.403137207-.900390625.900390625s.403137207.900390625.900390625.900390625.900390625-.403137207.900390625-.900390625-.403137207-.900390625-.900390625-.900390625ZM70.6688842773,91.3609619141c-.4973144531,0-.900390625.403137207-.900390625.900390625s.4030761719.900390625.900390625.900390625c.497253418,0,.900390625-.403137207.900390625-.900390625s-.403137207-.900390625-.900390625-.900390625ZM73.0877685547,85.9401245117c-.497253418,0-.900390625.403137207-.900390625.900390625s.403137207.900390625.900390625.900390625.900390625-.403137207.900390625-.900390625-.403137207-.900390625-.900390625-.900390625ZM70.6688842773,87.7470703125c-.4973144531,0-.900390625.403137207-.900390625.900390625s.4030761719.900390625.900390625.900390625c.497253418,0,.900390625-.403137207.900390625-.900390625s-.403137207-.900390625-.900390625-.900390625ZM70.6688842773,84.1331787109c-.4973144531,0-.900390625.403137207-.900390625.900390625s.4030761719.900390625.900390625.900390625c.497253418,0,.900390625-.403137207.900390625-.900390625s-.403137207-.900390625-.900390625-.900390625ZM65.8310546875,98.5887451172c-.497253418,0-.900390625.403137207-.900390625.900390625,0,.4973144531.403137207.900390625.900390625.900390625s.900390625-.4030761719.900390625-.900390625c0-.497253418-.403137207-.900390625-.900390625-.900390625ZM68.2499389648,93.1679077148c-.497253418,0-.900390625.403137207-.900390625.900390625,0,.4973144531.403137207.900390625.900390625.900390625.4973144531,0,.900390625-.4030761719.900390625-.900390625,0-.497253418-.4030761719-.900390625-.900390625-.900390625ZM65.8310546875,94.9748535156c-.497253418,0-.900390625.403137207-.900390625.900390625,0,.4973144531.403137207.900390625.900390625.900390625s.900390625-.4030761719.900390625-.900390625c0-.497253418-.403137207-.900390625-.900390625-.900390625ZM63.4121704102,93.1679077148c-.497253418,0-.900390625.403137207-.900390625.900390625,0,.4973144531.403137207.900390625.900390625.900390625s.900390625-.4030761719.900390625-.900390625c0-.497253418-.403137207-.900390625-.900390625-.900390625ZM68.2499389648,89.5540161133c-.497253418,0-.900390625.403137207-.900390625.900390625s.403137207.900390625.900390625.900390625c.4973144531,0,.900390625-.403137207.900390625-.900390625s-.4030761719-.900390625-.900390625-.900390625ZM65.8310546875,91.3609619141c-.497253418,0-.900390625.403137207-.900390625.900390625s.403137207.900390625.900390625.900390625.900390625-.403137207.900390625-.900390625-.403137207-.900390625-.900390625-.900390625ZM65.8310546875,87.7470703125c-.497253418,0-.900390625.403137207-.900390625.900390625s.403137207.900390625.900390625.900390625.900390625-.403137207.900390625-.900390625-.403137207-.900390625-.900390625-.900390625ZM68.2499389648,85.9401245117c-.497253418,0-.900390625.403137207-.900390625.900390625s.403137207.900390625.900390625.900390625c.4973144531,0,.900390625-.403137207.900390625-.900390625s-.4030761719-.900390625-.900390625-.900390625ZM68.2499389648,82.3262329102c-.497253418,0-.900390625.403137207-.900390625.900390625s.403137207.900390625.900390625.900390625c.4973144531,0,.900390625-.403137207.900390625-.900390625s-.4030761719-.900390625-.900390625-.900390625ZM65.8310546875,84.1331787109c-.497253418,0-.900390625.403137207-.900390625.900390625s.403137207.900390625.900390625.900390625.900390625-.403137207.900390625-.900390625-.403137207-.900390625-.900390625-.900390625ZM63.4121704102,96.7817993164c-.497253418,0-.900390625.403137207-.900390625.900390625,0,.4973144531.403137207.900390625.900390625.900390625s.900390625-.4030761719.900390625-.900390625c0-.497253418-.403137207-.900390625-.900390625-.900390625ZM60.9932861328,94.9748535156c-.4973144531,0-.900390625.403137207-.900390625.900390625,0,.4973144531.4030761719.900390625.900390625.900390625.497253418,0,.900390625-.4030761719.900390625-.900390625,0-.497253418-.403137207-.900390625-.900390625-.900390625ZM58.5743408203,93.1679077148c-.497253418,0-.900390625.403137207-.900390625.900390625,0,.4973144531.403137207.900390625.900390625.900390625.4973144531,0,.900390625-.4030761719.900390625-.900390625,0-.497253418-.4030761719-.900390625-.900390625-.900390625ZM63.4121704102,89.5540161133c-.497253418,0-.900390625.403137207-.900390625.900390625s.403137207.900390625.900390625.900390625.900390625-.403137207.900390625-.900390625-.403137207-.900390625-.900390625-.900390625ZM60.9932861328,91.3609619141c-.4973144531,0-.900390625.403137207-.900390625.900390625s.4030761719.900390625.900390625.900390625c.497253418,0,.900390625-.403137207.900390625-.900390625s-.403137207-.900390625-.900390625-.900390625ZM63.4121704102,85.9401245117c-.497253418,0-.900390625.403137207-.900390625.900390625s.403137207.900390625.900390625.900390625.900390625-.403137207.900390625-.900390625-.403137207-.900390625-.900390625-.900390625ZM60.9932861328,87.7470703125c-.4973144531,0-.900390625.403137207-.900390625.900390625s.4030761719.900390625.900390625.900390625c.497253418,0,.900390625-.403137207.900390625-.900390625s-.403137207-.900390625-.900390625-.900390625ZM58.5743408203,96.7817993164c-.497253418,0-.900390625.403137207-.900390625.900390625,0,.4973144531.403137207.900390625.900390625.900390625.4973144531,0,.900390625-.4030761719.900390625-.900390625,0-.497253418-.4030761719-.900390625-.900390625-.900390625ZM56.155456543,94.9748535156c-.497253418,0-.900390625.403137207-.900390625.900390625,0,.4973144531.403137207.900390625.900390625.900390625s.900390625-.4030761719.900390625-.900390625c0-.497253418-.403137207-.900390625-.900390625-.900390625ZM53.7365722656,93.1679077148c-.4973144531,0-.900390625.403137207-.900390625.900390625,0,.4973144531.4030761719.900390625.900390625.900390625.497253418,0,.900390625-.4030761719.900390625-.900390625,0-.497253418-.403137207-.900390625-.900390625-.900390625ZM56.155456543,91.3609619141c-.497253418,0-.900390625.403137207-.900390625.900390625s.403137207.900390625.900390625.900390625.900390625-.403137207.900390625-.900390625-.403137207-.900390625-.900390625-.900390625ZM58.5743408203,89.5540161133c-.497253418,0-.900390625.403137207-.900390625.900390625s.403137207.900390625.900390625.900390625c.4973144531,0,.900390625-.403137207.900390625-.900390625s-.4030761719-.900390625-.900390625-.900390625ZM107.9700317383,82.1971435547h-5.9429931641l.2909545898.1701660156c-.0672607422-.0160522461-.1312866211-.0410766602-.2034301758-.0410766602-.497253418,0-.900390625.403137207-.900390625.900390625s.403137207.900390625.900390625.900390625.900390625-.403137207.900390625-.900390625c0-.2266235352-.0913696289-.427734375-.2295532227-.5859985352l10.5570068359,6.1740722656c.080871582.4142456055.4287109375.7331542969.8666381836.7331542969.1020507812,0,.1962280273-.0267944336.2876586914-.0580444336l1.2750244141.7456665039c-.0184936523.0718994141-.0441894531.1412963867-.0441894531.2189331055,0,.497253418.403137207.900390625.900390625.900390625.2426147461,0,.4608764648-.0983886719.6228027344-.2543945312l1.0850830078.6345825195c-.1110229492.1497192383-.1893310547.3256835938-.1893310547.5263671875,0,.497253418.4030761719.900390625.900390625.900390625.3653564453,0,.6768188477-.2197875977.8179321289-.5325317383l1.1536865234.6746826172c-.2659301758.1564941406-.453125.4335327148-.453125.7644042969,0,.0830078125.026184082.1576538086.0472412109.2340087891l-1.3052368164.7250976562c-.0839233398-.0258789062-.1680908203-.0525512695-.2604980469-.0525512695-.4162597656,0-.751159668.2882080078-.8542480469.671875l-10.3614501953,5.7561035156c.0045166016-.0366210938.0215454102-.0689086914.0215454102-.1067504883,0-.497253418-.4030761719-.9003295898-.900390625-.9003295898-.497253418,0-.900390625.4030761719-.900390625.9003295898,0,.3588256836.213684082.6630859375.5173950195.8077392578l-1.2023925781.6679077148c-.1323242188-.3325805664-.4537963867-.5690307617-.8334960938-.5690307617-.497253418,0-.900390625.4030761719-.900390625.900390625,0,.2008056641.0783691406.3768310547.1895141602.5266113281l-1.1107177734.6170654297c-.1595458984-.1436157227-.3657836914-.237121582-.5972900391-.237121582-.497253418,0-.900390625.4030761719-.900390625.900390625,0,.0538330078.0216064453.1005249023.0306396484.1517333984l-1.4095458984.7830200195c-.0473632812-.0076904297-.0900878906-.0281982422-.1395874023-.0281982422-.3796386719,0-.7010498047.236328125-.8334350586.5687255859l-8.1798706055,4.5441894531c.1442260742-.1596679688.2380981445-.3665161133.2380981445-.5986328125,0-.497253418-.403137207-.900390625-.900390625-.900390625-.4973144531,0-.900390625.403137207-.900390625.900390625s.4030761719.900390625.900390625.900390625c.0663452148,0,.1248168945-.0241699219.1870727539-.0377807617l-1.7063598633.9479370117c0-.0012817383.0007324219-.0023193359.0007324219-.0036010742,0-.497253418-.4030761719-.900390625-.900390625-.900390625-.497253418,0-.900390625.403137207-.900390625.900390625,0,.3264770508.182800293.5996704102.4429321289.7575073242l-1.1661987305.6478881836c-.1486816406-.2927246094-.4444580078-.498840332-.7952270508-.498840332-.4496459961,0-.8060302734.3353881836-.8732910156.7661743164l-1.3980712891-.8021240234c.4241943359-.0728759766.7528686523-.4256591797.7528686523-.8706054688,0-.497253418-.403137207-.900390625-.900390625-.900390625s-.900390625.403137207-.900390625.900390625c0,.1080932617.0266113281.2086791992.0615234375.3046875l-10.4044189453-5.9691772461c-.1080932617-.3760986328-.4403686523-.6567382812-.8511962891-.6567382812-.0770263672,0-.1457519531.0256347656-.2171020508.0438232422l-1.3383178711-.7678222656c.0130004883-.0609130859.0368652344-.1177978516.0368652344-.1825561523,0-.4973144531-.4030761719-.900390625-.900390625-.900390625-.2341918945,0-.4432983398.0947265625-.603515625.2413330078l-1.098449707-.6302490234c.1072998047-.1481933594.1834716797-.3206787109.1834716797-.5176391602,0-.4973144531-.403137207-.900390625-.900390625-.900390625-.3669433594,0-.6800537109.2211914062-.8203125.5360717773l-1.1655883789-.6687011719c.274230957-.154296875.4674072266-.4368286133.4674072266-.7739868164,0-.497253418-.403137207-.9003295898-.900390625-.9003295898s-.900390625.4030761719-.900390625.9003295898c0,.0036010742.0020141602.0065917969.0020751953.0101928711l-1.6399536133-.9408569336c.0407714844.0056762695.0770263672.0241088867.1193847656.0241088867.497253418,0,.900390625-.4030761719.900390625-.900390625,0-.497253418-.403137207-.900390625-.900390625-.900390625-.4973144531,0-.900390625.403137207-.900390625.900390625,0,.208190918.0823364258.3909912109.2009277344.5434570312l-8.3289794922-4.7784423828c-.1076049805-.1121826172-.2465820312-.1846313477-.3997802734-.2293701172l-1.7788696289-1.0205688477c-.0345458984-.4657592773-.4128417969-.8363037109-.8874511719-.8363037109-.1435546875,0-.2743530273.0408935547-.3948364258.1006469727l-.130859375-.0750732422,2.0982055664-1.1994628906c-.0271606445.0858154297-.0539550781.1724853516-.0539550781.2673339844,0,.497253418.4030761719.900390625.900390625.900390625.497253418,0,.900390625-.403137207.900390625-.900390625,0-.4288330078-.3060913086-.7708129883-.7075805664-.8614501953l1.3596191406-.7772827148c.081237793.4137573242.4288330078.7321777344.8664550781.7321777344.497253418,0,.900390625-.403137207.900390625-.900390625,0-.267578125-.1220092773-.501159668-.3073730469-.6660766602l1.1036987305-.6309814453c.1630859375.2303466797.4184570312.3905029297.7221679688.3905029297.497253418,0,.900390625-.403137207.900390625-.900390625,0-.1326904297-.0321655273-.2563476562-.0837402344-.3697509766l1.1650390625-.666015625c.1313476562.0748901367.2752075195.1292114258.4371948242.1292114258.4946899414,0,.8946533203-.3994750977.8989257812-.8930664062l1.6414794922-.9384155273c.2354125977-.033203125.4357299805-.1505737305.5758666992-.3291625977l5.91796875-3.3831176758h-6.044921875l-19.227722168,10.9924316406,14.2350463867,8.1665649414-14.2345581055,8.1381225586,42.533203125,24.4013671875,42.8833007812-23.82421875-14.2973632812-8.3616333008,14.2973632812-7.9430541992-19.7828979492-11.5695800781ZM43.8916015625,75.0279541016h-4.2065429688v3h4.2065429688v-3ZM121.8564453125,78.0279541016v-3h-8.6630859375v3h8.6630859375ZM56.8857421875,78.0279541016v-3h-8.6625976562v3h8.6625976562ZM67.5179443359,75.0279541016l-25.1815185547-14.447265625,42.6938476562-24.4077148438,42.72265625,24.9858398438-24.9642944336,13.869140625h6.0736694336v3h-8.6630859375v-1.5614013672l-11.7451171875,6.5250854492c.0211791992.0765991211.0474243164.1516113281.0474243164.2349853516,0,.497253418-.4030761719.900390625-.900390625.900390625-.2625732422,0-.4937133789-.1164550781-.6582641602-.2957763672l-1.0951538086.6083984375c.1419677734.1591796875.2349243164.3638916016.2349243164.5939331055,0,.497253418-.403137207.900390625-.900390625.900390625s-.900390625-.403137207-.900390625-.900390625c0-.1232910156.0252685547-.2405395508.0701293945-.3475341797l-1.1735839844-.6732788086c-.125793457.0667724609-.2626953125.1142578125-.4150390625.1142578125-.4846191406,0-.8734741211-.3850708008-.8931884766-.8648681641l-11.9902954102-6.8790893555v1.6448974609h-8.6625976562v-3h6.3006591797ZM84.8930664062,81.5377197266l36.8032226562-20.4462890625-36.6826171875-21.4526367188-36.6411132812,20.9467773438,36.5205078125,20.9521484375ZM126.1875,75.0279541016v3h4.2060546875v-3h-4.2060546875Z"/></svg>