<?xml version="1.0" encoding="UTF-8"?><svg id="symbole_neu_2026" xmlns="http://www.w3.org/2000/svg" viewBox="0 0 170.0787353515625 170.0787353515625"><defs><style>.cls-1{fill:#1d1d1b;}</style></defs><path class="cls-1" d="M113.46038818359375,104.11749267578125c0-.497314453125.403076171875-.900390625.900390625-.900390625.49725341796875,0,.900390625.403076171875.900390625.900390625,0,.49725341796875-.40313720703125.900390625-.900390625.900390625-.497314453125,0-.900390625-.40313720703125-.900390625-.900390625ZM109.52294921875,119.47344970703125c.49725341796875,0,.900390625-.40313720703125.900390625-.900390625s-.40313720703125-.900390625-.900390625-.900390625-.900390625.40313720703125-.900390625.900390625.40313720703125.900390625.900390625.900390625ZM107.10406494140625,103.2109375c.49725341796875,0,.900390625-.40313720703125.900390625-.900390625,0-.497314453125-.40313720703125-.900390625-.900390625-.900390625s-.900390625.403076171875-.900390625.900390625c0,.49725341796875.40313720703125.900390625.900390625.900390625ZM104.6851806640625,117.67266845703125c-.497314453125,0-.900390625.40313720703125-.900390625.900390625s.403076171875.900390625.900390625.900390625c.49725341796875,0,.900390625-.40313720703125.900390625-.900390625s-.40313720703125-.900390625-.900390625-.900390625ZM102.2662353515625,115.86572265625c-.49725341796875,0-.900390625.40313720703125-.900390625.900390625s.40313720703125.900390625.900390625.900390625c.497314453125,0,.900390625-.40313720703125.900390625-.900390625s-.403076171875-.900390625-.900390625-.900390625ZM104.6851806640625,105.01788330078125c.49725341796875,0,.900390625-.40313720703125.900390625-.900390625,0-.497314453125-.40313720703125-.900390625-.900390625-.900390625-.497314453125,0-.900390625.403076171875-.900390625.900390625,0,.49725341796875.403076171875.900390625.900390625.900390625ZM102.2662353515625,106.8248291015625c.497314453125,0,.900390625-.40313720703125.900390625-.900390625,0-.497314453125-.403076171875-.900390625-.900390625-.900390625-.49725341796875,0-.900390625.403076171875-.900390625.900390625,0,.49725341796875.40313720703125.900390625.900390625.900390625ZM99.84735107421875,110.44488525390625c-.49725341796875,0-.900390625.40313720703125-.900390625.900390625s.40313720703125.900390625.900390625.900390625.900390625-.40313720703125.900390625-.900390625-.40313720703125-.900390625-.900390625-.900390625ZM69.69921875,106.3233642578125l-2.5185546875,2.646484375c-4.48193359375,4.708984375-10.447265625,7.3017578125-16.7958984375,7.3017578125-6.34912109375,0-12.314453125-2.5927734375-16.79638671875-7.3017578125l-2.5185546875-2.646484375,2.5185546875-2.6455078125c4.48193359375-4.708984375,10.447265625-7.302734375,16.79638671875-7.302734375,6.3486328125,0,12.31396484375,2.59375,16.7958984375,7.302734375l2.5185546875,2.6455078125ZM65.5576171875,106.3233642578125l-.5498046875-.5771484375c-3.91064453125-4.1083984375-9.103515625-6.37109375-14.623046875-6.37109375-5.52001953125,0-10.712890625,2.2626953125-14.62353515625,6.37109375l-.5498046875.5771484375.5498046875.578125c3.91015625,4.1083984375,9.103515625,6.3701171875,14.62353515625,6.3701171875,5.51953125,0,10.712890625-2.26171875,14.623046875-6.3701171875l.5498046875-.578125ZM51.4693603515625,106.83099365234375c-.49725341796875,0-.900390625.403076171875-.900390625.900390625,0,.49725341796875.40313720703125.900390625.900390625.900390625s.900390625-.40313720703125.900390625-.900390625c0-.497314453125-.40313720703125-.900390625-.900390625-.900390625ZM51.4693603515625,103.21710205078125c-.49725341796875,0-.900390625.403076171875-.900390625.900390625,0,.49725341796875.40313720703125.900390625.900390625.900390625s.900390625-.40313720703125.900390625-.900390625c0-.497314453125-.40313720703125-.900390625-.900390625-.900390625ZM49.05047607421875,105.0240478515625c-.497314453125,0-.900390625.403076171875-.900390625.900390625,0,.49725341796875.403076171875.900390625.900390625.900390625.49725341796875,0,.900390625-.40313720703125.900390625-.900390625,0-.497314453125-.40313720703125-.900390625-.900390625-.900390625ZM56.84521484375,106.3233642578125c0,3.5625-2.8984375,6.4609375-6.4609375,6.4609375s-6.46044921875-2.8984375-6.46044921875-6.4609375,2.89794921875-6.4609375,6.46044921875-6.4609375,6.4609375,2.8984375,6.4609375,6.4609375ZM53.79638671875,106.8062744140625c-.451904296875-.04815673828125-.80853271484375-.41717529296875-.80853271484375-.8818359375,0-.3968505859375.26080322265625-.72332763671875.6171875-.84326171875-.501220703125-1.29449462890625-1.75152587890625-2.21875-3.22076416015625-2.21875-.23516845703125,0-.46466064453125.0245361328125-.68682861328125.0694580078125-.16387939453125.17071533203125-.39166259765625.279052734375-.64697265625.279052734375-.039306640625,0-.07281494140625-.0174560546875-.11077880859375-.0223388671875-1.18634033203125.5494384765625-2.015869140625,1.74371337890625-2.015869140625,3.134765625,0,.1981201171875.02642822265625.3895263671875.05853271484375.57861328125.32293701171875.13677978515625.549560546875.45654296875.549560546875.82940673828125,0,.13885498046875-.03717041015625.2664794921875-.09332275390625.3839111328125.2261962890625.37042236328125.51837158203125.69158935546875.86248779296875.9534912109375.1593017578125-.253173828125.4281005859375-.43084716796875.7493896484375-.43084716796875.49725341796875,0,.900390625.40313720703125.900390625.900390625,0,.07025146484375-.0247802734375.1324462890625-.03997802734375.1981201171875.15625.02166748046875.311279296875.0478515625.473388671875.0478515625,1.74285888671875,0,3.17449951171875-1.2996826171875,3.412109375-2.97802734375ZM49.05047607421875,50.7447509765625c-.497314453125,0-.900390625.403076171875-.900390625.900390625,0,.49725341796875.403076171875.900390625.900390625.900390625.49725341796875,0,.900390625-.40313720703125.900390625-.900390625,0-.497314453125-.40313720703125-.900390625-.900390625-.900390625ZM94.4970703125,70.5694580078125c-1.0667724609375,0-2.0572509765625-.3233642578125-2.88812255859375-.869873046875l-3.109375,2.6280517578125c.28546142578125.64862060546875.44964599609375,1.3619384765625.44964599609375,2.1148681640625,0,2.90869140625-2.3662109375,5.275390625-5.275390625,5.275390625-2.90869140625,0-5.275390625-2.36669921875-5.275390625-5.275390625,0-.80010986328125.1927490234375-1.551025390625.512939453125-2.23114013671875l-2.6363525390625-2.3466796875c-.76708984375.43560791015625-1.6407470703125.70477294921875-2.5841064453125.70477294921875-2.52032470703125,0-4.6275634765625-1.77947998046875-5.14703369140625-4.14617919921875l-5.79473876953125-.72613525390625c-.81787109375,1.85626220703125-2.66973876953125,3.158935546875-4.8248291015625,3.158935546875-2.90869140625,0-5.275390625-2.36669921875-5.275390625-5.275390625,0-1.3092041015625.49700927734375-2.4935302734375,1.28961181640625-3.416748046875l-2.08209228515625-3.23187255859375c-.468017578125.136474609375-.95281982421875.23260498046875-1.46435546875.23260498046875-2.90869140625,0-5.275390625-2.36669921875-5.275390625-5.275390625s2.36669921875-5.275390625,5.275390625-5.275390625c.64068603515625,0,1.2474365234375.1318359375,1.81597900390625.34197998046875l1.39361572265625-1.8638916015625c-.6556396484375-.879150390625-1.0577392578125-1.95733642578125-1.0577392578125-3.13580322265625,0-2.90869140625,2.36669921875-5.27490234375,5.275390625-5.27490234375,2.16973876953125,0,4.0352783203125,1.3182373046875,4.84442138671875,3.194580078125l4.16021728515625-.48931884765625c.430419921875-2.47918701171875,2.58404541015625-4.37469482421875,5.184326171875-4.37469482421875,2.6136474609375,0,4.7733154296875,1.9158935546875,5.18780517578125,4.41387939453125l3.30096435546875.41387939453125c.81793212890625-1.85601806640625,2.669677734375-3.1583251953125,4.82470703125-3.1583251953125,2.90869140625,0,5.27490234375,2.3662109375,5.27490234375,5.27490234375,0,.9942626953125-.292724609375,1.914794921875-.7728271484375,2.70953369140625l3.171875,3.4774169921875c.694580078125-.33721923828125,1.4638671875-.54290771484375,2.2864990234375-.54290771484375,2.9091796875,0,5.275390625,2.36669921875,5.275390625,5.275390625,0,2.502197265625-1.75531005859375,4.59332275390625-4.09674072265625,5.1317138671875l-.148681640625,2.35302734375c2.01348876953125.74365234375,3.46026611328125,2.66534423828125,3.46026611328125,4.9337158203125,0,2.90869140625-2.3662109375,5.275390625-5.275390625,5.275390625ZM52.6669921875,51.8892822265625c0-.55389404296875-.20672607421875-1.055419921875-.5367431640625-1.45037841796875-.16473388671875.18133544921875-.39666748046875.2996826171875-.660888671875.2996826171875-.49725341796875,0-.900390625-.40313720703125-.900390625-.900390625,0-.07177734375.02496337890625-.1353759765625.04083251953125-.2022705078125-.07275390625-.00701904296875-.1431884765625-.02203369140625-.21771240234375-.02203369140625-1.2548828125,0-2.275390625,1.0205078125-2.275390625,2.275390625s1.0205078125,2.275390625,2.275390625,2.275390625c.16351318359375,0,.32232666015625-.01904296875.47613525390625-.052001953125-.18109130859375-.16473388671875-.29925537109375-.39654541015625-.29925537109375-.66058349609375,0-.497314453125.40313720703125-.900390625.900390625-.900390625.378173828125,0,.6993408203125.23431396484375.8326416015625.56475830078125.2286376953125-.354736328125.364990234375-.7745361328125.364990234375-1.2271728515625ZM55.5439453125,41.9561767578125c0,.06109619140625.0133056640625.1185302734375.01806640625.17840576171875.16009521484375-.24957275390625.4266357421875-.42462158203125.7451171875-.42462158203125.497314453125,0,.900390625.40313720703125.900390625.900390625,0,.497314453125-.403076171875.900390625-.900390625.900390625-.05975341796875,0-.1119384765625-.02288818359375-.16845703125-.03399658203125.4166259765625.4600830078125,1.01239013671875.75482177734375,1.6806640625.75482177734375.01531982421875,0,.02947998046875-.00421142578125.04473876953125-.0045166015625.089599609375-.40277099609375.43218994140625-.71014404296875.86199951171875-.71014404296875.2015380859375,0,.378173828125.0787353515625.5281982421875.19061279296875.5086669921875-.4176025390625.8404541015625-1.043212890625.8404541015625-1.7513427734375,0-.54730224609375-.20220947265625-1.04339599609375-.5255126953125-1.436279296875.03045654296875.09033203125.0572509765625.18292236328125.0572509765625.28350830078125,0,.497314453125-.40313720703125.900390625-.900390625.900390625-.497314453125,0-.900390625-.403076171875-.900390625-.900390625,0-.49725341796875.403076171875-.900390625.900390625-.900390625.03204345703125,0,.05908203125.0150146484375.09027099609375.01824951171875-.3023681640625-.1488037109375-.6378173828125-.239990234375-.99700927734375-.239990234375-1.2548828125,0-2.275390625,1.0205078125-2.275390625,2.27490234375ZM60.19970703125,63.5806884765625c0-1.2548828125-1.0205078125-2.275390625-2.275390625-2.275390625s-2.275390625,1.0205078125-2.275390625,2.275390625c0,.03228759765625.0081787109375.06231689453125.009521484375.09423828125.16400146484375-.1719970703125.392333984375-.28155517578125.648681640625-.28155517578125.497314453125,0,.900390625.40313720703125.900390625.900390625,0,.492919921875-.3968505859375.8909912109375-.88818359375.89794921875.40087890625.3994140625.95037841796875.64654541015625,1.55670166015625.65948486328125.10986328125-.3731689453125.44122314453125-.65087890625.85003662109375-.65087890625.20953369140625,0,.3936767578125.0830078125.54669189453125.20306396484375.55926513671875-.4149169921875.92694091796875-1.07427978515625.92694091796875-1.82269287109375ZM61.268798828125,56.090087890625c-.72918701171875-.9049072265625-1.184326171875-2.039306640625-1.184326171875-3.2891845703125,0-1.24285888671875.45001220703125-2.37152099609375,1.171875-3.27410888671875l-1.79583740234375-2.58282470703125c-.5196533203125.17169189453125-1.064697265625.28759765625-1.64117431640625.28759765625-.64068603515625,0-1.24737548828125-.1318359375-1.81591796875-.34197998046875l-1.39385986328125,1.86407470703125c.65545654296875.879150390625,1.05743408203125,1.95721435546875,1.05743408203125,3.1356201171875,0,1.3092041015625-.4969482421875,2.49346923828125-1.2894287109375,3.41668701171875l2.08221435546875,3.23199462890625c.4681396484375-.136474609375.95294189453125-.232666015625,1.46453857421875-.232666015625.56951904296875,0,1.10797119140625.11395263671875,1.6221923828125.28173828125l1.7222900390625-2.4969482421875ZM93.0068359375,52.8756103515625c0,1.2548828125,1.0205078125,2.275390625,2.275390625,2.275390625s2.275390625-1.0205078125,2.275390625-2.275390625c0-.1195068359375-.0174560546875-.23443603515625-.0352783203125-.3489990234375-.0323486328125.0035400390625-.06060791015625.0189208984375-.0938720703125.0189208984375-.49725341796875,0-.900390625-.40313720703125-.900390625-.900390625,0-.19915771484375.07745361328125-.37359619140625.1868896484375-.522705078125-.354248046875-.2900390625-.79345703125-.4732666015625-1.27783203125-.50653076171875-.12896728515625.0712890625-.269775390625.1226806640625-.42755126953125.1226806640625-.10357666015625,0-.1993408203125-.0267333984375-.29193115234375-.05889892578125-.508544921875.13104248046875-.9459228515625.43109130859375-1.251953125.8399658203125.0062255859375.04278564453125.02532958984375.08099365234375.02532958984375.12548828125,0,.3211669921875-.1776123046875.58984375-.4306640625.749267578125-.03363037109375.15545654296875-.05352783203125.31585693359375-.05352783203125.481201171875ZM87.60833740234375,46.6884765625c-.694580078125.33734130859375-1.46392822265625.5430908203125-2.28656005859375.5430908203125-.022705078125,0-.04376220703125-.00640869140625-.06640625-.0067138671875l-1.1468505859375,3.69183349609375c.76129150390625.510986328125,1.36553955078125,1.2244873046875,1.776611328125,2.05072021484375l4.18511962890625-.71875c.09100341796875-.755615234375.3331298828125-1.45989990234375.709716796875-2.0831298828125l-3.171630859375-3.47705078125ZM83.04638671875,41.9561767578125c0,1.2548828125,1.0205078125,2.275390625,2.275390625,2.275390625,1.25439453125,0,2.27490234375-1.0205078125,2.27490234375-2.275390625,0-.0992431640625-.01690673828125-.19384765625-.029296875-.289794921875-.40521240234375-.08782958984375-.71490478515625-.43145751953125-.71490478515625-.86297607421875,0-.15118408203125.04656982421875-.28717041015625.1124267578125-.41229248046875-.3060302734375-.32110595703125-.7025146484375-.5531005859375-1.15045166015625-.6527099609375-.14105224609375.09173583984375-.2996826171875.158447265625-.48046875.158447265625-.1842041015625,0-.34564208984375-.0687255859375-.48828125-.16363525390625-.447998046875.0958251953125-.84588623046875.3240966796875-1.15386962890625.641357421875.07177734375.1292724609375.12359619140625.27044677734375.12359619140625.4288330078125,0,.44049072265625-.32244873046875.7900390625-.740234375.8680419921875-.011962890625.09429931640625-.02880859375.187255859375-.02880859375.28472900390625ZM81.1767578125,53.0230712890625c-1.2548828125,0-2.275390625,1.0205078125-2.275390625,2.27490234375,0,1.2548828125,1.0205078125,2.275390625,2.275390625,2.275390625s2.275390625-1.0205078125,2.275390625-2.275390625c0-1.25439453125-1.0205078125-2.27490234375-2.275390625-2.27490234375ZM75.9127197265625,43.802001953125l3.9189453125,6.41656494140625c.43206787109375-.11474609375.87744140625-.19549560546875,1.3450927734375-.19549560546875.0225830078125,0,.04339599609375.00634765625.06591796875.00665283203125l1.14703369140625-3.69207763671875c-1.18328857421875-.79449462890625-2.01373291015625-2.05865478515625-2.2562255859375-3.5201416015625l-3.3009033203125-.4136962890625c-.2281494140625.51788330078125-.54595947265625.983154296875-.91986083984375,1.398193359375ZM69.73291015625,40.2872314453125c0,.60711669921875.2425537109375,1.15631103515625.63153076171875,1.564697265625.1357421875-.08209228515625.285888671875-.1419677734375.45611572265625-.1419677734375.46929931640625,0,.842529296875.36309814453125.88446044921875.82147216796875.1002197265625.0135498046875.19940185546875.03070068359375.30328369140625.03070068359375,1.25439453125,0,2.27490234375-1.0205078125,2.27490234375-2.27490234375,0-1.2548828125-1.0205078125-2.275390625-2.27490234375-2.275390625-.292724609375,0-.57061767578125.06024169921875-.827880859375.16131591796875.3175048828125.13909912109375.54052734375.4544677734375.54052734375.82330322265625,0,.49725341796875-.40313720703125.900390625-.900390625.900390625-.39617919921875,0-.72247314453125-.2598876953125-.8428955078125-.615478515625-.151611328125.30462646484375-.2447509765625.64306640625-.2447509765625,1.005859375ZM61.9228515625,45.23028564453125l1.79583740234375,2.58282470703125c.5196533203125-.17169189453125,1.064697265625-.28759765625,1.64117431640625-.28759765625.35882568359375,0,.70904541015625.037353515625,1.0479736328125.10595703125l1.90618896484375-3.58782958984375c-.484375-.47625732421875-.87744140625-1.043701171875-1.150146484375-1.67608642578125l-4.16021728515625.48931884765625c-.1546630859375.89093017578125-.5380859375,1.69482421875-1.080810546875,2.3734130859375ZM65.35986328125,50.5255126953125c-1.2548828125,0-2.275390625,1.0205078125-2.275390625,2.275390625s1.0205078125,2.275390625,2.275390625,2.275390625c1.25439453125,0,2.27490234375-1.0205078125,2.27490234375-2.275390625s-1.0205078125-2.275390625-2.27490234375-2.275390625ZM75.96630859375,65.2940673828125c0-.05438232421875-.01226806640625-.1053466796875-.01605224609375-.1588134765625-.09259033203125.03216552734375-.1883544921875.05889892578125-.2918701171875.05889892578125-.08154296875,0-.15478515625-.02606201171875-.22991943359375-.04638671875-.2684326171875-.07257080078125-.49298095703125-.25103759765625-.5997314453125-.5035400390625-.04559326171875-.10772705078125-.07073974609375-.22613525390625-.07073974609375-.3504638671875s.025146484375-.24273681640625.07073974609375-.3504638671875c.0667724609375-.15802001953125.18731689453125-.27960205078125.3265380859375-.37628173828125-.33880615234375-.2877197265625-.7593994140625-.4744873046875-1.22479248046875-.52410888671875-.1650390625.2049560546875-.40740966796875.34429931640625-.6910400390625.34429931640625-.1827392578125,0-.343017578125-.06787109375-.4849853515625-.16143798828125-.4493408203125.204345703125-.81439208984375.55194091796875-1.05072021484375.98260498046875.0029296875.029541015625.0172119140625.05511474609375.0172119140625.08538818359375,0,.25091552734375-.1033935546875.4769287109375-.26898193359375.64019775390625-.01898193359375.1180419921875-.03643798828125.23681640625-.03643798828125.360107421875,0,1.2548828125,1.0205078125,2.275390625,2.275390625,2.275390625s2.275390625-1.0205078125,2.275390625-2.275390625ZM76.99761962890625,58.48040771484375c-.54296875-.7110595703125-.9014892578125-1.55755615234375-1.02581787109375-2.4857177734375l-5.8695068359375-.92657470703125c-.85125732421875,1.77227783203125-2.64849853515625,3.0081787109375-4.742431640625,3.0081787109375-.56951904296875,0-1.10797119140625-.11395263671875-1.6221923828125-.28167724609375l-1.7222900390625,2.49688720703125c.55706787109375.69134521484375.94580078125,1.51507568359375,1.09722900390625,2.427734375l5.6602783203125.70953369140625c.75689697265625-1.987548828125,2.66815185546875-3.41009521484375,4.91802978515625-3.41009521484375.67620849609375,0,1.3179931640625.13916015625,1.91265869140625.3720703125l1.39404296875-1.91033935546875ZM77.27227783203125,51.782958984375l-3.91912841796875-6.416259765625c-.4320068359375.11474609375-.87725830078125.1954345703125-1.3448486328125.1954345703125-.3587646484375,0-.7088623046875-.037353515625-1.0477294921875-.10595703125l-1.9063720703125,3.5882568359375c.8154296875.8021240234375,1.3509521484375,1.8709716796875,1.5101318359375,3.0595703125l5.86962890625.9267578125c.2197265625-.457275390625.50225830078125-.87493896484375.83831787109375-1.247802734375ZM80.90655517578125,69.971435546875c.20172119140625-.12530517578125.40838623046875-.24310302734375.626953125-.34075927734375l-1.19256591796875-9.141845703125c-.31842041015625-.05120849609375-.62396240234375-.13330078125-.92083740234375-.239013671875l-1.44830322265625,1.98504638671875c.6199951171875.86480712890625.9945068359375,1.9163818359375.9945068359375,3.0592041015625,0,.8719482421875-.23297119140625,1.68280029296875-.60919189453125,2.408203125l2.5494384765625,2.2691650390625ZM85.94921875,74.4425048828125c0-1.2548828125-1.0205078125-2.275390625-2.275390625-2.275390625s-2.275390625,1.0205078125-2.275390625,2.275390625c0,.75115966796875.37005615234375,1.41302490234375.93280029296875,1.82757568359375.15802001953125-.13714599609375.358154296875-.22802734375.58380126953125-.22802734375.41424560546875,0,.7481689453125.28546142578125.8531494140625.66632080078125.59918212890625-.02508544921875,1.13934326171875-.27703857421875,1.5318603515625-.6793212890625-.480712890625-.01885986328125-.866455078125-.4083251953125-.866455078125-.8935546875,0-.497314453125.403076171875-.900390625.900390625-.900390625.23760986328125,0,.45037841796875.09619140625.61126708984375.24658203125.000244140625-.01336669921875.00396728515625-.0257568359375.00396728515625-.0391845703125ZM89.6712646484375,67.4088134765625c-.28546142578125-.64862060546875-.4495849609375-1.36187744140625-.4495849609375-2.11474609375,0-.6439208984375.13250732421875-1.2537841796875.34466552734375-1.82476806640625l-5.26080322265625-3.9478759765625c-.3077392578125.2286376953125-.63458251953125.43017578125-.9884033203125.58831787109375l1.1922607421875,9.141845703125c.747314453125.12017822265625,1.4447021484375.38555908203125,2.052734375.7855224609375l3.109130859375-2.6282958984375ZM93.31829833984375,60.162353515625l.14886474609375-2.35296630859375c-1.2674560546875-.4681396484375-2.296875-1.40380859375-2.8934326171875-2.60321044921875l-4.1849365234375.7186279296875c-.05010986328125.41595458984375-.139892578125.81719970703125-.28131103515625,1.1978759765625l5.26068115234375,3.9478759765625c.57421875-.4266357421875,1.2308349609375-.7427978515625,1.95013427734375-.908203125ZM95.00958251953125,67.00726318359375c.239990234375,0,.45538330078125.09722900390625.61676025390625.25030517578125.40570068359375-.23431396484375.7327880859375-.5848388671875.93096923828125-1.01214599609375-.00823974609375-.04901123046875-.02923583984375-.0933837890625-.02923583984375-.14471435546875,0-.220947265625.08868408203125-.416259765625.22076416015625-.57293701171875.00811767578125-.07794189453125.02362060546875-.1536865234375.02362060546875-.23370361328125,0-1.2548828125-1.0205078125-2.275390625-2.275390625-2.275390625-1.25103759765625,0-2.26788330078125,1.01446533203125-2.27423095703125,2.26409912109375.11285400390625-.0509033203125.2359619140625-.08245849609375.3677978515625-.08245849609375.497314453125,0,.900390625.40313720703125.900390625.900390625,0,.37823486328125-.23431396484375.6993408203125-.564697265625.8326416015625.3389892578125.32489013671875.77838134765625.53912353515625,1.26611328125.60528564453125.14141845703125-.31201171875.45220947265625-.5313720703125.817138671875-.5313720703125ZM58.72607421875,61.58642578125c-.497314453125,0-.900390625.40313720703125-.900390625.900390625s.403076171875.900390625.900390625.900390625c.49725341796875,0,.900390625-.40313720703125.900390625-.900390625s-.40313720703125-.900390625-.900390625-.900390625ZM73.23944091796875,65.2003173828125c-.49725341796875,0-.900390625.40313720703125-.900390625.900390625,0,.497314453125.40313720703125.900390625.900390625.900390625.497314453125,0,.900390625-.403076171875.900390625-.900390625,0-.49725341796875-.403076171875-.900390625-.900390625-.900390625ZM95.90997314453125,64.29376220703125c0-.49725341796875-.40313720703125-.900390625-.900390625-.900390625-.497314453125,0-.900390625.40313720703125-.900390625.900390625s.403076171875.900390625.900390625.900390625c.49725341796875,0,.900390625-.40313720703125.900390625-.900390625ZM95.00958251953125,54.35247802734375c.49725341796875,0,.900390625-.40313720703125.900390625-.900390625,0-.497314453125-.40313720703125-.900390625-.900390625-.900390625-.497314453125,0-.900390625.403076171875-.900390625.900390625,0,.49725341796875.403076171875.900390625.900390625.900390625ZM73.23944091796875,41.70379638671875c.497314453125,0,.900390625-.403076171875.900390625-.900390625,0-.49725341796875-.403076171875-.900390625-.900390625-.900390625-.49725341796875,0-.900390625.40313720703125-.900390625.900390625,0,.497314453125.40313720703125.900390625.900390625.900390625ZM85.333984375,43.5107421875c.49725341796875,0,.900390625-.403076171875.900390625-.900390625,0-.49725341796875-.40313720703125-.900390625-.900390625-.900390625-.497314453125,0-.900390625.40313720703125-.900390625.900390625,0,.497314453125.403076171875.900390625.900390625.900390625ZM82.9150390625,72.4281005859375c-.49725341796875,0-.900390625.40313720703125-.900390625.900390625,0,.497314453125.40313720703125.900390625.900390625.900390625.497314453125,0,.900390625-.403076171875.900390625-.900390625,0-.49725341796875-.403076171875-.900390625-.900390625-.900390625ZM94.8173828125,75.2584228515625l-1.966796875,2.265625c3.0960693359375,2.68780517578125,5.33795166015625,6.22216796875,6.51287841796875,10.13653564453125l-3.56134033203125-2.91534423828125.429931640625,4.297119140625,5.5670166015625,4.55419921875,4.5543212890625-5.56683349609375-.429931640625-4.297119140625-3.37420654296875,4.126953125c-1.2293701171875-4.88067626953125-3.92608642578125-9.29718017578125-7.73187255859375-12.60113525390625ZM56.88427734375,92.6475830078125c.338623046875-5.03411865234375,2.450927734375-9.79656982421875,5.8829345703125-13.43780517578125l-.74462890625,4.57501220703125,3.5037841796875-2.5244140625,1.1534423828125-7.099365234375-7.0994873046875-1.153564453125-3.5037841796875,2.5244140625,5.26324462890625.8536376953125c-4.3505859375,4.2296142578125-7.03936767578125,9.9713134765625-7.44866943359375,16.0609130859375l2.9931640625.201171875ZM73.76214599609375,115.14715576171875l4.30865478515625-1.6328125-3.9381103515625-1.772216796875-6.72509765625,2.55072021484375,2.5509033203125,6.72515869140625,3.9381103515625,1.77215576171875-1.8916015625-4.98248291015625c2.20220947265625.62335205078125,4.4713134765625.93853759765625,6.7396240234375.93853759765625,3.74365234375,0,7.48095703125-.8447265625,10.89306640625-2.51953125l-1.322265625-2.693359375c-4.52191162109375,2.2200927734375-9.69122314453125,2.75811767578125-14.55328369140625,1.61383056640625ZM136.0947265625,112.1231689453125c-2.1591796875,3.1015625-5.734375,4.8134765625-9.486328125,4.578125l-2.6551513671875,3.81536865234375-.2828369140625.40643310546875-8.20263671875,11.7869873046875c-.89453125,1.28515625-2.2353515625,2.134765625-3.77734375,2.3955078125-.3251953125.0546875-.650390625.08203125-.97265625.08203125-1.20703125,0-2.37890625-.37890625-3.376953125-1.103515625-1.96881103515625-1.42889404296875-2.7293701171875-3.94482421875-2.11346435546875-6.2322998046875.175048828125-.65008544921875.443603515625-1.28509521484375.84881591796875-1.8673095703125l.2186279296875-.31414794921875-1.0633544921875-2.42901611328125-2.1923828125-.861328125-3.8974609375,1.9541015625-3.12890625-3.212890625,1.4482421875-3.9482421875-.91796875-2.1962890625-3.8447265625-1.5078125-.4755859375-4.19921875,4.0478515625-1.908203125.8193359375-2.2880859375-1.8857421875-3.8837890625,3.2568359375-3.31640625,3.806640625,1.6240234375,2.0322265625-.9453125,1.4560546875-4.15234375,4.3330078125-.1826171875,1.794921875,4.046875,2.158203125.830078125,4.03515625-1.830078125,1.067138671875,1.0999755859375c.4288330078125-.45574951171875.9017333984375-.8548583984375,1.3953857421875-1.22357177734375,2.25482177734375-1.68408203125,5.11285400390625-2.45245361328125,8.0316162109375-2.02972412109375l2.4013671875.349609375-4.4033203125,6.328125.3779296875,2.1201171875,2.0595703125,1.4384765625,2.1103515625-.376953125,4.408203125-6.3330078125,1.16015625,2.1396484375c1.9716796875,3.640625,1.7451171875,7.9892578125-.5908203125,11.3466796875ZM108.00445556640625,120.3800048828125c0,.31866455078125-.1751708984375.5853271484375-.4249267578125.745361328125l.725341796875,1.65618896484375.33929443359375-.48760986328125c-.00457763671875-.0367431640625-.0216064453125-.06903076171875-.0216064453125-.10699462890625,0-.42388916015625.299072265625-.762939453125.69354248046875-.858642578125l2.55755615234375-3.67559814453125c-.46368408203125-.03656005859375-.83221435546875-.41351318359375-.83221435546875-.8865966796875,0-.18865966796875.07147216796875-.35394287109375.170654296875-.4986572265625-.8245849609375.41510009765625-1.752197265625.654541015625-2.73651123046875.654541015625-.16790771484375,0-.33294677734375-.0118408203125-.49749755859375-.02520751953125-.06573486328125.43255615234375-.423095703125.76971435546875-.8740234375.76971435546875-.49725341796875,0-.900390625-.40313720703125-.900390625-.900390625,0-.0947265625.02679443359375-.18121337890625.05389404296875-.2669677734375-.46148681640625-.1805419921875-.89556884765625-.4139404296875-1.29486083984375-.69561767578125-.08868408203125.0291748046875-.1790771484375.0560302734375-.27752685546875.0560302734375-.497314453125,0-.900390625-.40313720703125-.900390625-.900390625,0-.06884765625.0245361328125-.12969970703125.0391845703125-.19415283203125-.30572509765625-.35888671875-.56884765625-.75347900390625-.7860107421875-1.17645263671875-.15484619140625.2723388671875-.43603515625.46405029296875-.771728515625.46405029296875-.49725341796875,0-.900390625-.40313720703125-.900390625-.900390625s.40313720703125-.900390625.900390625-.900390625c.10308837890625,0,.1983642578125.0267333984375.29058837890625.05865478515625-.1224365234375-.4818115234375-.19451904296875-.9833984375-.19451904296875-1.50274658203125,0-.1324462890625.01153564453125-.26202392578125.0198974609375-.39239501953125-.0396728515625.00537109375-.0748291015625.02337646484375-.115966796875.02337646484375-.49725341796875,0-.900390625-.40313720703125-.900390625-.900390625s.40313720703125-.900390625.900390625-.900390625c.167724609375,0,.31591796875.0582275390625.45037841796875.13812255859375.84002685546875-2.37408447265625,3.10089111328125-4.08258056640625,5.75897216796875-4.08258056640625.12921142578125,0,.255615234375.011474609375.38287353515625.0194091796875-.1427001953125-.1593017578125-.23590087890625-.36468505859375-.23590087890625-.59539794921875,0-.497314453125.40313720703125-.900390625.900390625-.900390625s.900390625.403076171875.900390625.900390625c0,.33282470703125-.18902587890625.611572265625-.45758056640625.76739501953125.450439453125.11346435546875.88116455078125.2747802734375,1.285888671875.482177734375.16510009765625-.20428466796875.4071044921875-.343017578125.690185546875-.343017578125.497314453125,0,.900390625.403076171875.900390625.900390625,0,.175048828125-.0631103515625.3291015625-.1495361328125.46734619140625.31268310546875.29876708984375.5966796875.626953125.84075927734375.98565673828125.1375732421875-.321044921875.45587158203125-.54644775390625.82733154296875-.54644775390625.49725341796875,0,.900390625.403076171875.900390625.900390625,0,.49725341796875-.40313720703125.900390625-.900390625.900390625-.06829833984375,0-.1285400390625-.02447509765625-.1925048828125-.03887939453125.23150634765625.5927734375.3707275390625,1.229736328125.4053955078125,1.89495849609375.3914794921875.0977783203125.6875.4356689453125.6875.857421875,0,.47808837890625-.37579345703125.860107421875-.846435546875.8895263671875-.3619384765625,1.50518798828125-1.2760009765625,2.7978515625-2.5223388671875,3.64093017578125.01727294921875-.0009765625.03192138671875-.010009765625.0494384765625-.010009765625.36126708984375,0,.66796875.2159423828125.8114013671875.52288818359375l.77178955078125-1.109130859375c-.03839111328125-.10009765625-.06463623046875-.20672607421875-.06463623046875-.3203125,0-.49725341796875.403076171875-.900390625.900390625-.900390625.0042724609375,0,.00775146484375.00238037109375.011962890625.00244140625l2.5391845703125-3.649169921875c-.04498291015625.00689697265625-.0853271484375.02667236328125-.13226318359375.02667236328125-.49725341796875,0-.900390625-.40313720703125-.900390625-.900390625,0-.44549560546875.32958984375-.79876708984375.75457763671875-.8709716796875-.18768310546875-.66357421875-.2960205078125-1.33795166015625-.35498046875-2.0146484375-.2354736328125-.16241455078125-.39959716796875-.42059326171875-.39959716796875-.728271484375,0-.294677734375.15087890625-.54388427734375.36968994140625-.7081298828125.032470703125-.69244384765625.12310791015625-1.3792724609375.2891845703125-2.05413818359375-.37713623046875-.107421875-.65887451171875-.4400634765625-.65887451171875-.85162353515625,0-.497314453125.40313720703125-.900390625.900390625-.900390625.1195068359375,0,.23260498046875.02569580078125.3369140625.0679931640625.08758544921875-.20245361328125.16558837890625-.40802001953125.2662353515625-.60595703125l-3.2451171875,1.4716796875-1.4947509765625-.57452392578125c.1175537109375.15216064453125.19927978515625.33404541015625.19927978515625.54119873046875,0,.49725341796875-.403076171875.900390625-.900390625.900390625-.49725341796875,0-.900390625-.40313720703125-.900390625-.900390625,0-.4429931640625.325927734375-.79437255859375.747314453125-.8695068359375l-1.45489501953125-.55914306640625c-.04461669921875.0953369140625-.1007080078125.184814453125-.17425537109375.25836181640625-.1629638671875.1629638671875-.38800048828125.263671875-.63665771484375.263671875-.24859619140625,0-.4737548828125-.1007080078125-.63665771484375-.263671875-.1629638671875-.16290283203125-.26373291015625-.3880615234375-.26373291015625-.63665771484375,0-.39080810546875.25213623046875-.7152099609375.60009765625-.83978271484375l-1.0478515625-2.3629150390625-.2607421875.0107421875-.24542236328125.69970703125c.20037841796875.16510009765625.3358154296875.40533447265625.3358154296875.68524169921875,0,.49407958984375-.3984375.89337158203125-.8912353515625.8985595703125l-.40130615234375,1.14422607421875-3.56268310546875,1.6573486328125c-.04541015625.4547119140625-.416259765625.814208984375-.88299560546875.814208984375-.4722900390625,0-.8485107421875-.367431640625-.88616943359375-.83001708984375l-2.21405029296875-.94525146484375-.3388671875.345703125.72576904296875,1.49517822265625c.09326171875-.03271484375.19000244140625-.0594482421875.29443359375-.0594482421875.49725341796875,0,.900390625.403076171875.900390625.900390625,0,.318603515625-.17510986328125.58526611328125-.4248046875.74530029296875l.01690673828125.0347900390625-.70831298828125,1.97698974609375c.07098388671875-.0179443359375.1392822265625-.0435791015625.2158203125-.0435791015625.49725341796875,0,.900390625.403076171875.900390625.900390625,0,.49725341796875-.40313720703125.900390625-.900390625.900390625-.29669189453125,0-.5472412109375-.1529541015625-.71124267578125-.37432861328125l-.4613037109375,1.28759765625-.3837890625.1807861328125c-.08868408203125.40411376953125-.43182373046875.712890625-.862548828125.712890625-.151123046875,0-.287109375-.0465087890625-.41217041015625-.1123046875l-1.2353515625.58197021484375c.07476806640625.1312255859375.1290283203125.2750244140625.1290283203125.4368896484375,0,.052978515625-.0213623046875.09893798828125-.0301513671875.1494140625l2.94049072265625,1.15386962890625.63177490234375,1.51116943359375c.12054443359375-.0599365234375.25146484375-.1009521484375.395263671875-.1009521484375.49725341796875,0,.900390625.40313720703125.900390625.900390625,0,.39410400390625-.2569580078125.7196044921875-.60955810546875.8416748046875l.54345703125,1.29986572265625-.28472900390625.7769775390625c.20849609375.1649169921875.350830078125.408935546875.350830078125.69537353515625,0,.49725341796875-.40313720703125.900390625-.900390625.900390625-.01165771484375,0-.02130126953125-.0062255859375-.0328369140625-.00665283203125l-.33502197265625.9141845703125.279296875.287109375,1.94403076171875-.97412109375.33624267578125-.16851806640625.8515625-.42669677734375,3.3173828125,1.30267333984375c-.00018310546875-.007568359375-.00433349609375-.0137939453125-.00433349609375-.02142333984375,0-.49725341796875.40313720703125-.900390625.900390625-.900390625s.900390625.40313720703125.900390625.900390625ZM108.4755859375,107.6934814453125c-1.716796875,0-3.11328125,1.3974609375-3.11328125,3.1142578125s1.396484375,3.1142578125,3.11328125,3.1142578125,3.1142578125-1.3974609375,3.1142578125-3.1142578125-1.3974609375-3.1142578125-3.1142578125-3.1142578125ZM134.9189453125,104.7598876953125l-2.0498046875,2.9443359375-4.5595703125.814453125-4.0986328125-2.8623046875-.8134765625-4.5634765625,2.0537109375-2.9501953125c-1.94140625.380859375-3.6806640625,1.48828125-4.845703125,3.1630859375-1.685546875,2.421875-1.8447265625,5.5654296875-.416015625,8.203125l.44140625.8125-12.091796875,17.3759765625c-.9052734375,1.30078125-.6513671875,3.076171875.564453125,3.958984375.6083984375.4423828125,1.3505859375.615234375,2.087890625.4912109375.740234375-.125,1.3837890625-.5341796875,1.8134765625-1.1513671875l12.1748046875-17.494140625.9169921875.1337890625c2.966796875.4287109375,5.8505859375-.8056640625,7.53515625-3.2265625,1.1650390625-1.6728515625,1.6005859375-3.69140625,1.287109375-5.6494140625Z"/></svg>