<?xml version="1.0" encoding="UTF-8"?><svg id="symbole_neu_2026" xmlns="http://www.w3.org/2000/svg" viewBox="0 0 170.0787353516 170.0787353516"><defs><style>.cls-1{fill:#1d1d1b;}</style></defs><path class="cls-1" d="M122.9033203125,85.0391845703c0,14.703125-11.775390625,26.220703125-26.8076171875,26.220703125v-3c13.349609375,0,23.8076171875-10.2001953125,23.8076171875-23.220703125s-10.4580078125-23.2202148438-23.8076171875-23.2202148438v-3c15.0322265625,0,26.8076171875,11.5170898438,26.8076171875,26.2202148438ZM113.6103515625,84.8682861328c0-9.6118164062-7.693359375-17.1411132812-17.5146484375-17.1411132812v3c8.138671875,0,14.5146484375,6.2114257812,14.5146484375,14.1411132812s-6.3759765625,14.1416015625-14.5146484375,14.1416015625v3c9.8212890625,0,17.5146484375-7.529296875,17.5146484375-17.1416015625ZM47.3402099609,87.7470703125c-.4973144531,0-.900390625.403137207-.900390625.900390625s.4030761719.900390625.900390625.900390625c.497253418,0,.900390625-.403137207.900390625-.900390625s-.403137207-.900390625-.900390625-.900390625ZM47.3402099609,84.1331787109c-.4973144531,0-.900390625.403137207-.900390625.900390625s.4030761719.900390625.900390625.900390625c.497253418,0,.900390625-.403137207.900390625-.900390625s-.403137207-.900390625-.900390625-.900390625ZM47.3402099609,80.5192871094c-.4973144531,0-.900390625.4030761719-.900390625.900390625,0,.497253418.4030761719.900390625.900390625.900390625.497253418,0,.900390625-.403137207.900390625-.900390625,0-.4973144531-.403137207-.900390625-.900390625-.900390625ZM64.2724609375,89.5540161133c-.497253418,0-.900390625.403137207-.900390625.900390625s.403137207.900390625.900390625.900390625c.4973144531,0,.900390625-.403137207.900390625-.900390625s-.4030761719-.900390625-.900390625-.900390625ZM64.2724609375,85.9401245117c-.497253418,0-.900390625.403137207-.900390625.900390625s.403137207.900390625.900390625.900390625c.4973144531,0,.900390625-.403137207.900390625-.900390625s-.4030761719-.900390625-.900390625-.900390625ZM64.2724609375,82.3262329102c-.497253418,0-.900390625.403137207-.900390625.900390625s.403137207.900390625.900390625.900390625c.4973144531,0,.900390625-.403137207.900390625-.900390625s-.4030761719-.900390625-.900390625-.900390625ZM64.2724609375,78.7123413086c-.497253418,0-.900390625.4030761719-.900390625.900390625,0,.497253418.403137207.900390625.900390625.900390625.4973144531,0,.900390625-.403137207.900390625-.900390625,0-.4973144531-.4030761719-.900390625-.900390625-.900390625ZM61.8535766602,91.3609619141c-.497253418,0-.900390625.403137207-.900390625.900390625s.403137207.900390625.900390625.900390625.900390625-.403137207.900390625-.900390625-.403137207-.900390625-.900390625-.900390625ZM59.4346923828,89.5540161133c-.497253418,0-.900390625.403137207-.900390625.900390625s.403137207.900390625.900390625.900390625.900390625-.403137207.900390625-.900390625-.403137207-.900390625-.900390625-.900390625ZM61.8535766602,87.7470703125c-.497253418,0-.900390625.403137207-.900390625.900390625s.403137207.900390625.900390625.900390625.900390625-.403137207.900390625-.900390625-.403137207-.900390625-.900390625-.900390625ZM59.4346923828,85.9401245117c-.497253418,0-.900390625.403137207-.900390625.900390625s.403137207.900390625.900390625.900390625.900390625-.403137207.900390625-.900390625-.403137207-.900390625-.900390625-.900390625ZM61.8535766602,84.1331787109c-.497253418,0-.900390625.403137207-.900390625.900390625s.403137207.900390625.900390625.900390625.900390625-.403137207.900390625-.900390625-.403137207-.900390625-.900390625-.900390625ZM59.4346923828,82.3262329102c-.497253418,0-.900390625.403137207-.900390625.900390625s.403137207.900390625.900390625.900390625.900390625-.403137207.900390625-.900390625-.403137207-.900390625-.900390625-.900390625ZM61.8535766602,80.5192871094c-.497253418,0-.900390625.4030761719-.900390625.900390625,0,.497253418.403137207.900390625.900390625.900390625s.900390625-.403137207.900390625-.900390625c0-.4973144531-.403137207-.900390625-.900390625-.900390625ZM59.4346923828,78.7123413086c-.497253418,0-.900390625.4030761719-.900390625.900390625,0,.497253418.403137207.900390625.900390625.900390625s.900390625-.403137207.900390625-.900390625c0-.4973144531-.403137207-.900390625-.900390625-.900390625ZM61.8535766602,76.9053955078c-.497253418,0-.900390625.4030761719-.900390625.900390625,0,.497253418.403137207.900390625.900390625.900390625s.900390625-.403137207.900390625-.900390625c0-.4973144531-.403137207-.900390625-.900390625-.900390625ZM57.0158081055,91.3609619141c-.4973144531,0-.900390625.403137207-.900390625.900390625s.4030761719.900390625.900390625.900390625c.497253418,0,.900390625-.403137207.900390625-.900390625s-.403137207-.900390625-.900390625-.900390625ZM54.596862793,89.5540161133c-.497253418,0-.900390625.403137207-.900390625.900390625s.403137207.900390625.900390625.900390625c.4973144531,0,.900390625-.403137207.900390625-.900390625s-.4030761719-.900390625-.900390625-.900390625ZM57.0158081055,87.7470703125c-.4973144531,0-.900390625.403137207-.900390625.900390625s.4030761719.900390625.900390625.900390625c.497253418,0,.900390625-.403137207.900390625-.900390625s-.403137207-.900390625-.900390625-.900390625ZM57.0158081055,84.1331787109c-.4973144531,0-.900390625.403137207-.900390625.900390625s.4030761719.900390625.900390625.900390625c.497253418,0,.900390625-.403137207.900390625-.900390625s-.403137207-.900390625-.900390625-.900390625ZM57.0158081055,80.5192871094c-.4973144531,0-.900390625.4030761719-.900390625.900390625,0,.497253418.4030761719.900390625.900390625.900390625.497253418,0,.900390625-.403137207.900390625-.900390625,0-.4973144531-.403137207-.900390625-.900390625-.900390625ZM54.596862793,78.7123413086c-.497253418,0-.900390625.4030761719-.900390625.900390625,0,.497253418.403137207.900390625.900390625.900390625.4973144531,0,.900390625-.403137207.900390625-.900390625,0-.4973144531-.4030761719-.900390625-.900390625-.900390625ZM57.0158081055,76.9053955078c-.4973144531,0-.900390625.4030761719-.900390625.900390625,0,.497253418.4030761719.900390625.900390625.900390625.497253418,0,.900390625-.403137207.900390625-.900390625,0-.4973144531-.403137207-.900390625-.900390625-.900390625ZM54.596862793,85.9401245117c-.497253418,0-.900390625.403137207-.900390625.900390625s.403137207.900390625.900390625.900390625c.4973144531,0,.900390625-.403137207.900390625-.900390625s-.4030761719-.900390625-.900390625-.900390625ZM54.596862793,82.3262329102c-.497253418,0-.900390625.403137207-.900390625.900390625s.403137207.900390625.900390625.900390625c.4973144531,0,.900390625-.403137207.900390625-.900390625s-.4030761719-.900390625-.900390625-.900390625ZM105.03125,84.8682861328c0-4.6958007812-3.9248046875-8.3740234375-8.935546875-8.3740234375v3c3.328125,0,5.935546875,2.3603515625,5.935546875,5.3740234375s-2.607421875,5.3740234375-5.935546875,5.3740234375v3c5.0107421875,0,8.935546875-3.6787109375,8.935546875-8.3740234375ZM88.2783203125,62.7965087891v44.1440429688c0,.7841796875-.4072265625,1.4970703125-1.0634765625,1.861328125-.2958984375.1640625-.6162109375.2451171875-.935546875.2451171875-.3525390625,0-.7041015625-.0986328125-1.0209960938-.296875l-18.2462158203-11.4345703125h-16.9012451172v-3.830078125h-7.6069335938v-16.8920898438h7.6069335938v-4.171875h16.9020385742l18.2424926758-11.4331054688c.6059570312-.3798828125,1.3364257812-.3989257812,1.9584960938-.0541992188.65625.3637695312,1.064453125,1.0776367188,1.064453125,1.8623046875ZM50.1108398438,80.4415283203c-.1080932617.0459594727-.2268676758.0715942383-.3517456055.0715942383-.497253418,0-.900390625-.403137207-.900390625-.900390625,0-.0068359375.0037841797-.012512207.00390625-.0193481445h-3.0448608398c.0001220703.0068359375.00390625.012512207.00390625.0193481445,0,.2720947266-.126953125.5079956055-.3177490234.6730957031v2.2677001953c.1907958984.1651000977.3177490234.4010009766.3177490234.6730957031s-.126953125.5079956055-.3177490234.6730957031v2.2677001953c.1907958984.1651000977.3177490234.4010009766.3177490234.6730957031s-.126953125.5079956055-.3177490234.6730957031v2.2677001953c.1907958984.1651000977.3177490234.4010009766.3177490234.6730957031,0,.0110473633-.0059204102.0201416016-.0062866211.0310668945h3.049621582c-.0003662109-.010925293-.0062866211-.0200195312-.0062866211-.0310668945,0-.497253418.403137207-.900390625.900390625-.900390625.1248779297,0,.2436523438.0256347656.3517456055.0715942383v-1.9562988281c-.1080932617.0459594727-.2268676758.0715942383-.3517456055.0715942383-.497253418,0-.900390625-.403137207-.900390625-.900390625s.403137207-.900390625.900390625-.900390625c.1248779297,0,.2436523438.0256347656.3517456055.0715942383v-1.9562988281c-.1080932617.0459594727-.2268676758.0715942383-.3517456055.0715942383-.497253418,0-.900390625-.403137207-.900390625-.900390625s.403137207-.900390625.900390625-.900390625c.1248779297,0,.2436523438.0256347656.3517456055.0715942383v-1.9562988281ZM65.9438476562,75.4215087891h-.9946289062c.1340942383.1572265625.2236328125.3544921875.2236328125.577331543,0,.497253418-.4030761719.900390625-.900390625.900390625-.497253418,0-.900390625-.403137207-.900390625-.900390625,0-.2228393555.0895385742-.4201049805.2236938477-.577331543h-3.484375c.1341552734.1572265625.2236938477.3544921875.2236938477.577331543,0,.497253418-.403137207.900390625-.900390625.900390625s-.900390625-.403137207-.900390625-.900390625c0-.2228393555.0895385742-.4201049805.2236938477-.577331543h-3.484375c.1340942383.1572265625.2236328125.3544921875.2236328125.577331543,0,.497253418-.4030761719.900390625-.900390625.900390625-.497253418,0-.900390625-.403137207-.900390625-.900390625,0-.2228393555.0895385742-.4201049805.2236938477-.577331543h-.8093261719v18.8940429688h.635559082c-.0233764648-.0801391602-.0499267578-.1595458984-.0499267578-.247253418,0-.497253418.403137207-.900390625.900390625-.900390625.4973144531,0,.900390625.403137207.900390625.900390625,0,.0877075195-.026550293.1671142578-.0499267578.247253418h3.1369018555c-.0233764648-.0801391602-.0499267578-.1595458984-.0499267578-.247253418,0-.497253418.403137207-.900390625.900390625-.900390625s.900390625.403137207.900390625.900390625c0,.0877075195-.026550293.1671142578-.0499267578.247253418h3.1368408203c-.0233764648-.0801391602-.0499267578-.1595458984-.0499267578-.247253418,0-.497253418.403137207-.900390625.900390625-.900390625.4973144531,0,.900390625.403137207.900390625.900390625,0,.0877075195-.026550293.1671142578-.0499267578.247253418h.8209228516v-18.8940429688ZM85.2783203125,64.5142822266l-16.3344726562,10.2372436523v20.2335205078l16.3344726562,10.2377319336v-40.7084960938Z"/></svg>