<?xml version="1.0" encoding="UTF-8"?><svg id="symbole_neu_2026" xmlns="http://www.w3.org/2000/svg" viewBox="0 0 170.0787353515625 170.0787353515625"><defs><style>.cls-1{fill:#1d1d1b;}</style></defs><path class="cls-1" d="M140.89825439453125,79.9534912109375h-4.318359375l3.5877685546875,3.585693359375h-16.01776123046875c-.7177734375-4.26397705078125-4.4256591796875-7.52587890625-8.89111328125-7.52587890625-4.46453857421875,0-8.17236328125,3.26190185546875-8.89013671875,7.52587890625h-15.794921875c-.7177734375-4.26397705078125-4.4256591796875-7.52587890625-8.890625-7.52587890625s-8.1728515625,3.26190185546875-8.890625,7.52587890625h-15.794921875c-.7177734375-4.26397705078125-4.4256591796875-7.52587890625-8.890625-7.52587890625s-8.1728515625,3.26190185546875-8.890625,7.52587890625h-15.12158203125v3h15.12152099609375c.71771240234375,4.26434326171875,4.4256591796875,7.5263671875,8.89068603515625,7.5263671875s8.1729736328125-3.26202392578125,8.89068603515625-7.5263671875h15.7947998046875c.71771240234375,4.26434326171875,4.4256591796875,7.5263671875,8.89068603515625,7.5263671875s8.1729736328125-3.26202392578125,8.89068603515625-7.5263671875h15.7947998046875c.71771240234375,4.26434326171875,4.42559814453125,7.5263671875,8.89019775390625,7.5263671875,4.4654541015625,0,8.1734619140625-3.26202392578125,8.89117431640625-7.5263671875h16.01812744140625l-3.58819580078125,3.5860595703125h4.318359375l5.0859375-5.0858154296875-5.0859375-5.0859375ZM48.10693359375,91.0655517578125c-3.32275390625,0-6.02587890625-2.703125-6.02587890625-6.0263671875,0-3.32275390625,2.703125-6.02587890625,6.02587890625-6.02587890625s6.02587890625,2.703125,6.02587890625,6.02587890625c0,3.3232421875-2.703125,6.0263671875-6.02587890625,6.0263671875ZM81.68310546875,91.0655517578125c-3.32275390625,0-6.02587890625-2.703125-6.02587890625-6.0263671875,0-3.32275390625,2.703125-6.02587890625,6.02587890625-6.02587890625s6.02587890625,2.703125,6.02587890625,6.02587890625c0,3.3232421875-2.703125,6.0263671875-6.02587890625,6.0263671875ZM115.42889404296875,91.05694580078125c.14617919921875-.16009521484375.24078369140625-.36883544921875.24078369140625-.6026611328125,0-.49725341796875-.40313720703125-.900390625-.900390625-.900390625s-.900390625.40313720703125-.900390625.900390625c0,.18255615234375.0677490234375.3426513671875.1611328125.48455810546875-1.8232421875-.37939453125-3.341796875-1.58782958984375-4.15521240234375-3.20947265625.019775390625.00128173828125.03662109375.01141357421875.05670166015625.01141357421875.49725341796875,0,.900390625-.40313720703125.900390625-.900390625s-.40313720703125-.900390625-.900390625-.900390625c-.22747802734375,0-.429443359375.091796875-.58795166015625.23089599609375-.070068359375-.36700439453125-.11016845703125-.74456787109375-.11016845703125-1.1317138671875,0-.3907470703125.04046630859375-.7718505859375.11181640625-1.14208984375.15826416015625.13836669921875.3594970703125.22979736328125.5863037109375.22979736328125.49725341796875,0,.900390625-.40313720703125.900390625-.900390625s-.40313720703125-.900390625-.900390625-.900390625c-.01788330078125,0-.03271484375.0091552734375-.05035400390625.01019287109375.81353759765625-1.61199951171875,2.32513427734375-2.81304931640625,4.13909912109375-3.1937255859375-.0875244140625.13885498046875-.1513671875.29376220703125-.1513671875.47003173828125,0,.49725341796875.40313720703125.900390625.900390625.900390625s.900390625-.40313720703125.900390625-.900390625c0-.22845458984375-.09222412109375-.4315185546875-.232421875-.59027099609375,3.088134765625.091064453125,5.5958251953125,2.5113525390625,5.82489013671875,5.56304931640625-.0789794921875.1339111328125-.13653564453125.2813720703125-.13653564453125.44805908203125,0,.16705322265625.05780029296875.31475830078125.1370849609375.4488525390625-.22418212890625,3.05999755859375-2.73822021484375,5.48760986328125-5.83380126953125,5.57464599609375Z"/><circle class="cls-1" cx="119.60711669921875" cy="86.84039306640625" r=".900390625"/><circle class="cls-1" cx="117.18817138671875" cy="88.6473388671875" r=".900390625"/><circle class="cls-1" cx="114.769287109375" cy="86.84039306640625" r=".900390625"/><circle class="cls-1" cx="119.60711669921875" cy="83.22650146484375" r=".900390625"/><circle class="cls-1" cx="117.18817138671875" cy="85.033447265625" r=".900390625"/><circle class="cls-1" cx="114.769287109375" cy="83.22650146484375" r=".900390625"/><circle class="cls-1" cx="117.18817138671875" cy="81.4195556640625" r=".900390625"/><circle class="cls-1" cx="112.35040283203125" cy="88.6473388671875" r=".900390625"/><circle class="cls-1" cx="112.35040283203125" cy="85.033447265625" r=".900390625"/><circle class="cls-1" cx="112.35040283203125" cy="81.4195556640625" r=".900390625"/></svg>