<?xml version="1.0" encoding="UTF-8"?><svg id="symbole_neu_2026" xmlns="http://www.w3.org/2000/svg" viewBox="0 0 170.0787353515625 170.0787353515625"><defs><style>.cls-1{fill:#1d1d1b;}</style></defs><path class="cls-1" d="M99.89239501953125,78.0064697265625c0-.4368896484375.263671875-.8099365234375.638916015625-.9761962890625v1.95233154296875c-.375244140625-.16632080078125-.638916015625-.53924560546875-.638916015625-.97613525390625ZM98.0875244140625,81.22430419921875c.591064453125,0,1.0701904296875-.4791259765625,1.0701904296875-1.0701904296875,0-.59100341796875-.4791259765625-1.07012939453125-1.0701904296875-1.07012939453125-.59100341796875,0-1.0701904296875.4791259765625-1.0701904296875,1.07012939453125,0,.591064453125.47918701171875,1.0701904296875,1.0701904296875,1.0701904296875ZM95.88934326171875,77.19580078125c-.1856689453125-.155029296875-.416015625-.259521484375-.67681884765625-.259521484375-.591064453125,0-1.0701904296875.4791259765625-1.0701904296875,1.0701904296875,0,.26080322265625.10455322265625.4910888671875.25958251953125.6767578125l1.4874267578125-1.4874267578125ZM100.53131103515625,74.68719482421875v-1.9522705078125c-.375244140625.166259765625-.638916015625.53924560546875-.638916015625.97613525390625s.263671875.80987548828125.638916015625.97613525390625ZM98.0875244140625,76.928955078125c.591064453125,0,1.0701904296875-.4791259765625,1.0701904296875-1.0701904296875s-.4791259765625-1.0701904296875-1.0701904296875-1.0701904296875c-.59100341796875,0-1.0701904296875.4791259765625-1.0701904296875,1.0701904296875s.47918701171875,1.0701904296875,1.0701904296875,1.0701904296875ZM95.2125244140625,74.78125c.59100341796875,0,1.07012939453125-.4791259765625,1.07012939453125-1.0701904296875,0-.59100341796875-.4791259765625-1.07012939453125-1.07012939453125-1.07012939453125-.591064453125,0-1.0701904296875.4791259765625-1.0701904296875,1.07012939453125,0,.591064453125.4791259765625,1.0701904296875,1.0701904296875,1.0701904296875ZM100.53131103515625,70.391845703125v-.84442138671875h-.6123046875c.04852294921875.37701416015625.27716064453125.6959228515625.6123046875.84442138671875ZM98.0875244140625,72.633544921875c.591064453125,0,1.0701904296875-.4791259765625,1.0701904296875-1.07012939453125,0-.591064453125-.4791259765625-1.0701904296875-1.0701904296875-1.0701904296875-.59100341796875,0-1.0701904296875.4791259765625-1.0701904296875,1.0701904296875,0,.59100341796875.47918701171875,1.07012939453125,1.0701904296875,1.07012939453125ZM89.46246337890625,83.37200927734375c.1114501953125,0,.213134765625-.03179931640625.31414794921875-.06341552734375l.69256591796875-.69256591796875c.0316162109375-.10101318359375.06341552734375-.2027587890625.06341552734375-.314208984375,0-.591064453125-.4791259765625-1.0701904296875-1.07012939453125-1.0701904296875-.591064453125,0-1.0701904296875.4791259765625-1.0701904296875,1.0701904296875s.4791259765625,1.0701904296875,1.0701904296875,1.0701904296875ZM91.94091796875,81.14422607421875l1.38665771484375-1.38665771484375c-.15789794921875-.3939208984375-.53973388671875-.673583984375-.9901123046875-.673583984375-.591064453125,0-1.0701904296875.4791259765625-1.0701904296875,1.07012939453125,0,.45037841796875.27972412109375.83221435546875.67364501953125.9901123046875ZM92.33746337890625,76.928955078125c.591064453125,0,1.0701904296875-.4791259765625,1.0701904296875-1.0701904296875s-.4791259765625-1.0701904296875-1.0701904296875-1.0701904296875c-.0238037109375,0-.043701171875.01202392578125-.067138671875.0135498046875l-.989501953125.989501953125c-.00152587890625.0234375-.0135498046875.0433349609375-.0135498046875.067138671875,0,.591064453125.4791259765625,1.0701904296875,1.0701904296875,1.0701904296875ZM90.49969482421875,73.87408447265625c.00885009765625-.05535888671875.03289794921875-.10516357421875.03289794921875-.16302490234375,0-.59100341796875-.4791259765625-1.07012939453125-1.07012939453125-1.07012939453125-.591064453125,0-1.0701904296875.4791259765625-1.0701904296875,1.07012939453125,0,.05804443359375.02410888671875.10809326171875.03302001953125.16363525390625l2.07440185546875-.0006103515625ZM95.2125244140625,70.48590087890625c.5443115234375,0,.975830078125-.41253662109375,1.04351806640625-.9384765625h-2.08709716796875c.06768798828125.52593994140625.49920654296875.9384765625,1.0435791015625.9384765625ZM92.33746337890625,72.633544921875c.591064453125,0,1.0701904296875-.4791259765625,1.0701904296875-1.07012939453125,0-.591064453125-.4791259765625-1.0701904296875-1.0701904296875-1.0701904296875s-1.0701904296875.4791259765625-1.0701904296875,1.0701904296875c0,.59100341796875.4791259765625,1.07012939453125,1.0701904296875,1.07012939453125ZM90.5059814453125,69.54742431640625h-.16876220703125l-.92779541015625.92779541015625c.0185546875.0009765625.03424072265625.01068115234375.05303955078125.01068115234375.5443115234375,0,.975830078125-.41253662109375,1.04351806640625-.9384765625ZM86.58740234375,85.51971435546875c.591064453125,0,1.0701904296875-.47918701171875,1.0701904296875-1.0701904296875,0-.591064453125-.4791259765625-1.0701904296875-1.0701904296875-1.0701904296875s-1.0701904296875.4791259765625-1.0701904296875,1.0701904296875c0,.59100341796875.4791259765625,1.0701904296875,1.0701904296875,1.0701904296875ZM84.78253173828125,82.30181884765625c0-.00347900390625-.001953125-.00634765625-.00201416015625-.00982666015625l-1.0780029296875,1.0780029296875c.00347900390625.00006103515625.00640869140625.00201416015625.0098876953125.00201416015625.59100341796875,0,1.07012939453125-.4791259765625,1.07012939453125-1.0701904296875ZM89.982421875,77.090087890625l-1.43634033203125,1.43634033203125c.18426513671875.3228759765625.51800537109375.55023193359375.9163818359375.55023193359375.59100341796875,0,1.07012939453125-.47918701171875,1.07012939453125-1.0701904296875,0-.39837646484375-.227294921875-.73211669921875-.5501708984375-.9163818359375ZM87.6575927734375,80.15411376953125c0-.20965576171875-.07598876953125-.3939208984375-.18017578125-.55902099609375l-1.44903564453125,1.44903564453125c.16510009765625.10418701171875.349365234375.18017578125.55902099609375.18017578125.591064453125,0,1.0701904296875-.4791259765625,1.0701904296875-1.0701904296875ZM78.68023681640625,94.405029296875c-.1904296875-.17449951171875-.43927001953125-.2872314453125-.7178955078125-.2872314453125-.591064453125,0-1.0701904296875.4791259765625-1.0701904296875,1.07012939453125,0,.2786865234375.11273193359375.5274658203125.28729248046875.7178955078125l1.50079345703125-1.50079345703125ZM81.0684814453125,92.01678466796875c-.07672119140625-.0174560546875-.14910888671875-.04669189453125-.23114013671875-.04669189453125-.591064453125,0-1.0701904296875.4791259765625-1.0701904296875,1.0701904296875,0,.08197021484375.02923583984375.15447998046875.04669189453125.231201171875l1.254638671875-1.25469970703125ZM83.71240234375,87.6673583984375c.59100341796875,0,1.07012939453125-.4791259765625,1.07012939453125-1.07012939453125,0-.591064453125-.4791259765625-1.0701904296875-1.07012939453125-1.0701904296875-.591064453125,0-1.0701904296875.4791259765625-1.0701904296875,1.0701904296875,0,.59100341796875.4791259765625,1.07012939453125,1.0701904296875,1.07012939453125ZM80.83734130859375,89.8150634765625c.591064453125,0,1.0701904296875-.4791259765625,1.0701904296875-1.0701904296875,0-.59100341796875-.4791259765625-1.0701904296875-1.0701904296875-1.0701904296875s-1.0701904296875.47918701171875-1.0701904296875,1.0701904296875c0,.591064453125.4791259765625,1.0701904296875,1.0701904296875,1.0701904296875ZM72.21221923828125,100.553466796875c.14208984375,0,.2764892578125-.03057861328125.4005126953125-.08087158203125l.58880615234375-.58880615234375c.05023193359375-.1240234375.08087158203125-.2584228515625.08087158203125-.40045166015625,0-.591064453125-.4791259765625-1.0701904296875-1.0701904296875-1.0701904296875-.59100341796875,0-1.07012939453125.4791259765625-1.07012939453125,1.0701904296875,0,.59100341796875.4791259765625,1.07012939453125,1.07012939453125,1.07012939453125ZM74.74798583984375,98.33734130859375l1.34100341796875-1.34100341796875c-.143310546875-.4222412109375-.531005859375-.73089599609375-1.001708984375-.73089599609375-.591064453125,0-1.0701904296875.4791259765625-1.0701904296875,1.0701904296875,0,.470703125.30865478515625.8583984375.73089599609375,1.001708984375ZM77.96234130859375,91.9627685546875c.59100341796875,0,1.07012939453125-.4791259765625,1.07012939453125-1.0701904296875s-.4791259765625-1.0701904296875-1.07012939453125-1.0701904296875c-.591064453125,0-1.0701904296875.4791259765625-1.0701904296875,1.0701904296875s.4791259765625,1.0701904296875,1.0701904296875,1.0701904296875ZM75.0872802734375,94.11041259765625c.591064453125,0,1.0701904296875-.4791259765625,1.0701904296875-1.07012939453125,0-.5865478515625-.47265625-1.06036376953125-1.0574951171875-1.067626953125l-1.080322265625,1.080322265625c.00726318359375.58477783203125.4810791015625,1.05743408203125,1.067626953125,1.05743408203125ZM69.33721923828125,102.701171875c.591064453125,0,1.0701904296875-.4791259765625,1.0701904296875-1.0701904296875,0-.59100341796875-.4791259765625-1.07012939453125-1.0701904296875-1.07012939453125s-1.0701904296875.4791259765625-1.0701904296875,1.07012939453125c0,.591064453125.4791259765625,1.0701904296875,1.0701904296875,1.0701904296875ZM67.5179443359375,99.55474853515625l-.98431396484375.98431396484375c.531005859375-.03704833984375.94732666015625-.45343017578125.98431396484375-.98431396484375ZM72.21221923828125,96.25811767578125c.591064453125,0,1.0701904296875-.4791259765625,1.0701904296875-1.0701904296875,0-.3804931640625-.20989990234375-.6988525390625-.50909423828125-.88861083984375l-1.44970703125,1.44970703125c.18975830078125.29913330078125.50811767578125.50909423828125.88861083984375.50909423828125ZM70.40740966796875,97.33563232421875c0-.1917724609375-.06414794921875-.36224365234375-.1524658203125-.5179443359375l-1.4356689453125,1.4356689453125c.15570068359375.08837890625.326171875.1524658203125.5179443359375.1524658203125.591064453125,0,1.0701904296875-.4791259765625,1.0701904296875-1.0701904296875ZM61.470458984375,111.614990234375c-.19378662109375-.19482421875-.4617919921875-.31573486328125-.75836181640625-.31573486328125-.59100341796875,0-1.07012939453125.4791259765625-1.07012939453125,1.0701904296875,0,.29656982421875.12091064453125.56451416015625.31573486328125.75830078125l1.51275634765625-1.51275634765625ZM63.8756103515625,109.20977783203125c-.09368896484375-.02679443359375-.18609619140625-.0582275390625-.2884521484375-.0582275390625-.591064453125,0-1.0701904296875.47918701171875-1.0701904296875,1.0701904296875,0,.10235595703125.03143310546875.19476318359375.0582275390625.2884521484375l1.3004150390625-1.3004150390625ZM66.462158203125,104.848876953125c.591064453125,0,1.0701904296875-.4791259765625,1.0701904296875-1.0701904296875s-.4791259765625-1.0701904296875-1.0701904296875-1.0701904296875c-.59100341796875,0-1.07012939453125.4791259765625-1.07012939453125,1.0701904296875s.4791259765625,1.0701904296875,1.07012939453125,1.0701904296875ZM63.587158203125,106.99658203125c.591064453125,0,1.0701904296875-.47918701171875,1.0701904296875-1.0701904296875,0-.591064453125-.4791259765625-1.0701904296875-1.0701904296875-1.0701904296875s-1.0701904296875.4791259765625-1.0701904296875,1.0701904296875c0,.59100341796875.4791259765625,1.0701904296875,1.0701904296875,1.0701904296875ZM54.9620361328125,117.7349853515625c.22247314453125,0,.41729736328125-.0838623046875.5885009765625-.20001220703125l.28167724609375-.28173828125c.11614990234375-.171142578125.20001220703125-.36602783203125.20001220703125-.58843994140625,0-.59100341796875-.4791259765625-1.0701904296875-1.0701904296875-1.0701904296875-.59100341796875,0-1.07012939453125.47918701171875-1.07012939453125,1.0701904296875,0,.591064453125.4791259765625,1.0701904296875,1.07012939453125,1.0701904296875ZM57.55511474609375,115.53033447265625l1.29522705078125-1.29522705078125c-.1259765625-.4508056640625-.52227783203125-.78814697265625-1.01324462890625-.78814697265625-.591064453125,0-1.0701904296875.4791259765625-1.0701904296875,1.0701904296875,0,.490966796875.33740234375.88720703125.7882080078125,1.01318359375ZM60.71209716796875,109.14422607421875c.591064453125,0,1.0701904296875-.4791259765625,1.0701904296875-1.0701904296875,0-.59100341796875-.4791259765625-1.07012939453125-1.0701904296875-1.07012939453125-.59100341796875,0-1.07012939453125.4791259765625-1.07012939453125,1.07012939453125,0,.591064453125.4791259765625,1.0701904296875,1.07012939453125,1.0701904296875ZM57.83709716796875,111.29193115234375c.59100341796875,0,1.0701904296875-.4791259765625,1.0701904296875-1.0701904296875,0-.566162109375-.443603515625-1.01812744140625-1.00018310546875-1.05609130859375l-1.12603759765625,1.1260986328125c.0379638671875.55657958984375.48980712890625,1.00018310546875,1.0560302734375,1.00018310546875ZM52.0870361328125,119.8826904296875c.59100341796875,0,1.0701904296875-.4791259765625,1.0701904296875-1.0701904296875s-.47918701171875-1.0701904296875-1.0701904296875-1.0701904296875c-.591064453125,0-1.0701904296875.4791259765625-1.0701904296875,1.0701904296875s.4791259765625,1.0701904296875,1.0701904296875,1.0701904296875ZM49.36968994140625,117.703125c.45928955078125-.07080078125.809814453125-.42132568359375.880615234375-.880615234375l-.880615234375.880615234375ZM54.9620361328125,113.43963623046875c.591064453125,0,1.0701904296875-.4791259765625,1.0701904296875-1.0701904296875,0-.3626708984375-.1920166015625-.6673583984375-.46795654296875-.8609619140625l-1.463134765625,1.463134765625c.19354248046875.27593994140625.498291015625.468017578125.86090087890625.468017578125ZM53.1572265625,114.51715087890625c0-.1739501953125-.0511474609375-.3316650390625-.124755859375-.47686767578125l-1.4222412109375,1.42230224609375c.14520263671875.0736083984375.3028564453125.12469482421875.476806640625.12469482421875.59100341796875,0,1.0701904296875-.4791259765625,1.0701904296875-1.07012939453125ZM48.14178466796875,120.960205078125c0,.59100341796875.47918701171875,1.07012939453125,1.0701904296875,1.07012939453125.591064453125,0,1.0701904296875-.4791259765625,1.0701904296875-1.07012939453125,0-.591064453125-.4791259765625-1.0701904296875-1.0701904296875-1.0701904296875-.59100341796875,0-1.0701904296875.4791259765625-1.0701904296875,1.0701904296875ZM119.63848876953125,119.63848876953125h-4.318359375l3.58831787109375,3.58624267578125H47.383544921875c.00457763671875-.04022216796875.02362060546875-.075439453125.02362060546875-.11688232421875,0-.3994140625-.2283935546875-.73406982421875-.55267333984375-.91796875V51.1708984375l3.58575439453125,3.58782958984375v-4.3184814453125l-5.0859375-5.0859375-5.0859375,5.0859375v4.3184814453125l3.58612060546875-3.58819580078125v75.05419921875h75.0533447265625l-3.58770751953125,3.58563232421875h4.318359375l5.0859375-5.0859375-5.0859375-5.0859375Z"/></svg>