<?xml version="1.0" encoding="UTF-8"?><svg id="symbole_neu_2026" xmlns="http://www.w3.org/2000/svg" viewBox="0 0 170.0787353515625 170.0787353515625"><defs><style>.cls-1{fill:#1d1d1b;}</style></defs><path class="cls-1" d="M76.34661865234375,65.59600830078125c0-.49725341796875.40313720703125-.900390625.900390625-.900390625s.900390625.40313720703125.900390625.900390625-.40313720703125.900390625-.900390625.900390625-.900390625-.40313720703125-.900390625-.900390625ZM77.24700927734375,62.88250732421875c.49725341796875,0,.900390625-.40313720703125.900390625-.900390625s-.40313720703125-.900390625-.900390625-.900390625-.900390625.40313720703125-.900390625.900390625.40313720703125.900390625.900390625.900390625ZM77.24700927734375,59.26861572265625c.49725341796875,0,.900390625-.40313720703125.900390625-.900390625,0-.497314453125-.40313720703125-.900390625-.900390625-.900390625s-.900390625.403076171875-.900390625.900390625c0,.49725341796875.40313720703125.900390625.900390625.900390625ZM74.828125,68.3033447265625c.49725341796875,0,.900390625-.40313720703125.900390625-.900390625s-.40313720703125-.900390625-.900390625-.900390625c-.497314453125,0-.900390625.40313720703125-.900390625.900390625s.403076171875.900390625.900390625.900390625ZM72.1793212890625,66.45001220703125c.07513427734375.02032470703125.14837646484375.04638671875.22991943359375.04638671875.2486572265625,0,.4737548828125-.10076904296875.63665771484375-.26373291015625.16290283203125-.16290283203125.263671875-.3880615234375.263671875-.63665771484375,0-.2486572265625-.10076904296875-.47369384765625-.263671875-.63665771484375-.16290283203125-.16290283203125-.38800048828125-.26373291015625-.63665771484375-.26373291015625-.08154296875,0-.15478515625.02606201171875-.22991943359375.04638671875-.2684326171875.07257080078125-.49298095703125.25103759765625-.5997314453125.5035400390625-.04559326171875.10772705078125-.07073974609375.22613525390625-.07073974609375.3504638671875s.025146484375.24273681640625.07073974609375.3504638671875c.10675048828125.25250244140625.331298828125.43096923828125.5997314453125.5035400390625ZM74.828125,64.689453125c.49725341796875,0,.900390625-.40313720703125.900390625-.900390625s-.40313720703125-.900390625-.900390625-.900390625c-.497314453125,0-.900390625.40313720703125-.900390625.900390625s.403076171875.900390625.900390625.900390625ZM74.828125,61.0755615234375c.49725341796875,0,.900390625-.40313720703125.900390625-.900390625,0-.497314453125-.40313720703125-.900390625-.900390625-.900390625-.497314453125,0-.900390625.403076171875-.900390625.900390625,0,.49725341796875.403076171875.900390625.900390625.900390625ZM77.24700927734375,55.65472412109375c.49725341796875,0,.900390625-.40313720703125.900390625-.900390625,0-.497314453125-.40313720703125-.900390625-.900390625-.900390625s-.900390625.403076171875-.900390625.900390625c0,.49725341796875.40313720703125.900390625.900390625.900390625ZM74.828125,57.461669921875c.49725341796875,0,.900390625-.40313720703125.900390625-.900390625,0-.497314453125-.40313720703125-.900390625-.900390625-.900390625-.497314453125,0-.900390625.403076171875-.900390625.900390625,0,.49725341796875.403076171875.900390625.900390625.900390625ZM69.99029541015625,68.3033447265625c.497314453125,0,.900390625-.40313720703125.900390625-.900390625s-.403076171875-.900390625-.900390625-.900390625c-.49725341796875,0-.900390625.40313720703125-.900390625.900390625s.40313720703125.900390625.900390625.900390625ZM69.99029541015625,64.689453125c.497314453125,0,.900390625-.40313720703125.900390625-.900390625s-.403076171875-.900390625-.900390625-.900390625c-.49725341796875,0-.900390625.40313720703125-.900390625.900390625s.40313720703125.900390625.900390625.900390625ZM65.15252685546875,68.3033447265625c.49725341796875,0,.900390625-.40313720703125.900390625-.900390625s-.40313720703125-.900390625-.900390625-.900390625c-.497314453125,0-.900390625.40313720703125-.900390625.900390625s.403076171875.900390625.900390625.900390625ZM67.5714111328125,66.49639892578125c.49725341796875,0,.900390625-.40313720703125.900390625-.900390625s-.40313720703125-.900390625-.900390625-.900390625-.900390625.40313720703125-.900390625.900390625.40313720703125.900390625.900390625.900390625ZM114.1767578125,46.6890869140625v76.70068359375h-58.275390625v-53.46484375l23.236328125-23.23583984375h35.0390625ZM61.02294921875,69.0460205078125h.84332275390625c.07952880859375-.416015625.42816162109375-.73651123046875.8673095703125-.73651123046875s.78778076171875.32049560546875.8673095703125.73651123046875h3.10321044921875c.07952880859375-.416015625.42816162109375-.73651123046875.8673095703125-.73651123046875s.78778076171875.32049560546875.8673095703125.73651123046875h3.10321044921875c.01202392578125-.062744140625.01336669921875-.12921142578125.03765869140625-.18658447265625.10675048828125-.25250244140625.331298828125-.43096923828125.5997314453125-.5035400390625.07513427734375-.02032470703125.14837646484375-.04638671875.22991943359375-.04638671875.2486572265625,0,.4737548828125.100830078125.63665771484375.26373291015625.12481689453125.1248779296875.19610595703125.29229736328125.2305908203125.4727783203125h3.10321044921875c.07952880859375-.416015625.42816162109375-.73651123046875.8673095703125-.73651123046875s.78778076171875.32049560546875.8673095703125.73651123046875h.14447021484375v-17.23583984375l-5.68988037109375,5.68988037109375c.18218994140625.03387451171875.3511962890625.10565185546875.47698974609375.2314453125.16290283203125.1629638671875.263671875.3880615234375.263671875.63671875,0,.24859619140625-.10076904296875.4737548828125-.263671875.63665771484375-.16290283203125.1629638671875-.38800048828125.26373291015625-.63665771484375.26373291015625-.08154296875,0-.15478515625-.02606201171875-.22991943359375-.04638671875-.2684326171875-.07257080078125-.49298095703125-.25103759765625-.5997314453125-.5035400390625-.02484130859375-.05865478515625-.02655029296875-.1265869140625-.03851318359375-.1907958984375l-.9716796875.9716796875c.19268798828125.1651611328125.3212890625.40191650390625.3212890625.67559814453125,0,.49725341796875-.403076171875.900390625-.900390625.900390625-.273681640625,0-.5103759765625-.128662109375-.675537109375-.32135009765625l-.9075927734375.9075927734375c.03839111328125.10009765625.06463623046875.20672607421875.06463623046875.3203125,0,.49725341796875-.40313720703125.900390625-.900390625.900390625-.11358642578125,0-.22021484375-.0262451171875-.3203125-.06463623046875l-6.2281494140625,6.2281494140625ZM111.1767578125,49.6890869140625h-29.91796875v22.35693359375h-22.357421875v48.34375h52.275390625V49.6890869140625ZM85.2144775390625,60.70977783203125l1.6689453125-2.3388671875,1.6689453125,2.3388671875h1.5791015625l-2.33837890625-3.3583984375,2.28857421875-3.4375h-1.6591796875l-1.5390625,2.3486328125-1.54931640625-2.3486328125h-1.65869140625l2.28857421875,3.4375-2.32861328125,3.3583984375h1.5791015625ZM95.9722900390625,59.45098876953125h-3.5078125v-5.537109375h-1.359375v6.7958984375h4.8671875v-1.2587890625ZM99.6729736328125,59.62091064453125c-.939453125,0-1.56884765625-.439453125-1.6787109375-1.1494140625h-1.349609375c.10009765625,1.458984375,1.26953125,2.3583984375,2.94873046875,2.3583984375,1.59912109375,0,2.658203125-.83984375,2.658203125-2.12890625,0-1.119140625-.75927734375-1.62890625-2.0888671875-1.8984375l-.79931640625-.16015625c-.64990234375-.1298828125-1.00927734375-.33984375-1.00927734375-.830078125,0-.5595703125.48974609375-.849609375,1.2392578125-.849609375.859375,0,1.25927734375.390625,1.34912109375,1.01953125h1.34912109375c-.15966796875-1.73828125-1.64892578125-2.1884765625-2.79833984375-2.1884765625-1.54931640625,0-2.57861328125.83984375-2.57861328125,2.138671875,0,1.0498046875.58984375,1.7294921875,1.93896484375,1.9892578125l1.099609375.2099609375c.7294921875.1298828125.8994140625.439453125.8994140625.7392578125,0,.48046875-.4296875.75-1.1796875.75ZM104.3443603515625,60.70977783203125l1.6689453125-2.3388671875,1.6689453125,2.3388671875h1.5791015625l-2.33837890625-3.3583984375,2.28857421875-3.4375h-1.6591796875l-1.5390625,2.3486328125-1.54931640625-2.3486328125h-1.65869140625l2.28857421875,3.4375-2.32861328125,3.3583984375h1.5791015625ZM101.6575927734375,92.65557861328125c.49725341796875,0,.900390625-.40313720703125.900390625-.900390625s-.40313720703125-.900390625-.900390625-.900390625c-.497314453125,0-.900390625.40313720703125-.900390625.900390625s.403076171875.900390625.900390625.900390625ZM99.2386474609375,90.8486328125c.497314453125,0,.900390625-.40313720703125.900390625-.900390625s-.403076171875-.900390625-.900390625-.900390625c-.49725341796875,0-.900390625.40313720703125-.900390625.900390625s.40313720703125.900390625.900390625.900390625ZM101.6575927734375,89.04168701171875c.49725341796875,0,.900390625-.40313720703125.900390625-.900390625s-.40313720703125-.900390625-.900390625-.900390625c-.497314453125,0-.900390625.40313720703125-.900390625.900390625s.403076171875.900390625.900390625.900390625ZM96.81976318359375,92.65557861328125c.49725341796875,0,.900390625-.40313720703125.900390625-.900390625s-.40313720703125-.900390625-.900390625-.900390625-.900390625.40313720703125-.900390625.900390625.40313720703125.900390625.900390625.900390625ZM94.40087890625,90.8486328125c.49725341796875,0,.900390625-.40313720703125.900390625-.900390625s-.40313720703125-.900390625-.900390625-.900390625c-.497314453125,0-.900390625.40313720703125-.900390625.900390625s.403076171875.900390625.900390625.900390625ZM96.81976318359375,89.04168701171875c.49725341796875,0,.900390625-.40313720703125.900390625-.900390625s-.40313720703125-.900390625-.900390625-.900390625-.900390625.40313720703125-.900390625.900390625.40313720703125.900390625.900390625.900390625ZM87.1441650390625,92.65557861328125c.49725341796875,0,.900390625-.40313720703125.900390625-.900390625s-.40313720703125-.900390625-.900390625-.900390625-.900390625.40313720703125-.900390625.900390625.40313720703125.900390625.900390625.900390625ZM84.72528076171875,90.8486328125c.49725341796875,0,.900390625-.40313720703125.900390625-.900390625s-.40313720703125-.900390625-.900390625-.900390625c-.497314453125,0-.900390625.40313720703125-.900390625.900390625s.403076171875.900390625.900390625.900390625ZM87.1441650390625,89.04168701171875c.49725341796875,0,.900390625-.40313720703125.900390625-.900390625s-.40313720703125-.900390625-.900390625-.900390625-.900390625.40313720703125-.900390625.900390625.40313720703125.900390625.900390625.900390625ZM82.30633544921875,92.65557861328125c.497314453125,0,.900390625-.40313720703125.900390625-.900390625s-.403076171875-.900390625-.900390625-.900390625c-.49725341796875,0-.90032958984375.40313720703125-.90032958984375.900390625s.403076171875.900390625.90032958984375.900390625ZM82.30633544921875,89.04168701171875c.497314453125,0,.900390625-.40313720703125.900390625-.900390625s-.403076171875-.900390625-.900390625-.900390625c-.49725341796875,0-.90032958984375.40313720703125-.90032958984375.900390625s.403076171875.900390625.90032958984375.900390625ZM75.0496826171875,90.8486328125c.49725341796875,0,.900390625-.40313720703125.900390625-.900390625s-.40313720703125-.900390625-.900390625-.900390625c-.497314453125,0-.900390625.40313720703125-.900390625.900390625s.403076171875.900390625.900390625.900390625ZM72.6307373046875,92.65557861328125c.497314453125,0,.900390625-.40313720703125.900390625-.900390625s-.403076171875-.900390625-.900390625-.900390625c-.49725341796875,0-.900390625.40313720703125-.900390625.900390625s.40313720703125.900390625.900390625.900390625ZM70.21185302734375,90.8486328125c.497314453125,0,.900390625-.40313720703125.900390625-.900390625s-.403076171875-.900390625-.900390625-.900390625c-.49725341796875,0-.900390625.40313720703125-.900390625.900390625s.40313720703125.900390625.900390625.900390625ZM72.6307373046875,89.04168701171875c.497314453125,0,.900390625-.40313720703125.900390625-.900390625s-.403076171875-.900390625-.900390625-.900390625c-.49725341796875,0-.900390625.40313720703125-.900390625.900390625s.40313720703125.900390625.900390625.900390625ZM64.40673828125,82.6617431640625h41.26708984375v34.18115234375h-41.26708984375v-34.18115234375ZM92.91796875,93.0557861328125h.75836181640625c.162841796875-.23236083984375.4193115234375-.39404296875.72454833984375-.39404296875s.56170654296875.16168212890625.72454833984375.39404296875h3.388671875c.162841796875-.23236083984375.4193115234375-.39404296875.72454833984375-.39404296875s.56170654296875.16168212890625.72454833984375.39404296875h2.71063232421875v-7.39404296875h-2.8516845703125c.19036865234375.16510009765625.31689453125.40081787109375.31689453125.672607421875,0,.49725341796875-.403076171875.900390625-.900390625.900390625-.49725341796875,0-.900390625-.40313720703125-.900390625-.900390625,0-.27178955078125.1265869140625-.50750732421875.31695556640625-.672607421875h-3.6708984375c.19036865234375.16510009765625.31695556640625.40081787109375.31695556640625.672607421875,0,.49725341796875-.40313720703125.900390625-.900390625.900390625-.497314453125,0-.900390625-.40313720703125-.900390625-.900390625,0-.27178955078125.1265869140625-.50750732421875.31695556640625-.672607421875h-.89947509765625v7.39404296875ZM92.91796875,103.4493408203125h9.755859375v-7.3935546875h-9.755859375v7.3935546875ZM92.91796875,113.8428955078125h9.755859375v-7.3935546875h-9.755859375v7.3935546875ZM80.16259765625,92.71728515625c.187255859375.06109619140625.338623046875.180419921875.44940185546875.3385009765625h3.38873291015625c.162841796875-.23236083984375.4193115234375-.39404296875.72454833984375-.39404296875s.56170654296875.16168212890625.72454833984375.39404296875h3.388671875c.162841796875-.23236083984375.4193115234375-.39404296875.72454833984375-.39404296875.12628173828125,0,.245849609375.02679443359375.35491943359375.07373046875v-1.9605712890625c-.10906982421875.04693603515625-.2286376953125.07373046875-.35491943359375.07373046875-.49725341796875,0-.900390625-.40313720703125-.900390625-.900390625s.40313720703125-.900390625.900390625-.900390625c.12628173828125,0,.245849609375.02679443359375.35491943359375.07373046875v-1.9605712890625c-.10906982421875.04693603515625-.2286376953125.07373046875-.35491943359375.07373046875-.49725341796875,0-.900390625-.40313720703125-.900390625-.900390625,0-.27178955078125.1265869140625-.50750732421875.31695556640625-.672607421875h-3.6708984375c.19036865234375.16510009765625.31695556640625.40081787109375.31695556640625.672607421875,0,.49725341796875-.40313720703125.900390625-.900390625.900390625-.497314453125,0-.900390625-.40313720703125-.900390625-.900390625,0-.27178955078125.1265869140625-.50750732421875.31695556640625-.672607421875h-3.6708984375c.19036865234375.16510009765625.31689453125.40081787109375.31689453125.672607421875,0,.399658203125-.26483154296875.72723388671875-.625244140625.8448486328125v1.9241943359375c.36041259765625.11761474609375.625244140625.4451904296875.625244140625.8448486328125s-.26483154296875.72723388671875-.625244140625.8448486328125v1.9241943359375ZM80.16259765625,103.4493408203125h9.75537109375v-7.3935546875h-9.75537109375v7.3935546875ZM80.16259765625,113.8428955078125h9.75537109375v-7.3935546875h-9.75537109375v7.3935546875ZM67.40673828125,93.0557861328125h2.08056640625c.162841796875-.23236083984375.4193115234375-.39404296875.72454833984375-.39404296875s.56170654296875.16168212890625.72454833984375.39404296875h3.38873291015625c.162841796875-.23236083984375.4193115234375-.39404296875.72454833984375-.39404296875s.56170654296875.16168212890625.72454833984375.39404296875h1.38836669921875v-.46197509765625c-.3450927734375-.12603759765625-.59442138671875-.44989013671875-.59442138671875-.838623046875s.24932861328125-.71258544921875.59442138671875-.838623046875v-1.9366455078125c-.3450927734375-.12603759765625-.59442138671875-.44989013671875-.59442138671875-.838623046875s.24932861328125-.71258544921875.59442138671875-.838623046875v-1.64093017578125h-1.52947998046875c.19036865234375.16510009765625.31695556640625.40081787109375.31695556640625.672607421875,0,.49725341796875-.40313720703125.900390625-.900390625.900390625-.497314453125,0-.900390625-.40313720703125-.900390625-.900390625,0-.27178955078125.1265869140625-.50750732421875.31695556640625-.672607421875h-3.6708984375c.19036865234375.16510009765625.31689453125.40081787109375.31689453125.672607421875,0,.49725341796875-.403076171875.900390625-.900390625.900390625-.49725341796875,0-.900390625-.40313720703125-.900390625-.900390625,0-.27178955078125.1265869140625-.50750732421875.31695556640625-.672607421875h-2.2216796875v1.67401123046875c.11810302734375-.056884765625.24639892578125-.0948486328125.38623046875-.0948486328125.49725341796875,0,.900390625.40313720703125.900390625.900390625s-.40313720703125.900390625-.900390625.900390625c-.13983154296875,0-.26812744140625-.0379638671875-.38623046875-.0948486328125v2.0028076171875c.11810302734375-.056884765625.24639892578125-.0948486328125.38623046875-.0948486328125.49725341796875,0,.900390625.40313720703125.900390625.900390625s-.40313720703125.900390625-.900390625.900390625c-.13983154296875,0-.26812744140625-.0379638671875-.38623046875-.0948486328125v.49505615234375ZM67.40673828125,103.4493408203125h9.755859375v-7.3935546875h-9.755859375v7.3935546875ZM67.40673828125,113.8428955078125h9.755859375v-7.3935546875h-9.755859375v7.3935546875ZM72.40924072265625,62.88250732421875c.49725341796875,0,.900390625-.40313720703125.900390625-.900390625,0-.497314453125-.40313720703125-.900390625-.900390625-.900390625-.497314453125,0-.900390625.403076171875-.900390625.900390625,0,.49725341796875.403076171875.900390625.900390625.900390625Z"/></svg>